<svg xmlns="http://www.w3.org/2000/svg" width="257" height="257" viewBox="0 0 257 257" fill="none"><path fill-rule="evenodd" clip-rule="evenodd" d="M192.851 239.517C238.619 213.093 261.895 162.673 255.962 113.324L210.517 139.562C207.237 164.01 193.059 186.726 170.044 200.014C130.64 222.764 80.2535 209.263 57.5034 169.858C34.7532 130.454 48.2544 80.0678 87.6585 57.3178C118.724 39.3824 156.614 43.978 182.408 66.0344L112.299 106.512L101.076 166.2L207.679 104.653L237.725 87.3059L247.847 81.4618C245.575 75.7554 242.864 70.1421 239.703 64.6657C204.356 3.4442 126.073 -17.5319 64.8513 17.8145C3.62955 53.1608 -17.3462 131.444 18 192.666C53.3463 253.887 131.63 274.863 192.851 239.517Z" fill="url(#paint0_linear_5605_125)"></path><defs><linearGradient id="paint0_linear_5605_125" x1="26.0001" y1="185" x2="232.136" y2="48.1665" gradientUnits="userSpaceOnUse"><stop stop-color="#FF9C8D"></stop><stop offset="0.505208" stop-color="#D655A5"></stop><stop offset="1" stop-color="#6053CB"></stop></linearGradient></defs></svg>