<svg xmlns="http://www.w3.org/2000/svg" class="" width="40" height="40" viewBox="0 0 40 40"><path d="M20 5.858L25.856 0L28.2145 2.3585L22.357 8.2145L29.4285 15.2865L27.072 17.643L11.7835 2.357L14.142 0L20 5.858ZM34.142 20L40 25.856L37.6415 28.2145L31.7835 22.357L24.7135 29.4285L22.357 27.072L37.643 11.7855L40 14.142L34.142 20ZM20.0015 34.142L14.1455 40L11.787 37.6415L17.645 31.7835L10.573 24.7135L12.9295 22.357L28.2165 37.643L25.8595 40L20.0015 34.142ZM5.858 20L0 14.142L2.3585 11.7835L8.2165 17.643L15.2865 10.57L17.643 12.9265L2.357 28.2145L0 25.858L5.858 20Z"></path></svg>