<svg xmlns="http://www.w3.org/2000/svg" width="149" height="149" viewBox="0 0 149 149" fill="none"><circle cx="74.5" cy="74.5" r="74.5" fill="white"></circle><path d="M74 49C60.2149 49 49 61.2348 49 76.2727V88.7726C49 89.4002 49.5088 89.909 50.1364 89.909H53.5455V94.4545C53.5455 96.9614 55.584 99 58.091 99H61.5001C61.6493 99.0001 61.7971 98.9708 61.9351 98.9137C62.073 98.8566 62.1983 98.7729 62.3038 98.6674C62.4094 98.5618 62.4931 98.4365 62.5501 98.2986C62.6072 98.1607 62.6365 98.0129 62.6365 97.8636V77.4091C62.6365 77.2598 62.6072 77.112 62.5501 76.9741C62.4931 76.8362 62.4094 76.7109 62.3038 76.6053C62.1983 76.4998 62.073 76.4161 61.9351 76.359C61.7971 76.3019 61.6493 76.2726 61.5001 76.2727H58.091C55.5841 76.2727 53.5455 78.3112 53.5455 80.8182V76.2727C53.5455 63.7406 62.7218 53.5455 74 53.5455C85.2782 53.5455 94.4545 63.7406 94.4545 76.2727V80.8182C94.4545 78.3112 92.4159 76.2727 89.909 76.2727H86.4999C86.3507 76.2726 86.2029 76.3019 86.0649 76.359C85.927 76.4161 85.8017 76.4998 85.6962 76.6053C85.5906 76.7109 85.5069 76.8362 85.4499 76.9741C85.3928 77.112 85.3635 77.2598 85.3635 77.4091V97.8636C85.3635 98.0129 85.3928 98.1607 85.4499 98.2986C85.5069 98.4365 85.5906 98.5618 85.6962 98.6674C85.8017 98.7729 85.927 98.8566 86.0649 98.9137C86.2029 98.9708 86.3507 99.0001 86.4999 99H89.909C92.4159 99 94.4545 96.9615 94.4545 94.4545V89.909H97.8636C98.4912 89.909 99 89.4002 99 88.7726V76.2727C98.9999 61.2348 87.7851 49 74 49Z" fill="black"></path></svg>