<svg xmlns="http://www.w3.org/2000/svg" width="76" height="29" viewBox="0 0 76 29" fill="none"><path d="M22.4516 28.2407C20.81 28.0603 19.2489 27.4404 17.936 26.4475C17.7127 26.2866 17.5908 26.2262 17.5908 26.1602C17.6111 26.0596 19.3397 23.742 19.4006 23.7176C19.4615 23.6932 19.5224 23.7578 19.666 23.8383C20.3796 24.2798 21.153 24.6185 21.963 24.844C22.7429 25.0016 23.5483 24.9878 24.3223 24.8038C24.8359 24.6492 25.3102 24.3877 25.7136 24.0369C26.117 23.686 26.4401 23.2538 26.6613 22.7693C26.9766 22.0254 27.169 21.2361 27.2312 20.4316C27.2515 20.0882 27.2515 20.0279 27.1906 20.0279C27.1297 20.0279 27.1094 20.0681 27.0688 20.0882C26.8441 20.3511 26.1321 20.7534 25.4824 20.9503C24.8959 21.1678 24.2704 21.2627 23.6451 21.229C22.016 21.174 20.4571 20.5586 19.2361 19.4886C18.0152 18.4186 17.2083 16.9607 16.9542 15.3654C16.9136 15.1025 16.8933 14.1757 16.8933 11.2935V7.56643L18.7292 7.54056L20.5607 7.52045C20.5607 7.52045 20.6216 9.29347 20.6419 11.2475C20.6825 14.512 20.6825 14.8151 20.7637 15.1168C20.9125 15.7281 21.2348 16.2844 21.6925 16.72C22.1501 17.1556 22.724 17.4524 23.3464 17.5752C23.8606 17.6566 24.386 17.6361 24.8922 17.5149C25.4102 17.3603 25.8826 17.0834 26.2688 16.708C26.655 16.3326 26.9435 15.8699 27.1094 15.3597L27.2544 14.976L27.2704 11.2763L27.2907 7.5693L29.1425 7.54056C30.5926 7.54056 30.9929 7.52045 31.0132 7.56068C31.0552 7.64114 31.0755 16.2462 31.0132 17.8583C30.9942 18.9725 30.9128 20.0849 30.7695 21.1902C30.4041 23.6486 29.6921 25.2406 28.4305 26.449C27.5155 27.311 26.3365 27.8599 24.7501 28.1415C23.9878 28.235 23.2192 28.2681 22.4516 28.2407ZM37.7664 21.2894C37.7258 21.2693 37.4604 21.229 37.2168 21.1687C36.0688 20.9201 34.9557 20.5341 33.9018 20.0192C33.3725 19.7577 32.5793 19.2534 32.559 19.173C32.5387 19.1327 34.2063 16.956 34.3499 16.795C34.4108 16.7347 34.3702 16.795 34.7356 16.9976C35.5577 17.4451 36.4415 17.7709 37.3589 17.9646C37.9694 18.0853 39.2513 18.1083 39.7182 17.9847C40.3693 17.8037 40.7333 17.5005 40.7333 17.1226C40.7333 16.6585 40.3476 16.4574 38.2318 15.8525C37.398 15.6111 36.4627 15.3281 36.1582 15.2074C34.2861 14.522 33.3101 13.6556 32.9679 12.4473C32.8867 12.1858 32.8867 12.0162 32.8867 11.5852C32.8867 10.4975 33.2115 9.73169 34.0048 8.92564C34.8386 8.07937 35.916 7.57505 37.3603 7.39401C38.8859 7.19142 41.0219 7.53769 42.5271 8.24029C42.9295 8.42093 43.3112 8.64396 43.6655 8.90553L43.7873 9.00611L42.8925 10.1556C42.4038 10.7806 41.9775 11.305 41.9572 11.305C41.7708 11.254 41.5874 11.1931 41.4076 11.1225C40.5149 10.7871 39.5753 10.5903 38.6219 10.5392C37.4618 10.499 36.7716 10.7001 36.5468 11.1628C36.3641 11.5464 36.5468 11.828 37.1979 12.111C37.4009 12.1915 38.2348 12.453 39.0483 12.6944C41.2452 13.3194 42.0181 13.6211 42.8186 14.1456C44.3441 15.1513 44.7907 16.7045 44.1005 18.4775C43.9374 18.9653 43.6496 19.4029 43.2652 19.7477C42.4734 20.4934 41.5976 20.9359 40.3983 21.1989C39.9633 21.2994 39.8081 21.3195 38.9134 21.3598C38.3348 21.3497 38.1724 21.3698 37.7664 21.2894ZM7.15723 21.229C6.13856 21.1255 5.15525 20.8016 4.27676 20.2802C3.39826 19.7588 2.64601 19.0527 2.07311 18.2117C1.19297 16.9109 0.777912 15.3554 0.894165 13.7935C0.996883 12.3448 1.55595 10.9645 2.49256 9.84724C3.42916 8.73003 4.69604 7.93226 6.1146 7.56643C6.92811 7.36527 7.12968 7.34516 9.22655 7.32504L11.219 7.30493L11.2393 3.91837L11.2654 0.533252L13.0969 0.513137C14.5398 0.513137 14.9444 0.472906 14.9676 0.533252C14.9676 0.553367 14.9879 2.16547 15.0082 4.06061C15.0488 8.19144 14.9879 14.8008 14.8632 15.3855C14.7012 16.3 14.3698 17.1768 13.8858 17.9718C13.2965 18.882 12.5123 19.6526 11.5888 20.229C10.963 20.5845 10.2939 20.8592 9.59778 21.0466C8.96698 21.229 7.82864 21.2894 7.15723 21.229ZM8.56385 17.5206C9.12344 17.4003 9.6431 17.1413 10.0742 16.7679C10.5054 16.3946 10.8339 15.9189 11.0291 15.3855C11.2118 14.8611 11.2321 14.6197 11.2118 12.7648L11.1842 11.032H9.28891C7.17318 11.032 7.11373 11.032 6.52208 11.3194C6.07684 11.5207 5.68112 11.8155 5.36236 12.1834C5.0436 12.5514 4.80942 12.9836 4.67608 13.4502C4.59206 13.7241 4.5577 14.0106 4.57457 14.2964C4.54411 14.8247 4.67066 15.3502 4.93855 15.808C5.12126 16.1916 5.20247 16.272 5.5679 16.6542C5.92086 17.0245 6.36295 17.2999 6.85271 17.4545C7.4102 17.6077 7.99601 17.6303 8.56385 17.5206ZM51.7615 21.229C50.8745 21.14 50.0123 20.887 49.2194 20.4833C48.2217 19.9734 47.3604 19.2361 46.7062 18.3322C46.0521 17.4282 45.6237 16.3834 45.4563 15.2835C45.3751 14.6077 45.3751 13.9248 45.4563 13.249C45.7464 11.6369 46.412 10.3668 47.5112 9.31933C48.5746 8.2802 49.9524 7.61502 51.4337 7.42562C53.2047 7.17537 55.0054 7.6026 56.4698 8.62048C57.9343 9.63836 58.9527 11.1705 59.318 12.9056C59.4506 13.6847 59.4711 14.4786 59.379 15.2634C59.2369 16.2755 58.872 17.2442 58.3102 18.1011C57.7484 18.9579 57.0033 19.6819 56.1278 20.2218C55.328 20.6969 54.4449 21.0182 53.5248 21.1687C52.9398 21.2499 52.3478 21.2701 51.7586 21.229H51.7615ZM53.3479 17.4804C53.9239 17.3097 54.4435 16.9898 54.8531 16.5537C55.1611 16.2278 55.3986 15.8429 55.5507 15.4226C55.7029 15.0024 55.7666 14.5558 55.738 14.1102C55.7093 13.6646 55.5889 13.2296 55.3841 12.8319C55.1793 12.4342 54.8944 12.0823 54.5472 11.7978C54.1337 11.4888 53.6632 11.2628 53.1623 11.1326C52.6379 11.0286 52.0973 11.0354 51.5759 11.1527C51.13 11.269 50.7134 11.4759 50.3527 11.7604C49.9919 12.0449 49.6949 12.4006 49.4804 12.805C49.1904 13.3295 49.115 13.6312 49.115 14.3165C49.0944 14.6223 49.1287 14.9293 49.2165 15.2232C49.4359 15.99 49.9264 16.653 50.5985 17.091C50.9858 17.331 51.4129 17.5012 51.8601 17.5939C52.0697 17.6162 52.2812 17.6162 52.4909 17.5939C52.7785 17.5824 53.0645 17.5444 53.345 17.4804H53.3479ZM60.9741 21.0078C60.9741 20.8641 60.9335 14.2548 60.9741 13.7533C61.0679 12.5647 61.4711 11.4205 62.1444 10.4324C62.8176 9.44426 63.7379 8.64592 64.8154 8.11529C65.7882 7.62647 66.8624 7.36838 67.9531 7.3614C69.0438 7.35442 70.1212 7.59873 71.1003 8.07506C72.0104 8.51044 72.8166 9.13281 73.4651 9.90078C74.1137 10.6688 74.5898 11.5647 74.8619 12.5292C75.0866 13.3352 75.0866 13.3151 75.1069 17.2246C75.1069 19.3597 75.1476 20.9115 75.1069 20.9115H71.3236C71.3033 20.9115 71.3033 19.5623 71.3033 17.4258C71.3033 13.6571 71.3033 13.6973 71.08 13.0938C70.8822 12.6198 70.5779 12.1967 70.1901 11.8568C69.8023 11.517 69.3414 11.2693 68.8424 11.1326C68.2932 11.0119 67.724 11.0119 67.1748 11.1326C65.9741 11.4357 65.12 12.282 64.7545 13.5105C64.6936 13.7117 64.6936 14.1355 64.6733 17.3396L64.653 21.0078C64.653 21.0078 63.6554 21.0279 62.72 21.0279C61.1133 21.0078 61.9283 21.0078 60.9712 21.0078H60.9741Z" fill="#0A0A0A"></path></svg>