<svg xmlns="http://www.w3.org/2000/svg" width="40" height="25" viewBox="0 0 40 25" fill="none"><path d="M19.887 18.216C18.7702 18.216 17.6785 17.8849 16.75 17.2644C15.8214 16.644 15.0977 15.7621 14.6703 14.7304C14.2429 13.6986 14.1311 12.5633 14.349 11.468C14.5669 10.3727 15.1046 9.36659 15.8943 8.57692C16.684 7.78725 17.6901 7.24947 18.7854 7.0316C19.8807 6.81373 21.016 6.92555 22.0478 7.35292C23.0795 7.78028 23.9614 8.50401 24.5818 9.43256C25.2023 10.3611 25.5334 11.4528 25.5334 12.5696C25.5314 14.0665 24.9358 15.5015 23.8773 16.5599C22.8189 17.6184 21.3839 18.214 19.887 18.216ZM19.887 8.33049C19.0494 8.33049 18.2306 8.57886 17.5342 9.04419C16.8378 9.50952 16.295 10.1709 15.9745 10.9447C15.6539 11.7185 15.5701 12.57 15.7335 13.3915C15.8969 14.213 16.3002 14.9676 16.8925 15.5598C17.4847 16.1521 18.2393 16.5554 19.0608 16.7188C19.8823 16.8822 20.7337 16.7983 21.5076 16.4778C22.2814 16.1573 22.9428 15.6145 23.4081 14.9181C23.8734 14.2217 24.1218 13.4029 24.1218 12.5653C24.1199 11.4427 23.6732 10.3667 22.8794 9.5729C22.0856 8.77912 21.0095 8.33235 19.887 8.33049ZM34.9715 24.8781L33.9735 23.8801C36.9292 20.9172 38.5891 16.9029 38.5891 12.7178C38.5891 8.53265 36.9292 4.51837 33.9735 1.55544L34.9708 0.558846C38.1913 3.7864 40 8.1597 40 12.7192C40 17.2787 38.1913 21.652 34.9708 24.8795L34.9715 24.8781Z" fill="black"></path><path d="M31.9012 21.8086L30.9032 20.8106C33.0463 18.6625 34.2499 15.7521 34.2499 12.7178C34.2499 9.68347 33.0463 6.77304 30.9032 4.625L31.9012 3.62699C34.3091 6.03966 35.6615 9.3091 35.6615 12.7178C35.6615 16.1265 34.3091 19.3959 31.9012 21.8086Z" fill="black"></path><path d="M28.8309 18.739L27.8329 17.741C29.1634 16.4078 29.9107 14.6013 29.9107 12.7178C29.9107 10.8343 29.1634 9.02772 27.8329 7.69455L28.8309 6.69937C29.622 7.48991 30.2495 8.42858 30.6776 9.46173C31.1057 10.4949 31.3261 11.6023 31.3261 12.7206C31.3261 13.8389 31.1057 14.9463 30.6776 15.9795C30.2495 17.0126 29.622 17.9513 28.8309 18.7418V18.739ZM5.02901 24.8788C1.8086 21.6511 0 17.2777 0 12.7181C0 8.15858 1.8086 3.7852 5.02901 0.557434L6.02702 1.55544C3.0709 4.51831 1.41073 8.53278 1.41073 12.7181C1.41073 16.9035 3.0709 20.918 6.02702 23.8808L5.02901 24.8788Z" fill="black"></path><path d="M8.09857 21.8086C5.69064 19.3959 4.33827 16.1265 4.33827 12.7178C4.33827 9.3091 5.69064 6.03966 8.09857 3.62699L9.09658 4.625C6.95346 6.77304 5.74987 9.68347 5.74987 12.7178C5.74987 15.7521 6.95346 18.6625 9.09658 20.8106L8.09857 21.8086Z" fill="black"></path><path d="M11.1688 18.739C9.5742 17.1409 8.67864 14.9754 8.67864 12.7178C8.67864 10.4601 9.5742 8.2947 11.1688 6.69654L12.1668 7.69455C10.8363 9.02772 10.0891 10.8343 10.0891 12.7178C10.0891 14.6013 10.8363 16.4078 12.1668 17.741L11.1688 18.739Z" fill="black"></path></svg>