<svg xmlns="http://www.w3.org/2000/svg" width="121" height="19" viewBox="0 0 121 19" fill="none"><path d="M26.5883 0.713938H19.3203L16.4398 17.6096H20.8977L22.7141 4.45663H23.1617L25.0109 17.6096H29.4688L26.5883 0.713938Z" fill="#0A0A0A"></path><path d="M47.6398 17.6096L47.4359 4.88304H47.0234L44.9328 17.6096H40.5781L38.4852 4.88304H38.075L37.8687 17.6096H33.7203L34.3719 0.713938H41.3328L42.5656 10.0512H42.943L44.143 0.713938H51.1039L51.7883 17.6096H47.6398Z" fill="#0A0A0A"></path><path d="M73.1844 13.9011L73.1492 0.713938H77.7102V13.7939L77.743 13.867V14.0789L77.7781 14.1155L77.8109 14.1862V14.2568L77.8461 14.3299L77.8812 14.364L77.9141 14.4371L77.9492 14.4712L77.9844 14.5419L78.0172 14.5785L78.0523 14.615L78.0875 14.6857L78.1555 14.7222L78.1883 14.7563L78.2586 14.7929L78.2914 14.827L78.3617 14.8635L78.3945 14.9001L78.4648 14.9342L78.5328 14.9708H78.5656L78.6359 15.0073H78.7719L78.8398 15.0414H79.0812L79.1492 15.0073H79.2875L79.3555 14.9708H79.4234L79.4586 14.9342L79.5266 14.9001L79.5945 14.8635L79.6297 14.827L79.6977 14.7929L79.7656 14.7222L79.8359 14.6857L79.8688 14.615L79.9039 14.5785L79.9367 14.5419L79.9719 14.4712L80.007 14.4371L80.0398 14.364L80.075 14.3299L80.1102 14.2568L80.143 14.1862V14.1155L80.1781 14.0789V13.9376L80.2109 13.867V0.713938H84.7719V14.2568L84.7367 14.5078L84.7039 14.7929L84.6359 15.0414L84.5656 15.2924L84.4977 15.5409L84.3945 15.7554L84.2586 15.9698L84.1555 16.1818L84.0172 16.3962L83.8461 16.5741L83.7102 16.7519L83.5367 16.9323L83.3328 17.1101L83.1617 17.2515L82.9555 17.3952L82.7492 17.5366L82.543 17.6803L82.3039 17.7875L82.0625 17.9289L81.8234 17.9995L81.5844 18.1067L81.343 18.1798L81.1039 18.2846L80.8297 18.3212L80.5883 18.3918L80.0398 18.499L79.4914 18.5356H78.4297L77.8812 18.4649L77.3656 18.3918L76.8172 18.2505L76.5781 18.1798L76.3391 18.1067L76.0977 17.9995L75.8586 17.8947L75.6172 17.7875L75.4109 17.6438L75.1719 17.5366L74.9656 17.3952L74.7617 17.2174L74.5883 17.0736L74.075 16.54L73.9391 16.3255L73.8008 16.1477L73.6625 15.9332L73.5617 15.6847L73.4586 15.4703L73.3555 15.2193L73.2852 14.9708L73.2523 14.7222L73.1844 14.4371V13.9011Z" fill="#0A0A0A"></path><path d="M104.143 0.713938H100.201V11.2987H100.098L95.5039 0.713938H90.6359V17.6096H94.5781V7.73392H94.6812L99.0008 17.6096H104.143V0.713938Z" fill="#0A0A0A"></path><path d="M56.6234 12.0468H61.1844L61.1492 13.0458V13.616L61.1844 13.7232V13.8304L61.2172 13.9376L61.2523 14.0083V14.0448L61.2852 14.1155L61.3203 14.152V14.1862L61.3555 14.2227V14.2568L61.3883 14.2934L61.4234 14.3299L61.4586 14.364L61.4914 14.4006L61.5266 14.4371L61.5617 14.4712L61.5945 14.5078L61.6297 14.5419L61.6648 14.5785H61.6977L61.7328 14.615L61.8008 14.6491H61.8359L61.8687 14.6857L61.9391 14.7222H62.007L62.1102 14.7563L62.2461 14.7929H62.7945L62.8297 14.7563L62.8977 14.7222L62.9656 14.6857L63.0359 14.6491L63.1039 14.615L63.1719 14.5785L63.2398 14.5078L63.3102 14.4712L63.343 14.4006L63.4109 14.3299L63.4461 14.2568L63.5141 14.1862L63.5492 14.1155L63.5844 14.0083L63.6172 13.9376L63.6523 13.8304L63.6875 13.7597V13.0824L63.6172 12.8679L63.5844 12.7242L63.5141 12.5828L63.4461 12.4756L63.4109 12.405L63.3781 12.3343L63.343 12.2612L63.3102 12.2271L63.275 12.154L63.2398 12.1199L63.1367 12.0127L63.0359 11.9055L62.9328 11.7982L62.7945 11.7276L62.6914 11.6204L62.4172 11.4766L62.143 11.2987L61.4914 10.9795L60.7719 10.6213L59.9844 10.1949L59.5367 9.94396L59.1266 9.65887L58.7141 9.33967L58.2688 8.94737L58.1328 8.87427L58.0977 8.80361L58.0297 8.73294L57.9617 8.69639L57.9266 8.62573L57.7883 8.48441L57.7203 8.37719L57.6172 8.19932L57.5141 8.05556L57.4461 7.91423L57.3781 7.73392L57.3102 7.55604L57.2398 7.37817L57.207 7.20029L57.1039 6.80799L57.0359 6.41569L56.9656 5.98928L56.9328 5.59698L56.8977 5.20468V4.42008L56.9328 4.06433L56.9656 3.70614L57.0008 3.42105L57.0687 3.17251L57.1039 2.95809L57.1719 2.74366L57.275 2.53168L57.3781 2.35136L57.4813 2.13938L57.5844 1.9615L57.7203 1.78119L57.8586 1.63986L57.9945 1.4961L58.1656 1.31823L58.3391 1.21101L58.5102 1.06969L58.6813 0.962476L58.8523 0.818713L59.0586 0.713938L59.2648 0.640838L59.4688 0.533626L59.675 0.462963L59.9141 0.3923L60.3617 0.248538L60.807 0.141326L61.2852 0.0706628L61.7656 0.0365497H62.7617L63.2398 0.0706628L63.7203 0.141326L64.6812 0.355751L65.0914 0.499513L65.5367 0.640838L65.9141 0.818713L66.1203 0.925926L66.2914 1.03314L66.4648 1.14035L66.6359 1.28411L66.807 1.39133L66.943 1.53265L67.0813 1.63986L67.3555 1.92495L67.4586 2.06628L67.5617 2.24659L67.5945 2.31725L67.6297 2.38791L67.6977 2.45858L67.7328 2.56579L67.7656 2.63645V2.70955L67.8008 2.81676L67.8359 2.88743V2.95809L67.8688 3.0653V3.13597L67.9039 3.24318V5.77485H63.7555L63.7883 4.77583V4.5614L63.7555 4.34942V4.1691L63.7203 4.06433L63.6875 3.99123V3.92057L63.6523 3.88645V3.81335L63.6172 3.77924L63.5844 3.74269V3.70614H63.5492L63.5141 3.67203V3.63548L63.4109 3.52827H63.3781L63.343 3.49415L63.3102 3.4576H63.2398L63.207 3.42105L63.1719 3.38694H63.1367L63.0687 3.35039H63.0359L62.8977 3.31384L62.7945 3.27973H62.2109L62.143 3.31384H62.075L61.9391 3.38694L61.9039 3.42105H61.8359L61.7656 3.49415L61.6977 3.52827L61.6648 3.56482L61.5945 3.60136L61.5617 3.67203L61.4914 3.74269L61.4586 3.77924L61.4234 3.81335L61.3883 3.8499V3.88645L61.3555 3.92057V3.95712L61.3203 3.99123V4.02778L61.2852 4.06433V4.1691L61.2523 4.20565V4.38353L61.2172 4.42008V4.52729L61.2523 4.59795V4.74172L61.2852 4.84649L61.3203 4.99025L61.3555 5.09747L61.3883 5.20468L61.4586 5.346L61.5617 5.48977L61.8359 5.77485L61.9391 5.91618L62.2109 6.16715L62.4875 6.37914L62.7617 6.59357L63.0687 6.77144L63.3781 6.95176L63.6523 7.09308L64.8523 7.66326L65.4688 7.94834L65.743 8.0921L66.0172 8.26998L66.2914 8.41131L66.5328 8.59162L66.6687 8.69639L66.807 8.80361L67.0133 9.01803L67.1141 9.12524L67.2523 9.26657L67.3203 9.41033L67.4234 9.51754L67.5266 9.65887L67.6297 9.83918L67.6977 9.98051L67.7656 10.1584L67.8359 10.3363L67.9039 10.5141L67.9719 10.6944L68.0398 10.9064L68.1102 11.3353L68.1781 11.5497V11.7982L68.2461 12.2978V12.8679L68.2133 13.4747L68.1781 14.152L68.143 14.4006L68.1102 14.615L68.0398 14.8635L67.9719 15.078L67.8688 15.2924L67.7656 15.5044L67.6625 15.7188L67.5266 15.8967L67.3883 16.0746L67.2523 16.2549L66.9102 16.6106L66.7367 16.7519L66.5656 16.8957L66.3617 17.037L65.9492 17.2515L65.743 17.3952L65.5039 17.4659L65.2977 17.5731L65.0586 17.6803L64.8172 17.751L64.3039 17.8947L62.7617 18.1067H62.2461L61.6977 18.0726L61.1844 18.0361L60.6687 17.9654L60.1883 17.8582L59.7102 17.7144L59.2297 17.5366L59.0234 17.4293L58.7844 17.3221L58.5781 17.2174L58.407 17.1101L58.2008 17.0029L58.0297 16.8592L57.8586 16.7178L57.6875 16.5741L57.5141 16.4328L57.3781 16.2549L57.2398 16.1111L57.1391 15.9332L57.0008 15.7554L56.9656 15.6481L56.8977 15.5409L56.8625 15.4703L56.8297 15.3631L56.7945 15.2558L56.7617 15.1486L56.6914 14.9342V14.827L56.6586 14.7222V14.615L56.6234 14.5078V12.0468Z" fill="#0A0A0A"></path><path d="M6.4625 0L5.77812 0.0706628L5.12656 0.141326L4.81719 0.214425L3.99453 0.426413L3.75547 0.533626L3.51406 0.640838L3.275 0.748051L2.8625 0.962476L2.69141 1.10624L2.52031 1.24756L2.34922 1.39133L2.21328 1.53265L2.03984 1.67641L1.93906 1.85429L1.80078 1.99561L1.59453 2.35136L1.49141 2.53168L1.42344 2.70955L1.32031 2.88743L1.25234 3.0653L1.21719 3.24318L1.14922 3.4576L1.11406 3.63548L1.08125 3.81335L1.04609 4.02778V4.20565L1.01094 4.59795V4.99025L1.08125 5.77485L1.14922 6.1306L1.25234 6.48636L1.35547 6.84454L1.45859 7.16374L1.56172 7.48538L1.69766 7.77047L1.83594 8.05556L1.97187 8.30409L2.11016 8.51852L2.17813 8.62573L2.24609 8.69639L2.31406 8.76949L2.38437 8.84016L2.4875 8.94737H2.52031L2.96563 9.33967L3.37813 9.65887L3.82344 9.94396L4.23594 10.1949L5.02344 10.6213L5.74297 10.9795L6.39453 11.2987L6.66875 11.4766L6.94297 11.6204L7.08125 11.7276L7.18437 11.7982L7.2875 11.9055L7.38828 12.0127L7.49141 12.1199L7.52656 12.154L7.56172 12.2271L7.59453 12.2612L7.62969 12.3343L7.6625 12.405L7.69766 12.4756L7.76562 12.5828L7.83594 12.7242L7.86875 12.8679L7.93906 13.0824V13.2237L7.97188 13.3309V13.5453L7.93906 13.6525V13.7597L7.90391 13.8304L7.86875 13.9376L7.83594 14.0083L7.80078 14.1155L7.76562 14.1862L7.73281 14.2568L7.59453 14.4006L7.56172 14.4712L7.49141 14.5078L7.42344 14.5785L7.35547 14.615L7.32031 14.6491L7.18437 14.7222L7.11406 14.7563L7.04609 14.7929H6.49766L6.36172 14.7563L6.25859 14.7222H6.18828L6.15547 14.6857L6.08516 14.6491H6.05234L5.98438 14.615L5.94922 14.5785H5.91406L5.88125 14.5419L5.84609 14.5078L5.81328 14.4712L5.77812 14.4371L5.74297 14.4006L5.71016 14.364L5.675 14.3299L5.63984 14.2934V14.2568L5.57188 14.1862V14.152L5.53672 14.1155V14.0448L5.50391 14.0083L5.46875 13.9376V13.8304L5.43594 13.7232V13.616L5.40078 13.5088V13.0458L5.43594 12.0468H0.875V14.5078L0.910156 14.615V14.7222L0.942969 14.827V14.9342L0.978125 15.0414L1.01094 15.1486L1.08125 15.3631L1.11406 15.4703L1.18438 15.5409L1.21719 15.6481L1.25234 15.7554L1.38828 15.9332L1.49141 16.1111L1.62969 16.2549L1.76562 16.4328L1.93906 16.5741L2.11016 16.7178L2.28125 16.8592L2.45234 17.0029L2.65859 17.1101L2.8625 17.2174L3.06875 17.3221L3.48125 17.5366L3.96172 17.7144L4.43984 17.8582L4.92031 17.9654L5.43594 18.0361L6.49766 18.1067H7.01094L7.56172 18.0361L8.075 17.9654L8.55547 17.8947L9.06875 17.751L9.31016 17.6803L9.54922 17.5731L9.75547 17.4659L9.99453 17.3952L10.2008 17.2515L10.6133 17.037L10.8172 16.8957L10.9883 16.7519L11.1945 16.6106L11.3328 16.4328L11.5039 16.2549L11.6398 16.0746L11.7781 15.8967L11.9141 15.7188L12.0172 15.5044L12.1203 15.2924L12.2234 15.078L12.2914 14.8635L12.3617 14.615L12.3945 14.4006L12.4297 14.152L12.4648 13.4747L12.4977 12.8679V12.2978L12.4648 11.7982L12.4297 11.5497L12.3945 11.3353L12.3266 11.1209L12.2914 10.9064L12.2234 10.6944L12.1883 10.5141L12.1203 10.3363L12.0172 10.1584L11.9492 9.98051L11.8812 9.83918L11.7781 9.65887L11.675 9.51754L11.607 9.41033L11.5039 9.26657L11.4008 9.12524L11.2648 9.01803L11.0586 8.80361L10.9203 8.69639L10.8172 8.59162L10.543 8.41131L10.2688 8.26998L9.99453 8.0921L9.72031 7.94834L9.13906 7.66326L7.90391 7.09308L7.62969 6.95176L7.32031 6.77144L7.04609 6.59357L6.73906 6.37914L6.4625 6.16715L6.22344 5.91618L6.08516 5.77485L5.94922 5.63109L5.84609 5.48977L5.71016 5.346L5.63984 5.20468L5.60703 5.09747L5.57188 4.99025L5.53672 4.84649L5.50391 4.74172V4.20565L5.53672 4.1691V4.13499L5.57188 4.06433V3.99123L5.60703 3.95712V3.92057L5.675 3.8499V3.81335L5.71016 3.77924L5.74297 3.74269L5.81328 3.67203L5.84609 3.60136L5.91406 3.56482L5.98438 3.52827L6.01719 3.49415L6.08516 3.42105H6.15547L6.22344 3.38694L6.25859 3.35039L6.32656 3.31384H6.39453L6.4625 3.27973H7.04609L7.18437 3.31384L7.2875 3.35039H7.32031L7.38828 3.38694H7.42344L7.45859 3.42105L7.52656 3.4576H7.56172L7.59453 3.49415L7.62969 3.52827H7.6625L7.76562 3.63548V3.67203L7.80078 3.70614H7.83594L7.86875 3.74269V3.77924L7.90391 3.81335V3.88645L7.93906 3.92057V3.95712L7.97188 3.99123V4.06433L8.00703 4.1691V4.2422L8.03984 4.34942V4.77583L8.00703 5.77485H12.1555V3.17251L12.1203 3.0653V2.92154L12.0875 2.81676L12.0172 2.60234V2.49513L11.9492 2.38791L11.9141 2.2807L11.8812 2.21004L11.8109 2.10283L11.7781 1.99561L11.7102 1.92495L11.6398 1.81774L11.607 1.74708L11.5367 1.67641L11.4688 1.60331L11.1617 1.28411L10.9883 1.14035L10.7844 1.03314L10.6133 0.925926L10.407 0.818713L10.2008 0.713938L9.99453 0.606725L9.75547 0.533626L9.31016 0.3923L8.82969 0.285088L8.38438 0.177875L7.86875 0.107212L6.4625 0Z" fill="#0A0A0A"></path><path d="M115.698 18.7135L116.213 18.75L116.727 18.7135L117.584 18.6428L117.962 18.5721L118.304 18.4649L118.475 18.4284L118.646 18.3577L118.784 18.3212L118.92 18.2505L119.059 18.1798L119.195 18.1067L119.333 18.0361L119.436 17.9654L119.572 17.8947L119.675 17.7875L119.778 17.7144L119.846 17.6096L119.949 17.5366L120.017 17.4293L120.12 17.3221L120.188 17.2174L120.259 17.1443L120.327 17.037L120.395 16.9323L120.43 16.8251L120.498 16.7178L120.533 16.6106L120.601 16.3596L120.669 16.1477L120.739 15.9332L120.772 15.6847L120.807 15.4703L120.84 15.2193L120.875 15.0073V8.76949H115.491V11.2281H116.588V14.2934L116.555 14.364V14.4712L116.52 14.5419L116.485 14.5785V14.6491L116.452 14.6857L116.417 14.7563L116.384 14.7929L116.349 14.8635L116.246 14.9708L116.213 15.0073L116.178 15.0414L116.11 15.078L116.075 15.1121L116.04 15.1486L115.972 15.1852L115.939 15.2193L115.869 15.2558H115.836L115.766 15.2924H115.733L115.663 15.3265H115.184L115.114 15.2924H115.081L115.013 15.2558H114.978L114.91 15.2193L114.875 15.1852L114.807 15.1486L114.772 15.1121L114.737 15.078L114.669 15.0414L114.498 14.8635L114.463 14.7929L114.43 14.7563L114.395 14.6857L114.362 14.6491V14.5785L114.327 14.5419L114.291 14.4712V14.364L114.259 14.2934V4.49074L114.291 4.42008V4.31287L114.327 4.27632L114.362 4.20565V4.1691L114.395 4.09844L114.43 4.06433L114.463 3.99123L114.498 3.95712L114.533 3.92057L114.566 3.8499L114.601 3.81335L114.636 3.77924L114.669 3.74269L114.737 3.70614L114.772 3.67203L114.807 3.63548L114.875 3.60136H114.91L114.978 3.56482L115.013 3.52827H115.081L115.114 3.49415H115.252L115.285 3.4576H115.527L115.595 3.49415H115.733L115.766 3.52827H115.836L115.869 3.56482L115.939 3.60136H115.972L116.04 3.63548L116.075 3.67203L116.11 3.70614L116.178 3.74269L116.281 3.8499L116.314 3.92057L116.349 3.95712L116.384 3.99123L116.417 4.06433L116.452 4.09844L116.485 4.1691V4.20565L116.52 4.27632L116.555 4.31287V4.42008L116.588 4.49074V6.23782H120.875V4.31287L120.84 4.06433V3.81335L120.807 3.70614V3.60136L120.772 3.49415L120.739 3.38694L120.669 3.17251L120.636 3.0653L120.601 2.95809L120.533 2.85088L120.498 2.78021L120.395 2.56579L120.259 2.38791L120.155 2.21004L119.984 2.06628L119.846 1.8884L119.675 1.74708L119.504 1.60331L119.333 1.46199L119.162 1.35478L118.955 1.21101L118.749 1.10624L118.543 0.999025L118.304 0.891813L118.098 0.818713L117.859 0.748051L117.378 0.606725L116.898 0.499513L116.384 0.3923L115.869 0.355751H114.84L114.362 0.3923L113.846 0.462963L113.366 0.570175L112.888 0.713938L112.646 0.7846L112.44 0.891813L112.201 0.962476L111.788 1.1769L111.584 1.31823L111.413 1.42544L111.24 1.5692L111.069 1.71053L110.898 1.85429L110.727 2.03216L110.588 2.17349L110.487 2.35136L110.349 2.53168L110.246 2.70955L110.211 2.81676L110.143 2.92154L110.11 2.99464L110.04 3.20906L110.007 3.31384L109.937 3.52827V3.63548L109.904 3.77924V3.99123L109.869 4.2422V15.0073L109.904 15.1852V15.4703L109.937 15.6116L109.972 15.7554L110.007 15.8967L110.04 16.0404L110.075 16.1477L110.11 16.289L110.178 16.3962L110.211 16.5034L110.281 16.6106L110.349 16.7178L110.384 16.8251L110.452 16.9323L110.555 17.037L110.623 17.1443L110.691 17.2174L110.762 17.3221L110.865 17.3952L110.933 17.4659L111.137 17.6438L111.31 17.7875L111.514 17.8947L111.72 17.9995L111.962 18.1067L112.166 18.2139L112.407 18.3212L112.646 18.3918L112.888 18.4649L113.366 18.5721L113.846 18.6428L114.362 18.7135H114.84L115.285 18.75L115.698 18.7135Z" fill="#0A0A0A"></path></svg>