<svg xmlns="http://www.w3.org/2000/svg" width="106" height="18" viewBox="0 0 106 18" fill="none"><g clip-path="url(#clip0_10977_190)"><path d="M18.5472 1.52242H20.5631V6.69841H18.5472C17.5566 3.47735 12.5302 3.00952 9.40684 3.00952C6.65469 3.00952 4.61006 3.69833 4.61006 5.04807C4.61006 6.61878 8.46963 6.64068 11.593 7.06073C15.5961 7.5843 21.4716 7.50069 21.4716 12.599C21.4716 16.6224 15.9652 17.9741 12.5302 18C6.37783 18 4.43984 16.2919 3.04941 16.2919C2.65156 16.2919 2.45264 16.6503 2.45264 17.3928H0.436719V11.5798H2.45264C3.21963 15.0835 8.75469 15.85 11.111 15.85C12.7517 15.85 17.0439 15.5474 17.0439 13.6183C17.0439 11.7988 14.3185 11.9102 10.9675 11.4424C7.33555 10.9447 0.125 10.8352 0.125 6.12507C0.125 2.48595 4.32705 0.75 9.00898 0.75C14.46 0.75 17.1854 2.45808 17.9791 2.45808C18.3482 2.48595 18.5472 2.15548 18.5472 1.52242Z" fill="#0A0A0A"></path><path d="M37.4818 0.75C30.0662 0.75 25.1895 4.44287 25.1895 9.374C25.1895 14.3051 30.1011 18 37.4818 18C44.8626 18 49.7722 14.3071 49.7722 9.374C49.7722 4.44088 44.8605 0.75 37.4818 0.75ZM37.4818 3.06526C41.7105 3.06526 44.5201 5.76474 44.5201 9.40188C44.5201 13.039 41.7105 15.7405 37.4818 15.7405C33.2531 15.7405 30.4415 13.039 30.4415 9.40188C30.4415 5.76474 33.2224 3.06526 37.4818 3.06526Z" fill="#0A0A0A"></path><path d="M74.5247 17.0621H71.2865L58.3153 6.28805V14.3069C58.3153 14.8583 58.6004 15.1032 59.1356 15.1032H61.5187V17.0601H51.8164V15.1052H54.1994C54.7388 15.1052 55.0197 14.8304 55.0197 14.3089V4.49636C55.0197 3.97279 54.7347 3.70005 54.1994 3.70005H51.8164V1.74512H59.9621L71.2599 11.1017V4.49636C71.2599 3.97279 70.9769 3.70005 70.4396 3.70005H68.0524V1.74512H77.7608V3.70204H75.3758C74.8077 3.70204 74.5555 3.97677 74.5555 4.49835V17.0621H74.5247Z" fill="#0A0A0A"></path><path d="M95.5866 1.71338H105.125V3.6703H103.25C102.881 3.66394 102.514 3.73133 102.173 3.86832C101.831 4.0053 101.522 4.20894 101.265 4.46661L94.8709 11.0839V14.2871C94.8709 14.8385 95.156 15.0834 95.6912 15.0834H98.0742V17.0343H86.5878V15.0834H88.9728C89.5409 15.0834 89.7932 14.8067 89.7932 14.2871V11.275L83.2307 4.47059C82.9733 4.21277 82.6641 4.00905 82.3223 3.87207C81.9804 3.73508 81.6132 3.66776 81.2435 3.67428H79.3711V1.71338H91.0934V3.6703H89.949C89.664 3.6703 89.4937 3.75392 89.4097 3.94702C89.3666 4.03212 89.3516 4.12801 89.3667 4.22168C89.3817 4.31534 89.4261 4.40225 89.4937 4.47059L93.3554 8.46606L97.2149 4.47059C97.2824 4.40217 97.3268 4.31541 97.3422 4.22186C97.3576 4.12832 97.3433 4.03244 97.3011 3.94702C97.2149 3.74794 97.0447 3.6703 96.7617 3.6703H95.5969V1.71338H95.5866Z" fill="#0A0A0A"></path></g><defs><clipPath id="clip0_10977_190"><rect width="105" height="17.25" fill="white" transform="translate(0.125 0.75)"></rect></clipPath></defs></svg>