<svg xmlns="http://www.w3.org/2000/svg" width="16" height="17" viewBox="0 0 16 17" fill="none"><path d="M14.1451 5.91316V3.94272C14.1451 3.49984 13.9692 3.0751 13.656 2.76194C13.3429 2.44878 12.9181 2.27285 12.4753 2.27285H10.5466L9.17726 0.903555C8.86439 0.59254 8.44116 0.417969 8 0.417969C7.55884 0.417969 7.13561 0.59254 6.82274 0.903555L5.4952 2.27285H3.52475C3.08187 2.27285 2.65713 2.44878 2.34397 2.76194C2.03081 3.0751 1.85488 3.49984 1.85488 3.94272V5.91316L0.485586 7.24071C0.174571 7.55358 0 7.97681 0 8.41797C0 8.85913 0.174571 9.28236 0.485586 9.59523L1.85488 10.9645V12.8932C1.85488 13.3361 2.03081 13.7608 2.34397 14.074C2.65713 14.3872 3.08187 14.5631 3.52475 14.5631H5.4952L6.82274 15.9324C7.13561 16.2434 7.55884 16.418 8 16.418C8.44116 16.418 8.86439 16.2434 9.17726 15.9324L10.5466 14.5631H12.4753C12.9181 14.5631 13.3429 14.3872 13.656 14.074C13.9692 13.7608 14.1451 13.3361 14.1451 12.8932V10.9645L15.5144 9.59523C15.8254 9.28236 16 8.85913 16 8.41797C16 7.97681 15.8254 7.55358 15.5144 7.24071L14.1451 5.91316Z" fill="#FF7A00"></path><path d="M7.3738 10.5053C7.26392 10.5059 7.15499 10.4849 7.05326 10.4433C6.95154 10.4018 6.85901 10.3406 6.781 10.2632L5.4952 9.01077C5.33797 8.85355 5.24965 8.64031 5.24965 8.41797C5.24965 8.19562 5.33797 7.98239 5.4952 7.82517C5.65242 7.66794 5.86565 7.57962 6.088 7.57962C6.31034 7.57962 6.52358 7.66794 6.6808 7.82517L7.3404 8.49311L9.2524 6.57276C9.40962 6.40668 9.62638 6.30986 9.85499 6.3036C10.0836 6.29734 10.3053 6.38214 10.4714 6.53937C10.6375 6.69659 10.7343 6.91334 10.7406 7.14195C10.7468 7.37056 10.662 7.59229 10.5048 7.75837L8 10.2632C7.91806 10.3447 7.8201 10.4083 7.71231 10.45C7.60452 10.4916 7.48925 10.5105 7.3738 10.5053Z" fill="white"></path></svg>