<svg xmlns="http://www.w3.org/2000/svg" width="32" height="32" viewBox="0 0 32 32"><path d="M12.575 27.684c0.113 0.052 0.24 0.064 0.36 0.032s0.225-0.104 0.298-0.204l9.6-13.333c0.057-0.080 0.092-0.174 0.099-0.271s-0.012-0.196-0.057-0.283c-0.045-0.087-0.113-0.161-0.196-0.212s-0.18-0.078-0.278-0.078h-4.779l2.096-8.404c0.030-0.12 0.017-0.247-0.036-0.359s-0.144-0.202-0.257-0.254c-0.233-0.107-0.508-0.036-0.657 0.172l-9.6 13.333c-0.057 0.080-0.092 0.174-0.099 0.271s0.012 0.196 0.057 0.283c0.045 0.087 0.113 0.161 0.196 0.212s0.18 0.078 0.278 0.078h4.779l-2.096 8.404c-0.030 0.12-0.017 0.247 0.036 0.359s0.144 0.202 0.257 0.254zM15.579 18.263c0.020-0.079 0.021-0.161 0.004-0.24s-0.052-0.154-0.101-0.218-0.114-0.116-0.187-0.151c-0.073-0.036-0.153-0.054-0.234-0.054h-4.42l7.369-10.235-1.59 6.373c-0.020 0.079-0.021 0.161-0.004 0.24s0.052 0.154 0.101 0.218 0.114 0.116 0.186 0.151c0.073 0.036 0.153 0.054 0.234 0.054h4.42l-7.369 10.235 1.59-6.373z"></path><path d="M31.467 15.467c-0.070 0-0.139 0.014-0.204 0.041s-0.124 0.066-0.173 0.116c-0.050 0.049-0.089 0.108-0.116 0.173s-0.041 0.134-0.041 0.204c0 8.234-6.699 14.933-14.933 14.933-4.409 0-8.604-1.978-11.429-5.333h2.896c0.141 0 0.277-0.056 0.377-0.156s0.156-0.236 0.156-0.377-0.056-0.277-0.156-0.377c-0.1-0.1-0.236-0.156-0.377-0.156h-4.267c-0.141 0-0.277 0.056-0.377 0.156s-0.156 0.236-0.156 0.377v4.267c0 0.141 0.056 0.277 0.156 0.377s0.236 0.156 0.377 0.156 0.277-0.056 0.377-0.156c0.1-0.1 0.156-0.236 0.156-0.377v-3.072c3.027 3.61 7.531 5.738 12.267 5.738 8.822 0 16-7.178 16-16 0-0.141-0.056-0.277-0.156-0.377s-0.236-0.156-0.377-0.156zM16 1.067c4.409 0 8.604 1.978 11.429 5.333h-2.896c-0.141 0-0.277 0.056-0.377 0.156s-0.156 0.236-0.156 0.377 0.056 0.277 0.156 0.377c0.1 0.1 0.236 0.156 0.377 0.156h4.267c0.070 0 0.139-0.014 0.204-0.041s0.124-0.066 0.173-0.116c0.050-0.049 0.089-0.108 0.116-0.173s0.041-0.134 0.041-0.204v-4.267c0-0.141-0.056-0.277-0.156-0.377s-0.236-0.156-0.377-0.156-0.277 0.056-0.377 0.156c-0.1 0.1-0.156 0.236-0.156 0.377v3.072c-3.027-3.61-7.531-5.738-12.267-5.738-8.822 0-16 7.178-16 16 0 0.141 0.056 0.277 0.156 0.377s0.236 0.156 0.377 0.156 0.277-0.056 0.377-0.156c0.1-0.1 0.156-0.236 0.156-0.377 0-8.234 6.699-14.933 14.933-14.933z"></path></svg>