<svg xmlns="http://www.w3.org/2000/svg" width="36" height="32" viewBox="0 0 36 32"><path d="M0.567 30.499h4.419c1.138 0 2.076-0.841 2.246-1.932 0.874 0.039 1.929-0.143 3.427 0.357l6.666 2.222c1.297 0.432 2.769 0.339 4.036-0.316l13.492-7.059c1.182-0.493 1.743-1.856 1.25-3.038-0.118-0.283-0.29-0.539-0.507-0.755s-0.475-0.387-0.758-0.502c-0.283-0.116-0.587-0.174-0.893-0.172s-0.609 0.065-0.891 0.184l-7.853 3.476c0.11-1.323-0.919-2.324-2.107-2.355-0.003-0-0.006-0.002-0.009-0.002h-0.009c-0.013-0-0.025-0.004-0.038-0.004-0.007 0-0.012 0.004-0.019 0.004h-5.517l-4.217-1.968c-0.896-0.417-1.891-0.638-2.878-0.638h-3.173c-0.169-1.092-1.107-1.933-2.246-1.933h-4.419c-0.074-0-0.148 0.015-0.217 0.043s-0.131 0.070-0.184 0.123c-0.053 0.053-0.094 0.115-0.123 0.184s-0.043 0.142-0.043 0.217v13.298c-0 0.074 0.015 0.148 0.043 0.217s0.070 0.131 0.123 0.184 0.115 0.094 0.184 0.123c0.069 0.029 0.143 0.043 0.217 0.043zM12.804 19.666c4.554 2.105 4.335 2.074 4.571 2.074h5.7c0.56 0.021 1.010 0.48 1.010 1.045 0 0.578-0.47 1.049-1.049 1.049h-6.779c-0.074 0-0.148 0.015-0.217 0.043s-0.131 0.070-0.184 0.123-0.094 0.115-0.123 0.184c-0.028 0.069-0.043 0.143-0.043 0.217s0.015 0.148 0.043 0.217c0.028 0.069 0.070 0.131 0.123 0.184s0.115 0.094 0.184 0.123c0.069 0.029 0.142 0.043 0.217 0.043h6.827c0.336 0 0.681-0.129 0.99-0.265l9.428-4.173c0.606-0.252 1.303 0.034 1.555 0.64s-0.035 1.303-0.685 1.577l-13.534 7.079c-0.97 0.502-2.119 0.59-3.154 0.246l-6.665-2.222c-1.71-0.57-2.944-0.377-3.751-0.416v-8.299h3.138c0.829 0.001 1.647 0.183 2.399 0.532zM1.134 17.201h3.852c0.633 0 1.147 0.514 1.147 1.147v9.87c0 0.633-0.515 1.147-1.147 1.147h-3.852v-12.164z"></path><path d="M20.887 18.356c0.097 0.068 0.211 0.102 0.324 0.102s0.227-0.034 0.325-0.102c0.406-0.284 9.942-7.005 9.942-12.411 0-3.257-2.65-5.907-5.907-5.907-1.673 0-3.255 0.711-4.361 1.931-1.111-1.22-2.696-1.931-4.366-1.931-3.257 0-5.908 2.65-5.908 5.907 0 5.406 9.544 12.128 9.95 12.411zM16.844 1.172c1.551 0 3.010 0.759 3.903 2.030 0.052 0.074 0.122 0.135 0.203 0.177s0.17 0.064 0.261 0.064h0.001c0.091-0 0.181-0.022 0.262-0.065s0.15-0.104 0.202-0.178c0.885-1.269 2.341-2.028 3.894-2.028 2.632 0 4.774 2.141 4.774 4.773 0 4.303-7.471 10.027-9.133 11.247-1.664-1.22-9.141-6.941-9.141-11.247 0-2.632 2.142-4.773 4.774-4.773z"></path></svg>