<svg xmlns="http://www.w3.org/2000/svg" width="28" height="32" viewBox="0 0 28 32"><path d="M15.424 0c-8.277 0-12 7.351-12 12.571v7.429c0 0.757 1.143 0.756 1.143 0v-7.429c0-4.746 3.369-11.429 10.857-11.429s10.857 6.683 10.857 11.429v12c0 0.757 1.143 0.756 1.143 0v-12c0-5.22-3.723-12.571-12-12.571zM3.424 26.286v3.429c0 0.757 1.143 0.756 1.143 0v-3.429c0-0.757-1.143-0.756-1.143 0z"></path><path d="M17.329 20.67c-0.524 0.468-1.201 0.728-1.903 0.732s-1.382-0.249-1.911-0.712c-0.568-0.498-1.322 0.36-0.753 0.859 0.739 0.646 1.688 1 2.67 0.995s1.927-0.369 2.659-1.023c0.563-0.504-0.198-1.357-0.762-0.851z"></path><path d="M26.853 30.857c-5.234 0-6.746-4.006-6.846-6.331 2.103-1.813 3.194-4.551 3.386-5.867 0.714-0.385 2.317-1.504 2.317-3.802 0-1.395-0.809-2.047-1.714-2.23v-2.768c0.004-1.182-0.382-2.333-1.097-3.274-1.815-2.402-4.663-3.729-7.474-3.729-5.486 0-8.571 3.965-8.571 7.003v2.768c-0.905 0.183-1.714 0.835-1.714 2.23 0 2.298 1.603 3.417 2.317 3.802 0.193 1.315 1.283 4.054 3.386 5.866-0.099 2.326-1.611 6.332-6.846 6.332-0.756 0-0.757 1.143 0 1.143 5.583 0 7.538-3.932 7.922-6.693 0.994 0.597 2.159 0.979 3.507 0.979s2.513-0.382 3.507-0.979c0.383 2.761 2.339 6.693 7.922 6.693 0.757 0 0.756-1.143 0-1.143zM22.811 9.336c-1.264-1.213-2.785-2.108-4.415-2.603 0.421-0.561 0.59-1.251 0.415-1.982 1.735 0.79 3.74 2.437 4.001 4.585zM17.008 4.169c0.216 0.097 0.399 0.255 0.528 0.453s0.199 0.43 0.2 0.667-0.065 0.469-0.192 0.669c-0.127 0.2-0.308 0.36-0.523 0.46-3.334-0.537-6.621 0.649-8.985 2.918 0.086-0.748 0.371-1.46 0.824-2.061 2.098-2.775 4.883-3.758 8.147-3.106zM8.567 18.286c0-0.235-0.144-0.446-0.363-0.533-0.019-0.007-1.922-0.775-1.922-2.896 0-0.283 0-1.143 1.143-1.143 0.152 0 0.297-0.060 0.404-0.167s0.167-0.253 0.167-0.404v-2.080c3.937-4.833 10.919-4.834 14.857 0v2.080c0 0.152 0.060 0.297 0.167 0.404s0.253 0.167 0.404 0.167c1.143 0 1.143 0.86 1.143 1.143 0 2.1-1.846 2.866-1.922 2.896-0.219 0.086-0.363 0.297-0.363 0.533 0 1.357-2.205 6.857-6.857 6.857s-6.857-5.5-6.857-6.857z"></path><path d="M21.589 15.471c0.466-0.597-0.438-1.3-0.901-0.703-0.62 0.795-1.806 0.925-2.537 0.036-0.479-0.585-1.363 0.142-0.883 0.726 1.146 1.395 3.208 1.368 4.32-0.059zM13.58 15.529c0.481-0.585-0.404-1.309-0.883-0.726-0.683 0.83-1.875 0.813-2.537-0.036-0.463-0.594-1.367 0.105-0.901 0.703 1.115 1.43 3.177 1.452 4.321 0.059zM18.105 12.507c0.497-0.477 1.565-0.508 2.854-0.083 0.718 0.235 1.075-0.85 0.357-1.086-2.363-0.776-3.521-0.117-4.003 0.345-0.553 0.531 0.256 1.339 0.791 0.824zM9.888 12.424c1.29-0.425 2.357-0.394 2.855 0.083 0.536 0.515 1.345-0.293 0.791-0.825-0.482-0.462-1.642-1.121-4.002-0.345-0.719 0.236-0.362 1.321 0.356 1.086zM6.282 22.857v0.571c0 0.757 1.143 0.756 1.143 0v-0.571c0-0.757-1.143-0.756-1.143 0zM6.282 26.286c0 0.757 1.143 0.756 1.143 0v-0.571c0-0.757-1.143-0.756-1.143 0v0.571zM7.996 25.143h0.571c0.756 0 0.757-1.143 0-1.143h-0.571c-0.756 0-0.757 1.143 0 1.143zM5.71 24h-0.571c-0.756 0-0.757 1.143 0 1.143h0.571c0.756 0 0.757-1.143 0-1.143zM2.281 21.714c0.152 0 0.297-0.060 0.404-0.167s0.167-0.253 0.167-0.404v-0.571c0-0.757-1.143-0.756-1.143 0v0.571c0 0.152 0.060 0.297 0.167 0.404s0.253 0.167 0.404 0.167zM2.281 22.857c-0.152 0-0.297 0.060-0.404 0.167s-0.167 0.252-0.167 0.404v0.571c0 0.757 1.143 0.756 1.143 0v-0.571c0-0.152-0.060-0.297-0.167-0.404s-0.252-0.167-0.404-0.167zM3.996 22.857c0.756 0 0.757-1.143 0-1.143h-0.571c-0.152 0-0.297 0.060-0.404 0.167s-0.167 0.252-0.167 0.404 0.060 0.297 0.167 0.404c0.107 0.107 0.252 0.167 0.404 0.167h0.571zM1.139 21.714h-0.571c-0.756 0-0.757 1.143 0 1.143h0.571c0.152 0 0.297-0.060 0.404-0.167s0.167-0.253 0.167-0.404-0.060-0.297-0.167-0.404c-0.107-0.107-0.252-0.167-0.404-0.167zM24.567 25.143c0-0.152-0.060-0.297-0.167-0.404s-0.253-0.167-0.404-0.167-0.297 0.060-0.404 0.167c-0.107 0.107-0.167 0.252-0.167 0.404v0.571c0 0.757 1.143 0.756 1.143 0v-0.571zM24.567 28.571v-0.571c0-0.757-1.143-0.756-1.143 0v0.571c0 0.757 1.143 0.756 1.143 0zM25.139 27.429h0.571c0.757 0 0.756-1.143 0-1.143h-0.571c-0.757 0-0.756 1.143 0 1.143zM22.853 26.286h-0.571c-0.757 0-0.756 1.143 0 1.143h0.571c0.757 0 0.756-1.143 0-1.143z"></path></svg>