<svg xmlns="http://www.w3.org/2000/svg" width="31" height="32" viewBox="0 0 31 32"><path d="M29.661 22.365c-7.958 1.51-15.672-3.673-17.182-11.631-0.163-0.939-0.286-1.877-0.245-2.816 0-2.408 0.571-4.734 1.714-6.856 0.204-0.367 0.041-0.775-0.286-0.979-0.122-0.082-0.326-0.082-0.449-0.082-8.815 1.673-14.57 10.080-12.937 18.855s10.080 14.529 18.855 12.856c4.857-0.898 8.979-4 11.305-8.326 0.204-0.367 0.041-0.775-0.286-0.98-0.163-0.082-0.326-0.082-0.49-0.041zM16.152 30.568c-8.122 0-14.692-6.571-14.733-14.692 0-6.53 4.285-12.284 10.57-14.121-3.387 8.244 0.531 17.671 8.734 21.059 1.959 0.816 4.040 1.224 6.163 1.224 0.49 0 0.98-0.041 1.51-0.082-2.694 4.122-7.305 6.612-12.244 6.612zM29.906 5.346h-3.061c-0.286 0-0.531-0.163-0.653-0.408s-0.082-0.571 0.122-0.775l2.041-2.285h-1.469c-0.408 0-0.735-0.327-0.735-0.735s0.327-0.735 0.735-0.735h3.061c0.286 0 0.53 0.163 0.653 0.408s0.082 0.571-0.122 0.775l-2.041 2.285h1.469c0.408 0 0.735 0.327 0.735 0.735s-0.326 0.735-0.735 0.735z"></path><path d="M23.947 14.855h-4.612c-0.286 0-0.531-0.163-0.653-0.408s-0.082-0.571 0.122-0.775l3.551-4.081h-3.020c-0.408 0-0.735-0.326-0.735-0.735s0.326-0.735 0.735-0.735h4.612c0.286 0 0.531 0.163 0.653 0.408s0.082 0.571-0.122 0.775l-3.551 4.081h3.020c0.408 0 0.735 0.326 0.735 0.735s-0.327 0.735-0.735 0.735z"></path></svg>