<svg xmlns="http://www.w3.org/2000/svg" width="30" height="32" viewBox="0 0 30 32"><path fill="currentColor" d="M26.626 11.131v-3.709c0-0.834-0.331-1.633-0.921-2.223s-1.389-0.921-2.223-0.921h-3.631l-2.578-2.578c-0.589-0.585-1.386-0.914-2.216-0.914s-1.627 0.329-2.216 0.914l-2.499 2.578h-3.709c-0.834 0-1.633 0.331-2.223 0.921s-0.921 1.389-0.921 2.223v3.709l-2.578 2.499c-0.585 0.589-0.914 1.386-0.914 2.216s0.329 1.627 0.914 2.216l2.578 2.577v3.631c0 0.834 0.331 1.633 0.921 2.223s1.389 0.921 2.223 0.921h3.709l2.499 2.578c0.589 0.585 1.386 0.914 2.216 0.914s1.627-0.329 2.216-0.914l2.578-2.578h3.631c0.834 0 1.633-0.331 2.223-0.921s0.921-1.389 0.921-2.223v-3.631l2.578-2.577c0.585-0.589 0.914-1.386 0.914-2.216s-0.329-1.627-0.914-2.216l-2.578-2.499z"></path><path fill="#fff" d="M13.88 19.775c-0.207 0.001-0.412-0.038-0.603-0.117s-0.366-0.193-0.512-0.339l-2.42-2.357c-0.296-0.296-0.462-0.697-0.462-1.116s0.166-0.82 0.462-1.116c0.296-0.296 0.697-0.462 1.116-0.462s0.82 0.166 1.116 0.462l1.242 1.257 3.599-3.615c0.296-0.313 0.704-0.495 1.134-0.507s0.848 0.148 1.16 0.444c0.313 0.296 0.495 0.704 0.507 1.134s-0.148 0.848-0.444 1.16l-4.715 4.715c-0.154 0.153-0.339 0.273-0.542 0.352s-0.42 0.114-0.637 0.104z"></path></svg>