<svg width="29" height="31" viewBox="0 0 29 31" fill="none" xmlns="http://www.w3.org/2000/svg">
<path d="M14.5 30.5L0.249512 23.3814V7.51669L14.5 0.5L28.7504 7.51273V23.3814L14.5 30.5ZM2.89584 21.746L14.5 27.5388L26.1041 21.742V9.16276L14.5 3.45069L2.89584 9.16276V21.746ZM15.8231 29.0207H13.1769V15.5152L0.989227 9.52798L2.15622 7.14627L15.8231 13.8666V29.0207ZM15.8231 29.0207H13.1769V13.8665L26.8437 7.1515L28.0107 9.53321L15.8231 15.5152V29.0207ZM14.5 16.1596L0.989227 9.52798L2.15622 7.14627L14.5 13.217L26.8437 7.15292L28.0107 9.53457L14.5 16.1596Z" fill="black"/>
</svg>
