<svg xmlns="http://www.w3.org/2000/svg" width="60" height="60" viewBox="0 0 60 60" fill="none">
  <path d="M32.5 31.2875L37.5 28.75H47.5L52.5 31.2875V37.8325C52.5061 40.7064 51.637 43.514 50.0083 45.8818C48.3796 48.2496 46.0685 50.0654 43.3825 51.0875H43.3775C42.8123 51.3026 42.1878 51.3026 41.6225 51.0875H41.6175C38.9319 50.064 36.6213 48.2476 34.9928 45.8796C33.3642 43.5115 32.4948 40.704 32.5 37.83V31.285V31.2875Z" fill="#75AFFF"></path>
  <path d="M32.5 31.2875L37.5 28.75H47.5L52.5 31.2875V37.8325C52.5061 40.7064 51.637 43.514 50.0083 45.8818C48.3796 48.2496 46.0685 50.0654 43.3825 51.0875H43.3775C42.8123 51.3026 42.1878 51.3026 41.6225 51.0875H41.6175C38.9319 50.064 36.6213 48.2476 34.9928 45.8796C33.3642 43.5115 32.4948 40.704 32.5 37.83V31.285V31.2875Z" fill="#75AFFF"></path>
  <path d="M28.7495 15.625H23.7495C23.2522 15.625 22.7753 15.4275 22.4236 15.0758C22.072 14.7242 21.8745 14.2473 21.8745 13.75C21.8745 13.2527 22.072 12.7758 22.4236 12.4242C22.7753 12.0725 23.2522 11.875 23.7495 11.875H28.7495C29.2467 11.875 29.7236 12.0725 30.0753 12.4242C30.4269 12.7758 30.6245 13.2527 30.6245 13.75C30.6245 14.2473 30.4269 14.7242 30.0753 15.0758C29.7236 15.4275 29.2467 15.625 28.7495 15.625ZM49.3745 31.2875V37.8325C49.3745 44.4775 45.2245 50.5075 39.047 52.84C38.0518 53.2183 36.9527 53.2192 35.957 52.8425C33.9439 52.0681 32.1118 50.8878 30.5745 49.375H17.502C15.679 49.3737 13.9311 48.6489 12.6421 47.3599C11.353 46.0709 10.6283 44.323 10.627 42.5V12.5C10.6283 10.677 11.353 8.92913 12.6421 7.6401C13.9311 6.35108 15.679 5.62632 17.502 5.625H35.002C36.8249 5.62632 38.5728 6.35108 39.8618 7.6401C41.1509 8.92913 41.8756 10.677 41.877 12.5V26.875H42.502C42.797 26.875 43.087 26.945 43.3495 27.0775L48.3495 29.615C48.6584 29.7718 48.9178 30.0111 49.0992 30.3063C49.2805 30.6015 49.3742 30.9411 49.3745 31.2875ZM17.4995 45.625H27.6945C26.3513 43.2465 25.6387 40.564 25.6245 37.8325V31.2875C25.6245 30.5825 26.022 29.935 26.652 29.615L31.652 27.0775C31.9147 26.9446 32.205 26.8752 32.4995 26.875H38.1245V12.5C38.1245 10.7775 36.722 9.375 34.9995 9.375H17.4995C15.777 9.375 14.3745 10.7775 14.3745 12.5V42.5C14.3745 44.2225 15.777 45.625 17.4995 45.625ZM45.6245 32.44L42.052 30.625H32.947L29.3745 32.44V37.8325C29.3745 42.925 32.552 47.5475 37.2795 49.335C37.4188 49.3876 37.5726 49.3876 37.712 49.335C42.4495 47.545 45.6245 42.925 45.6245 37.83V32.44ZM39.8495 34.9725L36.7495 38.4475L35.147 36.6525C34.8154 36.2815 34.3501 36.0574 33.8534 36.0296C33.3566 36.0017 32.8692 36.1722 32.4982 36.5037C32.1272 36.8353 31.9032 37.3006 31.8753 37.7973C31.8474 38.2941 32.0179 38.7815 32.3495 39.1525L35.3495 42.5125C35.526 42.7089 35.7419 42.8659 35.9831 42.9734C36.2243 43.0809 36.4854 43.1365 36.7495 43.1365C37.0135 43.1365 37.2746 43.0809 37.5158 42.9734C37.757 42.8659 37.9729 42.7089 38.1495 42.5125L42.6495 37.4725C42.9571 37.0982 43.1082 36.6194 43.071 36.1363C43.0339 35.6532 42.8114 35.2032 42.4501 34.8803C42.0889 34.5575 41.6167 34.3868 41.1325 34.404C40.6483 34.4211 40.1895 34.6248 39.852 34.9725H39.8495Z" fill="#112D55"></path>
</svg>