<svg xmlns="http://www.w3.org/2000/svg" width="50" height="50" viewBox="0 0 50 50" fill="none">
  <g clip-path="url(#clip0_10537_31)">
    <path d="M24.9994 9.22204C16.3003 9.22204 9.22292 16.2994 9.22292 24.9986C9.22292 33.6998 16.3003 40.7778 24.9994 40.7778C33.7006 40.7778 40.7787 33.6993 40.7787 24.9986C40.7787 16.2994 33.7002 9.22204 24.9994 9.22204ZM36.2433 18.7863H30.7625C30.5466 17.3045 30.2077 15.8432 29.7493 14.4176C29.5723 13.8793 29.3669 13.3508 29.1341 12.8342C32.1588 13.87 34.6919 15.9908 36.2433 18.7863ZM37.849 24.9986C37.8495 26.1076 37.7062 27.2119 37.4226 28.2841H31.0918C31.2553 26.0978 31.2554 23.9023 31.0919 21.716H37.4232C37.7064 22.7872 37.8495 23.8906 37.849 24.9986ZM12.1526 24.9986C12.1521 23.8906 12.2952 22.7872 12.5783 21.716H18.9095C18.7461 23.9023 18.7462 26.0978 18.9097 28.2841H12.5789C12.2953 27.2119 12.1521 26.1076 12.1526 24.9986ZM21.7168 24.9986C21.7168 23.8756 21.761 22.7759 21.8461 21.716H28.155C28.2401 22.7758 28.2843 23.8758 28.2843 24.9986C28.2843 26.1215 28.2401 27.2233 28.1549 28.2841H21.8465C21.7593 27.1911 21.7161 26.095 21.7168 24.9986ZM26.9683 15.3404C27.3315 16.4664 27.6084 17.6183 27.7966 18.7863H22.2048C22.3931 17.6183 22.6699 16.4663 23.0329 15.3403C23.9111 12.6928 24.8074 12.1517 24.9994 12.1517C25.1914 12.1517 26.0897 12.6929 26.9683 15.3404ZM20.8672 12.8337C20.6343 13.3505 20.4289 13.8792 20.2519 14.4177C19.7938 15.8433 19.455 17.3046 19.239 18.7863H13.758C15.3091 15.9905 17.8423 13.8694 20.8672 12.8337ZM13.7588 31.2137H19.2395C19.4554 32.6953 19.7941 34.1563 20.2522 35.5817C20.4292 36.1203 20.6346 36.6492 20.8674 37.1661C17.8429 36.1302 15.31 34.0093 13.7588 31.2137ZM23.0329 34.6593C22.67 33.5335 22.3932 32.3816 22.2049 31.2137H27.7965C27.6082 32.3816 27.3313 33.5334 26.9682 34.6593C26.0893 37.3069 25.1918 37.8481 24.9994 37.8481C24.807 37.8481 23.9111 37.3069 23.0329 34.6593ZM29.134 37.1656C29.3668 36.6489 29.5722 36.1202 29.7492 35.5818C30.2075 34.1564 30.5464 32.6953 30.7625 31.2137H36.2429C34.6914 34.009 32.1585 36.1297 29.134 37.1656ZM33.8117 46.0362C33.8743 46.2181 33.9005 46.4105 33.8887 46.6025C33.877 46.7946 33.8275 46.9824 33.7432 47.1553C33.6589 47.3282 33.5413 47.4827 33.3972 47.6102C33.2531 47.7377 33.0854 47.8355 32.9035 47.8981C27.7249 49.6848 22.0936 49.6634 16.9288 47.8372C11.7641 46.0111 7.37082 42.4881 4.46627 37.8434C1.56171 33.1986 0.317397 27.7065 0.936435 22.2635C1.55547 16.8204 4.0013 11.748 7.87467 7.87409C7.93991 7.80906 8.00612 7.74538 8.07194 7.68113H6.21706C5.82856 7.68113 5.45597 7.5268 5.18126 7.25208C4.90655 6.97737 4.75221 6.60478 4.75221 6.21628C4.75221 5.82778 4.90655 5.45519 5.18126 5.18048C5.45597 4.90577 5.82856 4.75144 6.21706 4.75144H11.6068C11.9953 4.75144 12.3679 4.90577 12.6426 5.18048C12.9173 5.45519 13.0716 5.82778 13.0716 6.21628V11.6032C13.0716 11.9917 12.9173 12.3643 12.6426 12.639C12.3679 12.9137 11.9953 13.068 11.6068 13.068C11.2183 13.068 10.8457 12.9137 10.571 12.639C10.2963 12.3643 10.142 11.9917 10.142 11.6032V9.75427C10.0759 9.81843 10.0098 9.8823 9.9446 9.94734C1.64606 18.2459 1.64606 31.7513 9.94626 40.0516C15.7519 45.8572 24.183 47.8025 31.9496 45.1281C32.3169 45.0016 32.7194 45.0262 33.0686 45.1965C33.4178 45.3668 33.685 45.6689 33.8115 46.0362H33.8117ZM42.127 42.1232C42.0611 42.189 41.9941 42.2537 41.9276 42.3185H43.7846C44.1731 42.3185 44.5457 42.4729 44.8204 42.7476C45.0951 43.0223 45.2495 43.3949 45.2495 43.7834C45.2495 44.1719 45.0951 44.5445 44.8204 44.8192C44.5457 45.0939 44.1731 45.2482 43.7846 45.2482H38.395C38.0065 45.2482 37.6339 45.0939 37.3592 44.8192C37.0845 44.5445 36.9301 44.1719 36.9301 43.7834V38.3937C36.9301 38.0052 37.0845 37.6326 37.3592 37.3579C37.6339 37.0832 38.0065 36.9289 38.395 36.9289C38.7835 36.9289 39.1561 37.0832 39.4308 37.3579C39.7055 37.6326 39.8598 38.0052 39.8598 38.3937V40.2432C39.9252 40.1795 39.9908 40.1163 40.0551 40.0513C48.3553 31.7511 48.3553 18.2457 40.0551 9.94548C34.2488 4.14216 25.8178 2.19783 18.0519 4.87185C17.8697 4.93581 17.6767 4.96312 17.4839 4.9522C17.2911 4.94129 17.1023 4.89235 16.9285 4.80822C16.7547 4.72409 16.5992 4.60643 16.4711 4.46199C16.3429 4.31756 16.2445 4.1492 16.1817 3.96662C16.1188 3.78403 16.0926 3.59082 16.1047 3.39809C16.1168 3.20536 16.1669 3.01692 16.252 2.84361C16.3372 2.6703 16.4558 2.51555 16.601 2.38824C16.7462 2.26094 16.9152 2.1636 17.0981 2.10183C22.2764 0.31474 27.9076 0.335835 33.0724 2.16167C38.2372 3.98751 42.6305 7.51024 45.5351 12.1548C48.4397 16.7993 49.6841 22.2913 49.0651 27.7343C48.446 33.1772 46.0002 38.2495 42.1268 42.1232H42.127Z" fill="#112D55"></path>
    <path d="M37.4229 21.716H31.0916C31.2551 23.9023 31.255 26.0978 31.0915 28.2841H37.4224C37.9907 26.1316 37.9909 23.8685 37.4229 21.716ZM29.7486 35.5818C29.5716 36.1202 29.3663 36.6489 29.1334 37.1656C32.1577 36.1296 34.6905 34.0089 36.2419 31.2137H30.7622C30.5461 32.6954 30.2071 34.1564 29.7486 35.5818ZM26.9681 15.3404C26.0892 12.6929 25.1915 12.1517 24.9991 12.1517C24.8067 12.1517 23.9108 12.6928 23.0326 15.3403C22.6696 16.4663 22.3928 17.6183 22.2045 18.7863H27.7964C27.6081 17.6183 27.3312 16.4664 26.9681 15.3404ZM18.7868 24.9986C18.7868 23.8817 18.8293 22.7832 18.9093 21.716H12.578C12.0103 23.8686 12.0105 26.1316 12.5786 28.2841H18.9095C18.8277 27.1908 18.7868 26.0949 18.7868 24.9986ZM30.7622 18.7863H36.2435C34.692 15.9908 32.1588 13.87 29.1341 12.8342C29.3669 13.3508 29.5723 13.8793 29.7493 14.4177C30.2076 15.8432 30.5464 17.3045 30.7622 18.7863ZM19.2393 31.2137H13.7585C15.3096 34.0092 17.8424 36.1301 20.8669 37.1661C20.634 36.6492 20.4286 36.1203 20.2517 35.5817C19.7937 34.1563 19.455 32.6953 19.2393 31.2137ZM21.8462 21.716C21.7611 22.7759 21.7169 23.8758 21.7169 24.9986C21.7169 26.1215 21.7611 27.2233 21.8463 28.2841H28.1548C28.2399 27.2233 28.2842 26.1224 28.2842 24.9986C28.2842 23.8748 28.2399 22.7758 28.1549 21.716H21.8462ZM23.0326 34.6594C23.9108 37.3069 24.8071 37.8481 24.9991 37.8481C25.1911 37.8481 26.0895 37.3069 26.968 34.6593C27.331 33.5334 27.6079 32.3816 27.7962 31.2137H22.2047C22.3929 32.3816 22.6697 33.5335 23.0326 34.6594ZM13.7577 18.7863H19.2388C19.4547 17.3046 19.7935 15.8433 20.2517 14.4177C20.4287 13.8792 20.634 13.3505 20.8669 12.8337C17.842 13.8694 15.3089 15.9905 13.7577 18.7863Z" fill="#E6B22E"></path>
  </g>
  <defs>
    <clipPath id="clip0_10537_31">
      <rect width="50" height="50" fill="white"></rect>
    </clipPath>
  </defs>
</svg>