<svg width="31" height="31" viewBox="0 0 31 31" fill="none" xmlns="http://www.w3.org/2000/svg">
<path d="M28.375 10.5H27.695C26.737 4.834 21.809 0.5 15.875 0.5C9.941 0.5 5.012 4.834 4.055 10.5H3.375C2.71212 10.5005 2.07654 10.7641 1.60782 11.2328C1.13909 11.7015 0.87553 12.3371 0.875 13V18C0.875 19.379 1.996 20.5 3.375 20.5H4.875C5.14022 20.5 5.39457 20.3946 5.58211 20.2071C5.76964 20.0196 5.875 19.7652 5.875 19.5V12.5C5.875 6.986 10.361 2.5 15.875 2.5C21.389 2.5 25.875 6.986 25.875 12.5V18.5C25.875 24.014 21.389 28.5 15.875 28.5C15.6098 28.5 15.3554 28.6054 15.1679 28.7929C14.9804 28.9804 14.875 29.2348 14.875 29.5C14.875 29.7652 14.9804 30.0196 15.1679 30.2071C15.3554 30.3946 15.6098 30.5 15.875 30.5C21.81 30.5 26.738 26.166 27.695 20.5H28.375C29.754 20.5 30.875 19.379 30.875 18V13C30.875 11.621 29.754 10.5 28.375 10.5ZM2.875 18V13C2.875 12.729 3.104 12.5 3.375 12.5H3.875V18.5H3.375C3.24288 18.4984 3.1166 18.4453 3.02317 18.3518C2.92974 18.2584 2.87656 18.1321 2.875 18ZM28.875 18C28.875 18.271 28.646 18.5 28.375 18.5H27.875V12.5H28.375C28.646 12.5 28.875 12.729 28.875 13V18ZM23.875 17.5V12.5C23.875 8.089 20.286 4.5 15.875 4.5C11.464 4.5 7.875 8.089 7.875 12.5V17.5C7.875 21.911 11.464 25.5 15.875 25.5C20.286 25.5 23.875 21.911 23.875 17.5ZM9.875 17.5V12.5C9.875 9.191 12.566 6.5 15.875 6.5C19.184 6.5 21.875 9.191 21.875 12.5V17.5C21.875 20.809 19.184 23.5 15.875 23.5C12.566 23.5 9.875 20.809 9.875 17.5Z" fill="black"/>
</svg>
