<svg xmlns="http://www.w3.org/2000/svg" width="30" height="32" viewBox="0 0 30 32"><path d="M14.968 31.484l-14.71-7.348v-16.376l14.71-7.243 14.71 7.239v16.381l-14.71 7.348zM2.989 22.447l11.979 5.98 11.978-5.984v-12.985l-11.978-5.896-11.979 5.896v12.989zM16.334 29.957h-2.732v-13.941l-12.581-6.18 1.205-2.459 14.108 6.937v15.643zM16.334 29.957h-2.732v-15.643l14.108-6.932 1.205 2.459-12.581 6.175v13.941zM14.968 16.681l-13.947-6.846 1.205-2.459 12.742 6.267 12.742-6.26 1.205 2.458-13.947 6.839z"></path></svg>