<svg xmlns="http://www.w3.org/2000/svg" width="40" height="40" viewBox="0 0 40 40" fill="none"><path d="M2.65596 18.3125C2.24256 21.7473 2.92967 25.3467 4.43932 28.2915C-3.3167 39.5079 1.30657 43.6922 12.3244 36.1638C16.92 38.5861 23.1848 38.6619 27.8457 36.3432C31.2954 38.5939 34.3735 40 36.4923 40C40.2207 39.7958 39.8817 36.3737 37.78 32.1603C37.9339 32.1979 39.111 32.6404 39.2506 32.6127C40.0314 32.6255 40.2313 31.4718 39.4747 31.2307L36.6384 30.2855C36.5501 30.2557 36.4567 30.2437 36.3638 30.2502C36.2708 30.2566 36.18 30.2814 36.0967 30.323C36.0133 30.3647 35.939 30.4224 35.878 30.4928C35.817 30.5633 35.7706 30.6451 35.7414 30.7336L34.7962 33.57C34.5168 34.4556 35.8272 34.9009 36.1413 34.0188L36.5341 32.8389C40.3519 40.6616 35.7563 39.4739 29.2872 35.5732C37.0284 31.2342 40.3972 20.4504 36.1073 12.3803C39.4003 7.40316 40.9815 3.16209 39.2031 1.3837C37.9736 0.154135 35.5861 0.42288 32.1037 2.17504L32.5193 0.927043C32.8001 0.0399718 31.4826 -0.401791 31.1748 0.480316L30.2296 3.31667C30.1703 3.49496 30.1842 3.68949 30.2682 3.85754C30.3523 4.02559 30.4996 4.15342 30.6778 4.21296C30.665 4.21225 33.8828 5.30212 33.7382 5.19434C34.5196 5.2064 34.7196 4.05554 33.9623 3.81233L32.783 3.41949C40.7319 -0.466318 39.3797 4.3718 35.3216 10.9784C30.7423 3.23584 19.8173 0.16548 11.7997 4.74974C1.59162 -3.11122 -4.55193 0.639861 4.15923 12.9312C3.37443 14.6336 2.86694 16.4498 2.65596 18.3125ZM3.98763 21.2751C5.25619 23.1925 7.46713 24.7922 9.23986 25.9388C9.74331 26.2621 10.2652 26.5961 10.512 27.023C11.0282 27.9171 10.3134 29.1736 9.98298 29.6714C9.52491 30.35 9.00799 30.9882 8.61444 31.7178C5.94401 28.9878 4.22234 25.3289 3.98763 21.2751ZM2.3312 38.2563C1.57957 37.5047 1.90716 34.7974 5.20088 29.6508C6.64318 31.9732 8.60069 33.9324 10.9218 35.3767C6.41768 38.2386 3.24876 39.1739 2.3312 38.2563ZM20.2662 36.6311C17.997 36.6324 15.7527 36.1572 13.6788 35.2363C15.4605 33.9744 17.1882 32.6377 18.8572 31.23C18.4995 30.9188 18.144 30.6052 17.7908 30.289C15.8067 31.9483 13.9425 33.3523 12.2386 34.5102C11.3359 33.9973 10.484 33.3997 9.69438 32.7255C10.0262 31.9625 10.6758 31.1903 11.1636 30.4571C12.8215 28.0561 12.2003 25.9012 10.0106 24.7489C7.7529 23.3343 4.81727 21.017 4.08123 18.3423C4.25354 16.9305 4.60596 15.574 5.1165 14.2955C10.5269 21.8161 18.931 30.1607 26.4587 35.4065C24.4947 36.2164 22.3906 36.6325 20.2662 36.6311ZM31.6102 32.0235C31.2656 31.213 30.3672 30.1763 30.5324 29.3927C30.8288 28.3809 32.3668 27.681 32.9561 26.7074C34.3771 24.3178 33.1163 22.9017 36.4817 22.0607C36.0668 25.9522 34.2771 29.4367 31.6102 32.0235ZM32.7774 13.3935C33.3985 12.827 33.685 12.0683 33.8197 11.2613C34.0445 11.5974 34.2551 11.9435 34.4558 12.2966C31.7166 16.471 25.9198 23.0428 21.0122 27.4633C21.371 27.7817 21.7283 28.0979 22.08 28.3993C26.838 24.054 31.7591 18.611 35.1826 13.7389C36.1247 15.8588 36.5983 18.157 36.571 20.4766C35.635 20.956 34.5231 21.0779 33.6758 21.7899C32.8093 22.5089 32.5668 23.4938 32.3526 24.3632C32.2108 24.9375 32.0782 25.4793 31.7839 25.9076C31.0082 26.9691 29.4546 27.6264 29.1461 29.0885C28.8015 30.6195 30.0566 31.7533 30.4842 33.0204C29.6922 33.6595 28.8423 34.2233 27.9456 34.7045C21.3582 30.5627 10.19 19.5031 5.79794 12.81C6.48294 11.4966 7.34286 10.2822 8.35421 9.19999C9.06117 11.7428 11.7862 14.4068 14.4056 12.5589C14.7934 12.2576 15.0806 11.8265 15.4338 11.5563C15.7876 11.3081 16.2577 11.2918 16.5789 11.3195C17.5078 11.3492 17.6468 12.1065 17.9546 12.9121C18.5048 14.4281 19.2763 15.5095 20.252 16.1292C21.5319 16.9475 23.3068 16.822 24.2718 15.6272C24.7484 15.0677 24.9207 14.2615 25.3454 13.7339C25.8758 13.1262 26.8465 13.2461 27.138 13.2985C28.9171 13.7651 31.2755 14.838 32.7774 13.3935ZM20.2662 4.01229C25.1419 4.01229 29.5212 6.1658 32.5122 9.56801C32.6044 14.014 30.2417 12.6447 27.3833 11.9009C26.1126 11.6719 24.9788 12.0002 24.2761 12.8015C23.7556 13.3815 23.5918 14.1672 23.1678 14.7351C21.5362 16.1881 19.9088 14.2778 19.2862 12.4263C19.0182 11.696 18.7686 10.8791 18.0609 10.3679C16.9526 9.65452 15.5664 9.77435 14.6148 10.3983C14.173 10.7061 13.8964 11.1358 13.5213 11.4485C12.7584 12.0555 11.5536 11.6329 10.8736 10.8919C10.2163 10.18 9.82769 9.17588 9.48308 8.1009C12.3599 5.55952 16.1343 4.013 20.2662 4.013V4.01229ZM1.69869 2.38777C2.46664 1.61982 5.26541 1.97224 10.6219 5.45954C8.26849 6.99144 6.31024 9.05757 4.90661 11.4896C1.78804 6.71321 0.744967 3.33936 1.69798 2.38635L1.69869 2.38777Z" fill="currentColor"></path></svg>