<svg xmlns="http://www.w3.org/2000/svg" class="" width="34" height="40" viewBox="0 0 34 40"><path d="M33.3333 18.6667H32.6667V10C32.6667 9.82319 32.5964 9.65362 32.4714 9.52859C32.3464 9.40357 32.1768 9.33333 32 9.33333H24V3.33333C23.9989 2.4496 23.6474 1.60237 23.0225 0.97748C22.3976 0.352588 21.5504 0.00105857 20.6667 0H3.33333C2.4496 0.00105857 1.60237 0.352588 0.97748 0.97748C0.352588 1.60237 0.00105857 2.4496 0 3.33333V36.6667C0.00105857 37.5504 0.352588 38.3976 0.97748 39.0225C1.60237 39.6474 2.4496 39.9989 3.33333 40H20.6667C21.5504 39.9989 22.3976 39.6474 23.0225 39.0225C23.6474 38.3976 23.9989 37.5504 24 36.6667V30.6667H32C32.1768 30.6667 32.3464 30.5964 32.4714 30.4714C32.5964 30.3464 32.6667 30.1768 32.6667 30V25.3333H33.3333C33.5101 25.3333 33.6797 25.2631 33.8047 25.1381C33.9298 25.013 34 24.8435 34 24.6667V19.3333C34 19.1565 33.9298 18.987 33.8047 18.8619C33.6797 18.7369 33.5101 18.6667 33.3333 18.6667ZM31.3333 13.3333H11.3333C10.9797 13.3333 10.6406 13.1929 10.3905 12.9428C10.1405 12.6928 10 12.3536 10 12C10 11.6464 10.1405 11.3072 10.3905 11.0572C10.6406 10.8071 10.9797 10.6667 11.3333 10.6667H31.3333V13.3333ZM8 1.33333H16V2C16 2.17681 15.9298 2.34638 15.8047 2.4714C15.6797 2.59643 15.5101 2.66667 15.3333 2.66667H8.66667C8.48986 2.66667 8.32029 2.59643 8.19526 2.4714C8.07024 2.34638 8 2.17681 8 2V1.33333ZM22.6667 36.6667C22.6667 37.1971 22.456 37.7058 22.0809 38.0809C21.7058 38.456 21.1971 38.6667 20.6667 38.6667H3.33333C2.8029 38.6667 2.29419 38.456 1.91912 38.0809C1.54405 37.7058 1.33333 37.1971 1.33333 36.6667V3.33333C1.33333 2.8029 1.54405 2.29419 1.91912 1.91912C2.29419 1.54405 2.8029 1.33333 3.33333 1.33333H6.66667V2C6.66667 2.53043 6.87738 3.03914 7.25245 3.41421C7.62753 3.78929 8.13623 4 8.66667 4H15.3333C15.8638 4 16.3725 3.78929 16.7475 3.41421C17.1226 3.03914 17.3333 2.53043 17.3333 2V1.33333H20.6667C21.1971 1.33333 21.7058 1.54405 22.0809 1.91912C22.456 2.29419 22.6667 2.8029 22.6667 3.33333V9.33333H11.3333C10.6261 9.33333 9.94781 9.61429 9.44772 10.1144C8.94762 10.6145 8.66667 11.2928 8.66667 12V27.3333C8.66773 28.2171 9.01925 29.0643 9.64415 29.6892C10.269 30.3141 11.1163 30.6656 12 30.6667H22.6667V36.6667ZM31.3333 29.3333H12C11.4696 29.3333 10.9609 29.1226 10.5858 28.7475C10.2107 28.3725 10 27.8638 10 27.3333V14.296C10.4036 14.5359 10.8638 14.6639 11.3333 14.6667H31.3333V18.6667H28C27.4696 18.6667 26.9609 18.8774 26.5858 19.2525C26.2107 19.6275 26 20.1362 26 20.6667V23.3333C26 23.8638 26.2107 24.3725 26.5858 24.7475C26.9609 25.1226 27.4696 25.3333 28 25.3333H31.3333V29.3333ZM32.6667 24H28C27.8232 24 27.6536 23.9298 27.5286 23.8047C27.4036 23.6797 27.3333 23.5101 27.3333 23.3333V20.6667C27.3333 20.4899 27.4036 20.3203 27.5286 20.1953C27.6536 20.0702 27.8232 20 28 20H32.6667V24Z"></path><path d="M28.6667 21.3333H30V22.6667H28.6667V21.3333ZM18.6667 20H20C20.1768 20 20.3464 20.0702 20.4714 20.1953C20.5964 20.3203 20.6667 20.4899 20.6667 20.6667H22C22 20.1362 21.7893 19.6275 21.4142 19.2525C21.0391 18.8774 20.5304 18.6667 20 18.6667V17.3333H18.6667V18.6667C18.1362 18.6667 17.6275 18.8774 17.2525 19.2525C16.8774 19.6275 16.6667 20.1362 16.6667 20.6667C16.6667 21.1971 16.8774 21.7058 17.2525 22.0809C17.6275 22.456 18.1362 22.6667 18.6667 22.6667H20C20.1768 22.6667 20.3464 22.7369 20.4714 22.8619C20.5964 22.987 20.6667 23.1565 20.6667 23.3333C20.6667 23.5101 20.5964 23.6797 20.4714 23.8047C20.3464 23.9298 20.1768 24 20 24H18.6667C18.4899 24 18.3203 23.9298 18.1953 23.8047C18.0702 23.6797 18 23.5101 18 23.3333H16.6667C16.6667 23.8638 16.8774 24.3725 17.2525 24.7475C17.6275 25.1226 18.1362 25.3333 18.6667 25.3333V26.6667H20V25.3333C20.5304 25.3333 21.0391 25.1226 21.4142 24.7475C21.7893 24.3725 22 23.8638 22 23.3333C22 22.8029 21.7893 22.2942 21.4142 21.9191C21.0391 21.544 20.5304 21.3333 20 21.3333H18.6667C18.4899 21.3333 18.3203 21.2631 18.1953 21.1381C18.0702 21.013 18 20.8435 18 20.6667C18 20.4899 18.0702 20.3203 18.1953 20.1953C18.3203 20.0702 18.4899 20 18.6667 20Z"></path></svg>