<svg width="54" height="30" viewBox="0 0 54 30" color="#FF6F61" fill="none" xmlns="http://www.w3.org/2000/svg">
<path d="M26.7902 2.23275C25.3363 2.31791 23.1885 2.62886 20.7832 3.5772M12.9651 19.05C5.47233 21.4266 0.64887 24.1878 1.02 26.2896C1.57479 29.4469 13.6551 29.9152 28.0056 27.3283C42.3561 24.7465 53.5386 20.0938 52.9799 16.9275C52.5935 14.7225 46.5738 13.8309 38.0836 14.3754C36.9205 11.1213 35.0253 6.38222 33.2512 4.49716C33.2512 4.49716 32.046 2.6766 28.7402 2.24437C28.7402 2.24437 28.1944 2.15147 26.9777 2.21985L26.0071 1.7231C20.7819 -0.165838 17.5425 2.24308 17.5425 2.24308C14.6193 3.85719 14.1474 6.0016 14.1474 6.0016C13.0761 8.63372 12.9447 15.2037 12.9664 19.0461L12.9651 19.05ZM39.5222 18.6113C39.5222 18.6113 38.7697 16.2991 38.0849 14.378C36.9217 11.1239 35.0278 6.3848 33.255 4.49974C33.255 4.49974 32.0473 2.67918 28.7415 2.24695C28.7415 2.24695 28.1982 2.15405 26.9802 2.22243L26.0096 1.72568C20.7844 -0.163256 17.545 2.24566 17.545 2.24566C14.6219 3.85977 14.15 6.00418 14.15 6.00418C13.0786 8.63631 12.9473 15.2063 12.969 19.0487C12.9766 20.7918 13.1029 23.4343 13.1029 23.4343C17.0055 23.2304 21.4821 22.7092 26.2048 21.8589C31.1328 20.9725 35.6859 19.8435 39.5222 18.6113Z" stroke="currentColor" stroke-width="1.8" stroke-miterlimit="10" stroke-linecap="round" stroke-linejoin="round"/>
</svg>
