<svg xmlns="http://www.w3.org/2000/svg" width="37" height="37" viewBox="0 0 37 37" fill="none"><path d="M0.770749 0C0.617217 3.12133e-05 0.467192 0.0458993 0.339898 0.131726C0.212605 0.217553 0.113841 0.339429 0.0562637 0.481736C-0.00131376 0.624043 -0.0150821 0.7803 0.0167231 0.930481C0.0485282 1.08066 0.124458 1.21793 0.234782 1.32469L3.76975 4.8622L2.95075 5.67808C2.80624 5.82263 2.72507 6.01864 2.72507 6.22301C2.72507 6.42738 2.80624 6.62339 2.95075 6.76794L5.13376 8.95367L4.99826 9.08915C3.57245 10.5148 3.57245 12.8418 4.99826 14.2675L5.56434 14.8335C5.62269 14.9248 5.69964 15.0027 5.79017 15.0623L5.79619 15.0653L8.30138 17.5701L8.30439 17.5762C8.35998 17.657 8.4305 17.7265 8.51215 17.7809L11.0234 20.2918C11.0812 20.3817 11.1571 20.4586 11.2462 20.5176L11.2522 20.5206L13.7484 23.0164C13.8062 23.1063 13.8821 23.1832 13.9712 23.2422L16.4764 25.7471C16.5345 25.8359 16.6104 25.9117 16.6992 25.9699H16.7022L19.2044 28.4747C19.2625 28.5635 19.3384 28.6394 19.4272 28.6975L21.4988 30.7688L19.9993 32.2681C19.9253 32.3391 19.8663 32.4242 19.8256 32.5183C19.7849 32.6125 19.7634 32.7138 19.7624 32.8163C19.7613 32.9188 19.7808 33.0205 19.8195 33.1155C19.8583 33.2104 19.9156 33.2967 19.9881 33.3692C20.0606 33.4417 20.1469 33.499 20.2418 33.5378C20.3368 33.5765 20.4385 33.5959 20.5411 33.5949C20.6436 33.5938 20.7449 33.5724 20.8391 33.5317C20.9332 33.491 21.0183 33.4319 21.0893 33.358L23.0254 31.4221L23.0314 31.4191C23.1136 31.363 23.1842 31.2914 23.2392 31.2084C23.2412 31.2054 23.2432 31.2024 23.2452 31.1993L25.3168 29.131L31.0438 34.8603L30.2308 35.6732C30.1569 35.7442 30.0978 35.8293 30.0571 35.9234C30.0164 36.0175 29.9949 36.1188 29.9939 36.2213C29.9928 36.3239 30.0123 36.4256 30.051 36.5205C30.0898 36.6155 30.1471 36.7017 30.2196 36.7742C30.2922 36.8467 30.3784 36.9041 30.4734 36.9428C30.5683 36.9816 30.67 37.001 30.7726 37C30.8751 36.9989 30.9765 36.9774 31.0706 36.9367C31.1647 36.8961 31.2498 36.837 31.3208 36.763L32.5765 35.5076C32.6543 35.4541 32.7217 35.3867 32.7752 35.3089L35.3045 32.7829C35.3897 32.7247 35.4624 32.65 35.5182 32.5632L36.7648 31.3198C36.8768 31.2116 36.9533 31.0721 36.9844 30.9196C37.0156 30.7671 36.9998 30.6087 36.9392 30.4654C36.8786 30.322 36.776 30.2004 36.6449 30.1164C36.5138 30.0325 36.3604 29.9902 36.2048 29.9951C36.0043 30.0015 35.8142 30.0857 35.6748 30.2299L34.8618 31.0428L29.1348 25.3135L33.3623 21.0866C33.4732 20.9782 33.5488 20.839 33.5793 20.687C33.6098 20.5351 33.5937 20.3774 33.5332 20.2347C33.4728 20.092 33.3707 19.9708 33.2403 19.887C33.1099 19.8032 32.9572 19.7607 32.8023 19.7649C32.6022 19.7705 32.4122 19.8536 32.2723 19.9967L30.7728 21.496L14.2693 4.99768C13.5564 4.28491 12.6187 3.9289 11.6798 3.9289C10.7409 3.9289 9.80017 4.28491 9.08726 4.99768L8.95177 5.13617L6.76876 2.95345C6.69576 2.88043 6.60884 2.82281 6.51315 2.78403C6.41746 2.74524 6.31496 2.72607 6.21171 2.72765C6.01147 2.73084 5.82033 2.81182 5.67876 2.95345L4.85975 3.77234L1.32478 0.234831C1.2529 0.160545 1.16681 0.101474 1.07163 0.0611317C0.976449 0.0207894 0.874127 2.97848e-09 0.770749 0ZM6.22376 4.58823L7.86177 6.22602L6.22376 7.86381L4.58575 6.22301L5.29033 5.51852C5.38055 5.45984 5.45747 5.38292 5.51616 5.29272L6.22376 4.58823ZM11.6768 5.45529C12.2171 5.45529 12.7589 5.66725 13.1793 6.08753L29.6828 22.5859L27.539 24.7295C27.5255 24.742 27.5124 24.7551 27.4998 24.7686L22.5888 29.679L20.9508 28.0412L23.1248 25.8675C23.2356 25.7591 23.3112 25.6199 23.3417 25.4679C23.3722 25.316 23.3561 25.1583 23.2957 25.0156C23.2352 24.8729 23.1331 24.7517 23.0027 24.6679C22.8723 24.5841 22.7197 24.5416 22.5647 24.5458C22.3647 24.5514 22.1746 24.6345 22.0348 24.7776L19.8608 26.9513L18.2228 25.3135L19.0328 24.5067C19.1447 24.3985 19.2213 24.259 19.2524 24.1065C19.2835 23.954 19.2677 23.7956 19.2071 23.6523C19.1465 23.5089 19.0439 23.3873 18.9128 23.3033C18.7817 23.2194 18.6283 23.1771 18.4727 23.182C18.2727 23.1876 18.0826 23.2707 17.9428 23.4138L17.1328 24.2237L15.4948 22.5859L17.6688 20.4152C17.7807 20.307 17.8573 20.1675 17.8884 20.015C17.9195 19.8625 17.9037 19.7042 17.8431 19.5608C17.7825 19.4175 17.6799 19.2958 17.5488 19.2119C17.4177 19.1279 17.2643 19.0856 17.1087 19.0905C16.9082 19.0969 16.7181 19.1811 16.5788 19.3254L14.4048 21.496L12.7698 19.8582L13.5767 19.0514C13.6887 18.9432 13.7652 18.8037 13.7964 18.6512C13.8275 18.4987 13.8117 18.3404 13.7511 18.197C13.6905 18.0536 13.5879 17.932 13.4568 17.848C13.3257 17.7641 13.1723 17.7218 13.0167 17.7267C12.8162 17.7331 12.6261 17.8173 12.4867 17.9615L11.6798 18.7684L10.0418 17.1336L12.2127 14.9599C12.3236 14.8516 12.3992 14.7123 12.4297 14.5603C12.4601 14.4084 12.4441 14.2508 12.3836 14.108C12.3232 13.9653 12.2211 13.8442 12.0907 13.7604C11.9603 13.6765 11.8076 13.634 11.6527 13.6382C11.4526 13.6438 11.2626 13.7269 11.1227 13.8701L8.95177 16.0407L7.31376 14.406L8.12373 13.5961C8.23457 13.4877 8.31017 13.3485 8.34066 13.1965C8.37114 13.0446 8.3551 12.8869 8.29463 12.7442C8.23415 12.6015 8.13206 12.4803 8.00166 12.3965C7.87126 12.3127 7.71863 12.2702 7.56367 12.2744C7.36363 12.28 7.17359 12.3631 7.03373 12.5062L6.22376 13.3161L6.08826 13.1776C5.24752 12.3369 5.24752 11.0197 6.08826 10.179L10.1773 6.08753C10.5976 5.66725 11.1364 5.45529 11.6768 5.45529ZM28.0448 26.4034L33.7718 32.1326L32.1338 33.7704L26.4068 28.0412L28.0448 26.4034Z" fill="white"></path></svg>