<svg xmlns="http://www.w3.org/2000/svg" width="44" height="33" viewBox="0 0 44 33" fill="none"><path d="M26.1694 0C24.7271 0 23.2833 0.546201 22.1837 1.64127C19.9843 3.83111 19.9843 7.39411 22.1837 9.5841C22.1903 9.58994 22.1969 9.59567 22.2037 9.60128L30.2841 17.1231C30.4193 17.2495 30.5974 17.3201 30.7826 17.3207H30.797C30.9822 17.3201 31.1603 17.2495 31.2955 17.1231L39.3787 9.60128C41.6728 7.46629 41.5955 3.83126 39.3959 1.64127C39.3271 1.57236 39.2453 1.51783 39.1552 1.48087H39.1524C36.9412 -0.499702 33.555 -0.477741 31.4273 1.64127L30.7884 2.27715L30.1523 1.64127C29.0526 0.546201 27.6117 0 26.1694 0ZM26.1694 1.45222V1.45509C27.2335 1.45509 28.2972 1.86372 29.1179 2.68103L30.2726 3.82963C30.4101 3.96622 30.596 4.04289 30.7898 4.04289C30.9836 4.04289 31.1695 3.96622 31.307 3.82963L32.4617 2.68103C34.1032 1.04612 36.7172 1.04642 38.3587 2.68103H38.3644C40.0027 4.31534 40.0522 6.96968 38.3787 8.52715L30.7912 15.5878L23.2209 8.54434C21.5796 6.90988 21.5796 4.31233 23.2209 2.67816C24.0416 1.86086 25.1053 1.45222 26.1694 1.45222ZM0.733534 13.5684C0.538995 13.5684 0.352429 13.6457 0.214869 13.7832C0.0773085 13.9207 1.9451e-05 14.1072 0 14.3017V29.2364C1.9451e-05 29.4308 0.0773085 29.6173 0.214869 29.7548C0.352429 29.8924 0.538995 29.9696 0.733534 29.9696H8.75943C8.95397 29.9696 9.14053 29.8924 9.27809 29.7548C9.41565 29.6173 9.49294 29.4308 9.49296 29.2364V28.1565L23.1951 32.7967C23.214 32.8023 23.2332 32.8071 23.2525 32.8111C24.848 33.2157 26.6884 32.9756 28.0806 32.0406L42.2699 24.3326C42.2737 24.3326 42.2775 24.3326 42.2814 24.3326L42.6281 24.135C43.8122 23.4653 44.32 22.0077 43.7914 20.7579C43.3415 19.6942 42.457 19.2061 41.7656 19.1052V19.0994C41.0741 18.9983 40.5077 19.194 40.5077 19.194C40.4833 19.2032 40.4594 19.2137 40.4361 19.2255L32.6136 22.8517C32.6237 22.7528 32.6451 22.6582 32.6451 22.5567C32.6451 20.9092 31.2798 19.5692 29.625 19.5692H23.112C23.084 19.5193 23.0518 19.449 23.0261 19.4031C22.9097 19.1928 22.7836 18.9901 22.6479 18.793C22.3763 18.3986 22.0669 18.0307 21.7252 17.6959C20.3583 16.3573 18.4638 15.5333 16.3813 15.5333H9.49296V14.3017C9.49294 14.1072 9.41565 13.9207 9.27809 13.7832C9.14053 13.6457 8.95397 13.5684 8.75943 13.5684H0.733534ZM1.46707 15.0349H8.02589V28.5031H1.46707V15.0349ZM9.49296 16.9999H16.3813C18.0781 16.9999 19.5973 17.6677 20.6965 18.7443C20.9714 19.0135 21.2209 19.3076 21.4387 19.6236C21.5476 19.7819 21.6493 19.9451 21.7424 20.1134C21.8573 20.3212 21.9354 20.4478 21.9974 20.5918L22.1865 21.0357H29.625C30.5037 21.0357 31.1781 21.7076 31.1781 22.5567C31.1781 23.1936 30.7986 23.7266 30.2382 23.9545L30.2296 23.9574C30.045 24.0313 29.8415 24.0748 29.625 24.0748H19.4215V25.5414H29.625C29.9317 25.5414 30.2219 25.4806 30.5018 25.3953C30.589 25.3894 30.6743 25.3681 30.754 25.3323L40.9919 20.586C41.0044 20.586 41.2465 20.5062 41.5536 20.5517C41.8684 20.5971 42.1708 20.6837 42.4418 21.325C42.684 21.8977 42.4658 22.5381 41.906 22.8546L41.5621 23.0465L27.3213 30.786C27.3006 30.7974 27.2805 30.8098 27.2611 30.8232C26.2937 31.473 24.7913 31.6875 23.6164 31.3904H23.6135L9.49296 26.6098V16.9999Z" fill="white"></path></svg>