<svg xmlns="http://www.w3.org/2000/svg" width="51" height="38" viewBox="0 0 51 38" fill="#ffffff"><path d="M46.2189 17.8184V9.3138C46.2189 4.17809 42.0132 0 36.8438 0H14.1563C8.98683 0 4.78126 4.1782 4.78126 9.3138V17.8184C1.99985 18.791 0 21.4259 0 24.5175V26.1488C0 28.9363 1.62588 31.3528 3.9844 32.5143V37.9998H5.57822V33.0754C6.08365 33.1885 6.60843 33.2501 7.14779 33.2501H43.8522C44.3916 33.2501 44.9164 33.1885 45.4218 33.0754V38H47.0156V32.5145C49.3741 31.353 51 28.9365 51 26.149V24.5177C51 21.4259 49.0003 18.791 46.2189 17.8184ZM6.37508 9.3138C6.37508 5.05112 9.86571 1.5832 14.1563 1.5832H36.8437C41.1344 1.5832 44.625 5.05112 44.625 9.31369V15.6036C43.7824 14.6585 42.6688 13.9782 41.4375 13.6592V11.2884C41.4375 9.4292 39.915 7.91662 38.0436 7.91662H30.4878C28.6162 7.91662 27.0938 9.4292 27.0938 11.2884V13.4555H23.9064V11.2884C23.9064 9.4292 22.3839 7.91662 20.5123 7.91662H12.9566C11.0851 7.91662 9.56262 9.4292 9.56262 11.2884V13.6593C8.33142 13.9783 7.21784 14.6586 6.37508 15.6037V9.3138ZM39.8438 15.0388C41.5535 15.0388 43.1409 15.9622 43.9884 17.42C43.9429 17.4191 43.8979 17.4165 43.8522 17.4165H7.14769C7.1021 17.4165 7.05703 17.4191 7.01155 17.42C7.85909 15.9623 9.44667 15.0388 11.1563 15.0388H39.8438ZM11.1563 13.4555V11.2884C11.1563 10.3022 11.9639 9.49992 12.9566 9.49992H20.5123C21.505 9.49992 22.3126 10.3022 22.3126 11.2884V13.4555H11.1563ZM39.8438 13.4555H28.6875V11.2884C28.6875 10.3022 29.4951 9.49992 30.4878 9.49992H38.0436C39.0362 9.49992 39.8438 10.3022 39.8438 11.2884V13.4555ZM43.8523 31.6666H7.14769C4.08525 31.6666 1.59372 29.1913 1.59372 26.1489V24.5176C1.59372 21.4751 4.08525 18.9999 7.14769 18.9999H43.8522C46.9147 18.9999 49.4062 21.4752 49.4062 24.5176V26.1489H49.4063C49.4063 29.1913 46.9147 31.6666 43.8523 31.6666Z"></path><path d="M45.4219 27.7082H5.57812V29.2916H45.4219V27.7082Z"></path></svg>