<svg xmlns="http://www.w3.org/2000/svg" width="42" height="46" viewBox="0 0 42 46" fill="#ffffff"><path d="M36.7499 18.6875C35.2819 18.6875 33.9536 19.2685 32.9999 20.2023V5.11039C32.9999 2.29246 30.6078 0 27.6673 0H14.3326C11.3921 0 8.99999 2.29246 8.99999 5.11039V20.2024C8.04628 19.2686 6.71789 18.6875 5.24993 18.6875C2.35503 18.6875 0 20.9445 0 23.7188C0 26.2491 1.95905 28.3491 4.49999 28.6989V34.5001C4.49999 37.4561 6.37227 40.0002 9.03964 41.1028V46H10.5396V41.5497C11.0122 41.6394 11.5003 41.6875 12 41.6875H30C30.482 41.6875 30.953 41.642 31.41 41.5583V46H32.91V41.1242C35.6044 40.0331 37.4999 37.4747 37.4999 34.5V28.6988C40.0407 28.349 42 26.249 42 23.7187C41.9999 20.9445 39.6448 18.6875 36.7499 18.6875ZM10.4999 5.11039C10.4999 3.08509 12.2192 1.43747 14.3325 1.43747H27.6672C29.7805 1.43747 31.4999 3.08509 31.4999 5.11039V28.8223C31.2574 28.775 31.0067 28.75 30.7499 28.75H11.2499C10.9931 28.75 10.7423 28.775 10.4999 28.8223V5.11039ZM11.2499 30.1875H30.7499C31.9905 30.1875 32.9999 31.1548 32.9999 32.3437C32.9999 33.5327 31.9906 34.5 30.7499 34.5H11.2499C10.0093 34.5 8.99989 33.5327 8.99989 32.3437C8.99998 31.1548 10.0093 30.1875 11.2499 30.1875ZM36.7499 27.3125H35.9998V34.5C35.9998 37.6706 33.3083 40.2499 29.9999 40.2499H11.9999C8.69147 40.2499 5.99986 37.6705 5.99986 34.5V27.3125H5.24983C3.18211 27.3125 1.49987 25.7003 1.49987 23.7187C1.49987 21.7372 3.18211 20.1249 5.24983 20.1249C7.31754 20.1249 8.99989 21.7371 8.99989 23.7187V29.4687H9.00254C8.09084 30.1249 7.49992 31.1694 7.49992 32.3437C7.49992 34.3253 9.18217 35.9374 11.2499 35.9374H30.7499C32.8176 35.9374 34.4999 34.3253 34.4999 32.3437C34.4999 31.1694 33.909 30.1249 32.9973 29.4687H32.9999V23.7187C32.9999 21.7372 34.6822 20.1249 36.7499 20.1249C38.8177 20.1249 40.4999 21.7371 40.4999 23.7187C40.4999 25.7003 38.8177 27.3125 36.7499 27.3125Z"></path><path d="M28.4999 18.6875H13.4999V20.1249H28.4999V18.6875Z"></path><path d="M17.2499 10.0626H15.7499V11.5H17.2499V10.0626Z"></path><path d="M26.2498 10.0626H24.7499V11.5H26.2498V10.0626Z"></path></svg>