<svg xmlns="http://www.w3.org/2000/svg" id="icon-hand-cleaning" viewBox="0 0 18 32"><path fill="#fff" d="M9.898 19.013c1.234 0 2.237 1.003 2.237 2.237s-1.003 2.237-2.237 2.237-2.237-1.003-2.237-2.237c0-1.237 1.003-2.237 2.237-2.237v0zM2.185 3.727c0.146 0.612 0.453 1.081 0.708 1.469 0.292 0.443 0.529 0.805 0.529 1.253 0 0.469-0.13 0.948-0.461 1.302-0.281 0.299-0.688 0.495-1.253 0.495-0.563 0-0.969-0.195-1.25-0.495v0c-0.328-0.352-0.458-0.831-0.458-1.302 0-0.448 0.24-0.81 0.529-1.253 0.258-0.391 0.568-0.859 0.711-1.477 0.060-0.26 0.32-0.422 0.583-0.362 0.188 0.044 0.326 0.193 0.362 0.37v0zM2.885 16.518h14.065v-2.318c0-0.622-0.255-1.188-0.664-1.596s-0.977-0.664-1.596-0.664h-8.365c-0.016 0-0.029 0.003-0.044 0.003s-0.029 0-0.044-0.003h-1.091c-0.622 0-1.188 0.255-1.596 0.664-0.411 0.409-0.664 0.977-0.664 1.596v2.318zM16.951 17.49h-14.065v7.99h14.065v-7.99zM16.951 26.451h-14.065v2.318c0 0.622 0.255 1.188 0.664 1.596 0.411 0.411 0.977 0.664 1.596 0.664h9.542c0.622 0 1.188-0.255 1.596-0.664 0.411-0.409 0.664-0.977 0.664-1.596v-2.318h0.003zM5.148 10.966h0.648v-2.484c0-0.18 0.073-0.341 0.19-0.458s0.279-0.19 0.458-0.19h0.576v-1.458c0-0.156 0.065-0.299 0.169-0.404v0 0l0.010-0.010c0.104-0.099 0.245-0.159 0.396-0.159h0.367v-2.464h-6.146c-0.372 0-0.469-0.193-0.57-0.398v0l-0.008-0.018c-0.003-0.008-0.008-0.016-0.010-0.023l-1.039-2.049c-0.042-0.081-0.060-0.164-0.060-0.247 0-0.138 0.052-0.263 0.135-0.365 0.057-0.070 0.13-0.125 0.208-0.164 0.089-0.044 0.195-0.073 0.294-0.073h12.523c0.174 0 0.333 0.070 0.445 0.185s0.185 0.273 0.185 0.445v2.073c0 0.172-0.070 0.331-0.185 0.445v0c-0.115 0.115-0.273 0.185-0.445 0.185h-1.516v2.464h0.503c0.156 0 0.299 0.065 0.404 0.169v0 0l0.010 0.010c0.099 0.104 0.159 0.245 0.159 0.396v1.458h0.411c0.18 0 0.341 0.073 0.458 0.19s0.19 0.279 0.19 0.458v2.484h0.773c0.891 0 1.698 0.365 2.284 0.951s0.951 1.393 0.951 2.284v14.568c0 0.891-0.365 1.698-0.951 2.284s-1.393 0.951-2.284 0.951h-9.536c-0.891 0-1.698-0.365-2.284-0.951s-0.951-1.393-0.951-2.284v-14.565c0-0.891 0.365-1.698 0.951-2.284s1.393-0.951 2.284-0.951v0zM6.766 10.966h6.18v-2.159h-0.469c-0.034 0.008-0.070 0.010-0.107 0.010s-0.070-0.005-0.107-0.010h-5.497v2.159zM7.99 7.836h3.896v-1.063h-3.372c-0.023 0.003-0.047 0.005-0.070 0.005s-0.047-0.003-0.070-0.005h-0.388v1.063h0.005zM8.93 5.802h1.875v-2.464h-1.875v2.464zM8.362 2.367c0.026-0.005 0.055-0.008 0.083-0.008h2.846c0.029 0 0.057 0.003 0.083 0.008h1.578v-1.396h-11.615l0.706 1.396h6.318zM2.086 5.727c-0.12-0.182-0.25-0.38-0.375-0.602-0.125 0.221-0.255 0.419-0.375 0.602-0.201 0.305-0.367 0.557-0.367 0.721 0 0.25 0.055 0.487 0.195 0.638v0 0c0.104 0.112 0.279 0.185 0.547 0.185 0.266 0 0.44-0.073 0.547-0.188 0.141-0.148 0.195-0.388 0.195-0.638 0-0.161-0.164-0.411-0.367-0.719v0z"></path></svg>