<svg xmlns="http://www.w3.org/2000/svg" width="31" height="34" viewBox="0 0 31 34" fill="none"><path d="M1.435 8.90192L15.5 16.9506L29.565 8.90192M15.5 33V16.9346M30 23.3098V10.5595C29.9994 10.0005 29.8503 9.45148 29.5675 8.96753C29.2847 8.48358 28.8782 8.0817 28.3889 7.80221L17.1111 1.42705C16.6213 1.14729 16.0656 1 15.5 1C14.9344 1 14.3787 1.14729 13.8889 1.42705L2.61111 7.80221C2.12176 8.0817 1.7153 8.48358 1.43252 8.96753C1.14974 9.45148 1.00058 10.0005 1 10.5595V23.3098C1.00058 23.8688 1.14974 24.4178 1.43252 24.9017C1.7153 25.3857 2.12176 25.7875 2.61111 26.067L13.8889 32.4422C14.3787 32.7219 14.9344 32.8692 15.5 32.8692C16.0656 32.8692 16.6213 32.7219 17.1111 32.4422L28.3889 26.067C28.8782 25.7875 29.2847 25.3857 29.5675 24.9017C29.8503 24.4178 29.9994 23.8688 30 23.3098Z" stroke="#FF6F61" stroke-width="2" stroke-linecap="round" stroke-linejoin="round"></path></svg>