<svg xmlns="http://www.w3.org/2000/svg" width="41" height="31" viewBox="0 0 41 31" fill="none"><path d="M15.18 0.0172314C13.1973 0.144896 11.2515 0.834831 9.60723 2.06898C8.47445 2.91929 7.57793 3.97963 6.91002 5.15373C4.9166 5.67435 3.30176 6.29221 2.11985 7.0345C0.910942 7.79374 0.0414047 8.74686 0.00139463 9.94471C-0.0386423 11.1426 0.787407 12.1394 1.95605 12.9119C3.11766 13.6796 4.71728 14.3197 6.72438 14.8568C7.44742 16.5684 8.27602 17.7767 8.98843 19.0743C9.97583 20.8725 10.8318 22.9627 11.1906 27.4273L11.187 27.3561C11.187 28.6579 11.9018 29.8614 13.0543 30.5121C14.2066 31.1626 15.6292 31.1626 16.7816 30.5121C17.934 29.8614 18.6452 28.6579 18.6452 27.3561V22.1911C18.6452 20.9566 19.5262 20.061 20.5125 20.061C21.4988 20.061 22.3762 20.9566 22.3762 22.1911V27.3561C22.3762 28.6579 23.0874 29.8614 24.2398 30.5121C25.3922 31.1626 26.8184 31.1626 27.9708 30.5121C29.1232 29.8614 29.8344 28.6579 29.8344 27.3561L29.8308 27.4452C30.2879 22.9736 31.1466 20.8711 32.113 19.0672C32.8118 17.7628 33.6122 16.5524 34.3189 14.839C35.3556 14.5562 36.3333 14.2507 37.1799 13.895C38.6066 13.2958 39.6502 12.6401 40.3211 11.8219C40.9921 11.0038 41.2017 9.89629 40.787 8.97583C40.3724 8.05519 39.525 7.34952 38.3665 6.72104C37.2641 6.12322 35.8274 5.60594 34.0932 5.15373C33.0872 3.38992 31.5669 1.89721 29.5942 0.975428C26.6219 -0.41338 23.2982 -0.164109 20.5198 1.23546C18.8355 0.386125 17.006 -0.099673 15.18 0.0172314ZM15.3001 1.83745C16.4031 1.76632 17.4641 2.21496 18.5287 2.5748C17.956 3.06174 17.3458 3.49992 16.8835 4.12073C16.7401 4.31641 16.6816 4.55959 16.7206 4.79731C16.7596 5.03504 16.893 5.24804 17.0918 5.38994C17.2906 5.53183 17.5386 5.59112 17.7818 5.55488C18.0251 5.51865 18.2438 5.38982 18.3904 5.19648C20.7738 1.99575 25.1367 0.914046 28.7898 2.6211C32.4429 4.32816 34.3256 8.32837 33.2778 12.1532C33.1603 12.5822 33.0274 12.922 32.8993 13.2895C27.3519 14.5846 19.2403 14.9897 12.2862 14.0731C12.1623 14.0511 12.0352 14.0538 11.9124 14.0812C11.7896 14.1085 11.6737 14.1599 11.5718 14.2323C11.4699 14.3047 11.384 14.3965 11.3194 14.5023C11.2547 14.608 11.2126 14.7255 11.1956 14.8476C11.1787 14.9697 11.1871 15.0939 11.2206 15.2127C11.254 15.3316 11.3117 15.4425 11.3901 15.5389C11.4686 15.6353 11.5662 15.7152 11.677 15.7736C11.7879 15.8321 11.9097 15.868 12.0351 15.8791C18.7112 16.7591 26.2546 16.5501 32.0257 15.3911C31.5319 16.3611 31.0035 17.2125 30.4641 18.2194C29.426 20.1572 28.4496 22.6156 27.9744 27.2635C27.9716 27.2943 27.9704 27.3252 27.9708 27.3561C27.9708 28.0088 27.6171 28.6076 27.039 28.9341C26.4607 29.2606 25.75 29.2606 25.1717 28.9341C24.5935 28.6076 24.2398 28.0088 24.2398 27.3561L24.2435 22.1875C24.2435 20.0648 22.6172 18.2336 20.5125 18.2336C18.4078 18.2336 16.7816 20.0648 16.7816 22.1875V27.3561C16.7816 28.0088 16.4279 28.6076 15.8497 28.9341C15.2714 29.2606 14.5644 29.2606 13.9861 28.9341C13.4079 28.6076 13.0543 28.0088 13.0543 27.3561C13.0541 27.3311 13.0529 27.3062 13.0506 27.2813C12.6765 22.6265 11.697 20.1555 10.6301 18.2123C9.5631 16.269 8.50747 14.9419 7.74357 12.1532C6.86457 8.94444 8.04834 5.53775 10.7429 3.51518C12.0902 2.5039 13.6787 1.9414 15.3001 1.83745ZM26.5476 4.72628V4.72985C26.3216 4.73578 26.1055 4.82188 25.9395 4.97212C25.7736 5.12236 25.6691 5.3265 25.6455 5.54653C25.6219 5.76656 25.6808 5.98748 25.8113 6.16816C25.9417 6.34885 26.1348 6.47697 26.3546 6.52869C28.4099 7.05503 29.8344 8.86088 29.8344 10.9385C29.8311 11.0604 29.8527 11.1816 29.898 11.2951C29.9433 11.4086 30.0114 11.5121 30.0983 11.5995C30.1851 11.6868 30.289 11.7562 30.4037 11.8036C30.5185 11.851 30.6417 11.8754 30.7663 11.8754C30.8908 11.8754 31.0141 11.851 31.1288 11.8036C31.2435 11.7562 31.3474 11.6868 31.4343 11.5995C31.5211 11.5121 31.5892 11.4086 31.6345 11.2951C31.6798 11.1816 31.7015 11.0604 31.6981 10.9385C31.6981 8.04 29.6903 5.49936 26.8242 4.76547C26.7345 4.73887 26.6413 4.72567 26.5476 4.72628ZM35.0468 7.34797C35.998 7.65902 36.8472 7.98243 37.4638 8.31685C38.4211 8.83626 38.9286 9.36565 39.0835 9.70962C39.2385 10.0536 39.2299 10.2381 38.8688 10.6785C38.5077 11.1188 37.7068 11.6905 36.4446 12.2209C36.0333 12.3937 35.5336 12.5424 35.0541 12.6982C35.0619 12.6704 35.0719 12.6514 35.0796 12.6234C35.5674 10.8425 35.5251 9.02857 35.0468 7.34797ZM5.99639 7.35509C5.51728 9.04541 5.46144 10.8566 5.94544 12.6234C5.95201 12.6474 5.96066 12.6637 5.96728 12.6875C4.73088 12.2784 3.66865 11.8431 3.00071 11.4016C2.10269 10.8081 1.85447 10.3219 1.86505 10.0053C1.87562 9.68866 2.1793 9.16558 3.12811 8.56976C3.79687 8.14979 4.82214 7.74136 5.99639 7.35509Z" fill="white"></path></svg>