<svg xmlns="http://www.w3.org/2000/svg" width="49" height="38" viewBox="0 0 49 38" fill="#ffffff"><path d="M49 5.42864V0H0V5.42864H23.7343V8.53058H20.6718V22.4897C20.6718 24.3623 21.9891 25.929 23.7343 26.2893V29.1596C22.1111 29.4947 20.8583 30.8734 20.691 32.5714H19.1406V33.3469C19.1406 34.2021 18.4538 34.8979 17.6094 34.8979H16.8438V38H32.1562V34.8979H31.3906C30.5462 34.8979 29.8594 34.2021 29.8594 33.3469V32.5714H28.309C28.1418 30.8735 26.8889 29.4947 25.2657 29.1596V26.2893C27.0109 25.929 28.3282 24.3623 28.3282 22.4897V8.53058H25.2657V5.42864H49ZM28.4249 34.1224C28.7026 35.2109 29.5503 36.0696 30.6249 36.3507V36.4489H18.3751V36.3507C19.4497 36.0696 20.2974 35.2108 20.575 34.1224H28.4249ZM26.7643 32.5714H22.2356C22.4184 31.4725 23.3639 30.6327 24.4999 30.6327C25.636 30.6327 26.5815 31.4724 26.7643 32.5714ZM26.7969 10.0817V22.4897C26.7969 23.7726 25.7666 24.8162 24.5 24.8162C23.2334 24.8162 22.2031 23.7726 22.2031 22.4897V10.0817H26.7969ZM1.53131 3.87757V1.55107H47.4687V3.87757H1.53131Z"></path></svg>