<svg width="40" height="53" viewBox="0 0 40 53" fill="none" color="#FF6F61" xmlns="http://www.w3.org/2000/svg">
<path d="M26.9955 20.1342C26.9955 20.1342 27.1522 19.7579 26.8054 19.3274M26.9955 20.1342L29.6696 26.3816C26.8172 30.4096 26.0482 26.8889 22.5414 29.1408C19.0366 31.3966 19.0102 27.4543 16.195 28.8709C13.3788 30.2865 11.0729 25.7423 11.0729 25.7423M26.9955 20.1342C26.9955 20.1342 27.1532 19.7589 26.8054 19.3274M26.9955 20.1342L29.6686 26.3816C29.6686 26.3816 34.3176 30.9918 32.9717 33.5047C32.9717 33.5047 36.1944 35.9979 36.1101 40.5796C36.1023 40.9115 36.0357 41.1667 35.9152 41.3647L35.8848 41.407C35.8848 41.407 40.9648 46.8979 38.1505 48.9242L30.7814 50.3841V50.6707L25.8856 51.1465C25.4693 50.985 23.3241 51.4844 23.3241 51.4844C23.1576 52.3986 18.202 51.8154 18.202 51.8154V51.1593C17.3763 50.584 15.6435 50.9003 15.6435 50.9003C14.6531 51.4844 10.6037 50.9003 10.6037 50.9003V50.3181C10.2716 49.6571 6.72077 49.665 5.15251 49.4177C3.58426 49.1655 2.92404 48.5863 2.92404 48.5863C-1.90023 46.7186 3.88008 39.6979 3.88008 39.6979L4.22782 39.4201C4.26015 36.5683 7.83745 33.3254 7.83745 33.3254C7.3565 30.3731 10.7066 25.6842 10.7066 25.6842C10.7849 25.5719 11.0729 25.7423 11.0729 25.7423M26.8054 19.3274C26.8054 19.3274 26.5664 17.8212 26.6702 17.3632L27.5538 12.3314C27.5538 12.3314 28.1454 10.244 28.4109 10.0568M26.8054 19.3274C26.8054 19.3274 26.5674 17.8212 26.6722 17.3632L27.5558 12.3314C27.5558 12.3314 28.1454 10.243 28.4109 10.0568M28.4109 10.0568C28.4109 10.0568 27.3412 5.60033 28.7861 2.04714L28.2238 1.51224L25.3792 1M28.4109 10.0568C28.4109 10.0568 27.3422 5.59934 28.788 2.04714L28.2258 1.51224L25.3792 1M25.3792 1C25.3792 1 25.5771 1.97227 25.435 2.63917M25.3792 1C25.3792 1 25.578 1.97227 25.435 2.63917M25.435 2.63917C25.435 2.63917 25.1402 4.25668 24.7924 4.66253C24.4457 5.06346 23.8913 6.80114 20.1993 6.89571C16.9071 6.97451 15.6454 4.82211 15.6454 4.82211M25.435 2.63917C25.435 2.63917 25.1412 4.25668 24.7944 4.66253C24.4476 5.06444 23.8942 6.80114 20.2003 6.89571C16.9081 6.9755 15.6454 4.82211 15.6454 4.82211M15.6454 4.82211C15.6454 4.82211 14.468 3.28637 14.227 1.00099L12.1974 1.61765C12.1974 1.61765 11.4735 1.34773 10.9926 2.04813C10.9926 2.04813 12.8126 3.66366 11.8467 9.80071M11.8467 9.80071C11.8467 9.80071 12.312 10.84 12.6686 13.6406M11.8467 9.80071C11.8467 9.80071 12.312 10.839 12.6686 13.6406M12.6686 13.6406L13.3121 17.9463C13.3121 17.9463 12.9546 18.8792 12.8841 20.6011L11.0729 25.7423M11.0709 25.7423C11.0709 25.7423 13.3768 30.2865 16.193 28.8709C19.0082 27.4543 19.0347 31.3966 22.5395 29.1408C26.0443 26.8889 26.8142 30.4096 29.6667 26.3816C29.6667 26.3816 35.3882 32.0547 32.2997 34.2475C30.6844 35.3941 29.2367 34.6494 27.1071 35.5556C24.9737 36.4639 25.7299 35.9595 22.8236 36.5644C19.9153 37.1692 20.6176 36.8668 19.3158 36.8668C18.014 36.8668 16.909 37.2707 15.2066 36.8668C13.5032 36.4639 14.5405 36.1871 12.5373 36.1871C10.5312 36.1871 9.29306 35.2572 9.29306 35.2572C5.21227 33.3629 10.7007 25.6842 10.7007 25.6842L11.0709 25.7423ZM7.83451 33.3254C7.99418 34.0879 8.45555 34.8651 9.296 35.2572C9.296 35.2572 10.5341 36.1871 12.5403 36.1871C14.5434 36.1871 13.5051 36.4639 15.2095 36.8668C16.912 37.2707 18.0169 36.8668 19.3187 36.8668C20.6215 36.8668 19.9182 37.1702 22.8255 36.5644C25.7318 35.9595 24.9766 36.4629 27.1091 35.5556C29.2386 34.6494 30.6854 35.3941 32.3017 34.2475C32.6073 34.0307 32.8257 33.7795 32.9727 33.5047C32.9727 33.5047 36.2238 36.1428 36.1111 40.5796C36.0435 43.2255 32.0372 41.1154 29.2004 42.3241C26.3636 43.5299 27.3677 42.8581 23.5034 43.6619C19.6361 44.4657 20.5686 44.0658 18.8348 44.0658C17.102 44.0658 15.6337 44.6026 13.368 44.0658C11.1013 43.5269 11.8281 43.0649 9.16082 43.0649C6.49449 43.0649 5.50221 41.9203 5.50221 41.9203C1.633 38.9749 7.83451 33.3254 7.83451 33.3254ZM3.87714 39.6979C3.87714 39.6979 -1.90219 46.7186 2.9211 48.5863C2.9211 48.5863 3.5823 49.1655 5.14957 49.4177C6.71881 49.665 10.2697 49.6571 10.6008 50.3181V50.9022C10.6008 50.9022 14.6502 51.4874 15.6405 50.9022C15.6405 50.9022 17.3743 50.587 18.1991 51.1623V51.8164C18.1991 51.8164 23.1546 52.3995 23.3212 51.4874C23.3212 51.4874 25.4664 50.9869 25.8827 51.1485L30.7775 50.6737V50.387L38.1476 48.9261C40.9609 46.8989 35.8819 41.409 35.8819 41.409C35.0307 42.793 31.6787 41.2671 29.1975 42.3261C26.3607 43.5309 27.3647 42.86 23.5004 43.6638C19.6332 44.4687 20.5657 44.0667 18.8319 44.0667C17.0991 44.0667 15.6307 44.6046 13.365 44.0667C11.0984 43.5299 11.8252 43.0679 9.15789 43.0679C6.49156 43.0679 5.49927 41.9212 5.49927 41.9212C4.56185 41.2071 4.21509 40.3343 4.22978 39.4201L3.87714 39.6979Z" stroke="currentColor" stroke-width="1.8" stroke-miterlimit="10" stroke-linecap="round" stroke-linejoin="round"/>
</svg>
