<svg xmlns="http://www.w3.org/2000/svg" width="37" height="34" viewBox="0 0 37 34" fill="none"><path d="M3.08333 0C1.34496 0 0 1.54067 0 3.3354V30.6676C0 32.4623 1.34496 34 3.08333 34H33.9167C35.655 34 37 32.4623 37 30.6676V3.3354C37 1.54067 35.655 0 33.9167 0H3.08333ZM3.08333 1.54545H33.9167C34.7405 1.54545 35.4583 2.29114 35.4583 3.3354V30.6676C35.4583 31.7119 34.7405 32.4545 33.9167 32.4545H3.08333C2.25945 32.4545 1.54167 31.7119 1.54167 30.6676V3.3354C1.54167 2.29114 2.25945 1.54545 3.08333 1.54545ZM3.85417 3.09091C3.64974 3.09093 3.45368 3.17235 3.30913 3.31726C3.16457 3.46217 3.08335 3.6587 3.08333 3.86364V14.878C3.0805 14.9162 3.0805 14.9545 3.08333 14.9927V23.9545C3.08335 24.1595 3.16457 24.356 3.30913 24.5009C3.45368 24.6458 3.64974 24.7273 3.85417 24.7273H33.1458C33.3503 24.7273 33.5463 24.6458 33.6909 24.5009C33.8354 24.356 33.9166 24.1595 33.9167 23.9545V15.0078C33.9195 14.9696 33.9195 14.9313 33.9167 14.8931V3.86364C33.9166 3.6587 33.8354 3.46217 33.6909 3.31726C33.5463 3.17235 33.3503 3.09093 33.1458 3.09091H3.85417ZM4.625 4.63636H32.375V14.1687H28.0963C27.9451 14.1682 27.7972 14.2123 27.6708 14.2955C27.5445 14.3787 27.4453 14.4973 27.3857 14.6365L25.6453 18.7115L22.2548 8.77166C22.2004 8.61182 22.0954 8.47422 21.9556 8.37992C21.8159 8.28561 21.6491 8.23979 21.481 8.24947V8.25249C21.333 8.26124 21.1906 8.3126 21.071 8.4004C20.9513 8.4882 20.8595 8.60872 20.8065 8.74751L18.7319 14.1717H16.4766C16.347 14.1715 16.2195 14.204 16.1059 14.2663C15.9922 14.3286 15.896 14.4185 15.8262 14.5279L14.1942 17.0936L12.1617 10.7608C12.1169 10.6215 12.0336 10.4978 11.9213 10.4041C11.8091 10.3104 11.6727 10.2505 11.5279 10.2316C11.3831 10.2126 11.2359 10.2352 11.1034 10.2969C10.9709 10.3585 10.8586 10.4566 10.7796 10.5797L8.4882 14.1717H4.625V4.63636ZM21.484 11.2891L24.8353 21.1142C24.8864 21.2613 24.9806 21.3895 25.1056 21.482C25.2306 21.5745 25.3806 21.6269 25.5359 21.6325C25.6912 21.638 25.8445 21.5964 25.9758 21.5131C26.1071 21.4297 26.2102 21.3086 26.2716 21.1655L28.6051 15.7141H32.375V23.1818H4.625V15.7172H8.91276C9.04178 15.7168 9.16866 15.6841 9.28176 15.6218C9.39487 15.5596 9.49058 15.4699 9.56014 15.361L11.1951 12.7953L13.2246 19.128C13.269 19.2681 13.3523 19.3926 13.4648 19.4869C13.5773 19.5812 13.7143 19.6414 13.8597 19.6604C14.0051 19.6795 14.1529 19.6565 14.2857 19.5943C14.4186 19.5321 14.531 19.4331 14.6097 19.3091L16.8981 15.7172H19.2618C19.4176 15.7172 19.5698 15.6699 19.6982 15.5816C19.8267 15.4932 19.9254 15.3679 19.9814 15.2221L21.484 11.2891ZM25.4375 26.2727C24.1695 26.2727 23.125 27.3198 23.125 28.5909C23.125 29.862 24.1695 30.9091 25.4375 30.9091C26.7055 30.9091 27.75 29.862 27.75 28.5909C27.75 27.3198 26.7055 26.2727 25.4375 26.2727ZM31.6042 26.2727C30.3361 26.2727 29.2917 27.3198 29.2917 28.5909C29.2917 29.862 30.3361 30.9091 31.6042 30.9091C32.8722 30.9091 33.9167 29.862 33.9167 28.5909C33.9167 27.3198 32.8722 26.2727 31.6042 26.2727ZM5.39583 27.8182C5.1914 27.8182 4.99533 27.8996 4.85077 28.0445C4.70621 28.1894 4.625 28.386 4.625 28.5909C4.625 28.7958 4.70621 28.9924 4.85077 29.1373C4.99533 29.2822 5.1914 29.3636 5.39583 29.3636C5.60027 29.3636 5.79634 29.2822 5.94089 29.1373C6.08545 28.9924 6.16667 28.7958 6.16667 28.5909C6.16667 28.386 6.08545 28.1894 5.94089 28.0445C5.79634 27.8996 5.60027 27.8182 5.39583 27.8182ZM8.47917 27.8182C8.27473 27.8182 8.07866 27.8996 7.9341 28.0445C7.78955 28.1894 7.70833 28.386 7.70833 28.5909C7.70833 28.7958 7.78955 28.9924 7.9341 29.1373C8.07866 29.2822 8.27473 29.3636 8.47917 29.3636C8.6836 29.3636 8.87967 29.2822 9.02423 29.1373C9.16879 28.9924 9.25 28.7958 9.25 28.5909C9.25 28.386 9.16879 28.1894 9.02423 28.0445C8.87967 27.8996 8.6836 27.8182 8.47917 27.8182ZM11.5625 27.8182C11.3581 27.8182 11.162 27.8996 11.0174 28.0445C10.8729 28.1894 10.7917 28.386 10.7917 28.5909C10.7917 28.7958 10.8729 28.9924 11.0174 29.1373C11.162 29.2822 11.3581 29.3636 11.5625 29.3636C11.7669 29.3636 11.963 29.2822 12.1076 29.1373C12.2521 28.9924 12.3333 28.7958 12.3333 28.5909C12.3333 28.386 12.2521 28.1894 12.1076 28.0445C11.963 27.8996 11.7669 27.8182 11.5625 27.8182ZM25.4375 27.8182C25.8723 27.8182 26.2083 28.1551 26.2083 28.5909C26.2083 29.0269 25.8723 29.3636 25.4375 29.3636C25.0026 29.3636 24.6667 29.0269 24.6667 28.5909C24.6667 28.1551 25.0026 27.8182 25.4375 27.8182ZM31.6042 27.8182C32.039 27.8182 32.375 28.1551 32.375 28.5909C32.375 29.0269 32.039 29.3636 31.6042 29.3636C31.1693 29.3636 30.8333 29.0269 30.8333 28.5909C30.8333 28.1551 31.1693 27.8182 31.6042 27.8182Z" fill="white"></path></svg>