<svg xmlns="http://www.w3.org/2000/svg" width="22" height="24" viewBox="0 0 22 24" fill="none"><path d="M1 6.25853L11 11.839M11 11.839L21 6.25853M11 11.839V23M6 9.04877L16 3.46828M4.33333 12.2051L7.66667 14.0712M9.92111 1.28073C10.2512 1.09661 10.6225 1 11 1C11.3775 1 11.7488 1.09661 12.0789 1.28073L20.4289 5.93932C20.602 6.03602 20.7462 6.17745 20.8467 6.34896C20.9471 6.52047 21 6.71582 21 6.91479V16.1059C20.9999 16.5039 20.8939 16.8947 20.6928 17.2377C20.4918 17.5808 20.2031 17.8635 19.8567 18.0568L12.0789 22.3984C11.7488 22.5825 11.3775 22.6792 11 22.6792C10.6225 22.6792 10.2512 22.5825 9.92111 22.3984L2.14333 18.0568C1.79706 17.8636 1.50848 17.581 1.30746 17.2382C1.10644 16.8954 1.00029 16.5048 1 16.107V6.91479C0.999992 6.71582 1.05294 6.52047 1.15335 6.34896C1.25376 6.17745 1.398 6.03602 1.57111 5.93932L9.92111 1.28073Z" stroke="url(#paint0_linear_534_4079)" stroke-width="2" stroke-linecap="round" stroke-linejoin="round"></path><defs><linearGradient id="paint0_linear_534_4079" x1="1" y1="1" x2="20.7781" y2="23.1977" gradientUnits="userSpaceOnUse"><stop stop-color="#F41826"></stop><stop offset="1" stop-color="#F4771B"></stop></linearGradient></defs></svg>