<svg xmlns="http://www.w3.org/2000/svg" width="36" height="39" viewBox="0 0 36 39" fill="none"><path d="M24.1338 0.00310819C23.452 -0.0356146 22.8007 0.290123 22.4151 0.832272L20.4189 0.303711C20.356 0.2867 20.2907 0.2791 20.2254 0.281166V0.293691C20.0874 0.298785 19.9545 0.346902 19.8461 0.431097C19.7376 0.515293 19.6591 0.631213 19.622 0.762131L19.2019 2.2401L17.9212 6.94704C17.9165 6.96026 17.9122 6.97363 17.9084 6.98712C17.9077 6.98969 17.9066 6.99207 17.9059 6.99464L16.8976 10.6996C15.863 14.4984 17.6888 18.3765 21.0733 20.1611L20.8416 21.0052C20.6231 21.8073 20.9682 22.6315 21.6284 23.0819L19.0669 32.4883C18.0359 36.2738 14.1329 38.4902 10.2852 37.4758C6.43746 36.4614 4.18478 32.6213 5.21577 28.836L8.16678 17.9967C8.5949 16.4248 7.8576 14.8182 6.48885 14.0388C6.64749 12.504 5.66373 11.0283 4.10309 10.6169C2.37193 10.1606 0.574566 11.1807 0.110703 12.884C-0.35316 14.5871 0.683825 16.353 2.41499 16.8093C3.87158 17.1933 5.36508 16.5254 6.08147 15.2913C6.80562 15.8227 7.15985 16.7424 6.90897 17.6635L3.95542 28.5053C2.74333 32.9557 5.423 37.5209 9.94655 38.7133C14.4701 39.9059 19.1126 37.2693 20.3247 32.8189L22.8862 23.4126C23.6852 23.3459 24.4021 22.8029 24.6201 22.0022L24.8518 21.1505C28.6818 21.2595 32.2241 18.8022 33.2567 15.0107L34.2676 11.3008C34.2737 11.2802 34.2788 11.2593 34.2828 11.2381L35.5585 6.55626L35.976 5.0808C35.9992 4.99921 36.0056 4.91392 35.9951 4.82986C35.9845 4.7458 35.9572 4.66463 35.9146 4.59103C35.8719 4.51743 35.8149 4.45287 35.7468 4.40107C35.6787 4.34926 35.6008 4.31124 35.5177 4.28921L33.5113 3.76315C33.4442 2.97657 32.8924 2.27197 32.0778 2.05723C31.0421 1.78417 29.9594 2.39845 29.6819 3.41746C29.4044 4.43646 30.0287 5.49912 31.0645 5.77218C31.8792 5.98697 32.7174 5.64901 33.1752 5.00063L34.5425 5.36136L34.3007 6.21557L32.9894 11.0327C31.9359 14.759 28.0637 16.9354 24.2407 15.9276C20.3951 14.9138 18.1429 11.0871 19.1688 7.32029C19.1753 7.29638 19.1804 7.27213 19.184 7.24764L20.4597 2.57076L20.7041 1.70903L22.0739 2.06975C22.1392 2.8583 22.6938 3.56549 23.51 3.78069C24.5457 4.05375 25.6259 3.43946 25.9034 2.42046C26.1809 1.40158 25.5565 0.338794 24.5208 0.0657338C24.3914 0.0316015 24.263 0.0104485 24.1338 0.00310819ZM23.9225 1.28568C24.0065 1.27487 24.0959 1.27981 24.1847 1.30322C24.5399 1.39697 24.7407 1.74042 24.6456 2.08979C24.5504 2.43942 24.2013 2.63683 23.8461 2.5432C23.4909 2.44958 23.2901 2.10613 23.3852 1.75663C23.4566 1.4944 23.6703 1.31812 23.9225 1.28568ZM31.4769 3.27718C31.561 3.26637 31.6504 3.27131 31.7392 3.29471C32.0944 3.38834 32.2952 3.73192 32.2001 4.08129C32.1049 4.43092 31.7583 4.62833 31.4031 4.5347C31.0479 4.44107 30.8471 4.09762 30.9423 3.74812C31.0136 3.486 31.2248 3.30961 31.4769 3.27718ZM18.023 11.6339C18.868 14.2478 21.0041 16.4005 23.9046 17.165C26.801 17.9287 29.7412 17.121 31.8003 15.2788C30.5411 18.6718 26.8643 20.5907 23.2299 19.6325C19.5905 18.6731 17.3804 15.1969 18.023 11.6339ZM3.37234 11.7918C3.5025 11.7997 3.63313 11.8198 3.76445 11.8544C4.81508 12.1314 5.42854 13.178 5.14702 14.2116C4.86551 15.2452 3.80425 15.8488 2.75363 15.5718C1.703 15.2948 1.08954 14.2482 1.37106 13.2146C1.61738 12.3102 2.46123 11.7359 3.37234 11.7918ZM3.23485 13.0718C3.0958 13.0774 2.96221 13.1266 2.85363 13.2122C2.74504 13.2979 2.66717 13.4155 2.63141 13.5478C2.60908 13.6292 2.60329 13.7142 2.61437 13.7978C2.62545 13.8814 2.65319 13.9621 2.696 14.0351C2.73881 14.1082 2.79584 14.1722 2.86384 14.2236C2.93184 14.2749 3.00946 14.3126 3.09227 14.3344C3.25905 14.378 3.43661 14.3547 3.58601 14.2697C3.73541 14.1847 3.84445 14.0449 3.88922 13.881C3.91155 13.7995 3.91734 13.7146 3.90626 13.631C3.89517 13.5473 3.86743 13.4667 3.82462 13.3936C3.78182 13.3206 3.72478 13.2565 3.65679 13.2052C3.58879 13.1538 3.51117 13.1162 3.42836 13.0944C3.36537 13.0774 3.30014 13.0698 3.23485 13.0718ZM22.2802 20.6821C22.4814 20.7513 22.682 20.8223 22.8913 20.8775C23.1067 20.9343 23.3224 20.9731 23.538 21.0128L23.3598 21.6691C23.2633 22.0231 22.9227 22.2174 22.5628 22.1225C22.2032 22.0276 22.0056 21.6923 22.102 21.3384L22.2802 20.6821Z" fill="white"></path></svg>