<svg width="46" height="42" viewBox="0 0 46 42" color="#FF6F61" fill="none" xmlns="http://www.w3.org/2000/svg">
<path d="M13.7443 37.3959H12.1055C12.1055 22.5918 11.7747 15.8922 11.7747 15.8922L6.69598 39.1443H1L8.43971 6.37973C10.3158 3.93775 11.5633 3.48283 11.5633 3.48283L17.6482 1.0008C19.3685 3.2794 22.2589 4.88683 22.2589 4.88683H22.4824C22.4824 4.88683 25.3509 3.2794 27.0922 1.0008L33.1772 3.48283C33.1772 3.48283 34.4254 3.93775 36.3007 6.37973L45 39.1435H39.1628L32.9682 15.8914C32.9682 15.8914 32.6349 22.5918 32.6349 37.3959H30.9388M13.7443 37.3959V39.423H30.9388V37.3959M13.7443 37.3959H30.9388M15.5752 1.84576L17.6474 1C19.3677 3.2786 22.258 4.88603 22.258 4.88603H22.4808C22.4808 4.88603 25.3485 3.2786 27.0898 1L29.1741 1.84977C26.8744 5.04381 22.5259 7.51703 22.5259 7.51703H22.2121C22.2129 7.51703 17.7918 5.11509 15.5752 1.84576ZM5.92861 39.1435H2.20714L1.79239 41H5.5421L5.92861 39.1435ZM40.1666 39.1435H43.8889L44.302 41H40.5523L40.1666 39.1435Z" stroke="currentColor" stroke-width="1.8" stroke-miterlimit="10" stroke-linecap="round" stroke-linejoin="round"/>
</svg>
