<svg xmlns="http://www.w3.org/2000/svg" id="icon-face-mask" viewBox="0 0 58 32"><path fill="#fff" d="M17.557 11.145c9.171-1.278 13.989-1.249 23.037 0.038-8.712 1.42-14.329 1.495-23.037-0.038zM48.743 5.267c3.923-0.786 6.625 0.35 8.083 2.366 0.676 0.927 1.128 2.057 1.256 3.283l0.002 0.030c0.032 0.283 0.051 0.61 0.051 0.942 0 0.969-0.157 1.901-0.447 2.773l0.018-0.062c-1.041 3.313-3.97 6.384-8.641 7.065l-0.27-1.893c3.843-0.558 6.242-3.071 7.099-5.755 0.215-0.637 0.339-1.371 0.339-2.134 0-0.249-0.013-0.494-0.039-0.736l0.003 0.030c-0.092-0.897-0.414-1.704-0.904-2.38l0.010 0.014c-1.060-1.42-3.090-2.219-6.176-1.604l-0.374-1.893zM8.991 7.16c-3.085-0.615-5.116 0.175-6.152 1.604-0.481 0.662-0.802 1.47-0.893 2.345l-0.002 0.021c-0.023 0.212-0.036 0.457-0.036 0.706 0 0.763 0.124 1.496 0.353 2.182l-0.014-0.049c0.847 2.683 3.246 5.206 7.098 5.755l-0.27 1.893c-4.676-0.677-7.605-3.762-8.646-7.061-0.273-0.811-0.431-1.745-0.431-2.716 0-0.337 0.019-0.67 0.056-0.997l-0.004 0.040c0.133-1.248 0.585-2.369 1.272-3.308l-0.013 0.019c1.476-1.997 4.16-3.133 8.083-2.366l-0.374 1.893zM10.941 22.919v-17.24c0-0.523 0.424-0.946 0.946-0.946v0c2.868-0.274 5.206-1.278 7.572-2.281 0.857-0.345 1.694-0.705 2.513-1.032 2.811-1.055 5.149-1.5 7.501-1.42s4.633 0.71 7.378 1.765c0.866 0.331 1.737 0.691 2.589 1.051 2.428 1.008 4.699 1.954 6.862 2.125 0.493 0.036 0.88 0.445 0.88 0.944 0 0.001 0 0.002 0 0.002v-0 17.013c0 0.001 0 0.001 0 0.002 0 0.22-0.075 0.422-0.2 0.582l0.002-0.002c-0.987 1.452-2.163 2.686-3.51 3.706l-0.039 0.028c-3.488 2.6-7.787 4.3-12.458 4.684l-0.087 0.006c-0.669 0.071-1.446 0.111-2.232 0.111-4.47 0-8.636-1.3-12.14-3.544l0.090 0.054c-2.118-1.39-3.915-3.063-5.395-4.993l-0.038-0.052c-0.124-0.159-0.199-0.361-0.199-0.58 0-0.001 0-0.001 0-0.002v0zM12.834 6.564v16.009c1.345 1.698 2.917 3.14 4.686 4.308l0.075 0.046c3.122 1.995 6.93 3.18 11.014 3.18 0.728 0 1.447-0.038 2.155-0.111l-0.089 0.007c4.378-0.352 8.334-1.909 11.608-4.335l-0.061 0.043c1.159-0.88 2.15-1.901 2.971-3.052l0.029-0.043v-15.863c-2.158-0.331-4.297-1.226-6.564-2.167-0.767-0.327-1.604-0.691-2.489-1.027-2.57-0.984-4.68-1.562-6.767-1.642s-4.183 0.327-6.748 1.301c-0.852 0.327-1.637 0.663-2.428 0.999-2.243 0.989-4.538 1.936-7.345 2.328zM18.309 20.638c6.057 2.787 14.67 2.778 21.532-0.095-5.002 4.306-13.279 7.165-21.532 0.095zM15.2 15.143c4.169 0.608 8.981 0.955 13.875 0.955s9.707-0.347 14.415-1.018l-0.54 0.063c-1.831 0.984-3.953 1.797-6.184 2.33l-0.181 0.037c-7.099 1.737-14.964 1.32-21.385-2.366z"></path></svg>