<svg xmlns="http://www.w3.org/2000/svg" width="19" height="19" viewBox="0 0 19 19" fill="none"><path d="M16.8889 0H2.11111C0.939444 0 0 0.939444 0 2.11111V16.8889C0 17.4488 0.22242 17.9858 0.61833 18.3817C1.01424 18.7776 1.55121 19 2.11111 19H16.8889C18.0606 19 19 18.0606 19 16.8889V2.11111C19 1.55121 18.7776 1.01424 18.3817 0.61833C17.9858 0.22242 17.4488 0 16.8889 0ZM16.8889 16.8889H2.11111V2.11111H16.8889V16.8889ZM14.7778 12.8989C14.7778 13.9333 13.9333 14.7778 12.8989 14.7778C11.8644 14.7778 11.0306 13.9333 11.0306 12.8989C11.0306 11.8644 11.8644 11.0306 12.8989 11.0306C13.9333 11.0306 14.7778 11.8644 14.7778 12.8989ZM5.80556 14.8094L4.22222 13.2261L13.2261 4.22222L14.8094 5.80556L5.80556 14.8094ZM4.275 6.15389C4.275 5.10889 5.10889 4.275 6.15389 4.275C7.18833 4.275 8.02222 5.10889 8.02222 6.15389C8.02222 7.18833 7.18833 8.02222 6.15389 8.02222C5.10889 8.02222 4.275 7.18833 4.275 6.15389Z" fill="url(#paint0_linear_534_4071)"></path><defs><linearGradient id="paint0_linear_534_4071" x1="0" y1="0" x2="19.7522" y2="0.817097" gradientUnits="userSpaceOnUse"><stop stop-color="#F41826"></stop><stop offset="1" stop-color="#F4771B"></stop></linearGradient></defs></svg>