<svg width="28" height="53" viewBox="0 0 28 53" color="#FF6F61" fill="none" xmlns="http://www.w3.org/2000/svg">
<path d="M7.07512 1.00202L6.33123 3.17096M7.07512 1.00202C9.28718 3.45826 14.0004 3.46433 13.9995 3.4623C19.8427 3.01719 21.6912 1 21.6912 1L22.1793 3.01719C25.6057 9.82848 23.9807 18.7571 23.9807 18.7571C23.5514 23.354 24.4913 27.4217 24.4913 27.4217C27.4071 34.5861 26.9778 50.498 26.9778 50.498C23.7288 52.845 20.6376 51.7403 20.6376 51.7403C19.0106 50.589 19.0969 41.4803 19.0969 41.4803C18.9224 36.5294 17.2955 30.2502 17.2955 30.2502C16.436 22.2948 14.0406 16.0196 14.0406 16.0196C13.3546 20.7025 10.3574 30.8714 10.3574 30.8714L8.73147 40.5962C8.22967 48.3381 8.03169 49.5329 8.03169 49.5329C7.9376 51.1808 7.70336 51.7392 7.70336 51.7392C2.98129 52.4565 1.06326 50.3685 1.06326 50.3685C0.76433 44.3999 1.62191 40.3321 1.62191 40.3321C1.49254 37.3701 2.69314 33.1698 2.69314 33.1698C2.77841 29.7242 3.7242 27.4521 3.7242 27.4521C4.54061 24.8603 3.82123 18.8482 3.82123 18.8482C3.65853 15.877 3.7144 13.4309 3.89571 11.4299C4.23678 7.6464 5.0238 5.45218 5.61185 4.2888C6.01957 3.48051 6.33123 3.17096 6.33123 3.17096M7.07512 1.00202C9.28718 3.45826 14.0004 3.46433 14.0004 3.46433C19.8437 3.02022 21.6922 1.00202 21.6922 1.00202L22.1803 3.01921C22.3959 3.44511 22.589 3.87909 22.7654 4.31713M6.33123 3.17096C6.33123 3.17096 6.01369 3.48557 5.60009 4.31005C5.60009 4.31005 5.9098 5.67069 8.99512 6.66714C10.1869 7.0546 11.7933 7.38641 13.9573 7.56648C13.9573 7.56648 15.0227 7.45824 16.4193 7.19218M14.0416 16.0217C14.0416 15.4835 14.0416 15.3489 14.0004 14.483M14.0004 14.483C14.022 12.1117 14.0004 9.17497 14.0004 7.55535M14.0004 14.483C17.9227 14.483 16.4193 7.19218 16.4193 7.19218M22.7654 4.31713C21.9901 5.86492 18.745 6.74504 16.4193 7.19218M22.7654 4.31713C22.7654 4.31713 22.2939 5.53513 19.1577 6.52046C19.1577 6.52046 19.7075 13.2478 24.2914 11.4734C24.0032 7.56547 23.3417 5.45926 22.7536 4.2969L22.7654 4.31713ZM16.4193 7.19218C15.0227 7.45824 14.0004 7.55535 14.0004 7.55535M14.0004 7.55535V3.45522M15.8303 5.35708C15.8303 5.40122 15.7956 5.437 15.7528 5.437C15.7101 5.437 15.6754 5.40122 15.6754 5.35708C15.6754 5.31295 15.7101 5.27717 15.7528 5.27717C15.7956 5.27717 15.8303 5.31295 15.8303 5.35708ZM8.99414 6.66815C5.91078 5.6717 5.60009 4.31106 5.60009 4.31106L5.61087 4.28982C5.02282 5.45319 4.23581 7.64741 3.89473 11.4309C8.47763 13.2023 8.9961 6.67119 8.9961 6.67119L8.99414 6.66815Z" stroke="currentColor" stroke-width="1.8" stroke-miterlimit="10" stroke-linecap="round" stroke-linejoin="round"/>
</svg>
