<svg xmlns="http://www.w3.org/2000/svg" width="28" height="31" viewBox="0 0 28 31" fill="none"><path d="M6.77778 14.05V8.25C6.77778 6.32718 7.53869 4.48311 8.89312 3.12348C10.2475 1.76384 12.0845 1 14 1C15.9155 1 17.7525 1.76384 19.1069 3.12348C20.4613 4.48311 21.2222 6.32718 21.2222 8.25V14.05M3.88889 14.05H24.1111C25.7066 14.05 27 15.3484 27 16.95V27.1C27 28.7016 25.7066 30 24.1111 30H3.88889C2.2934 30 1 28.7016 1 27.1V16.95C1 15.3484 2.2934 14.05 3.88889 14.05Z" stroke="#FF6F61" stroke-width="2" stroke-linecap="round" stroke-linejoin="round"></path></svg>