<svg xmlns="http://www.w3.org/2000/svg" width="18" height="20" viewBox="0 0 18 20" fill="none"><path d="M4.6 9.1V5.5C4.6 4.30653 5.07411 3.16193 5.91802 2.31802C6.76193 1.47411 7.90653 1 9.1 1C10.2935 1 11.4381 1.47411 12.282 2.31802C13.1259 3.16193 13.6 4.30653 13.6 5.5V9.1M2.8 9.1H15.4C16.3941 9.1 17.2 9.90589 17.2 10.9V17.2C17.2 18.1941 16.3941 19 15.4 19H2.8C1.80589 19 1 18.1941 1 17.2V10.9C1 9.90589 1.80589 9.1 2.8 9.1Z" stroke="#fff" stroke-width="1.5" stroke-linecap="round" stroke-linejoin="round"></path></svg>