<svg width="45" height="34" viewBox="0 0 45 34" color="#FF6F61" fill="none" xmlns="http://www.w3.org/2000/svg">
<path d="M37.0393 1V4.81289L41.4621 18.3493L44 30.5735L35.5593 32.81L24.8204 33L22.5281 21.3846H22.4702L20.1779 33L9.37839 32.8754L1 30.5744L3.53618 18.3493L7.95719 4.81289M37.0393 1C16.0008 4.40465 7.95806 1 7.95719 1M37.0393 1L37.0393 4.72453C33.0629 7.63611 21.9434 7.72447 21.9434 7.72359M37.0393 1C16.0008 4.40465 7.95719 1 7.95719 1M7.95719 4.81289V1M7.95719 4.81289C7.95719 4.81289 11.3964 7.72359 21.9434 7.72359M21.9434 7.72359C25.31 7.45938 24.7538 4.30922 24.7538 4.30922C22.5203 2.92279 21.7314 5.98017 21.7314 5.98017M21.9434 7.72359C19.4288 7.92064 20.4089 14.6734 20.8379 15.1117M22.1017 7.33214C22.1017 7.33214 21.3569 2.92279 19.1736 4.75369C19.1736 4.75369 19.1053 7.5283 22.1198 7.70061C23.5834 7.78544 23.2322 13.6307 24.0272 14.4781" stroke="currentColor" stroke-width="1.8" stroke-miterlimit="10" stroke-linecap="round" stroke-linejoin="round"/>
</svg>
