<svg xmlns="http://www.w3.org/2000/svg" width="54" height="36" viewBox="0 0 54 36" fill="#ffffff"><path d="M10.9688 8.415H9.28126V10.0034H10.9688V8.415Z"></path><path d="M43.875 8.415H42.1874V10.0034H43.875V8.415Z"></path><path d="M34.5937 8.415H32.9062V10.0034H34.5937V8.415Z"></path><path d="M21.0938 8.415H19.4063V10.0034H21.0938V8.415Z"></path><path d="M51.4492 23.1C52.9481 22.4572 53.9999 20.9763 53.9999 19.2557C53.9999 17.5427 52.957 16.0676 51.4686 15.4202V5.42162C51.4686 2.43219 49.0175 0 46.0046 0H31.6202C29.6772 0 27.9689 1.01237 26.9999 2.53268C26.031 1.01248 24.3227 0 22.3797 0H7.99517C4.98238 0 2.53119 2.43219 2.53119 5.42162V15.4204C1.04287 16.0676 0 17.5427 0 19.2557C0 20.9763 1.0518 22.4571 2.5507 23.1C1.03913 23.86 0 25.416 0 27.2093C0 29.7483 2.08178 31.8139 4.64063 31.8139H5.0625V36H6.75007V31.8139H47.2499V36H48.9375V31.8139H49.3594C51.9182 31.8139 54 29.7483 54 27.2093C53.9999 25.416 52.9608 23.86 51.4492 23.1ZM52.3124 19.2557C52.3124 20.6407 51.1769 21.7673 49.7811 21.7673C48.3855 21.7673 47.2499 20.6406 47.2499 19.2557C47.2499 17.8709 48.3855 16.7442 49.7811 16.7442C51.1769 16.7442 52.3124 17.8709 52.3124 19.2557ZM47.2528 22.6046H46.8933C46.9286 22.5349 46.9609 22.4639 46.9905 22.3913C47.0751 22.4655 47.1623 22.5371 47.2528 22.6046ZM27.8439 5.42162C27.8437 3.35533 29.5378 1.67438 31.6202 1.67438H46.0046C48.0871 1.67438 49.7811 3.35533 49.7811 5.42162V15.0698C48.5634 15.0698 47.4652 15.585 46.6944 16.4066C46.1597 15.6263 45.2578 15.1127 44.2373 15.1127H36.7628C35.1255 15.1127 33.7933 16.4345 33.7933 18.0591V21.2897C33.7933 21.7621 33.9066 22.2085 34.1066 22.6046H27.8439V5.42162ZM45.6057 19.8501V21.2895C45.6057 21.9233 45.1653 22.4556 44.5726 22.6045H36.4272C35.8345 22.4556 35.3942 21.9233 35.3942 21.2897V18.0591C35.3942 17.3104 36.008 16.7012 36.7627 16.7012H44.2371C44.9918 16.7012 45.6057 17.3104 45.6057 18.0591V18.6614C45.5777 18.8557 45.5624 19.054 45.5624 19.2557C45.5624 19.4576 45.5777 19.6558 45.6057 19.8501ZM4.21877 5.42162C4.21877 3.35533 5.91284 1.67438 7.99517 1.67438H22.3797C24.462 1.67438 26.1562 3.35533 26.1562 5.42162V22.6046H6.74709C7.77277 21.8402 8.43753 20.6236 8.43753 19.2557C8.43753 16.9475 6.54498 15.0697 4.21877 15.0697V5.42162ZM1.68757 19.2557C1.68757 17.8709 2.82313 16.7442 4.21888 16.7442C5.61451 16.7442 6.75007 17.8709 6.75007 19.2557C6.75007 20.6407 5.61451 21.7673 4.21888 21.7673C2.82302 21.7674 1.68757 20.6407 1.68757 19.2557ZM49.3593 30.1394H4.64063C3.01224 30.1394 1.68746 28.8249 1.68746 27.2093C1.68746 25.5936 3.01224 24.2791 4.64063 24.2791H49.3591C50.9875 24.2791 52.3123 25.5936 52.3123 27.2093C52.3124 28.8249 50.9877 30.1394 49.3593 30.1394Z"></path></svg>