<svg xmlns="http://www.w3.org/2000/svg" width="35" height="38" viewBox="0 0 35 38" fill="none"><path d="M17.9395 0.0129366C14.4612 -0.191608 11.187 2.04659 10.2509 5.50836C9.18104 9.46449 11.5614 13.5546 15.5535 14.6147C19.5456 15.6746 23.6762 13.3144 24.746 9.35805C25.8158 5.40192 23.429 1.31483 19.4369 0.254955C18.9379 0.122471 18.4364 0.0421571 17.9395 0.0129366ZM17.8386 1.66189C17.952 1.66875 18.0665 1.70318 18.1804 1.71674L15.2052 12.7269C12.5745 11.6133 11.0994 8.75809 11.8622 5.93754C12.5941 3.23069 15.1257 1.49749 17.8386 1.66189ZM19.7917 2.14592C22.4203 3.26052 23.897 6.1098 23.1347 8.92888C22.3722 11.7488 19.653 13.4906 16.8132 13.1529L19.7917 2.14592ZM5.71971 14.8632C4.26613 14.8512 2.80915 15.3813 1.69311 16.4605C-0.538973 18.619 -0.567567 22.1611 1.628 24.3567L13.6069 36.335C15.8025 38.5299 19.402 38.5581 21.6341 36.3995C23.8662 34.2411 23.8948 30.7019 21.6992 28.5065L9.72028 16.5282C8.62249 15.4308 7.1733 14.8751 5.71971 14.8632ZM28.7628 14.8825C26.892 15.0152 25.1155 16.0341 24.1112 17.7577C22.5044 20.5155 23.4637 24.0617 26.2466 25.6539C29.0295 27.246 32.6149 26.2981 34.2217 23.5403C35.8286 20.7825 34.866 17.2297 32.0831 15.6376C31.0395 15.0405 29.8853 14.8029 28.7628 14.8825ZM5.70669 16.4927C6.72744 16.5011 7.74593 16.8974 8.5289 17.6802L13.9096 23.0595L8.24895 28.6291L2.81938 23.2015C1.25345 21.6355 1.27657 19.1742 2.86821 17.6351C3.66404 16.8652 4.68595 16.4844 5.70669 16.4927ZM28.8735 16.5218C29.674 16.4664 30.4987 16.6374 31.2498 17.0671C33.0045 18.0709 33.7428 20.1277 33.1215 21.9559L26.0415 17.9061C26.7778 17.0776 27.8033 16.5959 28.8735 16.5218ZM25.2082 19.3389L32.2849 23.3886C30.998 24.8353 28.8346 25.2283 27.0799 24.2244C25.3243 23.2201 24.5856 21.1673 25.2082 19.3389ZM15.0847 24.2341L20.5078 29.6585C22.0738 31.2245 22.0506 33.689 20.459 35.2282C18.8673 36.768 16.3642 36.7457 14.7983 35.1798L9.4208 29.8037L15.0847 24.2341Z" fill="white"></path></svg>