<svg xmlns="http://www.w3.org/2000/svg" width="51" height="40" viewBox="0 0 51 40" fill="#ffffff"><path d="M47.8125 7.84314H30.5305C32.787 6.28068 34.2656 3.70005 34.2656 0.784313V0H16.7344V0.784313C16.7344 3.70005 18.213 6.28068 20.4695 7.84314H3.1875C1.42988 7.84314 0 9.25048 0 10.9804C0 12.7102 1.42988 14.1176 3.1875 14.1176H4.78125V40H6.375V36.0784H44.625V40H46.2188V14.1176H47.8125C49.5701 14.1176 51 12.7103 51 10.9804C50.9999 9.25048 49.5701 7.84314 47.8125 7.84314ZM18.3721 1.56863H32.6278C32.2301 5.09311 29.1852 7.84314 25.4999 7.84314C21.8146 7.84314 18.7698 5.09311 18.3721 1.56863ZM44.625 34.5097H6.375V32.9411H44.625V34.5097ZM44.625 31.3726H6.375V19.6078H44.625V31.3726ZM44.625 18.0392H6.375V14.1176H44.625V18.0392ZM47.8125 12.549H3.1875C2.30874 12.549 1.59375 11.8453 1.59375 10.9804C1.59375 10.1154 2.30874 9.41166 3.1875 9.41166H47.8125C48.6913 9.41166 49.4062 10.1154 49.4062 10.9804C49.4062 11.8453 48.6913 12.549 47.8125 12.549Z"></path></svg>