<svg width="44" height="44" viewBox="0 0 44 44" color="#FF6F61" fill="none" xmlns="http://www.w3.org/2000/svg">
<path d="M34.075 17.9276C34.075 17.9276 33.6956 25.5452 33.6956 42.378C33.6956 42.378 27.7471 43.0859 22.1287 42.9911H21.8721C16.2538 43.0867 10.3044 42.378 10.3044 42.378C10.3044 25.546 9.92415 17.9276 9.92415 17.9276L7.64633 20.3256L1 14.779L6.12806 7.11364C8.26363 4.34074 9.6879 3.82323 9.6879 3.82323L16.6196 1.00084C18.9465 2.6473 21.873 2.52568 21.873 2.52568H22.1279C22.1279 2.52568 25.0552 2.6473 27.3804 1.00084L34.3121 3.82323C34.3121 3.82323 35.7364 4.3399 37.8728 7.11364L43 14.779M34.075 17.9276L36.3528 20.3256L43 14.779M34.075 17.9276C33.6956 8.85405 36.0183 5.04445 36.0183 5.04361C36.5417 5.53008 37.1683 6.19857 37.8728 7.1128L43 14.779M16.6213 1C16.6213 1 18.0125 5.28181 21.8747 5.18871H22.1287C25.9917 5.28181 27.3829 1 27.3829 1M16.6213 1L13.3629 2.32606C13.5822 3.11616 15.319 8.51351 21.8323 8.511H22.1719C28.6836 8.51267 30.4212 3.12203 30.643 2.3269L27.3829 1M16.6213 1C18.9482 2.64646 21.8747 2.52485 21.8747 2.52485H22.1287C22.1287 2.52485 25.0577 2.64646 27.3829 1M7.98419 5.04361C7.46089 5.53008 6.83427 6.19857 6.12976 7.1128L1.00254 14.7781L7.64887 20.3248L9.92669 17.9268C10.3069 8.85321 7.98419 5.04445 7.98419 5.04361Z" stroke="currentColor" stroke-width="1.8" stroke-miterlimit="10" stroke-linecap="round" stroke-linejoin="round"/>
</svg>
