<svg xmlns="http://www.w3.org/2000/svg" width="20" height="16" viewBox="0 0 20 16" fill="none"><path d="M13.2727 11.1111V1H1V11.1111H13.2727ZM13.2727 11.1111H19V7.22222L16.5455 4.88889H13.2727V11.1111ZM6.72727 13.0556C6.72727 14.1294 5.81149 15 4.68182 15C3.55214 15 2.63636 14.1294 2.63636 13.0556C2.63636 11.9817 3.55214 11.1111 4.68182 11.1111C5.81149 11.1111 6.72727 11.9817 6.72727 13.0556ZM17.3636 13.0556C17.3636 14.1294 16.4479 15 15.3182 15C14.1885 15 13.2727 14.1294 13.2727 13.0556C13.2727 11.9817 14.1885 11.1111 15.3182 11.1111C16.4479 11.1111 17.3636 11.9817 17.3636 13.0556Z" stroke="#fff" stroke-width="1.5" stroke-linecap="round" stroke-linejoin="round"></path></svg>