<svg xmlns="http://www.w3.org/2000/svg" width="51" height="46" viewBox="0 0 51 46" fill="#ffffff"><path d="M22.3125 30.1876H20.7187V34.5001H22.3125V30.1876Z"></path><path d="M30.2812 30.1876H28.6874V34.5001H30.2812V30.1876Z"></path><path d="M45.8015 23H40.6405V20.8437H45.4217V0H5.57817V20.8437H10.3594V23H5.19839C2.33199 23 0 25.1034 0 27.6888V37.7175C0 39.9258 1.70192 41.7813 3.98442 42.2758V46H5.57817V42.4062H45.4218V46H47.0156V42.2758C49.2981 41.7813 51 39.9258 51 37.7175V27.6888C50.9999 25.1034 48.6679 23 45.8015 23ZM7.17191 19.4062V1.4375H43.8281V19.4062H7.17191ZM24.7031 40.9689H5.19839V40.9688C3.21078 40.9688 1.59375 39.5103 1.59375 37.7175V27.6888C1.59375 25.8961 3.21078 24.4375 5.19839 24.4375H24.7031V40.9689ZM11.9532 23V20.8437H39.0467V23H11.9532ZM49.4062 37.7175C49.4062 39.5103 47.7891 40.9688 45.8015 40.9688H26.2969V24.4375H45.8015C47.7891 24.4375 49.4062 25.8961 49.4062 27.6888V37.7175Z"></path><path d="M41.4375 15.8125H9.56248V17.25H41.4375V15.8125Z"></path><path d="M27.8905 2.87501H23.1093V4.31251H27.8905V2.87501Z"></path></svg>