<svg xmlns="http://www.w3.org/2000/svg" width="24" height="38" viewBox="0 0 24 38" fill="none"><path d="M2.25719 0C2.05856 2.01512e-05 1.86808 0.0800919 1.72763 0.222604C1.58718 0.365116 1.50827 0.558398 1.50825 0.759941V5.32255C1.50827 5.5241 1.58718 5.71738 1.72763 5.85989C1.86808 6.0024 2.05856 6.08247 2.25719 6.08249H4.50402V9.15194C2.00521 9.31446 0.0132815 11.409 0.0132815 13.9847V15.8192C-0.00442716 15.9134 -0.00442716 16.0101 0.0132815 16.1042V31.018C-0.00442716 31.1122 -0.00442716 31.2089 0.0132815 31.303V33.1376C0.0132815 35.8188 2.16585 38 4.80829 38H19.2079C21.8504 38 24 35.8188 24 33.1376V13.9847C24 11.3989 21.9954 9.29665 19.4829 9.14897V6.08249H21.7298C21.9284 6.08247 22.1189 6.0024 22.2593 5.85989C22.3998 5.71738 22.4787 5.5241 22.4787 5.32255V0.759941C22.4787 0.558398 22.3998 0.365116 22.2593 0.222604C22.1189 0.0800919 21.9284 2.01512e-05 21.7298 0H2.25719ZM3.00613 1.51988H20.9808V4.56261H3.00613V1.51988ZM6.00191 6.08249H17.985V9.12226H6.00191V6.08249ZM4.80829 10.6421H19.2079C21.0464 10.6421 22.5021 12.1192 22.5021 13.9847V15.2018H1.51117V13.9847C1.51117 12.1192 2.96976 10.6421 4.80829 10.6421ZM1.51117 16.7217H22.5021V30.4006H1.51117V16.7217ZM10.5102 18.2415C10.3116 18.2416 10.1211 18.3216 9.98065 18.4641C9.8402 18.6067 9.76129 18.7999 9.76127 19.0015V21.2813H7.51443C7.31581 21.2813 7.12532 21.3614 6.98487 21.5039C6.84442 21.6464 6.76551 21.8397 6.76549 22.0412V25.081C6.76551 25.2826 6.84442 25.4758 6.98487 25.6183C7.12532 25.7609 7.31581 25.8409 7.51443 25.841H9.76127V28.1208C9.76129 28.3223 9.8402 28.5156 9.98065 28.6581C10.1211 28.8006 10.3116 28.8807 10.5102 28.8807H13.506C13.7046 28.8807 13.8951 28.8006 14.0356 28.6581C14.176 28.5156 14.2549 28.3223 14.2549 28.1208V25.841H16.5018C16.7004 25.8409 16.8909 25.7609 17.0313 25.6183C17.1718 25.4758 17.2507 25.2826 17.2507 25.081V22.0412C17.2507 21.8397 17.1718 21.6464 17.0313 21.5039C16.8909 21.3614 16.7004 21.2813 16.5018 21.2813H14.2549V19.0015C14.2549 18.7999 14.176 18.6067 14.0356 18.4641C13.8951 18.3216 13.7046 18.2416 13.506 18.2415H10.5102ZM11.2592 19.7614H12.757V22.0412C12.7571 22.2428 12.836 22.4361 12.9764 22.5786C13.1169 22.7211 13.3074 22.8012 13.506 22.8012H15.7528V24.3211H13.506C13.3074 24.3211 13.1169 24.4012 12.9764 24.5437C12.836 24.6862 12.7571 24.8795 12.757 25.081V27.3608H11.2592V25.081C11.2591 24.8795 11.1802 24.6862 11.0398 24.5437C10.8993 24.4012 10.7088 24.3211 10.5102 24.3211H8.26338V22.8012H10.5102C10.7088 22.8012 10.8993 22.7211 11.0398 22.5786C11.1802 22.4361 11.2591 22.2428 11.2592 22.0412V19.7614ZM1.51117 31.9205H22.5021V33.1376C22.5021 35.0029 21.0464 36.4801 19.2079 36.4801H4.80829C2.9698 36.4801 1.51117 35.0029 1.51117 33.1376V31.9205Z" fill="white"></path></svg>