<svg xmlns="http://www.w3.org/2000/svg" width="43" height="46" viewBox="0 0 43 46" fill="#ffffff"><path d="M4.97114 20.4844H3.53607V25.5156H4.97114V20.4844Z"></path><path d="M25.9588 20.4844H24.5237V25.5156H25.9588V20.4844Z"></path><path d="M37.6497 0H5.35035C2.40013 0 0 2.40422 0 5.35947V37.0468C0 38.7786 0.824947 40.3202 2.10109 41.3007V46H3.53616V42.0885C4.103 42.2938 4.71369 42.4062 5.35035 42.4062H37.6497C38.2672 42.4062 38.86 42.2996 39.4124 42.106V46H40.8474V41.3411C42.1532 40.3629 43 38.802 43 37.0468V5.35947C43 2.40422 40.5999 0 37.6497 0ZM29.3671 7.9063H33.6722V10.7812H29.3671V7.9063ZM32.8603 12.2188H36.1582L38.6948 16.0301V33.0625H35.1072V15.5949L32.8603 12.2188ZM29.3671 12.2188H31.1356L33.6722 16.0301V33.0625H29.3671V12.2188ZM20.7567 40.9687H5.35035C3.19139 40.9687 1.43507 39.2093 1.43507 37.0468V5.35947C1.43507 3.19692 3.19148 1.43752 5.35035 1.43752H20.7567V40.9687ZM27.932 36.6338H27.9095V40.9687H22.1918V1.43752H27.932V36.6338ZM37.2373 40.2274H29.3895V38.1162H37.2373V40.2274ZM41.5649 37.0468C41.5649 38.8385 40.3587 40.3524 38.7174 40.8192V36.6337H29.3671V34.5H40.13V15.5949L36.9263 10.7812H35.1073V7.9063H41.5649V37.0468ZM41.5649 6.46869H29.3671V1.43752H37.6497C39.8085 1.43752 41.5649 3.19692 41.5649 5.35947V6.46869Z"></path></svg>