<svg xmlns="http://www.w3.org/2000/svg" width="24" height="24" viewBox="0 0 24 24" fill="none"><path d="M22.8125 6.17875L17.2738 0.224692C17.2078 0.153802 17.1279 0.097265 17.0391 0.0586098C16.9503 0.0199547 16.8545 1.02158e-05 16.7577 2.06976e-05H11.9531C11.6936 -0.0020418 11.4436 0.150208 11.327 0.381677C8.5357 0.542973 5.90137 1.70346 3.89826 3.64577C3.48839 3.17397 2.89594 2.87697 2.238 2.87697C1.00397 2.87697 0 3.92144 0 5.2052V14.7603C0 15.911 0.421734 16.9981 1.18748 17.8213L6.72623 23.7754C6.7922 23.8463 6.87207 23.9028 6.96086 23.9414C7.04964 23.9801 7.14544 24 7.24228 24H12.0469C12.2375 24 12.42 23.9228 12.5526 23.7862C12.6008 23.7364 12.6413 23.6799 12.673 23.6183C15.4643 23.457 18.0986 22.2966 20.1017 20.3543C20.5116 20.826 21.104 21.1231 21.762 21.1231C22.996 21.1231 24 20.0786 24 18.7948V9.23978C24 8.08905 23.5783 7.00197 22.8125 6.17875ZM18.8194 12.9511C18.6082 14.4773 17.8915 15.8852 16.7624 16.9685C15.578 18.105 14.0541 18.7719 12.4326 18.8729C12.2298 18.1704 11.8956 17.5155 11.4439 16.9418C11.6265 16.9622 11.812 16.9731 12 16.9731C14.7426 16.9731 16.9738 14.7422 16.9738 12.0001C16.9738 11.9217 16.9717 11.8438 16.9681 11.7663L17.4377 12.2639C17.8112 12.6597 18.2955 12.8989 18.8194 12.9511ZM15.5652 12C15.5652 13.9667 13.9658 15.5668 12 15.5668C10.0341 15.5668 8.43477 13.9667 8.43477 12C8.43477 10.0333 10.0341 8.43325 12 8.43325C13.9659 8.43325 15.5652 10.0333 15.5652 12ZM12 7.027C9.25743 7.027 7.02623 9.25787 7.02623 12C7.02623 12.0784 7.02829 12.1562 7.0319 12.2337L6.56231 11.7362C6.18885 11.3404 5.70464 11.1011 5.18081 11.049C5.39015 9.53472 6.0967 8.137 7.21265 7.05555C8.40079 5.90416 9.93351 5.22874 11.5674 5.12711C11.7703 5.82963 12.1044 6.48456 12.5561 7.05822C12.3715 7.03753 12.1858 7.02711 12 7.027ZM11.2829 1.79402L11.3377 3.52886C11.3382 3.59721 11.3401 3.66527 11.3429 3.73319C9.42468 3.88385 7.62974 4.6916 6.23156 6.04656C5.49042 6.76483 4.89951 7.5993 4.476 8.50928V5.2053C4.476 5.16067 4.4745 5.11642 4.47211 5.07236C6.24609 3.14496 8.68293 1.97646 11.2829 1.79402ZM7.54935 22.5938L2.21962 16.8643C1.69659 16.3021 1.40859 15.5549 1.40859 14.7603V5.2052C1.40859 4.6968 1.78069 4.28322 2.23804 4.28322C2.6954 4.28322 3.0675 4.69685 3.0675 5.2052V12.126C2.52815 13.0199 2.62622 14.224 3.36276 15.0045L6.74995 18.5935C6.81578 18.6634 6.89525 18.7191 6.98343 18.7571C7.07161 18.7951 7.16665 18.8146 7.26267 18.8145C7.43587 18.8145 7.60949 18.751 7.74553 18.6231C8.0286 18.3568 8.04187 17.9118 7.77515 17.6292L4.38797 14.0402C4.04531 13.6771 4.04531 13.0637 4.38801 12.7006C4.54392 12.5354 4.74801 12.4443 4.96261 12.4443C5.1772 12.4443 5.38125 12.5353 5.53715 12.7006L10.0918 17.5267C10.8359 18.3151 11.2486 19.3666 11.2538 20.4873C11.2538 20.4936 11.2539 20.4999 11.2541 20.5062L11.32 22.5938H7.54935ZM12.717 22.206L12.6622 20.4711C12.6617 20.403 12.66 20.3349 12.6571 20.2669C14.5606 20.1172 16.3448 19.3196 17.7385 17.9825C18.4932 17.2583 19.0945 16.4131 19.524 15.4901V18.7949C19.524 18.8395 19.5255 18.8838 19.5279 18.9278C17.7539 20.8551 15.317 22.0236 12.717 22.206ZM22.5914 18.7949C22.5914 19.3033 22.2193 19.7168 21.762 19.7168C21.3046 19.7168 20.9325 19.3032 20.9325 18.7949V11.8739C21.4719 10.98 21.3738 9.77598 20.6373 8.99556L17.2501 5.40653C16.9834 5.12392 16.5377 5.11066 16.2545 5.37695C15.9715 5.64325 15.9582 6.08823 16.2249 6.37089L19.6121 9.95992C19.8898 10.2542 19.9719 10.7341 19.7698 11.0696C19.7602 11.0885 19.3692 11.5777 19.0375 11.5558C18.8229 11.5558 18.6188 11.4648 18.4629 11.2996L13.9083 6.47345C13.1595 5.68084 12.7471 4.6202 12.7459 3.49389L12.68 1.40627H16.4506L21.7804 7.1357C22.3034 7.69797 22.5914 8.4452 22.5914 9.23973V18.7949Z" fill="currentColor"></path></svg>