<svg xmlns="http://www.w3.org/2000/svg" width="26" height="24" viewBox="0 0 26 24" fill="none"><path fill-rule="evenodd" clip-rule="evenodd" d="M5.57156 1.50042C5.09831 1.50042 4.71467 1.88406 4.71467 2.35731C4.71467 2.83055 5.09831 3.2142 5.57156 3.2142C6.0448 3.2142 6.42844 2.83055 6.42844 2.35731C6.42844 1.88406 6.0448 1.50042 5.57156 1.50042ZM3.21425 2.35731C3.21425 1.0554 4.26965 0 5.57156 0C6.87346 0 7.92886 1.0554 7.92886 2.35731C7.92886 3.65921 6.87346 4.71462 5.57156 4.71462C4.26965 4.71462 3.21425 3.65921 3.21425 2.35731ZM20.6264 0.287843L20.0356 0.750209L19.4448 0.287843C19.587 0.106156 19.8049 0 20.0356 0C20.2663 0 20.4842 0.106156 20.6264 0.287843ZM20.0356 2.01358C19.9911 2.07607 19.9447 2.14177 19.8965 2.21051C19.4532 2.84255 18.8629 3.72812 18.2737 4.74288C17.0713 6.81368 15.9645 9.27183 15.9645 11.1965C15.9645 13.4431 17.7889 15.2676 20.0356 15.2676C22.2823 15.2676 24.1067 13.4431 24.1067 11.1965C24.1067 9.27183 22.9999 6.81368 21.7975 4.74288C21.2083 3.72812 20.618 2.84255 20.1747 2.21051C20.1265 2.14177 20.0801 2.07607 20.0356 2.01358ZM20.0356 0.750209C19.4448 0.287843 19.4447 0.287964 19.4446 0.288108L19.4443 0.288515L19.4376 0.297085C19.4352 0.300227 19.4321 0.304152 19.4285 0.308848C19.4185 0.32173 19.4041 0.340416 19.3856 0.364657C19.3485 0.413136 19.2948 0.483862 19.227 0.574867C19.0913 0.756831 18.8987 1.02013 18.668 1.34899C18.2073 2.00597 17.5923 2.92838 16.9761 3.98946C15.7679 6.07035 14.464 8.83532 14.464 11.1965C14.464 14.2718 16.9603 16.768 20.0356 16.768C23.1109 16.768 25.6071 14.2718 25.6071 11.1965C25.6071 8.83532 24.3033 6.07035 23.095 3.98946C22.4789 2.92838 21.8639 2.00597 21.4031 1.34899C21.1725 1.02013 20.9799 0.756831 20.8442 0.574867C20.7764 0.483862 20.7227 0.413136 20.6856 0.364657C20.6671 0.340416 20.6527 0.32173 20.6427 0.308848C20.6377 0.302406 20.6338 0.297414 20.6311 0.293904L20.6269 0.288515L20.6266 0.288108C20.6265 0.287964 20.6264 0.287843 20.0356 0.750209ZM2.35731 7.5271C1.88406 7.5271 1.50042 7.91074 1.50042 8.38399C1.50042 8.85724 1.88406 9.24088 2.35731 9.24088C2.83055 9.24088 3.2142 8.85724 3.2142 8.38399C3.2142 7.91074 2.83055 7.5271 2.35731 7.5271ZM0 8.38399C0 7.08208 1.0554 6.02668 2.35731 6.02668C3.65921 6.02668 4.71462 7.08208 4.71462 8.38399C4.71462 9.68589 3.65921 10.7413 2.35731 10.7413C1.0554 10.7413 0 9.68589 0 8.38399ZM8.7858 7.5271C8.31256 7.5271 7.92891 7.91074 7.92891 8.38399C7.92891 8.85724 8.31256 9.24088 8.7858 9.24088C9.25905 9.24088 9.64269 8.85724 9.64269 8.38399C9.64269 7.91074 9.25905 7.5271 8.7858 7.5271ZM6.42849 8.38399C6.42849 7.08208 7.4839 6.02668 8.7858 6.02668C10.0877 6.02668 11.1431 7.08208 11.1431 8.38399C11.1431 9.68589 10.0877 10.7413 8.7858 10.7413C7.4839 10.7413 6.42849 9.6859 6.42849 8.38399ZM5.57156 13.5538C5.09831 13.5538 4.71467 13.9374 4.71467 14.4107C4.71467 14.8839 5.09831 15.2676 5.57156 15.2676C6.0448 15.2676 6.42844 14.8839 6.42844 14.4107C6.42844 13.9374 6.0448 13.5538 5.57156 13.5538ZM3.21425 14.4107C3.21425 13.1088 4.26965 12.0534 5.57156 12.0534C6.87346 12.0534 7.92886 13.1088 7.92886 14.4107C7.92886 15.7126 6.87346 16.768 5.57156 16.768C4.26965 16.768 3.21425 15.7126 3.21425 14.4107ZM17.898 19.5051C18.191 19.2121 18.666 19.2121 18.959 19.5051L20.5661 21.1122C20.859 21.4052 20.859 21.8802 20.5661 22.1732L18.959 23.7803C18.666 24.0732 18.191 24.0732 17.898 23.7803C17.605 23.4873 17.605 23.0123 17.898 22.7193L18.2244 22.3929H5.57156C5.15723 22.3929 4.82135 22.057 4.82135 21.6427C4.82135 21.2284 5.15723 20.8925 5.57156 20.8925H18.2244L17.898 20.5661C17.605 20.2731 17.605 19.7981 17.898 19.5051Z" fill="currentColor"></path></svg>