<svg xmlns="http://www.w3.org/2000/svg" width="24" height="24" viewBox="0 0 24 24" fill="none"><path fill-rule="evenodd" clip-rule="evenodd" d="M12.3649 0L23.0535 6.17104V10.3702L21.0688 11.5161L23.0535 12.662V16.8611L10.6887 24L0 17.8289V13.6297L1.98476 12.4839L0 11.338V7.13883L12.3649 0ZM3.3911 13.2958L2.1095 14.0357L3.52607 14.8536V13.3737L3.3911 13.2958ZM1.40632 15.2536V17.017L9.98549 21.9701V20.2068L6.45947 18.1711V13.4435L9.98549 15.4792V13.7159L1.40632 8.76271V10.526L4.93239 12.5618V17.2894L1.40632 15.2536ZM2.10949 7.5448L10.6887 12.498L20.9441 6.57702L12.3649 1.62388L2.10949 7.5448ZM21.6472 7.79492L11.3918 13.7159V15.4792L21.6472 9.55826V7.79492ZM11.3918 20.2068V21.9701L21.6472 16.0492V14.2858L11.3918 20.2068ZM20.9441 13.0679L19.6625 12.328L10.6887 17.5091L7.86579 15.8793V17.3591L10.6887 18.9889L20.9441 13.0679Z" fill="currentColor"></path></svg>