<svg xmlns="http://www.w3.org/2000/svg" width="24" height="24" viewBox="0 0 24 24" fill="none"><g clip-path="url(#clip0_6817_6)"><path d="M22.6383 13.5943C22.8164 14.0328 22.6053 14.5327 22.1669 14.7108L19.7852 15.6794L21.9894 17.0039C22.4005 17.2386 22.5435 17.7622 22.3087 18.1732C22.074 18.5843 21.5504 18.7273 21.1394 18.4925C21.1283 18.4862 21.1174 18.4796 21.1066 18.4728L18.9025 17.1485L19.1655 19.7071C19.2062 20.1787 18.8569 20.5941 18.3853 20.6349C17.9244 20.6747 17.515 20.3415 17.4604 19.882L17.0661 16.045L12.854 13.5148V18.4285L15.9397 20.7428C16.3184 21.0268 16.3952 21.5641 16.1112 21.9428C15.8271 22.3215 15.2899 22.3983 14.9111 22.1143L12.854 20.5714V23.1429C12.854 23.6163 12.4703 24.0001 11.9969 24.0001C11.5235 24.0001 11.1397 23.6163 11.1397 23.1429V20.5714L9.08258 22.1143C8.70386 22.3983 8.1666 22.3215 7.88258 21.9428C7.59856 21.5641 7.67531 21.0268 8.05402 20.7428L11.1398 18.4285V13.5148L6.92785 16.0457L6.53355 19.8827C6.51031 20.1088 6.39822 20.3164 6.22194 20.4598C6.04567 20.6033 5.81963 20.6709 5.59353 20.6478C5.12292 20.5997 4.78034 20.1793 4.82837 19.7087L4.82849 19.7077L5.09146 17.1492L2.88738 18.4735C2.48717 18.7263 1.95776 18.6068 1.70495 18.2066C1.45208 17.8064 1.57157 17.277 1.97177 17.0242C1.98255 17.0174 1.99345 17.0108 2.00454 17.0045L4.20874 15.68L1.82712 14.7115C1.39146 14.5263 1.18843 14.023 1.37358 13.5873C1.55462 13.1615 2.04099 12.9562 2.47241 13.1235L6.0455 14.5765L10.3329 12L6.04513 9.42366L2.47203 10.8771C2.03071 11.0483 1.53412 10.8294 1.36293 10.388C1.19553 9.95656 1.40087 9.47013 1.82674 9.28915L4.20837 8.32059L2.00411 6.99568C1.593 6.76094 1.45008 6.23737 1.68482 5.82633C1.91957 5.41522 2.44313 5.2723 2.85418 5.50704C2.86527 5.51334 2.87617 5.51994 2.88695 5.52673L5.09102 6.85102L4.82806 4.2924C4.77978 3.82148 5.12236 3.40053 5.59328 3.35225C6.06419 3.30396 6.48515 3.64655 6.53343 4.11747L6.92772 7.95446L11.1397 10.4852V5.5714L8.05396 3.25712C7.67512 2.97322 7.59812 2.43601 7.88202 2.05717C8.16591 1.67833 8.70312 1.60133 9.08196 1.88523L9.08258 1.88567L11.1397 3.4285V0.857172C11.1397 0.383762 11.5235 0 11.9969 0C12.4703 0 12.854 0.383762 12.854 0.857172V3.42862L14.9111 1.88579C15.2899 1.60177 15.8271 1.67852 16.1112 2.05724C16.3952 2.43595 16.3184 2.97322 15.9397 3.25724L12.854 5.5714V10.4852L17.0659 7.95427L17.4602 4.11728C17.5161 3.64717 17.9424 3.31144 18.4125 3.36726C18.8719 3.42183 19.2051 3.83126 19.1653 4.29221L18.9023 6.85077L21.1064 5.52648C21.5066 5.27367 22.036 5.3931 22.2888 5.79331C22.5417 6.19352 22.4222 6.72293 22.022 6.97574C22.0112 6.98253 22.0003 6.98914 21.9892 6.99543L19.785 8.31991L22.1667 9.28847C22.6023 9.47368 22.8054 9.97693 22.6201 10.4126C22.4391 10.8385 21.9527 11.0437 21.5213 10.8764L17.9482 9.42341L13.6608 12L17.9486 14.5763L21.5217 13.1233C21.9595 12.9447 22.459 13.1549 22.6376 13.5926L22.6383 13.5943Z" fill="currentColor"></path></g><defs><clipPath id="clip0_6817_6"><rect width="24" height="24" fill="currentColor"></rect></clipPath></defs></svg>