<svg xmlns="http://www.w3.org/2000/svg" width="33" height="32" viewBox="0 0 33 32"><path d="M8.859 14.059c0.42-0.897 0.691-1.714 0.829-2.497 0.326-1.871 0.12-3.783-0.595-5.532l-2.288-5.614c-0.068-0.164-0.198-0.295-0.362-0.364s-0.348-0.069-0.513-0.002c-0.165 0.067-0.296 0.197-0.365 0.36s-0.071 0.348-0.005 0.513l2.289 5.614c0.619 1.517 0.798 3.178 0.515 4.792-0.118 0.664-0.354 1.371-0.726 2.166l-0.871 1.907c-2.34 5.108-2.633 10.84-0.825 16.143 0.029 0.084 0.073 0.161 0.132 0.227s0.129 0.12 0.208 0.159c0.079 0.039 0.165 0.062 0.253 0.067s0.176-0.006 0.26-0.035c0.084-0.028 0.161-0.073 0.227-0.132s0.12-0.129 0.159-0.208c0.039-0.079 0.062-0.165 0.067-0.254s-0.006-0.176-0.035-0.26c-1.515-4.427-1.46-9.241 0.157-13.633 2.92 1.153 5.898 1.735 8.916 1.735 2.913 0 5.864-0.544 8.832-1.619 1.574 4.362 1.614 9.13 0.113 13.517-0.058 0.169-0.046 0.353 0.033 0.513s0.217 0.282 0.386 0.34c0.169 0.058 0.353 0.046 0.513-0.033s0.282-0.217 0.34-0.386c1.676-4.895 1.549-10.228-0.357-15.038-0.002-0.005-0.001-0.011-0.003-0.017s-0.006-0.008-0.008-0.013c-0.143-0.362-0.295-0.72-0.456-1.074l-0.874-1.914c-0.369-0.789-0.605-1.496-0.722-2.158-0.284-1.615-0.105-3.276 0.515-4.794l2.289-5.614c0.066-0.165 0.065-0.349-0.004-0.513s-0.201-0.293-0.365-0.36c-0.165-0.067-0.349-0.066-0.513 0.002s-0.294 0.199-0.362 0.364l-2.288 5.613c-0.715 1.752-0.921 3.67-0.594 5.534 0.138 0.782 0.409 1.599 0.826 2.49l0.872 1.909c0.058 0.126 0.11 0.255 0.165 0.383-5.71 2.056-11.339 2.019-16.747-0.114 0.040-0.090 0.075-0.181 0.116-0.27l0.866-1.902z"></path><path d="M0.157 14.19c0.055 0.069 0.122 0.128 0.199 0.171s0.162 0.071 0.25 0.081c0.088 0.010 0.177 0.003 0.262-0.021s0.164-0.065 0.234-0.12l5.048-3.979c0.080-0.063 0.145-0.143 0.189-0.234s0.068-0.192 0.068-0.293c0-0.102-0.023-0.202-0.068-0.293s-0.109-0.171-0.189-0.234l-5.048-3.979c-0.069-0.057-0.149-0.1-0.235-0.126s-0.176-0.034-0.265-0.025c-0.089 0.009-0.175 0.037-0.254 0.080s-0.148 0.102-0.203 0.172c-0.055 0.070-0.096 0.151-0.12 0.238s-0.030 0.177-0.018 0.266c0.012 0.089 0.041 0.175 0.086 0.252s0.105 0.145 0.177 0.199l4.379 3.452-4.379 3.452c-0.069 0.054-0.127 0.122-0.171 0.199s-0.071 0.162-0.081 0.249-0.003 0.176 0.021 0.261c0.024 0.085 0.065 0.164 0.119 0.234zM32.29 5.398c-0.11-0.14-0.272-0.23-0.449-0.251s-0.355 0.029-0.495 0.139l-5.048 3.979c-0.080 0.063-0.145 0.143-0.189 0.234s-0.068 0.192-0.068 0.293 0.023 0.202 0.068 0.293c0.044 0.091 0.109 0.171 0.189 0.234l5.048 3.979c0.14 0.11 0.318 0.161 0.495 0.14s0.338-0.111 0.449-0.251c0.11-0.14 0.161-0.318 0.14-0.495s-0.111-0.338-0.251-0.449l-4.379-3.452 4.379-3.452c0.14-0.11 0.23-0.272 0.251-0.449s-0.030-0.355-0.14-0.495zM16.224 24.508c-0.299 0-0.562 0.198-0.646 0.486l-1.776 6.146c-0.049 0.171-0.029 0.355 0.058 0.511s0.231 0.271 0.402 0.321c0.171 0.049 0.355 0.029 0.511-0.058s0.271-0.231 0.321-0.402l1.13-3.911 1.13 3.911c0.053 0.167 0.169 0.307 0.323 0.389s0.335 0.102 0.503 0.053c0.168-0.048 0.311-0.161 0.398-0.313s0.111-0.332 0.067-0.502l-1.776-6.146c-0.040-0.14-0.125-0.263-0.241-0.351s-0.258-0.135-0.404-0.135z"></path></svg>