<svg xmlns="http://www.w3.org/2000/svg" width="32" height="32" viewBox="0 0 32 32"><path d="M31.749 25.42c-1.024-0.544-2.166-0.828-3.326-0.828s-2.301 0.284-3.326 0.828c-0.889 0.471-1.879 0.718-2.885 0.718s-1.997-0.246-2.885-0.718c-1.024-0.544-2.166-0.828-3.326-0.828s-2.302 0.284-3.326 0.828c-0.889 0.472-1.88 0.718-2.886 0.718s-1.997-0.247-2.886-0.718c-1.024-0.544-2.166-0.828-3.326-0.828s-2.301 0.284-3.326 0.828c-0.111 0.058-0.194 0.159-0.23 0.278s-0.025 0.249 0.034 0.36c0.059 0.111 0.159 0.194 0.278 0.23s0.249 0.025 0.36-0.034c0.889-0.472 1.879-0.718 2.885-0.718s1.996 0.247 2.885 0.718c1.024 0.544 2.166 0.828 3.326 0.828s2.302-0.284 3.326-0.828c0.889-0.472 1.879-0.718 2.885-0.718s1.997 0.246 2.885 0.718c1.024 0.544 2.166 0.828 3.326 0.828s2.302-0.284 3.326-0.828c0.889-0.471 1.879-0.718 2.885-0.718s1.996 0.247 2.885 0.718c0.111 0.059 0.24 0.071 0.36 0.034s0.22-0.12 0.278-0.23c0.059-0.111 0.071-0.24 0.034-0.36s-0.12-0.22-0.23-0.278zM31.749 20.502c-1.024-0.544-2.166-0.828-3.326-0.828s-2.302 0.284-3.326 0.828c-0.889 0.472-1.879 0.718-2.885 0.718s-1.997-0.247-2.885-0.718c-0.85-0.451-1.784-0.724-2.743-0.803s-1.925 0.039-2.837 0.345c-3.475-1.44-6.284-4.774-5.008-8.463 1.003-2.898 3.644-4.053 5.889-4.5-0.381 0.259-0.725 0.566-1.026 0.915-0.422 0.498-0.733 1.081-0.911 1.709s-0.22 1.287-0.122 1.933c0.652 5.094 6.863 5.218 7.439 5.218h11.52c0.125 0 0.245-0.050 0.333-0.138s0.138-0.208 0.138-0.333c0-0.125-0.050-0.245-0.138-0.333s-0.208-0.138-0.333-0.138h-11.488c-1.063-0.007-2.119-0.185-3.126-0.526-2.025-0.71-3.172-2.012-3.41-3.87-0.083-0.516-0.052-1.043 0.088-1.546s0.389-0.969 0.727-1.367c0.876-1.032 2.403-1.708 3.983-1.764 0.332-0.012 0.656-0.11 0.939-0.285s0.516-0.42 0.675-0.712c0.16-0.292 0.24-0.62 0.235-0.953s-0.098-0.658-0.267-0.944c-1.079-1.801-3.331-3.948-7.93-3.948-4.393 0-8.493 2.342-11.857 6.772-0.074 0.1-0.106 0.224-0.089 0.347s0.083 0.234 0.181 0.309c0.099 0.075 0.224 0.108 0.347 0.092s0.235-0.081 0.311-0.179c3.18-4.187 7.021-6.4 11.107-6.4 4.158 0 6.168 1.898 7.122 3.49 0.086 0.144 0.134 0.308 0.137 0.476s-0.038 0.333-0.119 0.48c-0.079 0.148-0.195 0.273-0.336 0.362s-0.304 0.141-0.471 0.149c-0.642-0.048-8.403-0.504-10.438 5.375-1.053 3.044 0.275 7.070 4.728 9.276-0.88 0.448-1.855 0.678-2.842 0.669s-1.958-0.254-2.831-0.717c-1.024-0.544-2.166-0.828-3.326-0.828s-2.302 0.284-3.326 0.828c-0.11 0.059-0.193 0.159-0.229 0.278s-0.024 0.248 0.034 0.359c0.059 0.11 0.159 0.193 0.278 0.229s0.249 0.024 0.359-0.034c0.889-0.471 1.879-0.718 2.885-0.718s1.996 0.246 2.885 0.718c1.024 0.544 2.166 0.828 3.326 0.828s2.302-0.284 3.326-0.828c0.889-0.471 1.879-0.718 2.885-0.718s1.997 0.246 2.885 0.718c1.024 0.544 2.166 0.828 3.326 0.828s2.302-0.284 3.326-0.828c0.889-0.471 1.879-0.718 2.885-0.718s1.996 0.246 2.885 0.718c0.11 0.058 0.239 0.071 0.359 0.034s0.219-0.119 0.278-0.23c0.058-0.11 0.071-0.239 0.034-0.359s-0.119-0.219-0.23-0.278zM31.749 30.339c-1.024-0.544-2.166-0.828-3.326-0.828s-2.302 0.284-3.326 0.828c-0.889 0.472-1.879 0.718-2.885 0.718s-1.997-0.247-2.885-0.718c-1.024-0.544-2.166-0.828-3.326-0.828s-2.302 0.284-3.326 0.828c-0.889 0.472-1.879 0.718-2.885 0.718s-1.997-0.247-2.885-0.718c-1.024-0.544-2.166-0.828-3.326-0.828s-2.302 0.284-3.326 0.828c-0.108 0.060-0.189 0.159-0.224 0.278s-0.023 0.246 0.035 0.355c0.058 0.109 0.156 0.191 0.274 0.229s0.246 0.027 0.356-0.029c0.889-0.471 1.879-0.718 2.885-0.718s1.996 0.246 2.885 0.718c1.024 0.544 2.166 0.829 3.326 0.829s2.302-0.285 3.326-0.829c0.889-0.472 1.879-0.718 2.885-0.718s1.997 0.247 2.885 0.718c1.024 0.544 2.166 0.828 3.326 0.828s2.302-0.284 3.326-0.828c0.889-0.471 1.879-0.718 2.885-0.718s1.996 0.246 2.885 0.718c0.11 0.056 0.238 0.067 0.356 0.029s0.216-0.119 0.274-0.229c0.058-0.109 0.071-0.237 0.035-0.355s-0.116-0.218-0.224-0.278z"></path></svg>