<svg xmlns="http://www.w3.org/2000/svg" width="32" height="32" viewBox="0 0 32 32"><path d="M31.692 7.782l-15.447-7.723c-0.077-0.038-0.161-0.058-0.247-0.058s-0.17 0.020-0.247 0.058l-15.447 7.723c-0.092 0.046-0.169 0.116-0.223 0.204s-0.082 0.188-0.082 0.29v15.447c-0.001 0.103 0.028 0.204 0.082 0.292s0.131 0.159 0.223 0.205l15.447 7.723c0.077 0.038 0.161 0.058 0.247 0.058s0.17-0.020 0.247-0.058l15.447-7.723c0.092-0.046 0.17-0.117 0.223-0.205s0.082-0.189 0.082-0.292v-15.447c0-0.103-0.028-0.203-0.082-0.29s-0.131-0.158-0.223-0.204zM15.998 15.382l-4.312-2.156 13.784-7.322 4.744 2.372-14.216 7.107zM7.273 11.019l13.784-7.322 3.2 1.6-13.782 7.323-3.201-1.601zM6.62 11.926l3.31 1.655v4.396l-1.265-1.265c-0.103-0.103-0.244-0.162-0.39-0.162h-1.655v-4.624zM15.998 1.169l3.846 1.921-13.784 7.323-4.275-2.138 14.213-7.107zM1.103 9.168l4.413 2.207v5.727c0 0.146 0.058 0.287 0.162 0.39s0.244 0.162 0.39 0.162h1.978l2.045 2.045c0.077 0.077 0.175 0.13 0.282 0.151s0.218 0.010 0.319-0.031c0.101-0.042 0.187-0.112 0.248-0.203s0.093-0.197 0.093-0.306v-5.176l4.413 2.207v14.213l-14.343-7.172v-14.213zM16.55 30.553v-14.213l14.343-7.172v14.213l-14.343 7.172z"></path></svg>