<svg xmlns="http://www.w3.org/2000/svg" width="34" height="40" viewBox="0 0 34 40" fill="none"><path d="M33.5677 10.2993C33.5472 9.21932 33.5276 8.19912 33.5276 7.21214C33.5276 6.84081 33.38 6.48469 33.1175 6.22212C32.8549 5.95955 32.4988 5.81204 32.1275 5.81204C26.1397 5.81204 21.5808 4.09123 17.7807 0.396457C17.5194 0.142238 17.1692 0 16.8047 0C16.4401 0 16.0899 0.142238 15.8286 0.396457C12.0289 4.09123 7.47078 5.81204 1.48339 5.81204C1.11206 5.81204 0.755941 5.95955 0.493372 6.22212C0.230802 6.48469 0.083292 6.84081 0.083292 7.21214C0.083292 8.1993 0.0638772 9.21988 0.0431558 10.3C-0.148751 20.3501 -0.411595 34.1142 16.3461 39.9227C16.6431 40.0257 16.9661 40.0257 17.2631 39.9227C34.0221 34.114 33.7596 20.3496 33.5677 10.2993ZM16.8048 37.1142C2.43284 31.8933 2.65014 20.4563 2.84298 10.3534C2.85455 9.74707 2.86576 9.1594 2.8736 8.5833C8.48146 8.34659 12.9659 6.64725 16.8048 3.30306C20.644 6.64725 25.1292 8.34678 30.7374 8.5833C30.7453 9.15921 30.7565 9.74651 30.768 10.3525C30.9607 20.4558 31.1778 31.8931 16.8048 37.1142Z" fill="black"></path><path d="M21.6262 15.1363L14.8685 21.8936L11.9849 19.0099C11.7208 18.7547 11.367 18.6134 10.9998 18.6165C10.6325 18.6196 10.2812 18.7669 10.0215 19.0266C9.76177 19.2863 9.61451 19.6377 9.61142 20.005C9.60833 20.3722 9.74966 20.726 10.005 20.99L13.8786 24.8637C14.0084 24.9938 14.1628 25.0971 14.3326 25.1674C14.5025 25.2378 14.6846 25.2738 14.8685 25.2736C15.0524 25.2738 15.2345 25.2378 15.4044 25.1674C15.5743 25.0971 15.7286 24.9938 15.8585 24.8637L23.6059 17.1164C23.7359 16.9865 23.8391 16.8321 23.9095 16.6623C23.9799 16.4924 24.0161 16.3104 24.0162 16.1265C24.0162 15.9427 23.98 15.7606 23.9096 15.5907C23.8392 15.4209 23.7361 15.2665 23.6061 15.1365C23.3435 14.874 22.9875 14.7264 22.6162 14.7264C22.2449 14.7264 21.8887 14.8738 21.6262 15.1363Z"></path></svg>