<svg xmlns="http://www.w3.org/2000/svg" width="37" height="28" viewBox="0 0 37 28" fill="none"><path d="M3.81481 25.6247C1.79234 23.3999 0.578857 20.973 0.578857 16.928C0.578857 9.84937 5.63504 3.57971 12.7137 0.34375L14.5339 2.97296C7.85976 6.61341 6.44403 11.2651 6.03953 14.2988C7.05077 13.6921 8.4665 13.4898 9.88223 13.6921C13.5227 14.0966 16.3541 16.928 16.3541 20.7707C16.3541 22.5909 15.5451 24.4112 14.3317 25.8269C12.9159 27.2426 11.298 27.8494 9.27549 27.8494C7.05077 27.8494 5.0283 26.8381 3.81481 25.6247ZM24.0395 25.6247C22.0171 23.3999 20.8036 20.973 20.8036 16.928C20.8036 9.84937 25.8598 3.57971 32.9384 0.34375L34.7586 2.97296C28.0845 6.61341 26.6687 11.2651 26.2643 14.2988C27.2755 13.6921 28.6912 13.4898 30.1069 13.6921C33.7474 14.0966 36.5789 16.928 36.5789 20.7707C36.5789 22.5909 35.7699 24.4112 34.5564 25.8269C33.3429 27.2426 31.5227 27.8494 29.5002 27.8494C27.2755 27.8494 25.253 26.8381 24.0395 25.6247Z" fill="currentColor"></path></svg>