<svg xmlns="http://www.w3.org/2000/svg" width="40" height="40" viewBox="0 0 40 40" fill="none"><path d="M39.6146 9.72691L20.3062 0.0727278C20.2105 0.0248993 20.105 0 19.998 0C19.891 0 19.7854 0.0248993 19.6897 0.0727278L0.381351 9.72691C0.266719 9.78419 0.170316 9.87228 0.102958 9.9813C0.0355996 10.0903 -4.94377e-05 10.2159 1.02772e-05 10.3441V29.6525C-0.000692428 29.7812 0.0346536 29.9076 0.102048 30.0172C0.169442 30.1269 0.266193 30.2155 0.381351 30.2731L19.6897 39.9273C19.7854 39.9751 19.891 40 19.998 40C20.105 40 20.2105 39.9751 20.3062 39.9273L39.6146 30.2731C39.7297 30.2155 39.8265 30.1269 39.8939 30.0172C39.9613 29.9076 39.9966 29.7812 39.9959 29.6525V10.3441C39.996 10.2159 39.9603 10.0903 39.893 9.9813C39.8256 9.87228 39.7292 9.78419 39.6146 9.72691ZM19.998 19.2273L14.6075 16.5317L31.8374 7.37888L37.7679 10.3441L19.998 19.2273ZM9.09081 13.7734L26.3208 4.62054L30.3204 6.62033L13.0925 15.7746L9.09081 13.7734ZM8.27503 14.9078L12.4125 16.9765V22.4711L10.8313 20.8899C10.702 20.7606 10.5267 20.6879 10.3438 20.6879H8.27503V14.9078ZM19.998 1.46086L24.8057 3.862L7.57579 13.0162L2.23151 10.3441L19.998 1.46086ZM1.37918 11.4598L6.89586 14.2182V21.3774C6.89586 21.5603 6.96851 21.7357 7.09783 21.8651C7.22715 21.9944 7.40255 22.067 7.58544 22.067H10.0583L12.6146 24.6233C12.711 24.7197 12.8339 24.7854 12.9676 24.812C13.1014 24.8386 13.24 24.8249 13.366 24.7727C13.492 24.7206 13.5997 24.6322 13.6754 24.5188C13.7512 24.4054 13.7917 24.2722 13.7917 24.1358V17.6661L19.3084 20.4244V38.1909L1.37918 29.2263V11.4598ZM20.6875 38.1909V20.4244L38.6167 11.4598V29.2263L20.6875 38.1909Z" fill="#253D4E"></path></svg>