<svg xmlns="http://www.w3.org/2000/svg" width="38" height="40" viewBox="0 0 38 40" fill="none"><path d="M36.8727 6.68202C36.6943 5.5612 35.7128 4.72477 34.5809 4.72477H34.5586C27.5214 4.79726 20.7351 7.30656 15.3429 11.801C15.1756 9.82702 14.6124 7.90322 13.6812 6.14113C12.4098 3.73777 10.4971 1.73033 8.1607 0.336274C7.21831 -0.226926 6.04173 -0.0707918 5.30566 0.715457C1.80379 4.44595 -0.0809744 9.31958 0.00266907 14.4386C0.0807363 19.3679 1.97665 24.0074 5.35585 27.5706C5.038 28.7862 4.79823 30.0241 4.63652 31.2843C4.5696 31.8029 4.93206 32.2769 5.45622 32.3494C5.49526 32.355 5.53987 32.355 5.5789 32.355C6.0473 32.355 6.45437 32.0093 6.51571 31.5297C6.68857 30.2193 6.94508 28.9368 7.2908 27.6933C7.32984 27.6096 7.35214 27.526 7.36329 27.4368C10.7815 15.4534 21.8336 6.75451 34.592 6.62068H34.5976C34.7983 6.62068 34.9879 6.7824 35.0214 6.97756C35.724 11.4107 35.7463 15.9051 35.0883 20.3438C35.0772 20.3772 35.066 20.4107 35.0604 20.4442C33.75 26.0706 30.092 30.8773 25.0121 33.6264C20.5343 36.0576 15.3206 36.6933 10.4302 35.4609C12.0808 34.3736 13.6644 33.1803 15.1756 31.881C19.1626 28.4516 22.5139 24.3977 25.1347 19.8419C25.3968 19.3903 25.2407 18.8103 24.7834 18.5482C24.3318 18.2862 23.7518 18.4423 23.4897 18.8995C19.6645 25.5074 14.1942 31.0278 7.69229 34.9201C7.66441 34.9312 7.6421 34.9479 7.61422 34.9647C5.52871 36.2082 3.34283 37.2788 1.06773 38.171C0.582597 38.3606 0.337243 38.9126 0.532411 39.3978C0.677393 39.7714 1.03427 40 1.41346 40C1.53056 40 1.64766 39.9777 1.75918 39.9331C4.01198 39.052 6.17556 38.0037 8.24991 36.7937C10.5585 37.5743 12.9563 37.9647 15.3485 37.9647C18.9953 37.9647 22.6254 37.0669 25.8931 35.2881C31.3913 32.3104 35.3727 27.1245 36.8392 21.052C36.8727 20.9739 36.9006 20.8903 36.9117 20.801C37.6311 16.117 37.6143 11.3661 36.8727 6.68202ZM9.52129 18.2583C9.51014 17.2434 9.46553 16.301 9.38747 15.3977C9.2146 13.4683 8.8856 11.4385 8.38374 9.18017C8.27222 8.66716 7.76478 8.34932 7.25177 8.46084C6.73876 8.57236 6.42091 9.0798 6.53243 9.59282C7.01757 11.7675 7.33541 13.7192 7.49712 15.565C7.65326 17.3326 7.66999 19.2787 7.54173 21.6709C6.9395 22.8865 6.41533 24.1412 5.98039 25.4349C0.270329 18.6207 0.465497 8.62255 6.67742 2.00914C6.80009 1.87531 7.01199 1.85858 7.18485 1.95896C11.2499 4.37904 13.6421 8.76196 13.4916 13.4683C12.0075 14.9247 10.6771 16.5298 9.52129 18.2583Z" fill="#253D4E"></path></svg>