<svg width="136" height="22" viewBox="0 0 136 22" fill="none" xmlns="http://www.w3.org/2000/svg">
<path fill-rule="evenodd" clip-rule="evenodd" d="M15.6294 20.364C19.3546 18.2132 21.2491 14.1093 20.7662 10.0926L17.0673 12.2282C16.8003 14.2182 15.6463 16.0671 13.773 17.1486C10.5658 19.0003 6.4646 17.9014 4.61288 14.6942C2.76116 11.4869 3.86007 7.38576 7.06733 5.53405C9.59584 4.07421 12.6799 4.44827 14.7794 6.24353L9.07289 9.53817L8.1594 14.3964L20.1057 7.49922C19.9208 7.03475 19.7001 6.57787 19.4428 6.13212C16.5658 1.14906 10.194 -0.558268 5.21096 2.31871C0.227882 5.19569 -1.47942 11.5675 1.39755 16.5505C4.27452 21.5336 10.6463 23.2409 15.6294 20.364Z" fill="white"/>
<path d="M115.452 3.83566V12.9167C115.452 14.2478 114.95 15.3804 113.928 16.3771C112.905 17.343 111.771 17.8041 110.432 17.8041C109.087 17.8041 107.922 17.3396 106.902 16.3771C105.888 15.3885 105.411 14.2587 105.411 12.9167V1.42069L101.307 3.78986V12.6265C101.307 15.191 102.168 17.3829 103.875 19.1153L103.878 19.1182L103.881 19.121C105.623 20.8525 107.814 21.7342 110.432 21.7342C113.046 21.7342 115.24 20.8542 116.952 19.1182C118.695 17.3844 119.556 15.1904 119.556 12.6265V1.4665L115.452 3.83566Z" fill="white"/>
<path d="M45.1611 14.3537L44.3659 15.9985L44.3556 16.0171C43.3056 17.908 41.946 19.3486 40.2689 20.3079C38.5921 21.267 36.6436 21.719 34.4573 21.7019L34.4542 21.7019C31.5082 21.6674 28.9688 20.6575 26.8398 18.6886C24.6983 16.7083 23.6193 14.2559 23.5837 11.4103C23.548 8.52538 24.5944 6.07085 26.7308 4.02584L26.7331 4.02365L26.7354 4.02148C28.8907 1.99212 31.4624 0.909628 34.4524 0.874546C36.5945 0.840134 38.5937 1.39877 40.4356 2.50219L40.4397 2.50465L40.4438 2.50716C42.166 3.56779 43.4778 4.89808 44.249 6.57819L44.2499 6.58016L45.0943 8.44847H40.6119L40.3867 8.07627C39.1026 5.95423 37.2001 4.8637 34.5475 4.80442C32.814 4.77635 31.2827 5.36736 29.8596 6.66432L29.8569 6.6668L29.8541 6.66924C28.3827 7.98464 27.6871 9.52736 27.6871 11.3043C27.6871 13.0899 28.3573 14.6091 29.7092 15.9264C31.0555 17.2065 32.645 17.8331 34.4841 17.8042L34.486 17.8042L34.4879 17.8042C37.1909 17.7746 39.124 16.7321 40.4314 14.7073L40.6598 14.3537H45.1611Z" fill="white"/>
<path fill-rule="evenodd" clip-rule="evenodd" d="M56.9148 0.939507C59.7302 1.04359 62.1774 2.09286 64.1425 4.14377C66.0974 6.1517 67.1027 8.56122 67.1027 11.3366C67.1027 14.1889 66.0214 16.6686 63.8939 18.7396C61.7948 20.783 59.2378 21.8052 56.2982 21.7016C53.4773 21.6311 51.0305 20.5793 49.0673 18.564C47.1061 16.5507 46.1379 14.1385 46.1379 11.3688C46.1379 8.49124 47.214 5.97854 49.3112 3.93589C51.4122 1.85703 53.9733 0.83475 56.9148 0.939507ZM56.3869 17.7725L56.3922 17.7727C58.2536 17.859 59.788 17.2676 61.0887 15.9151L61.0917 15.912L61.0947 15.9089C62.4439 14.5372 63.0607 12.9895 63.0325 11.1618C62.9714 9.41942 62.3217 7.95247 61.0936 6.69863C59.8798 5.45942 58.4587 4.86906 56.7528 4.86906H56.7464L56.7401 4.86896C54.9419 4.84026 53.4518 5.46105 52.1672 6.7115C50.8895 7.95528 50.2713 9.41088 50.2413 11.1877C50.2114 12.9376 50.7737 14.4582 51.9934 15.7614C53.2154 17.0669 54.6433 17.7149 56.3816 17.7723L56.3869 17.7725Z" fill="white"/>
<path d="M98.4761 21.2828H94.3063V9.24053C94.3063 7.97948 93.9272 6.92525 93.2195 6.07108C92.5435 5.25502 91.6423 4.83681 90.5113 4.83681C89.3142 4.83681 88.3032 5.21786 87.4152 5.96906C86.5911 6.69308 86.1862 7.58271 86.1862 8.69234V21.2828H81.9833V8.69234C81.9833 7.58263 81.5789 6.69623 80.726 5.97307L80.7212 5.96904L80.7165 5.96492C79.8666 5.22028 78.8595 4.83681 77.6583 4.83681C76.534 4.83681 75.6634 5.25 74.9832 6.07108C74.282 6.91738 73.9295 7.936 73.9295 9.24053V21.2828H69.7598V9.53076C69.7598 7.09726 70.4672 5.02481 71.9911 3.46669C73.3966 1.9924 75.2405 1.18069 77.462 1.00601C78.9707 0.882388 80.357 1.13851 81.5954 1.78694C82.5332 2.27798 83.361 2.98065 84.0848 3.87161C84.8086 2.98065 85.6363 2.27798 86.5741 1.78694C87.8125 1.13851 89.1989 0.882388 90.7076 1.00601C92.9326 1.18097 94.7725 1.99421 96.2077 3.46273C97.729 5.01583 98.4761 7.08603 98.4761 9.53076V21.2828Z" fill="white"/>
<path d="M126.64 14.3214V15.6899C126.64 16.006 126.834 16.4681 127.473 17.0903C128.05 17.6525 128.612 17.8586 129.144 17.837L129.148 17.8369L129.152 17.8367C130.072 17.8087 130.691 17.5644 131.145 17.1226C131.53 16.7483 131.75 16.213 131.779 15.443C131.791 14.8146 131.617 14.3392 131.293 13.9612C130.957 13.5693 130.408 13.222 129.571 12.9598L129.568 12.959L127.354 12.2835C126.076 11.8925 125.042 11.2514 124.317 10.3343C123.592 9.41702 123.222 8.28238 123.167 6.98265C123.091 5.35 123.673 3.91992 124.851 2.77268L124.856 2.76843L124.86 2.76426C126.051 1.64104 127.487 1.01333 129.173 0.939823C130.679 0.865278 132.054 1.36126 133.274 2.33162C134.554 3.3226 135.267 4.57405 135.383 6.0883L135.384 6.09437L135.466 7.44881H131.216V6.27382C131.216 5.90568 131.034 5.57437 130.679 5.31213C130.316 5.04476 129.793 4.87091 129.219 4.86907C128.181 4.89682 127.359 5.66413 127.336 6.64571L127.335 6.66472L127.334 6.68369C127.298 7.16197 127.425 7.52772 127.691 7.83375C127.973 8.15902 128.459 8.46888 129.223 8.71701L131.413 9.42739L131.415 9.42835C132.781 9.88315 133.886 10.5752 134.672 11.5285C135.46 12.484 135.887 13.6524 135.98 14.9902C136.131 16.8777 135.431 18.5453 133.951 19.914L133.948 19.9175L133.944 19.9209C132.472 21.2463 130.744 21.8744 128.801 21.7652L128.799 21.7651L128.797 21.765C126.996 21.6554 125.491 20.917 124.272 19.6588L124.268 19.6546L124.264 19.6503C123.068 18.3774 122.471 16.8392 122.471 15.0772V14.3214H126.64Z" fill="white"/>
</svg>
