<svg xmlns="http://www.w3.org/2000/svg" width="25" height="32" viewBox="0 0 25 32" fill="none"><path d="M23.9821 6.47011L13.2678 1.11295C13.1191 1.03864 12.9551 0.999951 12.7889 0.999951C12.6226 0.999951 12.4587 1.03864 12.3099 1.11295L1.59563 6.47011C1.41752 6.55911 1.26774 6.69598 1.16308 6.86536C1.05842 7.03474 1.00303 7.22994 1.00313 7.42904V17.1148C1.0041 18.9281 1.44179 20.7144 2.27916 22.3228C3.11653 23.9311 4.32895 25.3141 5.81385 26.3548L12.1749 30.8066C12.3549 30.9325 12.5693 31 12.7889 31C13.0085 31 13.2228 30.9325 13.4028 30.8066L19.7639 26.3548C21.2488 25.3141 22.4612 23.9311 23.2986 22.3228C24.136 20.7144 24.5737 18.9281 24.5746 17.1148V7.42904C24.5747 7.22994 24.5193 7.03474 24.4147 6.86536C24.31 6.69598 24.1602 6.55911 23.9821 6.47011ZM22.4318 17.1148C22.431 18.5835 22.0764 20.0304 21.3981 21.3331C20.7198 22.6357 19.7377 23.7559 18.535 24.5987L12.7889 28.6209L7.04279 24.5987C5.84001 23.7559 4.85793 22.6357 4.17964 21.3331C3.50134 20.0304 3.1468 18.5835 3.14599 17.1148V8.09119L12.7889 3.26974L22.4318 8.09119V17.1148Z" fill="black"></path><path fill-rule="evenodd" clip-rule="evenodd" d="M1.00313 17.1148V7.42904C1.00303 7.22994 1.05842 7.03474 1.16308 6.86536C1.26774 6.69598 1.41752 6.55911 1.59563 6.47011L12.3099 1.11295C12.4587 1.03864 12.6226 0.999951 12.7889 0.999951C12.9551 0.999951 13.1191 1.03864 13.2678 1.11295L23.9821 6.47011C24.1602 6.55911 24.31 6.69598 24.4147 6.86536C24.5193 7.03474 24.5747 7.22994 24.5746 7.42904V17.1148C24.5737 18.9281 24.136 20.7144 23.2986 22.3228C22.4612 23.9311 21.2488 25.3141 19.7639 26.3548L13.4028 30.8066C13.2228 30.9325 13.0085 31 12.7889 31C12.5693 31 12.3549 30.9325 12.1749 30.8066L5.81385 26.3548C4.32895 25.3141 3.11653 23.9311 2.27916 22.3228C1.44179 20.7144 1.0041 18.9281 1.00313 17.1148ZM24.8746 7.42918V17.1148C24.8736 18.9762 24.4243 20.8102 23.5647 22.4613C22.7051 24.1124 21.4604 25.5322 19.9361 26.6005L13.5748 31.0524C13.3444 31.2135 13.07 31.2999 12.7889 31.2999C12.5078 31.2999 12.2334 31.2136 12.003 31.0525L5.64184 26.6006C4.11748 25.5323 2.87268 24.1124 2.01306 22.4613C1.15344 20.8102 0.704126 18.9764 0.703125 17.1149V7.42918C0.703125 7.42914 0.703125 7.42923 0.703125 7.42918C0.703032 7.17438 0.773929 6.92444 0.907866 6.70767C1.04181 6.49088 1.23351 6.3157 1.46146 6.20178C1.46144 6.20179 1.46148 6.20177 1.46146 6.20178L12.1758 0.844623C12.3661 0.749502 12.5761 0.699951 12.7889 0.699951C13.0017 0.699951 13.2116 0.74947 13.4019 0.844591L24.1162 6.20175C24.1162 6.20174 24.1162 6.20176 24.1162 6.20175C24.3442 6.31567 24.5359 6.49088 24.6699 6.70767C24.8038 6.92444 24.8747 7.17437 24.8746 7.42918C24.8746 7.42923 24.8746 7.42914 24.8746 7.42918ZM21.132 21.1945C21.7881 19.9346 22.131 18.5351 22.1318 17.1146V8.2766L12.7889 3.60515L3.44599 8.2766V17.1146C3.44677 18.5351 3.78969 19.9346 4.44573 21.1945C5.10176 22.4545 6.05163 23.5379 7.21495 24.3531L12.7889 28.2547L18.3628 24.3531C19.5261 23.5379 20.476 22.4545 21.132 21.1945ZM18.535 24.5987C19.7377 23.7559 20.7198 22.6357 21.3981 21.3331C22.0764 20.0304 22.431 18.5835 22.4318 17.1148V8.09119L12.7889 3.26974L3.14599 8.09119V17.1148C3.1468 18.5835 3.50134 20.0304 4.17964 21.3331C4.85793 22.6357 5.84001 23.7559 7.04279 24.5987L12.7889 28.6209L18.535 24.5987Z" fill="black"></path></svg>