<svg xmlns="http://www.w3.org/2000/svg" width="136" height="21" viewBox="0 0 138.4 22.3"><defs><style>.cls-1{fill-rule:evenodd;}</style></defs><g id="Layer_2" data-name="Layer 2"><g id="Layer_1-2" data-name="Layer 1"><path class="cls-1" d="M11.13,22.29A11.12,11.12,0,0,1,.38,8.29,11.12,11.12,0,0,1,11.11.05a11.15,11.15,0,0,1,9.64,5.56,11.56,11.56,0,0,1,.71,1.46l.22.56-13.79,8L9.15,8.92l5-2.91a6,6,0,0,0-8.27,8.16A6,6,0,0,0,17.08,12l0-.34L22,8.78l.12,1.06a11.12,11.12,0,0,1-11,12.45Z"></path><path d="M112.13,22.26a9.62,9.62,0,0,1-7-2.77l0,0a9.58,9.58,0,0,1-2.78-7V3.21L107.81,0v12.7a3.92,3.92,0,0,0,1.28,3,4.25,4.25,0,0,0,3,1.23,4.18,4.18,0,0,0,3-1.23,3.93,3.93,0,0,0,1.3-3V3.26L122,.08V12.45a9.62,9.62,0,0,1-9.83,9.81Z"></path><path d="M35.15,22.23A11.74,11.74,0,0,1,27.07,19a10.39,10.39,0,0,1-3.48-7.78A10.38,10.38,0,0,1,27,3.35,11.84,11.84,0,0,1,35.15,0h.19A11.84,11.84,0,0,1,41.5,1.73a10.22,10.22,0,0,1,4.09,4.38L46.88,9h-6l-.43-.71a5.8,5.8,0,0,0-5.26-2.94h-.1A5.89,5.89,0,0,0,31,7a5.3,5.3,0,0,0-1.94,4.12,5.52,5.52,0,0,0,1.81,4.12,5.79,5.79,0,0,0,4.16,1.68h.12a6,6,0,0,0,5.37-2.78l.43-.67h6L45.7,16.13a11.63,11.63,0,0,1-4.38,4.61,12,12,0,0,1-6,1.49Z"></path><path class="cls-1" d="M58.41,22.24H58a10.81,10.81,0,0,1-7.71-3.35,10.66,10.66,0,0,1-3.13-7.68,10.73,10.73,0,0,1,3.39-7.94A10.6,10.6,0,0,1,58.21.06h.43a10.87,10.87,0,0,1,7.71,3.42,10.69,10.69,0,0,1,3.16,7.67,10.75,10.75,0,0,1-3.42,7.91A10.71,10.71,0,0,1,58.41,22.24ZM58.32,5.4a5.43,5.43,0,0,0-4,1.64,5.4,5.4,0,0,0-1.72,4,5.6,5.6,0,0,0,1.57,4.08,5.27,5.27,0,0,0,3.9,1.79h.33a5.07,5.07,0,0,0,3.85-1.65A5.64,5.64,0,0,0,64,11,5.79,5.79,0,0,0,62.3,7,5.07,5.07,0,0,0,58.46,5.4Z"></path><path d="M95.31,21.81V9.07a4.14,4.14,0,0,0-.93-2.73,2.66,2.66,0,0,0-2.17-1,3.94,3.94,0,0,0-2.64,1,2.72,2.72,0,0,0-1,2.19V21.81H83V8.52a2.72,2.72,0,0,0-1-2.19,3.87,3.87,0,0,0-2.62-1,2.6,2.6,0,0,0-2.13,1,4.07,4.07,0,0,0-.9,2.73V21.81H70.76V9.36A9,9,0,0,1,73.19,2.8,8.9,8.9,0,0,1,79.11.14a6.79,6.79,0,0,1,.78,0A8,8,0,0,1,83.62,1a8.49,8.49,0,0,1,2.17,1.65A8.62,8.62,0,0,1,88,1,8,8,0,0,1,91.69.1a7,7,0,0,1,.78,0A9,9,0,0,1,98.41,2.8a9,9,0,0,1,2.47,6.56V21.81Z"></path><path d="M130.93,22.3h-.47a7.42,7.42,0,0,1-5-2.32,7.15,7.15,0,0,1-2-5.07V13.45H129v2.07s0,.3.62.9a1.63,1.63,0,0,0,1.11.55,2.16,2.16,0,0,0,1.59-.52,1.64,1.64,0,0,0,.42-1.21,1.4,1.4,0,0,0-.32-1,2.89,2.89,0,0,0-1.35-.77l-2.26-.69a6.69,6.69,0,0,1-3.38-2.18,6.36,6.36,0,0,1-1.3-3.76,6.07,6.07,0,0,1,1.9-4.74l0-.05,0,0a7.25,7.25,0,0,1,4.71-2h.32a6.69,6.69,0,0,1,4.24,1.55,5.8,5.8,0,0,1,2.37,4.25L137.91,8h-5.69V6.1s0-.21-.25-.4a1.83,1.83,0,0,0-1.05-.3,1.15,1.15,0,0,0-1.18,1.09.86.86,0,0,0,.18.71,2.71,2.71,0,0,0,1.22.68l2.24.72.05,0a7.48,7.48,0,0,1,3.48,2.28,6.6,6.6,0,0,1,1.47,3.86,6.53,6.53,0,0,1-2.23,5.46h0A7.6,7.6,0,0,1,130.93,22.3Z"></path></g></g></svg>