<svg xmlns="http://www.w3.org/2000/svg" width="52" height="40" viewBox="0 0 52 40" fill="none"><path d="M19.4033 0C17.6641 0.00542642 15.9978 0.698709 14.768 1.92848C13.5382 3.15826 12.8449 4.82463 12.8395 6.56379V33.4362C12.8449 35.1754 13.5382 36.8417 14.768 38.0715C15.9978 39.3013 17.6641 39.9946 19.4033 40H44.4582C46.1961 39.9928 47.8607 39.2987 49.089 38.0691C50.3173 36.8395 51.0097 35.1742 51.0151 33.4362V6.56379C51.0097 4.82581 50.3173 3.16047 49.089 1.93089C47.8607 0.701313 46.1961 0.00723314 44.4582 0H19.4033ZM19.4033 3.63512H25.5624V21.8176C25.5487 23.5322 27.6886 24.3073 28.786 22.9835L31.941 19.2044L35.0754 22.9835C35.3137 23.2745 35.6364 23.4843 35.999 23.5842C36.3615 23.684 36.7461 23.6689 37.0998 23.541C37.4534 23.4131 37.7586 23.1787 37.9734 22.87C38.1882 22.5613 38.302 22.1936 38.299 21.8176V3.64198H44.4582C44.8434 3.63643 45.2258 3.70822 45.5828 3.85309C45.9398 3.99796 46.2641 4.21298 46.5365 4.4854C46.809 4.75783 47.024 5.08214 47.1689 5.43913C47.3137 5.79613 47.3855 6.17855 47.38 6.56379V33.4362C47.3864 33.822 47.3153 34.2052 47.1709 34.563C47.0264 34.9208 46.8116 35.2459 46.539 35.5191C46.2665 35.7922 45.9419 36.0079 45.5844 36.1532C45.227 36.2985 44.844 36.3704 44.4582 36.3649H19.4033C19.0169 36.3714 18.6332 36.3001 18.2749 36.1552C17.9166 36.0103 17.5912 35.7948 17.3179 35.5216C17.0447 35.2483 16.8292 34.9229 16.6843 34.5646C16.5394 34.2063 16.4681 33.8226 16.4746 33.4362V6.56379C16.4681 6.1774 16.5394 5.79365 16.6843 5.43539C16.8292 5.07714 17.0447 4.75169 17.3179 4.47844C17.5912 4.20518 17.9166 3.9897 18.2749 3.84482C18.6332 3.69994 19.0169 3.62862 19.4033 3.63512ZM29.1975 3.63512H34.6639V16.8038L33.3333 15.2058C33.1628 15.0013 32.9493 14.8367 32.7081 14.7238C32.4669 14.6109 32.2039 14.5524 31.9376 14.5524C31.6713 14.5524 31.4082 14.6109 31.167 14.7238C30.9259 14.8367 30.7124 15.0013 30.5418 15.2058L29.1975 16.8107V3.63512ZM1.8107 5.21262C1.33103 5.21443 0.871519 5.40578 0.532338 5.74496C0.193157 6.08414 0.00180669 6.54365 0 7.02332C-3.42372e-06 7.50418 0.190547 7.96545 0.529923 8.30611C0.8693 8.64677 1.32984 8.83906 1.8107 8.84088H9.07407C9.31276 8.84088 9.54911 8.79387 9.76962 8.70252C9.99014 8.61118 10.1905 8.4773 10.3593 8.30853C10.5281 8.13975 10.6619 7.93939 10.7533 7.71887C10.8446 7.49835 10.8916 7.262 10.8916 7.02332C10.8898 6.54246 10.6975 6.08192 10.3569 5.74254C10.0162 5.40317 9.55493 5.21262 9.07407 5.21262H1.8107ZM5.38409 14.2867C4.90442 14.2903 4.44564 14.4834 4.10774 14.8239C3.76984 15.1643 3.58023 15.6246 3.58025 16.1043C3.58204 16.5827 3.77245 17.0412 4.11015 17.3802C4.44785 17.7192 4.90561 17.9113 5.38409 17.915H9.07407C9.55493 17.915 10.0162 17.7244 10.3569 17.385C10.6975 17.0457 10.8898 16.5851 10.8916 16.1043C10.8925 15.865 10.8462 15.6279 10.7553 15.4066C10.6643 15.1853 10.5306 14.9841 10.3617 14.8146C10.1928 14.6451 9.99218 14.5106 9.77121 14.4188C9.55025 14.3271 9.31334 14.2798 9.07407 14.2798L5.38409 14.2867ZM1.8107 23.3539C1.32984 23.3557 0.8693 23.548 0.529923 23.8887C0.190547 24.2293 -3.42372e-06 24.6906 0 25.1715C0.00180669 25.6511 0.193157 26.1106 0.532338 26.4498C0.871519 26.789 1.33103 26.9804 1.8107 26.9822H9.07407C9.55493 26.9822 10.0162 26.7916 10.3569 26.4522C10.6975 26.1129 10.8898 25.6523 10.8916 25.1715C10.8916 24.6894 10.7001 24.2271 10.3593 23.8863C10.0184 23.5454 9.55612 23.3539 9.07407 23.3539H1.8107ZM5.43896 32.4348C4.96048 32.4384 4.50272 32.6306 4.16502 32.9696C3.82731 33.3086 3.63691 33.7671 3.63512 34.2455C3.6351 34.7252 3.82471 35.1855 4.16261 35.5259C4.5005 35.8664 4.95929 36.0595 5.43896 36.0631H9.07407C9.55612 36.0631 10.0184 35.8716 10.3593 35.5307C10.7001 35.1899 10.8916 34.7276 10.8916 34.2455C10.8898 33.7647 10.6975 33.3041 10.3569 32.9648C10.0162 32.6254 9.55493 32.4348 9.07407 32.4348H5.43896Z"></path></svg>