<svg xmlns="http://www.w3.org/2000/svg" class="" width="37" height="40" viewBox="0 0 37 40"><path d="M35.9785 18.334C35.5959 14.344 33.9017 10.5934 31.1608 7.6687C28.4198 4.74402 24.7869 2.81027 20.8301 2.16992L22.2507 1.13175C22.3178 1.0838 22.3747 1.02302 22.4181 0.952927C22.4616 0.882839 22.4907 0.804832 22.5039 0.723416C22.517 0.642 22.5139 0.55879 22.4946 0.478594C22.4754 0.398398 22.4405 0.322808 22.3919 0.256192C22.3433 0.189576 22.2819 0.133255 22.2114 0.0904861C22.1409 0.0477168 22.0626 0.0193468 21.9811 0.00701582C21.8995 -0.00531517 21.8164 -0.00136257 21.7363 0.0186452C21.6563 0.0386529 21.5811 0.0743189 21.515 0.123582L18.8379 2.0766C18.7714 2.12484 18.7152 2.18569 18.6722 2.25569C18.6293 2.32568 18.6006 2.40345 18.5878 2.48454C18.5749 2.56563 18.5782 2.64846 18.5974 2.72829C18.6166 2.80812 18.6513 2.88339 18.6996 2.9498L20.7909 5.81601C20.8894 5.94785 21.036 6.0355 21.1987 6.05993C21.3615 6.08436 21.5273 6.0436 21.6602 5.94649C21.7931 5.84938 21.8823 5.70377 21.9085 5.54127C21.9346 5.37878 21.8956 5.21253 21.7999 5.07863L20.5734 3.39473C24.2695 3.97923 27.6664 5.77585 30.2298 8.50196C32.7931 11.2281 34.3775 14.729 34.7337 18.454C34.9449 20.6472 34.7221 22.8605 34.078 24.9676C33.4338 27.0746 32.3809 29.0342 30.9794 30.7343C29.578 32.4344 27.8553 33.8419 25.9099 34.8762C23.9644 35.9106 21.8343 36.5516 19.6411 36.7627C19.559 36.7666 19.4785 36.7866 19.4042 36.8216C19.3299 36.8566 19.2632 36.9059 19.2079 36.9667C19.1526 37.0275 19.1098 37.0985 19.082 37.1758C19.0542 37.2531 19.0419 37.3352 19.0458 37.4172C19.0497 37.4993 19.0697 37.5798 19.1047 37.6541C19.1397 37.7284 19.1889 37.7952 19.2497 37.8504C19.3105 37.9057 19.3816 37.9485 19.4589 37.9763C19.5362 38.0041 19.6182 38.0164 19.7003 38.0125C19.7205 38.0138 19.7408 38.0138 19.7611 38.0125C22.1182 37.7857 24.4075 37.0967 26.4983 35.9849C28.5891 34.8731 30.4404 33.3603 31.9464 31.5329C33.4524 29.7055 34.5836 27.5993 35.2755 25.3346C35.9673 23.0699 36.2062 20.6911 35.9785 18.334ZM17.3765 37.051L15.2851 34.1848C15.1873 34.0509 15.0404 33.9613 14.8765 33.9358C14.7127 33.9102 14.5454 33.9508 14.4115 34.0486C14.2776 34.1464 14.188 34.2934 14.1625 34.4572C14.1369 34.621 14.1775 34.7883 14.2753 34.9222L15.5251 36.6286C11.4806 36.0169 7.79916 33.9478 5.17393 30.8108C2.5487 27.6739 1.16073 23.6855 1.27133 19.5965C1.38193 15.5074 2.98347 11.5999 5.77443 8.60944C8.5654 5.61898 12.3533 3.75192 16.4249 3.35973C16.5899 3.34391 16.7418 3.26323 16.8473 3.13541C16.9527 3.0076 17.0031 2.84313 16.9873 2.67818C16.9805 2.59608 16.9573 2.51618 16.919 2.44321C16.8808 2.37024 16.8283 2.30568 16.7647 2.25333C16.7011 2.20098 16.6276 2.16191 16.5487 2.13842C16.4697 2.11494 16.3868 2.10752 16.305 2.1166C11.9371 2.53301 7.87129 4.52924 4.87076 7.7306C1.87023 10.932 0.141231 15.1184 0.00827872 19.5041C-0.124674 23.8897 1.34756 28.1732 4.14866 31.5504C6.94976 34.9277 10.8871 37.1665 15.2218 37.8467L13.8237 38.8682C13.7566 38.9162 13.6997 38.977 13.6562 39.0471C13.6128 39.1172 13.5836 39.1952 13.5705 39.2766C13.5574 39.358 13.5605 39.4412 13.5797 39.5214C13.599 39.6016 13.6339 39.6772 13.6825 39.7438C13.7311 39.8104 13.7924 39.8667 13.863 39.9095C13.9335 39.9523 14.0118 39.9807 14.0933 39.993C14.1748 40.0053 14.258 40.0014 14.338 39.9814C14.418 39.9613 14.4933 39.9257 14.5594 39.8764L17.2365 37.9242C17.3028 37.8759 17.3589 37.8149 17.4017 37.7449C17.4444 37.6748 17.473 37.597 17.4857 37.5159C17.4984 37.4348 17.4949 37.3521 17.4756 37.2723C17.4563 37.1925 17.4215 37.1173 17.3731 37.051H17.3765Z"></path><path d="M27.2482 10.1603H8.81781C8.65208 10.1603 8.49314 10.2262 8.37594 10.3433C8.25875 10.4605 8.19291 10.6195 8.19291 10.7852V29.2156C8.19291 29.3814 8.25875 29.5403 8.37594 29.6575C8.49314 29.7747 8.65208 29.8405 8.81781 29.8405H27.2482C27.414 29.8405 27.5729 29.7747 27.6901 29.6575C27.8073 29.5403 27.8731 29.3814 27.8731 29.2156V10.7852C27.8731 10.6195 27.8073 10.4605 27.6901 10.3433C27.5729 10.2262 27.414 10.1603 27.2482 10.1603ZM16.1167 11.4101H19.9494V15.6486H16.1167V11.4101ZM26.6233 28.5907H9.44272V11.4101H14.8669V16.2735C14.8669 16.4392 14.9327 16.5982 15.0499 16.7154C15.1671 16.8326 15.326 16.8984 15.4918 16.8984H20.5743C20.74 16.8984 20.899 16.8326 21.0161 16.7154C21.1333 16.5982 21.1992 16.4392 21.1992 16.2735V11.4101H26.6233V28.5907Z"></path></svg>