<svg xmlns="http://www.w3.org/2000/svg" width="32" height="32" viewBox="0 0 32 32"><path d="M29.29 10.839h-0.702c-0.989-5.849-6.076-10.323-12.201-10.323s-11.213 4.474-12.201 10.323h-0.702c-0.684 0.001-1.34 0.273-1.824 0.756s-0.756 1.14-0.756 1.824v5.161c0 1.423 1.157 2.581 2.581 2.581h1.548c0.274 0 0.536-0.109 0.73-0.302s0.302-0.456 0.302-0.73v-7.226c0-5.692 4.631-10.323 10.323-10.323s10.323 4.631 10.323 10.323v6.194c0 5.692-4.631 10.323-10.323 10.323-0.274 0-0.536 0.109-0.73 0.302s-0.302 0.456-0.302 0.73c0 0.274 0.109 0.536 0.302 0.73s0.456 0.302 0.73 0.302c6.126 0 11.213-4.474 12.201-10.323h0.702c1.423 0 2.581-1.157 2.581-2.581v-5.161c0-1.423-1.157-2.581-2.581-2.581zM2.968 18.581v-5.161c0-0.28 0.236-0.516 0.516-0.516h0.516v6.194h-0.516c-0.136-0.002-0.267-0.056-0.363-0.153s-0.151-0.227-0.153-0.363zM29.806 18.581c0 0.28-0.236 0.516-0.516 0.516h-0.516v-6.194h0.516c0.28 0 0.516 0.236 0.516 0.516v5.161zM24.645 18.065v-5.161c0-4.553-3.705-8.258-8.258-8.258s-8.258 3.705-8.258 8.258v5.161c0 4.553 3.705 8.258 8.258 8.258s8.258-3.705 8.258-8.258zM10.194 18.065v-5.161c0-3.416 2.778-6.194 6.194-6.194s6.194 2.778 6.194 6.194v5.161c0 3.416-2.778 6.194-6.194 6.194s-6.194-2.778-6.194-6.194z"></path></svg>