<svg xmlns="http://www.w3.org/2000/svg" width="12" height="12" viewBox="0 0 12 12" fill="none"><path d="M8.82423 4.37578C8.87996 4.43148 8.92416 4.49761 8.95432 4.5704C8.98448 4.64319 9 4.72121 9 4.8C9 4.87879 8.98448 4.95681 8.95432 5.0296C8.92416 5.10239 8.87996 5.16852 8.82423 5.22423L5.82422 8.22421C5.76852 8.27994 5.70238 8.32415 5.62959 8.35431C5.5568 8.38447 5.47879 8.39999 5.39999 8.39999C5.3212 8.39999 5.24318 8.38447 5.17039 8.35431C5.0976 8.32415 5.03147 8.27994 4.97577 8.22421L3.17577 6.42421C3.11984 6.36855 3.07544 6.3024 3.04511 6.22956C3.01478 6.15671 2.99912 6.0786 2.99902 5.99969C2.99893 5.92078 3.0144 5.84263 3.04455 5.76971C3.07471 5.69679 3.11895 5.63054 3.17475 5.57474C3.23054 5.51895 3.2968 5.47471 3.36972 5.44456C3.44264 5.4144 3.52079 5.39893 3.5997 5.39903C3.67861 5.39913 3.75672 5.41479 3.82957 5.44512C3.90241 5.47545 3.96856 5.51986 4.02422 5.57579L5.40001 6.95155L7.97578 4.37578C8.03149 4.32005 8.09762 4.27585 8.17041 4.24569C8.2432 4.21553 8.32122 4.20001 8.40001 4.20001C8.4788 4.20001 8.55682 4.21553 8.62961 4.24569C8.7024 4.27585 8.76853 4.32005 8.82423 4.37578ZM12 6C12 9.30821 9.30843 12 6 12C2.69157 12 0 9.30821 0 6C0 2.69179 2.69151 0 6 0C9.30849 0 12 2.69179 12 6ZM10.8 6C10.8 3.35343 8.64657 1.19998 6 1.19998C3.35343 1.19998 1.19998 3.35343 1.19998 6C1.19998 8.64657 3.35343 10.8 6 10.8C8.64657 10.8 10.8 8.64657 10.8 6Z" fill="#379F26"></path></svg>