<svg xmlns="http://www.w3.org/2000/svg" width="32" height="32" viewBox="0 0 32 32"><path d="M10.286 19.429c-0.152 0-0.297 0.060-0.404 0.167s-0.167 0.252-0.167 0.404c0 2.911 2.882 5.143 6.286 5.143s6.286-2.232 6.286-5.143c0-0.152-0.060-0.297-0.167-0.404s-0.252-0.167-0.404-0.167h-11.429zM11.005 20.571h9.991c-0.366 1.879-2.359 3.429-4.995 3.429s-4.629-1.55-4.995-3.429zM22.286 9.429c1.571 0 2.857 1.286 2.857 2.857s-1.286 2.857-2.857 2.857c-1.571 0-2.857-1.286-2.857-2.857s1.286-2.857 2.857-2.857zM22.286 10.571c-0.953 0-1.714 0.761-1.714 1.714s0.761 1.714 1.714 1.714c0.953 0 1.714-0.761 1.714-1.714s-0.761-1.714-1.714-1.714zM9.714 9.429c-1.648 0-2.857 1.603-2.857 3.429 0 0.152 0.060 0.297 0.167 0.404s0.252 0.167 0.404 0.167 0.297-0.060 0.404-0.167c0.107-0.107 0.167-0.252 0.167-0.404 0-1.331 0.838-2.286 1.714-2.286s1.714 0.954 1.714 2.286c0 0.152 0.060 0.297 0.167 0.404s0.252 0.167 0.404 0.167 0.297-0.060 0.404-0.167c0.107-0.107 0.167-0.252 0.167-0.404 0-1.825-1.209-3.429-2.857-3.429z"></path><path d="M9.143 0c-5.055 0-9.143 4.088-9.143 9.143v13.714c0 5.055 4.088 9.143 9.143 9.143h13.714c5.055 0 9.143-4.088 9.143-9.143v-13.714c0-5.055-4.088-9.143-9.143-9.143h-13.714zM9.143 1.143h13.714c4.442 0 8 3.558 8 8v13.714c0 4.442-3.558 8-8 8h-13.714c-4.442 0-8-3.558-8-8v-13.714c0-4.442 3.558-8 8-8z"></path></svg>