<svg xmlns="http://www.w3.org/2000/svg" width="21" height="32" viewBox="0 0 21 32"><path d="M15.099 31.484h-9.378c-0.748-0.001-1.47-0.275-2.030-0.769s-0.922-1.176-1.017-1.918l-1.126-8.921c-0.005-0.037-0.003-0.076 0.006-0.112s0.026-0.071 0.049-0.101 0.052-0.055 0.084-0.074c0.033-0.019 0.069-0.031 0.106-0.036s0.076-0.002 0.112 0.008c0.036 0.010 0.070 0.027 0.1 0.051s0.054 0.052 0.073 0.085c0.018 0.033 0.030 0.069 0.034 0.107l1.126 8.919c0.077 0.604 0.372 1.159 0.829 1.562s1.044 0.626 1.653 0.627h9.378c0.609-0.001 1.197-0.224 1.653-0.627s0.751-0.958 0.829-1.562l1.126-8.919c0.010-0.074 0.050-0.141 0.109-0.187s0.134-0.066 0.209-0.056c0.074 0.009 0.142 0.048 0.188 0.106s0.068 0.133 0.059 0.208l-1.126 8.921c-0.095 0.742-0.456 1.424-1.017 1.918s-1.283 0.768-2.030 0.769z"></path><path d="M18.691 20.176h-16.562c-0.427-0-0.837-0.171-1.14-0.473s-0.472-0.712-0.473-1.14v-0.139c0-0.427 0.17-0.837 0.473-1.14s0.712-0.472 1.14-0.473h16.562c0.427 0 0.837 0.17 1.14 0.473s0.472 0.712 0.473 1.14v0.139c-0 0.427-0.17 0.837-0.473 1.14s-0.712 0.472-1.14 0.473zM2.128 17.382c-0.276 0-0.541 0.11-0.737 0.306s-0.305 0.46-0.306 0.737v0.139c0 0.276 0.11 0.541 0.306 0.737s0.46 0.305 0.737 0.306h16.562c0.276-0 0.541-0.11 0.737-0.306s0.305-0.46 0.306-0.737v-0.139c-0-0.276-0.11-0.541-0.306-0.737s-0.46-0.305-0.737-0.306h-16.562zM17.863 29.046h-14.908c-0.076 0-0.148-0.030-0.202-0.083s-0.083-0.126-0.083-0.201 0.030-0.148 0.083-0.201c0.053-0.053 0.126-0.083 0.202-0.083h14.908c0.076 0 0.148 0.030 0.201 0.083s0.083 0.126 0.083 0.201-0.030 0.148-0.083 0.201c-0.053 0.053-0.126 0.083-0.201 0.083z"></path><path d="M10.409 17.382c-0.053 0-0.105-0.015-0.151-0.043s-0.082-0.069-0.105-0.116c-0.019-0.038-0.463-0.95-0.912-2.429-0.414-1.364-0.907-3.485-0.907-5.844s0.494-4.48 0.907-5.844c0.449-1.48 0.893-2.391 0.912-2.429 0.023-0.048 0.060-0.088 0.105-0.117s0.097-0.043 0.151-0.043c0.053 0 0.105 0.015 0.151 0.043s0.082 0.069 0.105 0.117c0.019 0.038 0.463 0.95 0.912 2.429 0.414 1.364 0.907 3.485 0.907 5.844s-0.494 4.481-0.907 5.844c-0.449 1.479-0.893 2.391-0.912 2.429-0.023 0.048-0.060 0.088-0.105 0.116s-0.097 0.043-0.151 0.043zM10.409 1.514c-0.488 1.198-1.505 4.093-1.505 7.435s1.016 6.239 1.505 7.435c0.488-1.197 1.505-4.092 1.505-7.435s-1.016-6.239-1.505-7.435zM14.728 17.382c-0.057 0-0.112-0.017-0.159-0.049s-0.084-0.077-0.105-0.129-0.026-0.11-0.015-0.166c0.012-0.056 0.040-0.106 0.081-0.146 0.056-0.054 0.111-0.109 0.166-0.164 2.367-2.367 3.694-5.13 4.194-6.322-1.352 0.574-2.641 1.287-3.845 2.128-0.057 0.042-0.128 0.062-0.198 0.055s-0.136-0.040-0.183-0.093c-0.047-0.053-0.074-0.121-0.073-0.192s0.027-0.139 0.075-0.191c0.014-0.016 0.030-0.030 0.048-0.042 2.401-1.681 4.5-2.408 4.588-2.439 0.050-0.017 0.105-0.020 0.157-0.008s0.099 0.038 0.137 0.076c0.038 0.038 0.064 0.085 0.076 0.137s0.009 0.106-0.008 0.157c-0.014 0.040-0.344 0.999-1.073 2.362-0.672 1.257-1.824 3.106-3.491 4.774-0.058 0.058-0.116 0.115-0.174 0.171-0.053 0.052-0.123 0.081-0.197 0.082zM6.091 17.382c-0.074 0-0.145-0.029-0.198-0.080-0.058-0.056-0.116-0.113-0.174-0.171-1.668-1.668-2.819-3.517-3.491-4.774-0.729-1.364-1.059-2.323-1.073-2.361-0.017-0.050-0.020-0.105-0.008-0.157s0.038-0.099 0.076-0.137c0.038-0.038 0.085-0.064 0.137-0.076s0.106-0.009 0.157 0.008c0.088 0.030 2.187 0.758 4.588 2.439 0.018 0.012 0.034 0.026 0.048 0.042 0.044 0.053 0.068 0.12 0.067 0.189s-0.028 0.135-0.074 0.186c-0.046 0.051-0.11 0.084-0.178 0.091s-0.138-0.009-0.194-0.049c-1.203-0.841-2.491-1.554-3.842-2.128 0.5 1.193 1.83 3.961 4.191 6.323 0.055 0.055 0.111 0.11 0.167 0.164 0.041 0.039 0.069 0.090 0.081 0.146s0.007 0.113-0.015 0.166-0.058 0.098-0.105 0.129c-0.047 0.032-0.103 0.049-0.159 0.049z"></path><path d="M10.409 17.382c-0.060 0-0.119-0.019-0.168-0.054s-0.085-0.085-0.104-0.143-0.019-0.119 0-0.176c0.019-0.057 0.055-0.107 0.104-0.142 0.032-0.024 3.266-2.394 5.32-6.257 1.569-2.951 2.031-5.984 2.162-7.271-0.993 0.828-3.25 2.908-4.819 5.858-0.171 0.321-0.333 0.652-0.483 0.984-0.015 0.035-0.036 0.067-0.063 0.094s-0.059 0.048-0.095 0.062c-0.035 0.014-0.073 0.021-0.111 0.020s-0.076-0.009-0.11-0.025c-0.035-0.016-0.066-0.038-0.092-0.066s-0.046-0.061-0.059-0.097c-0.013-0.036-0.019-0.074-0.017-0.112s0.012-0.075 0.028-0.11c0.155-0.342 0.323-0.684 0.499-1.017 1.108-2.083 2.539-3.724 3.544-4.734 1.091-1.095 1.911-1.692 1.945-1.717 0.043-0.031 0.094-0.050 0.147-0.053s0.106 0.008 0.153 0.033c0.047 0.025 0.086 0.063 0.113 0.109s0.040 0.099 0.038 0.152c0 0.043-0.038 1.056-0.336 2.573-0.275 1.398-0.836 3.503-1.943 5.586s-2.539 3.724-3.545 4.734c-1.091 1.095-1.911 1.692-1.945 1.717-0.048 0.035-0.106 0.054-0.166 0.054z"></path><path d="M10.409 17.382c-0.060-0-0.118-0.019-0.166-0.054-0.035-0.025-0.855-0.621-1.945-1.717-1.006-1.010-2.437-2.651-3.545-4.734s-1.668-4.186-1.943-5.586c-0.298-1.517-0.334-2.531-0.336-2.573-0.002-0.053 0.012-0.106 0.038-0.152s0.066-0.084 0.113-0.109c0.047-0.025 0.1-0.036 0.153-0.033s0.104 0.022 0.147 0.053c0.035 0.025 0.855 0.621 1.945 1.717 1.006 1.010 2.437 2.651 3.544 4.734 0.177 0.332 0.345 0.674 0.499 1.017 0.015 0.034 0.024 0.071 0.025 0.108s-0.005 0.075-0.018 0.11c-0.013 0.035-0.033 0.067-0.059 0.094s-0.056 0.049-0.091 0.065c-0.034 0.015-0.071 0.024-0.108 0.025s-0.075-0.005-0.11-0.018c-0.035-0.013-0.067-0.033-0.094-0.059s-0.049-0.056-0.065-0.091c-0.15-0.331-0.312-0.662-0.483-0.984-1.571-2.955-3.826-5.032-4.819-5.859 0.131 1.287 0.593 4.32 2.162 7.272 2.058 3.87 5.288 6.232 5.32 6.257 0.049 0.035 0.085 0.085 0.104 0.142s0.019 0.119 0 0.176c-0.019 0.057-0.055 0.107-0.104 0.143s-0.107 0.055-0.168 0.054h0.001z"></path><path d="M15.099 31.484v0.155h0l-0-0.155zM5.72 31.484l-0 0.155h0v-0.155zM2.672 28.796l-0.154 0.019 0 0 0.154-0.020zM1.547 19.876l0.154-0.019-0-0.002-0.153 0.022zM2.112 19.804l-0.154 0.017 0 0.002 0.154-0.019zM3.238 28.724l-0.154 0.019 0 0 0.154-0.020zM5.72 30.913l-0 0.155h0v-0.155zM15.099 30.913v0.155h0l-0-0.155zM17.581 28.724l0.154 0.020 0-0-0.154-0.019zM18.707 19.804l-0.153-0.022-0 0.002 0.154 0.019zM19.272 19.876l0.154 0.019 0-0.002-0.154-0.017zM18.146 28.796l0.154 0.020 0-0-0.154-0.019zM18.691 20.176v0.155h0l-0-0.155zM2.128 20.176l-0 0.155h0v-0.155zM0.516 18.563h-0.155v0l0.155-0zM0.516 18.424l-0.155-0v0h0.155zM2.128 16.812v-0.155h-0l0 0.155zM18.691 16.812l0-0.155h-0v0.155zM20.303 18.424h0.155v-0l-0.155 0zM20.303 18.563l0.155 0v-0h-0.155zM2.128 17.382v-0.155h-0l0 0.155zM1.086 18.424l-0.155-0v0h0.155zM1.086 18.563h-0.155v0l0.155-0zM2.128 19.606l-0 0.155h0v-0.155zM18.691 19.606v0.155h0l-0-0.155zM19.733 18.563l0.155 0v-0h-0.155zM19.733 18.424h0.155v-0l-0.155 0zM18.691 17.382l0-0.155h-0v0.155zM10.154 17.222v0zM9.242 14.793v0zM9.242 3.105v0zM10.154 0.676l0.139 0.068 0-0-0.139-0.068zM10.665 0.676l-0.139 0.068 0 0 0.139-0.068zM11.577 3.105v0zM11.577 14.793v0zM10.665 17.222v0zM10.409 1.514l0.143-0.059-0.144-0.351-0.143 0.352 0.143 0.058zM10.409 16.384l-0.143 0.059 0.143 0.351 0.143-0.351-0.143-0.058zM14.728 17.382l-0 0.155h0.001l-0.001-0.155zM14.53 16.892v0zM14.697 16.728l-0.11-0.109-0 0 0.11 0.109zM18.891 10.406l0.143 0.060 0.147-0.351-0.351 0.149 0.061 0.143zM15.045 12.534l-0.089-0.127-0.004 0.003 0.092 0.124zM14.665 12.112l0.114 0.105 0.002-0.002-0.116-0.102zM14.713 12.070l0.087 0.128 0.002-0.001-0.089-0.127zM19.301 9.631l-0.050-0.147-0.001 0 0.050 0.146zM19.663 9.993l0.146 0.050 0-0-0.147-0.050zM18.59 12.356v0zM15.099 17.129v0zM14.925 17.3l-0.108-0.111-0.001 0.001 0.109 0.11zM6.091 17.382l-0-0.155h-0l0 0.155zM5.893 17.302l0.108-0.111-0-0-0.108 0.111zM5.719 17.131v0zM2.228 12.357v0zM1.155 9.996l-0.147 0.050 0.001 0.002 0.146-0.052zM1.517 9.634l0.050-0.146-0.001-0-0.050 0.147zM6.105 12.073l-0.089 0.127 0.002 0.002 0.087-0.128zM6.152 12.115l0.119-0.1-0.002-0.003-0.116 0.102zM5.772 12.533l-0.089 0.127 0.001 0 0.088-0.127zM1.93 10.405l0.061-0.143-0.351-0.149 0.147 0.351 0.143-0.060zM6.289 16.892v0zM10.242 16.866l0.091 0.126 0.001-0-0.091-0.125zM15.562 10.609v0zM17.724 3.338l0.154 0.016 0.038-0.378-0.292 0.243 0.099 0.119zM12.905 9.196v0zM12.422 10.18l-0.141-0.064-0.002 0.004 0.143 0.059zM11.903 9.946l0.139 0.068 0.002-0.004-0.141-0.064zM12.402 8.929l-0.137-0.073-0 0 0.137 0.073zM15.946 4.194v0zM17.892 2.478l0.090 0.126 0.001-0.001-0.091-0.126zM18.344 2.718l-0.155-0.005v0.005h0.155zM18.008 5.291v0zM12.521 15.611v0zM10.575 17.328l-0.090-0.126-0.001 0.001 0.091 0.125zM10.243 17.328l0.091-0.125-0.001-0.001-0.090 0.126zM8.298 15.611v0zM2.81 5.291v0zM2.474 2.718l-0.155 0.005 0 0.001 0.155-0.006zM2.926 2.478l-0.091 0.126 0.001 0.001 0.090-0.126zM4.872 4.194v0zM8.416 8.929v0zM8.915 9.946v0zM8.396 10.18l0.141-0.064-0-0-0.141 0.064zM7.913 9.196v0zM3.093 3.337l0.099-0.119-0.292-0.243 0.039 0.378 0.154-0.016zM5.256 10.609v0zM10.575 16.866l-0.097 0.12 0.003 0.003 0.003 0.002 0.091-0.126zM10.408 17.382v-0.155l-0 0.31 0-0.155zM15.099 31.329h-9.378v0.31h9.378v-0.31zM5.72 31.329c-0.71-0.001-1.396-0.261-1.928-0.731l-0.205 0.232c0.589 0.519 1.347 0.807 2.133 0.808l0.001-0.31zM3.792 30.598c-0.533-0.47-0.876-1.117-0.966-1.822l-0.307 0.039c0.1 0.779 0.479 1.495 1.068 2.015l0.205-0.232zM2.826 28.777l-1.126-8.921-0.307 0.039 1.126 8.921 0.307-0.039zM1.7 19.854c-0.002-0.017-0.001-0.034 0.003-0.051l-0.3-0.078c-0.015 0.056-0.018 0.115-0.010 0.173l0.307-0.043zM1.703 19.803c0.004-0.017 0.012-0.032 0.022-0.046l-0.246-0.188c-0.035 0.046-0.061 0.099-0.076 0.156l0.3 0.078zM1.725 19.757c0.010-0.014 0.024-0.025 0.039-0.034l-0.154-0.268c-0.051 0.029-0.095 0.068-0.13 0.114l0.246 0.188zM1.764 19.723c0.015-0.009 0.031-0.014 0.049-0.016l-0.039-0.307c-0.058 0.007-0.114 0.026-0.164 0.055l0.154 0.268zM1.812 19.707c0.017-0.002 0.034-0.001 0.051 0.004l0.083-0.298c-0.056-0.016-0.115-0.020-0.173-0.013l0.039 0.307zM1.864 19.71c0.017 0.005 0.032 0.012 0.046 0.023l0.192-0.243c-0.046-0.036-0.098-0.063-0.155-0.078l-0.083 0.298zM1.909 19.734c0.014 0.011 0.025 0.024 0.033 0.039l0.271-0.15c-0.028-0.051-0.067-0.096-0.112-0.132l-0.192 0.243zM1.943 19.773c0.008 0.015 0.014 0.032 0.016 0.049l0.308-0.034c-0.006-0.058-0.024-0.114-0.053-0.165l-0.271 0.15zM1.958 19.824l1.126 8.919 0.307-0.039-1.126-8.919-0.307 0.039zM3.085 28.743c0.082 0.641 0.395 1.231 0.88 1.658l0.205-0.232c-0.429-0.378-0.705-0.899-0.777-1.466l-0.307 0.039zM3.964 30.402c0.485 0.428 1.109 0.664 1.755 0.666l0.001-0.31c-0.571-0.001-1.123-0.21-1.551-0.588l-0.205 0.232zM5.72 31.068h9.378v-0.31h-9.378v0.31zM15.099 31.068c0.647-0.001 1.27-0.238 1.755-0.666l-0.205-0.232c-0.428 0.378-0.98 0.587-1.551 0.588l0.001 0.31zM16.854 30.402c0.485-0.428 0.798-1.017 0.88-1.658l-0.307-0.039c-0.073 0.567-0.349 1.088-0.777 1.466l0.205 0.232zM17.734 28.743l1.126-8.919-0.307-0.039-1.126 8.919 0.307 0.039zM18.86 19.826c0.005-0.034 0.023-0.064 0.050-0.085l-0.188-0.246c-0.092 0.070-0.152 0.173-0.169 0.288l0.307 0.043zM18.91 19.741c0.027-0.021 0.061-0.030 0.095-0.026l0.039-0.307c-0.115-0.014-0.23 0.017-0.322 0.087l0.188 0.246zM19.005 19.715c0.034 0.004 0.065 0.022 0.086 0.049l0.243-0.192c-0.071-0.091-0.176-0.15-0.29-0.164l-0.039 0.307zM19.091 19.764c0.021 0.027 0.031 0.061 0.027 0.095l0.308 0.034c0.013-0.115-0.020-0.23-0.092-0.321l-0.243 0.192zM19.119 19.856l-1.126 8.921 0.307 0.039 1.126-8.921-0.307-0.039zM17.993 28.777c-0.090 0.704-0.433 1.352-0.966 1.822l0.205 0.232c0.589-0.519 0.969-1.236 1.069-2.015l-0.307-0.039zM17.027 30.598c-0.533 0.47-1.218 0.729-1.928 0.731l0.001 0.31c0.785-0.001 1.543-0.289 2.133-0.808l-0.205-0.232zM18.691 20.021h-16.562v0.31h16.562v-0.31zM2.129 20.021c-0.387-0-0.757-0.154-1.030-0.427l-0.219 0.219c0.331 0.331 0.78 0.518 1.249 0.518l0-0.31zM1.098 19.593c-0.273-0.273-0.427-0.644-0.427-1.030l-0.31 0c0 0.468 0.187 0.918 0.518 1.249l0.219-0.219zM0.671 18.563v-0.139h-0.31v0.139h0.31zM0.671 18.424c0-0.386 0.154-0.757 0.427-1.030l-0.219-0.219c-0.331 0.331-0.518 0.78-0.518 1.249l0.31 0zM1.098 17.394c0.273-0.273 0.644-0.427 1.030-0.427l-0-0.31c-0.468 0-0.918 0.187-1.249 0.518l0.219 0.219zM2.128 16.967h16.562v-0.31h-16.562v0.31zM18.69 16.967c0.386 0 0.757 0.154 1.030 0.427l0.219-0.219c-0.331-0.331-0.78-0.518-1.249-0.518l-0 0.31zM19.721 17.394c0.273 0.273 0.427 0.644 0.427 1.030l0.31-0c-0-0.468-0.187-0.918-0.518-1.249l-0.219 0.219zM20.148 18.424v0.139h0.31v-0.139h-0.31zM20.148 18.563c-0 0.387-0.154 0.757-0.427 1.030l0.219 0.219c0.331-0.331 0.518-0.781 0.518-1.249l-0.31-0zM19.721 19.593c-0.273 0.273-0.644 0.427-1.030 0.427l0 0.31c0.468-0.001 0.918-0.187 1.249-0.518l-0.219-0.219zM2.128 17.227c-0.317 0-0.622 0.127-0.846 0.351l0.219 0.219c0.166-0.166 0.392-0.26 0.627-0.26l-0-0.31zM1.282 17.578c-0.224 0.224-0.351 0.529-0.351 0.846l0.31 0c0-0.235 0.094-0.461 0.26-0.627l-0.219-0.219zM0.931 18.424v0.139h0.31v-0.139h-0.31zM0.931 18.563c0 0.317 0.127 0.622 0.351 0.846l0.219-0.219c-0.166-0.166-0.26-0.392-0.26-0.628l-0.31 0zM1.282 19.409c0.224 0.224 0.529 0.351 0.846 0.351l0-0.31c-0.235-0-0.461-0.094-0.627-0.26l-0.219 0.219zM2.128 19.76h16.562v-0.31h-16.562v0.31zM18.691 19.76c0.317-0 0.622-0.127 0.846-0.351l-0.219-0.219c-0.166 0.166-0.392 0.26-0.627 0.26l0 0.31zM19.537 19.409c0.224-0.224 0.351-0.529 0.351-0.846l-0.31-0c-0 0.235-0.094 0.461-0.26 0.628l0.219 0.219zM19.888 18.563v-0.139h-0.31v0.139h0.31zM19.888 18.424c-0-0.317-0.127-0.622-0.351-0.846l-0.219 0.219c0.166 0.166 0.26 0.392 0.26 0.627l0.31-0zM19.537 17.578c-0.224-0.224-0.529-0.351-0.846-0.351l-0 0.31c0.235 0 0.461 0.094 0.627 0.26l0.219-0.219zM18.691 17.227h-16.562v0.31h16.562v-0.31zM17.863 28.891h-14.908v0.31h14.908v-0.31zM2.956 28.891c-0.034 0-0.068-0.014-0.092-0.038l-0.219 0.219c0.082 0.082 0.194 0.129 0.311 0.129v-0.31zM2.864 28.853c-0.024-0.024-0.038-0.058-0.038-0.092h-0.31c0 0.117 0.046 0.229 0.129 0.311l0.219-0.219zM2.825 28.761c0-0.035 0.014-0.068 0.038-0.092l-0.219-0.219c-0.082 0.082-0.129 0.194-0.129 0.311h0.31zM2.864 28.669c0.024-0.024 0.058-0.038 0.092-0.038v-0.31c-0.117 0-0.228 0.046-0.311 0.129l0.219 0.219zM2.956 28.631h14.908v-0.31h-14.908v0.31zM17.863 28.631c0.035 0 0.068 0.014 0.092 0.038l0.219-0.219c-0.083-0.082-0.194-0.129-0.311-0.129v0.31zM17.955 28.669c0.024 0.024 0.038 0.058 0.038 0.092h0.31c0-0.117-0.046-0.229-0.129-0.311l-0.219 0.219zM17.993 28.761c0 0.035-0.014 0.068-0.038 0.092l0.219 0.219c0.082-0.083 0.129-0.194 0.129-0.311h-0.31zM17.955 28.853c-0.024 0.024-0.058 0.038-0.092 0.038v0.31c0.117 0 0.229-0.046 0.311-0.129l-0.219-0.219zM10.41 17.227c-0.024 0-0.048-0.007-0.069-0.020l-0.164 0.263c0.070 0.044 0.15 0.067 0.233 0.067l0-0.31zM10.341 17.207c-0.021-0.013-0.037-0.031-0.048-0.053l-0.278 0.136c0.036 0.074 0.092 0.136 0.162 0.18l0.164-0.263zM10.293 17.154c-0.016-0.033-0.457-0.937-0.903-2.406l-0.296 0.090c0.452 1.489 0.9 2.409 0.921 2.452l0.278-0.136zM9.39 14.748c-0.411-1.355-0.9-3.46-0.9-5.799h-0.31c0 2.38 0.497 4.517 0.914 5.889l0.296-0.090zM8.49 8.949c0-2.339 0.49-4.444 0.9-5.799l-0.296-0.090c-0.416 1.372-0.914 3.509-0.914 5.889h0.31zM9.39 3.15c0.446-1.47 0.887-2.373 0.903-2.406l-0.278-0.136c-0.021 0.043-0.469 0.963-0.921 2.452l0.296 0.090zM10.293 0.744c0.011-0.022 0.027-0.040 0.048-0.053l-0.164-0.263c-0.070 0.044-0.126 0.106-0.162 0.18l0.278 0.136zM10.341 0.691c0.021-0.013 0.044-0.020 0.069-0.020v-0.31c-0.082 0-0.163 0.023-0.233 0.067l0.164 0.263zM10.409 0.671c0.024 0 0.048 0.007 0.069 0.020l0.164-0.263c-0.070-0.044-0.15-0.067-0.233-0.067v0.31zM10.478 0.691c0.021 0.013 0.037 0.031 0.048 0.053l0.278-0.136c-0.036-0.074-0.092-0.136-0.162-0.18l-0.164 0.263zM10.526 0.744c0.016 0.033 0.457 0.937 0.903 2.406l0.296-0.090c-0.452-1.489-0.9-2.409-0.921-2.452l-0.278 0.136zM11.429 3.15c0.411 1.355 0.9 3.46 0.9 5.799h0.31c0-2.38-0.497-4.516-0.914-5.889l-0.296 0.090zM12.329 8.949c0 2.339-0.49 4.444-0.9 5.799l0.296 0.090c0.416-1.372 0.914-3.51 0.914-5.889h-0.31zM11.429 14.748c-0.446 1.469-0.887 2.373-0.903 2.406l0.278 0.136c0.021-0.043 0.469-0.963 0.921-2.452l-0.296-0.090zM10.526 17.154c-0.011 0.022-0.027 0.040-0.048 0.053l0.164 0.263c0.070-0.044 0.126-0.106 0.162-0.18l-0.278-0.136zM10.478 17.207c-0.021 0.013-0.044 0.020-0.069 0.020l0 0.31c0.082-0 0.163-0.023 0.233-0.067l-0.164-0.263zM10.266 1.455c-0.491 1.206-1.516 4.123-1.516 7.494h0.31c0-3.314 1.009-6.188 1.493-7.377l-0.287-0.117zM8.75 8.949c0 3.371 1.024 6.289 1.516 7.494l0.287-0.117c-0.485-1.188-1.493-4.063-1.493-7.377h-0.31zM10.553 16.443c0.491-1.206 1.516-4.122 1.516-7.494h-0.31c0 3.314-1.009 6.188-1.493 7.377l0.287 0.117zM12.069 8.949c0-3.372-1.024-6.289-1.516-7.494l-0.287 0.117c0.485 1.188 1.493 4.062 1.493 7.377h0.31zM14.728 17.227c-0.026 0-0.051-0.008-0.073-0.022l-0.173 0.257c0.073 0.049 0.158 0.075 0.246 0.075l0-0.31zM14.656 17.205c-0.021-0.015-0.038-0.035-0.048-0.059l-0.287 0.116c0.033 0.081 0.089 0.151 0.162 0.2l0.173-0.257zM14.608 17.146c-0.010-0.024-0.012-0.050-0.007-0.076l-0.303-0.064c-0.018 0.086-0.010 0.175 0.023 0.256l0.287-0.116zM14.601 17.070c0.005-0.025 0.018-0.049 0.037-0.067l-0.215-0.223c-0.063 0.061-0.106 0.139-0.124 0.225l0.303 0.064zM14.638 17.003c0.056-0.055 0.113-0.11 0.168-0.166l-0.22-0.218c-0.055 0.055-0.109 0.109-0.164 0.162l0.215 0.223zM14.806 16.838c2.387-2.387 3.723-5.17 4.227-6.372l-0.286-0.12c-0.497 1.184-1.814 3.926-4.161 6.273l0.219 0.219zM18.83 10.263c-1.362 0.578-2.66 1.297-3.873 2.143l0.177 0.254c1.196-0.834 2.475-1.542 3.817-2.112l-0.121-0.285zM14.953 12.409c-0.026 0.019-0.058 0.028-0.091 0.025l-0.031 0.308c0.109 0.011 0.218-0.019 0.306-0.085l-0.185-0.249zM14.863 12.434c-0.032-0.003-0.062-0.018-0.084-0.042l-0.23 0.207c0.073 0.081 0.174 0.132 0.283 0.143l0.031-0.308zM14.779 12.392c-0.022-0.024-0.034-0.055-0.034-0.088l-0.31-0.001c-0 0.109 0.040 0.215 0.113 0.296l0.23-0.207zM14.745 12.304c0-0.032 0.012-0.064 0.034-0.087l-0.228-0.209c-0.074 0.081-0.115 0.186-0.116 0.295l0.31 0.001zM14.782 12.214c0.005-0.006 0.012-0.012 0.018-0.016l-0.174-0.256c-0.029 0.019-0.055 0.042-0.077 0.068l0.232 0.205zM14.802 12.197c2.384-1.67 4.469-2.391 4.549-2.419l-0.101-0.293c-0.095 0.033-2.209 0.766-4.626 2.458l0.178 0.254zM19.351 9.778c0.023-0.008 0.048-0.009 0.072-0.004l0.070-0.302c-0.080-0.019-0.164-0.014-0.242 0.012l0.1 0.293zM19.423 9.774c0.024 0.006 0.045 0.018 0.063 0.035l0.219-0.219c-0.058-0.058-0.131-0.099-0.212-0.117l-0.070 0.302zM19.485 9.809c0.017 0.017 0.029 0.039 0.035 0.063l0.302-0.070c-0.019-0.080-0.059-0.153-0.117-0.211l-0.219 0.219zM19.52 9.872c0.006 0.024 0.004 0.049-0.004 0.072l0.293 0.1c0.027-0.078 0.031-0.162 0.012-0.242l-0.302 0.070zM19.517 9.943c-0.012 0.034-0.339 0.985-1.063 2.34l0.273 0.146c0.734-1.373 1.067-2.34 1.083-2.385l-0.293-0.1zM18.454 12.283c-0.667 1.249-1.811 3.083-3.464 4.737l0.219 0.219c1.682-1.682 2.842-3.545 3.518-4.81l-0.273-0.146zM14.99 17.020c-0.057 0.057-0.115 0.114-0.172 0.169l0.216 0.222c0.059-0.057 0.117-0.114 0.175-0.173l-0.219-0.219zM14.817 17.19c-0.024 0.024-0.056 0.037-0.089 0.037l0.002 0.31c0.114-0.001 0.224-0.046 0.305-0.126l-0.218-0.22zM6.090 17.227c-0.034 0-0.066-0.013-0.090-0.036l-0.216 0.222c0.082 0.080 0.192 0.124 0.306 0.124l-0.001-0.31zM6.001 17.191c-0.057-0.056-0.115-0.112-0.172-0.169l-0.219 0.219c0.058 0.058 0.117 0.116 0.175 0.173l0.216-0.222zM5.829 17.021c-1.654-1.654-2.797-3.488-3.464-4.737l-0.273 0.146c0.676 1.265 1.835 3.128 3.518 4.81l0.219-0.219zM2.364 12.284c-0.724-1.354-1.051-2.305-1.064-2.34l-0.291 0.105c0.015 0.041 0.348 1.008 1.082 2.381l0.273-0.146zM1.301 9.947c-0.008-0.023-0.009-0.048-0.004-0.072l-0.302-0.070c-0.019 0.080-0.014 0.164 0.012 0.242l0.293-0.1zM1.298 9.875c0.006-0.024 0.018-0.045 0.035-0.063l-0.219-0.219c-0.058 0.058-0.099 0.131-0.117 0.211l0.302 0.070zM1.333 9.812c0.017-0.017 0.039-0.029 0.063-0.035l-0.070-0.302c-0.080 0.019-0.153 0.059-0.212 0.117l0.219 0.219zM1.395 9.777c0.024-0.006 0.049-0.004 0.072 0.004l0.1-0.293c-0.078-0.027-0.162-0.031-0.242-0.012l0.070 0.302zM1.466 9.781c0.081 0.028 2.165 0.75 4.549 2.419l0.178-0.254c-2.417-1.692-4.531-2.425-4.626-2.458l-0.101 0.293zM6.018 12.201c0.007 0.004 0.013 0.010 0.018 0.016l0.233-0.204c-0.023-0.026-0.049-0.049-0.077-0.068l-0.173 0.257zM6.034 12.214c0.020 0.024 0.031 0.055 0.030 0.086l0.31 0.006c0.002-0.106-0.035-0.21-0.103-0.292l-0.237 0.199zM6.064 12.301c-0.001 0.031-0.013 0.062-0.034 0.085l0.229 0.208c0.072-0.079 0.112-0.181 0.114-0.287l-0.31-0.006zM6.030 12.386c-0.021 0.023-0.050 0.038-0.081 0.042l0.035 0.308c0.106-0.012 0.204-0.062 0.275-0.141l-0.229-0.208zM5.949 12.428c-0.031 0.004-0.063-0.004-0.089-0.022l-0.176 0.255c0.088 0.060 0.194 0.087 0.3 0.075l-0.035-0.308zM5.861 12.406c-1.212-0.847-2.509-1.565-3.87-2.143l-0.121 0.285c1.341 0.57 2.619 1.278 3.814 2.112l0.177-0.254zM1.788 10.465c0.503 1.201 1.843 3.991 4.225 6.373l0.219-0.219c-2.342-2.342-3.662-5.089-4.158-6.273l-0.286 0.12zM6.012 16.838c0.056 0.056 0.112 0.111 0.169 0.166l0.215-0.223c-0.055-0.053-0.11-0.107-0.165-0.162l-0.219 0.219zM6.181 17.003c0.019 0.018 0.031 0.041 0.037 0.067l0.303-0.064c-0.018-0.086-0.061-0.164-0.124-0.225l-0.215 0.223zM6.218 17.070c0.005 0.025 0.003 0.052-0.007 0.076l0.287 0.116c0.033-0.081 0.041-0.17 0.022-0.256l-0.303 0.064zM6.211 17.146c-0.010 0.024-0.026 0.045-0.048 0.059l0.173 0.257c0.073-0.049 0.129-0.119 0.162-0.2l-0.287-0.116zM6.163 17.205c-0.021 0.015-0.047 0.022-0.073 0.022l0 0.31c0.088-0 0.173-0.026 0.246-0.075l-0.173-0.257zM10.409 17.227c-0.027 0-0.054-0.009-0.077-0.025l-0.182 0.251c0.075 0.055 0.166 0.084 0.259 0.084l-0-0.31zM10.333 17.202c-0.022-0.016-0.039-0.039-0.047-0.065l-0.295 0.095c0.029 0.089 0.085 0.166 0.16 0.22l0.182-0.251zM10.285 17.137c-0.009-0.026-0.008-0.054 0-0.081l-0.294-0.096c-0.029 0.088-0.029 0.184-0 0.272l0.295-0.095zM10.285 17.057c0.009-0.026 0.025-0.049 0.047-0.065l-0.181-0.251c-0.075 0.054-0.132 0.131-0.161 0.22l0.294 0.096zM10.333 16.991c0.038-0.028 3.295-2.415 5.365-6.309l-0.273-0.145c-2.037 3.832-5.248 6.185-5.274 6.205l0.182 0.25zM15.699 10.682c1.583-2.976 2.047-6.032 2.179-7.328l-0.308-0.031c-0.13 1.278-0.589 4.288-2.145 7.214l0.273 0.145zM17.625 3.219c-1 0.834-3.274 2.929-4.856 5.905l0.273 0.145c1.556-2.926 3.795-4.99 4.781-5.812l-0.198-0.238zM12.768 9.124c-0.173 0.325-0.336 0.658-0.487 0.993l0.282 0.127c0.148-0.328 0.309-0.656 0.479-0.975l-0.273-0.145zM12.279 10.121c-0.007 0.016-0.017 0.031-0.029 0.043l0.217 0.221c0.042-0.041 0.075-0.090 0.098-0.145l-0.286-0.119zM12.25 10.163c-0.012 0.012-0.027 0.022-0.043 0.028l0.114 0.288c0.055-0.022 0.105-0.054 0.146-0.095l-0.217-0.221zM12.207 10.191c-0.016 0.006-0.034 0.009-0.051 0.009l-0.007 0.31c0.059 0.001 0.117-0.009 0.172-0.031l-0.114-0.288zM12.156 10.201c-0.017-0-0.035-0.004-0.050-0.011l-0.127 0.282c0.054 0.024 0.112 0.037 0.17 0.039l0.007-0.31zM12.106 10.189c-0.016-0.007-0.030-0.017-0.042-0.030l-0.227 0.211c0.040 0.043 0.088 0.078 0.142 0.102l0.127-0.282zM12.064 10.159c-0.012-0.013-0.021-0.028-0.027-0.044l-0.291 0.106c0.020 0.055 0.051 0.106 0.091 0.149l0.227-0.211zM12.037 10.115c-0.006-0.016-0.009-0.034-0.008-0.051l-0.309-0.016c-0.003 0.059 0.006 0.118 0.026 0.173l0.291-0.106zM12.029 10.064c0.001-0.017 0.005-0.034 0.013-0.050l-0.279-0.135c-0.026 0.053-0.041 0.11-0.044 0.169l0.309 0.016zM12.044 10.010c0.153-0.339 0.32-0.678 0.495-1.008l-0.274-0.145c-0.178 0.336-0.348 0.681-0.504 1.026l0.282 0.128zM12.539 9.002c1.098-2.065 2.518-3.694 3.517-4.698l-0.22-0.218c-1.012 1.017-2.454 2.67-3.571 4.771l0.273 0.145zM16.056 4.304c1.084-1.088 1.897-1.679 1.926-1.7l-0.18-0.252c-0.040 0.029-0.867 0.631-1.965 1.733l0.219 0.219zM17.983 2.603c0.020-0.014 0.043-0.023 0.067-0.024l-0.021-0.309c-0.082 0.006-0.161 0.034-0.227 0.082l0.181 0.251zM18.050 2.579c0.024-0.002 0.049 0.003 0.070 0.015l0.145-0.273c-0.073-0.039-0.155-0.056-0.237-0.050l0.021 0.309zM18.12 2.594c0.022 0.011 0.039 0.029 0.052 0.050l0.268-0.155c-0.041-0.071-0.102-0.129-0.174-0.168l-0.145 0.273zM18.171 2.643c0.012 0.021 0.018 0.045 0.017 0.069l0.31 0.010c0.003-0.082-0.018-0.163-0.059-0.235l-0.268 0.155zM18.189 2.718c0-0-0 0.004-0 0.014s-0.001 0.023-0.002 0.039c-0.002 0.034-0.004 0.082-0.008 0.143-0.008 0.123-0.022 0.299-0.045 0.521-0.046 0.444-0.13 1.072-0.277 1.826l0.304 0.060c0.299-1.526 0.338-2.549 0.338-2.603h-0.31zM17.856 5.261c-0.273 1.389-0.83 3.478-1.928 5.543l0.273 0.145c1.116-2.101 1.681-4.221 1.958-5.628l-0.304-0.060zM15.929 10.804c-1.097 2.065-2.518 3.694-3.518 4.698l0.22 0.218c1.012-1.017 2.455-2.67 3.572-4.771l-0.274-0.145zM12.411 15.502c-1.084 1.088-1.897 1.679-1.926 1.7l0.18 0.252c0.040-0.029 0.867-0.631 1.965-1.733l-0.219-0.219zM10.484 17.203c-0.022 0.016-0.048 0.025-0.075 0.025l0.001 0.31c0.092-0 0.182-0.030 0.256-0.084l-0.183-0.25zM10.41 17.227c-0.027 0-0.053-0.009-0.075-0.025l-0.183 0.25c0.075 0.055 0.165 0.084 0.258 0.084l0-0.31zM10.333 17.202c-0.029-0.021-0.842-0.612-1.926-1.7l-0.219 0.219c1.098 1.103 1.925 1.705 1.965 1.733l0.18-0.252zM8.407 15.502c-0.999-1.003-2.42-2.632-3.518-4.698l-0.273 0.145c1.117 2.101 2.559 3.755 3.572 4.771l0.219-0.219zM4.89 10.804c-1.098-2.065-1.655-4.152-1.928-5.543l-0.304 0.060c0.276 1.409 0.841 3.527 1.958 5.628l0.273-0.145zM2.962 5.261c-0.296-1.507-0.331-2.512-0.333-2.549l-0.309 0.011c0.002 0.048 0.038 1.070 0.338 2.598l0.304-0.060zM2.629 2.713c-0.001-0.024 0.005-0.048 0.017-0.069l-0.268-0.155c-0.041 0.071-0.062 0.152-0.059 0.235l0.31-0.010zM2.647 2.643c0.012-0.021 0.030-0.038 0.052-0.050l-0.145-0.273c-0.073 0.039-0.133 0.097-0.174 0.168l0.268 0.155zM2.698 2.594c0.021-0.011 0.046-0.017 0.070-0.015l0.021-0.309c-0.082-0.006-0.164 0.012-0.237 0.050l0.145 0.273zM2.768 2.579c0.024 0.002 0.048 0.010 0.067 0.024l0.181-0.251c-0.067-0.048-0.145-0.077-0.227-0.082l-0.021 0.309zM2.836 2.604c0.029 0.021 0.842 0.612 1.926 1.7l0.219-0.219c-1.098-1.103-1.925-1.705-1.965-1.733l-0.18 0.252zM4.762 4.304c0.999 1.003 2.419 2.632 3.517 4.698l0.273-0.145c-1.117-2.101-2.559-3.755-3.571-4.771l-0.219 0.219zM8.279 9.002c0.175 0.329 0.342 0.668 0.495 1.008l0.282-0.127c-0.156-0.346-0.325-0.691-0.504-1.026l-0.273 0.145zM8.774 10.010c0.007 0.016 0.011 0.032 0.011 0.050l0.31-0.009c-0.002-0.058-0.015-0.115-0.039-0.167l-0.282 0.127zM8.786 10.059c0.001 0.017-0.002 0.034-0.008 0.050l0.29 0.11c0.021-0.054 0.030-0.112 0.028-0.169l-0.31 0.009zM8.777 10.109c-0.006 0.016-0.015 0.031-0.027 0.043l0.226 0.212c0.040-0.042 0.070-0.091 0.091-0.146l-0.29-0.11zM8.75 10.152c-0.012 0.012-0.026 0.023-0.041 0.030l0.127 0.282c0.053-0.024 0.1-0.058 0.14-0.1l-0.226-0.212zM8.709 10.182c-0.016 0.007-0.032 0.011-0.050 0.011l0.009 0.31c0.058-0.002 0.115-0.015 0.167-0.039l-0.127-0.282zM8.659 10.193c-0.017 0.001-0.034-0.002-0.050-0.008l-0.11 0.29c0.054 0.021 0.112 0.030 0.169 0.028l-0.009-0.31zM8.609 10.185c-0.016-0.006-0.031-0.015-0.043-0.027l-0.212 0.226c0.042 0.040 0.091 0.070 0.146 0.091l0.11-0.29zM8.566 10.158c-0.012-0.012-0.022-0.026-0.029-0.041l-0.282 0.127c0.024 0.053 0.058 0.1 0.1 0.14l0.212-0.226zM8.537 10.116c-0.151-0.334-0.315-0.668-0.487-0.993l-0.273 0.145c0.169 0.318 0.33 0.646 0.479 0.975l0.282-0.127zM8.049 9.124c-1.585-2.98-3.856-5.072-4.857-5.905l-0.198 0.238c0.986 0.821 3.224 2.883 4.782 5.812l0.273-0.145zM2.939 3.353c0.132 1.296 0.597 4.352 2.18 7.328l0.273-0.145c-1.556-2.926-2.015-5.937-2.145-7.215l-0.308 0.031zM5.119 10.682c1.038 1.952 2.371 3.522 3.446 4.607 0.538 0.542 1.013 0.964 1.355 1.252 0.339 0.285 0.558 0.447 0.558 0.446l0.194-0.241c-0.034-0.027-3.239-2.371-5.28-6.209l-0.273 0.145zM10.485 16.992c0.022 0.016 0.039 0.039 0.048 0.065l0.294-0.096c-0.029-0.088-0.085-0.165-0.161-0.22l-0.181 0.251zM10.532 17.057c0.009 0.026 0.009 0.054 0 0.081l0.295 0.095c0.029-0.088 0.029-0.184-0-0.272l-0.294 0.096zM10.532 17.137c-0.009 0.026-0.025 0.049-0.047 0.065l0.182 0.251c0.075-0.055 0.131-0.132 0.16-0.22l-0.295-0.095zM10.485 17.202c-0.022 0.016-0.049 0.025-0.077 0.025l-0 0.31c0.093 0 0.184-0.029 0.259-0.084l-0.182-0.251zM10.408 17.537h0.001v-0.31h-0.001v0.31z"></path></svg>