<svg xmlns="http://www.w3.org/2000/svg" width="30" height="32" viewBox="0 0 30 32"><path fill="#cbe3fa" d="M28.881 12.773l-5.835-4.397c-0.183-0.137-0.404-0.211-0.633-0.211h-2.439c-0.437 0-0.833 0.274-0.988 0.691-0.61 1.638-2.195 2.774-3.993 2.774-1.786 0-3.379-1.124-3.993-2.774-0.155-0.417-0.551-0.691-0.988-0.691h-2.439c-0.228 0-0.45 0.074-0.633 0.211l-5.835 4.397c-0.438 0.33-0.549 0.942-0.254 1.404l1.828 2.871c0.3 0.472 0.916 0.625 1.404 0.351l3.228-1.82v14.548c0 0.581 0.471 1.052 1.052 1.052h13.262c0.581 0 1.052-0.47 1.052-1.051v-14.548l3.227 1.82c0.487 0.274 1.104 0.12 1.404-0.351l1.828-2.871c0.295-0.463 0.184-1.074-0.254-1.404z"></path><path fill="#befa91" d="M19.303 17.75c0.298 1.62-0.444 3.377-1.921 4.637-0.429 0.366-1.1 0.236-1.351-0.27-0.725-1.463-3.423-2.238-2.876-5.076 0.728-3.773 5.34-3.668 6.147 0.709z"></path><path fill="#daffbf" d="M16.707 14.427c0.658 0.178 0.637 1.124-0.024 1.287-1.222 0.301-1.989 1.387-2.225 2.67-0.132 0.717-1.154 0.741-1.308 0.028-0.261-1.216 0.253-3.010 1.565-3.745 0.609-0.341 1.315-0.423 1.993-0.24z"></path><path fill="#eef7ff" d="M11.002 8.863c0.11 0.295-0.102 0.61-0.417 0.61h-1.050c-0.228 0-0.45 0.074-0.633 0.211l-5.836 4.397c-0.438 0.33-0.549 0.942-0.254 1.404l0.681 1.070c0.328 0.515-0.443 1.078-0.816 0.493l-1.828-2.871c-0.295-0.463-0.184-1.074 0.254-1.404l5.835-4.397c0.183-0.137 0.404-0.211 0.633-0.211h2.439c0.426 0 0.827 0.262 0.99 0.698zM9.272 18.568v11.7c0 0.503-0.408 0.911-0.911 0.911-0.581 0-1.052-0.471-1.052-1.052v-11.559c-0-0.174 0.046-0.345 0.134-0.495s0.214-0.274 0.365-0.36c0.654-0.369 1.463 0.104 1.463 0.855zM23.045 8.376c0.468 0.352 0.219 1.098-0.367 1.097h-0.742c-0.437-0-0.833 0.274-0.988 0.691-0.831 2.232-3.227 3.222-5.279 2.578-0.603-0.189-0.55-1.068 0.072-1.18 1.432-0.259 2.702-1.247 3.245-2.706 0.155-0.418 0.551-0.691 0.988-0.691h2.439c0.228 0 0.45 0.074 0.633 0.211z"></path><path fill="#000" d="M29.197 12.355l-5.835-4.397c-0.273-0.205-0.606-0.316-0.948-0.317h-2.439c-0.654 0-1.248 0.415-1.478 1.032-0.496 1.332-1.717 2.263-3.111 2.412 0.013-0.246-0.149-0.474-0.397-0.536-0.135-0.033-0.277-0.012-0.396 0.060s-0.204 0.188-0.238 0.322c-0.293 1.182-0.35 2.355-0.208 3.477-0.765 0.551-1.295 1.437-1.507 2.533-0.609 3.154 2.282 4.119 2.92 5.408 0.401 0.81 1.469 1.024 2.159 0.435 1.621-1.383 2.424-3.348 2.096-5.129-0.232-1.257-0.774-2.286-1.569-2.976-0.052-0.045-0.112-0.079-0.177-0.101s-0.134-0.030-0.203-0.026c-0.069 0.005-0.135 0.023-0.197 0.054s-0.116 0.073-0.161 0.125c-0.091 0.105-0.137 0.241-0.127 0.38s0.074 0.267 0.179 0.358c0.614 0.533 1.038 1.354 1.226 2.375 0.261 1.415-0.408 3.002-1.746 4.143-0.171 0.146-0.444 0.096-0.542-0.104-0.806-1.627-3.315-2.232-2.83-4.744 0.12-0.62 0.365-1.144 0.709-1.534 0.368 1.418 1.007 2.553 1.563 3.341 0.048 0.069 0.112 0.125 0.187 0.163s0.157 0.059 0.241 0.059c0.416 0 0.675-0.474 0.427-0.825-1.262-1.788-1.897-3.94-1.605-6.195 1.91-0.079 3.616-1.309 4.287-3.11 0.078-0.21 0.278-0.351 0.497-0.351h2.439c0.114 0 0.227 0.038 0.318 0.106l5.835 4.397c0.219 0.165 0.275 0.475 0.128 0.706l-1.828 2.871c-0.073 0.114-0.186 0.196-0.317 0.229s-0.27 0.014-0.388-0.052l-3.228-1.82c-0.349-0.197-0.78 0.057-0.78 0.456v14.548c0 0.291-0.237 0.528-0.528 0.528h-13.262c-0.291 0-0.528-0.237-0.528-0.528v-14.548c0-0.4-0.432-0.652-0.78-0.456l-3.228 1.821c-0.118 0.066-0.257 0.085-0.388 0.052s-0.245-0.115-0.317-0.229l-1.828-2.871c-0.147-0.231-0.091-0.541 0.128-0.706l5.835-4.397c0.092-0.069 0.203-0.106 0.318-0.106h2.439c0.219 0 0.419 0.141 0.497 0.351 0.219 0.588 0.548 1.121 0.978 1.583 0.095 0.1 0.226 0.158 0.363 0.162s0.271-0.046 0.372-0.14c0.101-0.094 0.161-0.224 0.166-0.361s-0.043-0.272-0.135-0.374c-0.549-0.589-0.707-1.119-0.807-1.339l1.82-0.902c1.081-0.535 2.371-0.535 3.452 0l0.289 0.143c0.124 0.059 0.267 0.067 0.397 0.023s0.237-0.139 0.298-0.262c0.061-0.123 0.071-0.266 0.028-0.396s-0.136-0.239-0.258-0.302c-0.566-0.28-1.089-0.533-1.956-0.625v-0.417c0-0.322 0.193-0.611 0.505-0.752 0.947-0.431 1.517-1.381 1.453-2.421-0.077-1.247-1.076-2.246-2.323-2.323-1.468-0.091-2.643 1.081-2.643 2.481 0 0.139 0.055 0.272 0.153 0.37s0.231 0.153 0.37 0.153c0.139 0 0.272-0.055 0.37-0.153s0.153-0.231 0.153-0.37c0-0.817 0.684-1.488 1.532-1.436 0.709 0.044 1.299 0.634 1.343 1.343 0.037 0.603-0.293 1.154-0.841 1.404-0.679 0.309-1.118 0.978-1.118 1.705v0.417c-0.575 0.061-1.141 0.221-1.667 0.482l-2.135 1.058c-0.205-0.096-0.429-0.146-0.655-0.146h-2.439c-0.342 0.001-0.674 0.112-0.948 0.317l-5.835 4.397c-0.652 0.491-0.819 1.415-0.381 2.104l1.828 2.871c0.45 0.706 1.373 0.937 2.102 0.526l2.448-1.38v13.652c0 0.868 0.707 1.575 1.575 1.575h13.262c0.868 0 1.575-0.706 1.575-1.575v-13.652l2.448 1.38c0.729 0.411 1.652 0.18 2.102-0.526l1.828-2.871c0.438-0.688 0.271-1.613-0.381-2.104z"></path></svg>