<svg xmlns="http://www.w3.org/2000/svg" width="32" height="32" viewBox="0 0 32 32"><path fill="#fff" d="M16.002 4.761c4.207 1.541 7.225 5.587 7.225 10.34s-3.051 8.766-7.257 10.276c-4.239-1.541-7.225-5.555-7.225-10.308s3.051-8.766 7.257-10.308z"></path><path fill="#282d33" d="M15.97 26.083l-0.225-0.064c-4.592-1.67-7.642-6.069-7.642-10.918 0-4.881 3.115-9.248 7.707-10.886l0.225-0.064 0.193 0.032c4.592 1.67 7.642 6.069 7.642 10.918 0 4.881-3.115 9.248-7.675 10.886l-0.225 0.096zM16.002 5.467c-3.95 1.509-6.615 5.363-6.615 9.601s2.633 8.092 6.583 9.633c3.95-1.541 6.583-5.363 6.615-9.601 0-4.239-2.633-8.092-6.583-9.633z"></path><path fill="#5eb4e7" d="M19.953 19.532c-0.931 1.606-2.344 2.858-3.982 3.629-3.115-1.445-5.17-4.624-5.138-8.092 0-1.573 0.417-3.083 1.188-4.431 0.931-1.606 2.344-2.858 4.014-3.629 3.115 1.445 5.17 4.624 5.138 8.092-0.032 1.541-0.45 3.083-1.22 4.431z"></path><path fill="#282d33" d="M15.324 24.761l0.040-20.005 1.284 0.003-0.040 20.005-1.284-0.003z"></path><path fill="#282d33" d="M15.941 28.523c-0.353 0-0.642-0.289-0.642-0.642v-2.473c0-0.353 0.289-0.642 0.642-0.642s0.642 0.289 0.642 0.642v2.473c0 0.353-0.289 0.642-0.642 0.642z"></path><path fill="#282d33" d="M10.289 10.154l0.868-0.947 4.993 4.58-0.868 0.947-4.993-4.58z"></path><path fill="#282d33" d="M8.534 15.196l0.868-0.947 6.745 6.186-0.868 0.947-6.745-6.186z"></path><path fill="#282d33" d="M15.828 13.793l5.014-4.56 0.864 0.951-5.014 4.56-0.864-0.95z"></path><path fill="#282d33" d="M15.753 20.448l6.772-6.15 0.863 0.951-6.772 6.15-0.863-0.95zM2.55 24.381c-3.885-6.23-2.954-14.225 2.248-19.427 6.133-6.133 16.12-6.133 22.253 0l-0.899 0.899c-5.652-5.652-14.803-5.652-20.455 0-4.752 4.752-5.619 12.106-2.055 17.822l-1.092 0.706z"></path><path fill="#282d33" d="M27.209 6.27h-4.367v-1.284h3.083v-3.083h1.284v4.367zM16.035 31.702c-4.046 0-8.060-1.541-11.143-4.592l0.899-0.899c5.652 5.652 14.803 5.652 20.455 0 4.752-4.752 5.587-12.299 1.991-17.95l1.092-0.674c3.918 6.165 2.986 14.386-2.184 19.556-3.051 3.051-7.097 4.56-11.11 4.56z"></path><path fill="#282d33" d="M6.049 30.129h-1.284v-4.367h4.367v1.284h-3.083v3.083z"></path></svg>