<svg xmlns="http://www.w3.org/2000/svg" width="38" height="32" viewBox="0 0 38 32"><path d="M35.074 7.54h-13.098c0.44-0.719 0.672-1.546 0.671-2.389 0-2.534-2.062-4.596-4.596-4.596-1.574 0-3.015 0.788-3.866 2.112l-2.862 3.699-2.862-3.699c-0.851-1.324-2.292-2.112-3.866-2.112-2.534 0-4.596 2.062-4.596 4.596 0 1.099 0.388 2.109 1.034 2.901-0.628 0.47-1.034 1.219-1.034 2.062v19.118c0 1.419 1.155 2.573 2.574 2.573h32.5c1.419 0 2.574-1.154 2.574-2.573v-19.118c0-1.419-1.154-2.574-2.574-2.574zM35.441 29.231c0 0.203-0.165 0.368-0.368 0.368h-22.647v-18.178l2.228 3.090c0.102 0.142 0.237 0.258 0.392 0.337s0.328 0.121 0.503 0.121c0.223 0 0.449-0.068 0.644-0.208 0.494-0.356 0.606-1.046 0.25-1.54l-2.505-3.475 21.135-0.001c0.203 0 0.368 0.165 0.368 0.368v19.118zM4.596 2.761c0.829 0 1.587 0.421 2.027 1.125 0.019 0.031 0.040 0.061 0.063 0.090l2.757 3.564-4.82-0.001c-0.013 0-0.026 0-0.040 0.001-1.312-0.006-2.378-1.076-2.378-2.39 0-1.318 1.072-2.39 2.39-2.39zM16.024 3.886c0.441-0.705 1.199-1.125 2.027-1.125 1.318 0 2.39 1.072 2.39 2.39 0 1.314-1.066 2.384-2.378 2.39-0.012-0-0.024-0.001-0.036-0.001l-0.013-0-4.81 0.001 2.757-3.564c0.022-0.029 0.043-0.059 0.063-0.090zM2.206 29.231v-19.118c0-0.203 0.165-0.368 0.368-0.368l6.226 0.001-2.181 3.195c-0.343 0.503-0.214 1.189 0.289 1.533s1.189 0.214 1.533-0.289l1.78-2.608v18.021h-7.647c-0.097-0-0.191-0.039-0.26-0.108s-0.108-0.162-0.108-0.26z"></path><path d="M20.294 16.363h5.515c0.609 0 1.103-0.494 1.103-1.103s-0.494-1.103-1.103-1.103h-5.515c-0.609 0-1.103 0.494-1.103 1.103s0.494 1.103 1.103 1.103zM30.221 18.569h-9.927c-0.609 0-1.103 0.494-1.103 1.103s0.494 1.103 1.103 1.103h9.927c0.609 0 1.103-0.494 1.103-1.103s-0.494-1.103-1.103-1.103zM30.221 22.981h-9.927c-0.609 0-1.103 0.494-1.103 1.103s0.494 1.103 1.103 1.103h9.927c0.609 0 1.103-0.494 1.103-1.103s-0.494-1.103-1.103-1.103z"></path></svg>