<svg xmlns="http://www.w3.org/2000/svg" width="31" height="32" viewBox="0 0 31 32"><path d="M24.702 19.346l-3.646 3.657-1.43-1.441c-0.209-0.209-0.492-0.326-0.787-0.326s-0.578 0.117-0.787 0.326-0.326 0.492-0.326 0.787c0 0.295 0.117 0.578 0.326 0.787l2.217 2.216c0.103 0.104 0.226 0.186 0.361 0.243s0.28 0.085 0.426 0.085 0.291-0.029 0.426-0.085c0.135-0.056 0.258-0.139 0.361-0.243l4.433-4.433c0.103-0.103 0.185-0.226 0.241-0.361s0.085-0.28 0.085-0.426c0-0.146-0.029-0.291-0.085-0.426s-0.138-0.258-0.241-0.361c-0.103-0.103-0.226-0.185-0.361-0.241s-0.28-0.085-0.426-0.085-0.291 0.029-0.426 0.085c-0.135 0.056-0.258 0.138-0.361 0.241z"></path><path d="M22.164 13.483c-1.753 0-3.468 0.52-4.926 1.494s-2.594 2.359-3.265 3.979c-0.671 1.62-0.847 3.403-0.504 5.123s1.186 3.3 2.426 4.539c1.24 1.24 2.82 2.084 4.539 2.426s3.502 0.167 5.122-0.504c1.62-0.671 3.005-1.807 3.979-3.265s1.494-3.172 1.494-4.926c0-2.351-0.934-4.606-2.597-6.269s-3.918-2.597-6.269-2.597zM22.164 28.998c-1.315 0-2.601-0.39-3.694-1.121s-1.946-1.769-2.449-2.984-0.635-2.552-0.378-3.842c0.257-1.29 0.89-2.475 1.82-3.405s2.115-1.563 3.405-1.82c1.29-0.257 2.627-0.125 3.842 0.378s2.253 1.356 2.984 2.449c0.731 1.094 1.121 2.379 1.121 3.694 0 1.764-0.701 3.455-1.948 4.702s-2.938 1.948-4.702 1.948z"></path><path d="M26.597 0.185h-22.165c-1.176 0-2.303 0.467-3.135 1.298s-1.298 1.959-1.298 3.135v22.165c0 1.176 0.467 2.303 1.298 3.135s1.959 1.298 3.135 1.298h8.866c0.294 0 0.576-0.117 0.784-0.325s0.325-0.49 0.325-0.784c0-0.294-0.117-0.576-0.325-0.784s-0.49-0.325-0.784-0.325h-8.866c-0.588 0-1.152-0.233-1.567-0.649s-0.649-0.979-0.649-1.567v-22.165c0-0.588 0.234-1.152 0.649-1.567s0.979-0.649 1.567-0.649h5.541v7.758c0.001 0.219 0.067 0.432 0.189 0.614s0.296 0.323 0.498 0.406c0.202 0.085 0.424 0.108 0.639 0.067s0.413-0.146 0.569-0.299l1.43-1.441 1.43 1.441c0.103 0.104 0.226 0.186 0.361 0.243s0.28 0.085 0.426 0.085 0.291-0.029 0.426-0.085c0.135-0.056 0.258-0.139 0.361-0.243l1.43-1.441 1.43 1.441c0.104 0.103 0.226 0.184 0.361 0.239s0.28 0.083 0.425 0.082c0.145 0.004 0.29-0.027 0.421-0.089 0.202-0.083 0.376-0.224 0.498-0.406s0.188-0.395 0.189-0.614v-7.758h5.541c0.588 0 1.152 0.234 1.567 0.649s0.649 0.979 0.649 1.567v8.866c0 0.294 0.117 0.576 0.325 0.784s0.49 0.325 0.784 0.325 0.576-0.117 0.784-0.325c0.208-0.208 0.325-0.49 0.325-0.784v-8.866c0-1.176-0.467-2.303-1.298-3.135s-1.959-1.298-3.135-1.298zM18.84 7.488l-0.321-0.332c-0.103-0.104-0.226-0.186-0.361-0.243s-0.28-0.085-0.426-0.085-0.291 0.029-0.426 0.085c-0.135 0.056-0.258 0.139-0.361 0.243l-1.43 1.441-1.43-1.441c-0.103-0.104-0.226-0.186-0.361-0.243s-0.28-0.085-0.426-0.085c-0.146 0-0.291 0.029-0.426 0.085s-0.258 0.139-0.361 0.243l-0.321 0.332v-5.087h6.649v5.087z"></path></svg>