<svg xmlns="http://www.w3.org/2000/svg" width="36" height="32" viewBox="0 0 36 32"><path d="M17.94 2.124c6.085 0 11.035 4.95 11.035 11.035h2.006c-0.718-17.305-25.37-17.291-26.082 0h2.006c0-6.085 4.95-11.035 11.035-11.035z"></path><path d="M31.885 21.935c2.409-2.504 0.6-6.781-2.91-6.771-3.51-0.010-5.319 4.268-2.91 6.771-0.799 0.444-1.488 1.063-2.014 1.81-0.668-1.175-1.659-2.134-2.855-2.763 3.508-2.99 1.41-8.809-3.255-8.827-4.665 0.018-6.763 5.837-3.255 8.827-1.196 0.629-2.187 1.588-2.855 2.763-0.526-0.748-1.215-1.366-2.014-1.81 2.409-2.504 0.6-6.781-2.91-6.771-3.51-0.010-5.319 4.268-2.91 6.771-1.852 1.027-3.109 3.003-3.109 5.267v4.013h34.107v-4.013c0-2.264-1.257-4.239-3.109-5.267zM26.968 19.177c0-1.106 0.9-2.006 2.006-2.006 2.662 0.11 2.661 3.903 0 4.013-1.106 0-2.006-0.9-2.006-2.006zM14.93 17.171c0-1.659 1.35-3.009 3.009-3.009 3.992 0.165 3.991 5.854 0 6.019-1.659 0-3.009-1.35-3.009-3.009zM4.899 19.177c0-1.106 0.9-2.006 2.006-2.006 2.662 0.11 2.661 3.903 0 4.013-1.106 0-2.006-0.9-2.006-2.006zM10.918 29.209h-8.025v-2.006c0.221-5.325 7.806-5.32 8.025 0v2.006zM22.956 29.209h-10.031v-2.006c0.276-6.656 9.758-6.65 10.031 0v2.006zM32.987 29.209h-8.025v-2.006c0.221-5.325 7.806-5.32 8.025 0v2.006z"></path></svg>