<svg xmlns="http://www.w3.org/2000/svg" width="30" height="32" viewBox="0 0 30 32"><path d="M29.251 15.426c-3.248-0.011-6.658-0.675-9.224-2.792-2.157-1.78-3.438-4.307-4.059-6.999-0.388-1.68-0.528-3.399-0.517-5.118 0-0.359-0.287-0.517-0.567-0.517s-0.567 0.158-0.567 0.517c0.014 2.932-0.398 5.965-1.766 8.599-1.303 2.509-3.449 4.407-6.109 5.373-1.899 0.689-3.916 0.933-5.926 0.94-0.359 0-0.517 0.291-0.517 0.571s0.158 0.571 0.517 0.571c3.248 0.011 6.658 0.675 9.224 2.792 2.157 1.78 3.438 4.307 4.059 6.999 0.388 1.68 0.524 3.399 0.517 5.118 0 0.359 0.287 0.517 0.567 0.517s0.567-0.158 0.567-0.517c-0.014-2.932 0.398-5.965 1.766-8.599 1.303-2.509 3.449-4.407 6.108-5.373 1.899-0.689 3.916-0.933 5.925-0.94 0.359 0 0.517-0.291 0.517-0.571s-0.158-0.571-0.517-0.571zM19.377 18.505c-2.336 1.877-3.761 4.633-4.436 7.515-0.022 0.086-0.036 0.176-0.057 0.262-0.305-1.385-0.764-2.731-1.425-3.991-1.428-2.728-3.797-4.745-6.679-5.803-0.546-0.201-1.105-0.363-1.673-0.495 1.906-0.456 3.715-1.249 5.279-2.505 2.336-1.877 3.761-4.633 4.436-7.515 0.022-0.086 0.036-0.176 0.057-0.262 0.305 1.385 0.764 2.731 1.425 3.991 1.428 2.728 3.797 4.745 6.679 5.803 0.546 0.201 1.105 0.363 1.672 0.495-1.906 0.459-3.715 1.249-5.279 2.505z"></path></svg>