<svg xmlns="http://www.w3.org/2000/svg" width="40" height="43" viewBox="0 0 40 43" fill="none"><path d="M39.3055 20.7331C34.9409 20.7187 30.3593 19.8264 26.911 16.981C24.0125 14.5889 22.2908 11.1937 21.4565 7.57662C20.9356 5.31957 20.7475 3.00946 20.762 0.699361C20.762 0.217084 20.3762 0.00488281 20 0.00488281C19.6238 0.00488281 19.238 0.217084 19.238 0.699361C19.2573 4.63956 18.7027 8.71479 16.8652 12.2547C15.1145 15.6258 12.2305 18.1771 8.65686 19.4744C6.10562 20.4003 3.39523 20.7283 0.694478 20.7379C0.212202 20.7379 0 21.1286 0 21.5048C0 21.8809 0.212202 22.2716 0.694478 22.2716C5.05908 22.286 9.6407 23.1783 13.089 26.0237C15.9875 28.4158 17.7092 31.811 18.5435 35.4281C19.0644 37.6851 19.2476 39.9952 19.238 42.3053C19.238 42.7876 19.6238 42.9998 20 42.9998C20.3762 42.9998 20.762 42.7876 20.762 42.3053C20.7427 38.3651 21.2973 34.2899 23.1348 30.75C24.8855 27.3789 27.7695 24.8276 31.3431 23.5303C33.8944 22.6044 36.6048 22.2764 39.3055 22.2668C39.7878 22.2668 40 21.8761 40 21.4999C40 21.1238 39.7878 20.7331 39.3055 20.7331ZM26.0381 24.871C22.8985 27.3934 20.9838 31.0972 20.0772 34.9699C20.0482 35.0857 20.0289 35.2062 20 35.322C19.5901 33.4604 18.9727 31.6519 18.0854 29.9591C16.1659 26.2938 12.9829 23.5834 9.1102 22.1607C8.37714 21.8906 7.62479 21.6736 6.86279 21.4951C9.42368 20.8826 11.8544 19.8168 13.9571 18.1288C17.0967 15.6065 19.0113 11.9026 19.918 8.02996C19.947 7.91421 19.9662 7.79365 19.9952 7.6779C20.4051 9.53949 21.0224 11.348 21.9098 13.0408C23.8293 16.7061 27.0123 19.4165 30.885 20.8392C31.618 21.1093 32.3704 21.3263 33.1324 21.5048C30.5715 22.1221 28.1408 23.1831 26.0381 24.871Z" fill="currentColor"></path></svg>