<svg xmlns="http://www.w3.org/2000/svg" width="149" height="149" viewBox="0 0 149 149" fill="none"><circle cx="74.5" cy="74.5" r="74.5" fill="white"></circle><path d="M65.1429 99H83C84.8944 99 86.7112 98.2474 88.0508 96.9079C89.3903 95.5684 90.1429 93.7515 90.1429 91.8571V56.1429C90.1429 54.2485 89.3903 52.4316 88.0508 51.0921C86.7112 49.7525 84.8944 49 83 49H65.1429C63.2485 49 61.4316 49.7525 60.0921 51.0921C58.7525 52.4316 58 54.2485 58 56.1429V91.8571C58 93.7515 58.7525 95.5684 60.0921 96.9079C61.4316 98.2474 63.2485 99 65.1429 99ZM61.5714 56.1429C61.5714 55.1957 61.9477 54.2872 62.6175 53.6175C63.2872 52.9477 64.1957 52.5714 65.1429 52.5714H83C83.9472 52.5714 84.8556 52.9477 85.5254 53.6175C86.1952 54.2872 86.5714 55.1957 86.5714 56.1429V91.8571C86.5714 92.8043 86.1952 93.7127 85.5254 94.3825C84.8556 95.0523 83.9472 95.4286 83 95.4286H65.1429C64.1957 95.4286 63.2872 95.0523 62.6175 94.3825C61.9477 93.7127 61.5714 92.8043 61.5714 91.8571V56.1429Z" fill="black"></path><path d="M70.5 93.6429H77.6429C78.1165 93.6429 78.5707 93.4547 78.9055 93.1198C79.2404 92.7849 79.4286 92.3307 79.4286 91.8571C79.4286 91.3835 79.2404 90.9293 78.9055 90.5945C78.5707 90.2596 78.1165 90.0714 77.6429 90.0714H70.5C70.0264 90.0714 69.5722 90.2596 69.2373 90.5945C68.9024 90.9293 68.7143 91.3835 68.7143 91.8571C68.7143 92.3307 68.9024 92.7849 69.2373 93.1198C69.5722 93.4547 70.0264 93.6429 70.5 93.6429Z" fill="black"></path><path d="M81.9799 68.8906C81.9572 68.3907 81.9572 67.9136 81.9572 67.4365C81.9572 67.0502 81.6617 66.7549 81.2752 66.7549C78.4335 66.7549 76.2737 65.9369 74.4778 64.1874C74.205 63.9375 73.7958 63.9375 73.523 64.1874C71.727 65.9369 69.5673 66.7549 66.7255 66.7549C66.3391 66.7549 66.0435 67.0502 66.0435 67.4365C66.0435 67.9136 66.0435 68.3907 66.0208 68.8906C65.9299 73.6619 65.7935 80.2054 73.773 82.9546L74.0004 83L74.2277 82.9546C82.1845 80.2054 82.0709 73.6846 81.9799 68.8906ZM73.4548 75.5022C73.3184 75.6158 73.1592 75.684 72.9773 75.684H72.9546C72.7727 75.684 72.5909 75.5931 72.4772 75.4568L70.363 73.1166L71.386 72.2078L73.0455 74.0481L76.7284 70.5492L77.6605 71.5489L73.4548 75.5022Z" fill="black"></path></svg>