<svg xmlns="http://www.w3.org/2000/svg" width="149" height="149" viewBox="0 0 149 149" fill="none"><circle cx="74.5" cy="74.5" r="74.5" fill="white"></circle><path d="M74.917 49C65.0381 49 57 57.0371 57 66.917C57 76.7959 65.0381 84.833 74.917 84.833C84.7959 84.833 92.834 76.7959 92.834 66.917C92.834 57.0371 84.7959 49 74.917 49ZM74.917 80.875C67.2207 80.875 60.959 74.6133 60.959 66.917C60.959 59.2197 67.2207 52.958 74.917 52.958C82.6133 52.958 88.875 59.2197 88.875 66.917C88.875 74.6133 82.6133 80.875 74.917 80.875Z" fill="black"></path><path d="M74.917 56.083C68.9434 56.083 64.084 60.9434 64.084 66.917C64.084 72.8906 68.9434 77.75 74.917 77.75C80.8906 77.75 85.75 72.8906 85.75 66.917C85.75 60.9434 80.8906 56.083 74.917 56.083ZM78.9707 67.6152L76.3145 72.9277C76.041 73.4756 75.4893 73.792 74.916 73.792C73.7631 73.792 72.9982 72.5729 73.5195 71.5303L75.0449 68.4795H72.2607C71.1033 68.4795 70.3425 67.2594 70.8633 66.2178L73.5195 60.9053C73.9053 60.1338 74.8438 59.8213 75.6162 60.207C76.3877 60.5928 76.7002 61.5312 76.3145 62.3027L74.7891 65.3545H77.5732C78.73 65.3545 79.4915 66.5736 78.9707 67.6152ZM72.0527 87.7666V89.0518C72.0527 90.1436 72.9404 91.0312 74.0312 91.0312H75.8027C76.8936 91.0312 77.7812 90.1436 77.7812 89.0518V87.7666C75.8803 88.0219 73.9537 88.0219 72.0527 87.7666ZM73.3545 94.1113V97.4375C73.3545 98.3008 74.0537 99 74.917 99C75.7803 99 76.4795 98.3008 76.4795 97.4375V94.1113C76.0617 94.1665 74.0197 94.1992 73.3545 94.1113Z" fill="black"></path></svg>