<svg xmlns="http://www.w3.org/2000/svg" width="149" height="149" viewBox="0 0 149 149" fill="none"><circle cx="74.5" cy="74.5" r="74.5" fill="white"></circle><path fill-rule="evenodd" clip-rule="evenodd" d="M108.767 84.8341L104.075 64.8946C102.811 59.5231 97.86 54 90.32 54H57.6804C52.162 54 45.6519 57.5552 43.9252 64.8948L39.233 84.834C37.9594 90.2466 42.0677 95.4392 47.6353 95.4392C50.0012 95.4392 52.2265 94.1789 53.4427 92.1511L57.0571 86.128C57.675 85.0973 58.805 84.4575 60.0066 84.4575H87.9928C89.1944 84.4575 90.3249 85.0978 90.9429 86.1286L94.5567 92.1506C95.7734 94.1789 97.9987 95.4393 100.367 95.4393C105.926 95.4393 110.042 90.252 108.767 84.8341ZM65.2147 71.2794H62.8725V73.6217C62.8725 74.7538 61.9546 75.672 60.8217 75.672C59.6897 75.672 58.7715 74.7539 58.7715 73.6217V71.2794H56.429C55.297 71.2794 54.3788 70.3613 54.3788 69.2291C54.3788 68.0963 55.2968 67.1784 56.429 67.1784H58.7714V64.836C58.7714 63.7038 59.6894 62.7858 60.8216 62.7858C61.9544 62.7858 62.8724 63.7038 62.8724 64.836V67.1782H65.2147C66.3469 67.1782 67.265 68.0962 67.265 69.229C67.265 70.361 66.3469 71.2794 65.2147 71.2794ZM82.7852 71.2794C81.6534 71.2794 80.735 70.3608 80.735 69.2291C80.735 68.0968 81.654 67.1784 82.7852 67.1784C83.9173 67.1784 84.8359 68.0968 84.8359 69.2291C84.8359 70.3608 83.9173 71.2794 82.7852 71.2794ZM87.1783 75.672C86.0466 75.672 85.1276 74.7532 85.1276 73.6217C85.1276 72.49 86.0466 71.571 87.1783 71.571C88.3101 71.571 89.2286 72.49 89.2286 73.6217C89.2286 74.7534 88.3099 75.672 87.1783 75.672ZM87.1783 66.8868C86.0466 66.8868 85.1276 65.9681 85.1276 64.836C85.1276 63.7042 86.0466 62.7858 87.1783 62.7858C88.3101 62.7858 89.2286 63.7042 89.2286 64.836C89.2286 65.9681 88.3099 66.8868 87.1783 66.8868ZM91.5709 71.2794C90.4392 71.2794 89.5202 70.3608 89.5202 69.2291C89.5202 68.0968 90.4392 67.1784 91.5709 67.1784C92.7026 67.1784 93.6212 68.0968 93.6212 69.2291C93.6212 70.3608 92.7024 71.2794 91.5709 71.2794Z" fill="black"></path></svg>