<svg xmlns="http://www.w3.org/2000/svg" width="121" height="12" viewBox="0 0 121 12" fill="none"><path d="M9.98438 3.24343C9.0432 4.26511 8.46646 5.5684 8.34375 6.95082V11.1611H15.3328V0.75C12.6703 0.983905 11.093 1.99671 9.98438 3.24343ZM0.375 0.782747V11.1845H7.37812V6.95082C7.22615 5.56888 6.63856 4.27075 5.7 3.24343C4.65 1.99671 3.00469 0.983905 0.375 0.782747Z" fill="#0A0A0A"></path><path d="M30.6867 0.782747C30.6211 0.84824 27.893 6.29589 27.4664 7.18005L24.3422 0.84824L19.3781 0.782747V11.1518H22.8938V5.37664L25.8516 11.0863L29.0086 11.1518C29.0742 11.119 31.3758 6.45962 32.032 5.11467V11.1518H35.6484V0.782747H30.6867ZM46.5 7.34379C46.5 7.83732 46.3031 8.06655 45.9094 8.06655H40.9453C40.4508 8.06655 40.2211 7.87007 40.2211 7.37887V4.55564C40.2211 4.06444 40.3195 3.83521 40.9453 3.83521H45.7125C46.2703 3.83521 46.5 4.03169 46.5 4.52289V7.34379ZM47.5852 0.815493H39.3328C37.9523 0.815493 36.9375 1.73474 36.9375 3.0142V8.82206C36.9375 9.97054 37.6945 11.2173 39.3375 11.2173H47.8219C48.9703 11.2173 49.8914 9.8723 49.8914 8.75657V2.94871C49.8914 1.73474 48.5109 0.815493 47.5898 0.815493M61.7602 0.815493V7.87007C61.4273 7.44436 56.4305 0.815493 56.4305 0.815493H51.0398V11.1845H54.5906V3.9662L59.8523 11.1518C59.918 11.1845 65.2758 11.2173 65.2758 11.2173H65.3742V0.84824H61.7555L61.7602 0.815493ZM76.1273 4.68662H70.5656C70.0406 4.68662 69.7453 4.45272 69.7125 4.03169C69.7125 3.43991 70.2703 3.37442 70.5328 3.37442H78.3914V0.782747H69.2508C67.7062 0.782747 66.5883 1.86573 66.5883 3.34167V4.81761C66.6211 6.39413 67.6734 7.27829 69.45 7.27829H74.9391C75.5977 7.27829 75.7289 7.5122 75.7289 7.83732C75.7289 8.16245 75.6305 8.49226 74.9391 8.49226H66.293V11.1518H76.1227C77.9648 11.1518 78.818 9.80681 78.818 8.59284V6.91808C78.818 5.57312 77.7328 4.68662 76.1227 4.68662M79.2797 0.815493V3.40716H83.4539V11.25H86.8406V3.40716H91.0594V0.815493H79.2797ZM91.8703 0.815493V11.1845H103.542V8.56009H95.2242V7.01632H103.083V4.72639H95.2242V3.40716H103.575V0.815493H91.8703ZM114.136 5.40939L114.005 5.8351L113.609 5.96608H107.719V3.5709H113.637L114 3.70188L114.131 4.16969V5.41641L114.136 5.40939ZM115.083 0.84824H104.496V11.1845H107.719V8.62558H113.578C113.611 8.62558 114.007 8.75657 114.007 8.75657L114.105 9.11679V11.2219H117.427V8.29578C117.394 7.57535 116.604 7.27829 116.109 7.1473C116.637 7.01632 117.427 6.67949 117.427 5.86784V2.75223C117.427 1.86573 116.44 0.84824 115.083 0.84824ZM119.29 2.02946H118.896V1.66925H119.224C119.355 1.66925 119.552 1.66925 119.552 1.83298C119.552 1.99671 119.454 2.02946 119.29 2.02946ZM119.784 1.86573C119.792 1.8009 119.78 1.73535 119.75 1.67717C119.721 1.61899 119.675 1.5707 119.618 1.53826C119.506 1.48494 119.381 1.46234 119.257 1.47277H118.601V2.78497H118.863V2.22594H119.126L119.421 2.78497H119.716L119.388 2.22594C119.684 2.22594 119.784 2.1277 119.784 1.86573Z" fill="#0A0A0A"></path><path d="M119.159 3.14519C119.028 3.14743 118.898 3.12326 118.777 3.07413C118.656 3.02499 118.546 2.95191 118.453 2.85927C118.361 2.76663 118.289 2.65634 118.24 2.53505C118.192 2.41375 118.169 2.28394 118.172 2.15343C118.163 2.01872 118.181 1.88353 118.226 1.75628C118.272 1.62902 118.343 1.51241 118.435 1.41369C118.527 1.31498 118.639 1.23626 118.763 1.18245C118.887 1.12863 119.021 1.10086 119.156 1.10086C119.292 1.10086 119.425 1.12863 119.549 1.18245C119.674 1.23626 119.785 1.31498 119.878 1.41369C119.97 1.51241 120.041 1.62902 120.086 1.75628C120.131 1.88353 120.15 2.01872 120.141 2.15343C120.134 2.41255 120.028 2.65925 119.844 2.84253C119.661 3.02581 119.414 3.13165 119.154 3.13817M119.154 0.906716C118.994 0.906716 118.836 0.938117 118.688 0.999124C118.541 1.06013 118.407 1.14955 118.294 1.26228C118.181 1.37501 118.091 1.50883 118.03 1.65612C117.969 1.8034 117.938 1.96126 117.938 2.12068C117.938 2.2801 117.969 2.43796 118.03 2.58525C118.091 2.73253 118.181 2.86636 118.294 2.97909C118.407 3.09182 118.541 3.18124 118.688 3.24224C118.836 3.30325 118.994 3.33465 119.154 3.33465C119.314 3.33589 119.472 3.30559 119.62 3.24552C119.768 3.18545 119.902 3.09678 120.016 2.98461C120.129 2.87244 120.22 2.73899 120.281 2.59193C120.343 2.44487 120.375 2.2871 120.375 2.1277C120.37 1.80724 120.24 1.50126 120.013 1.27464C119.786 1.04801 119.48 0.918562 119.159 0.913734" fill="#0A0A0A"></path></svg>