<svg xmlns="http://www.w3.org/2000/svg" width="40" height="40" viewBox="0 0 40 40" fill="none"><g clip-path="url(#clip0_19_1029)"><path d="M20 40C8.97167 40 0 31.0283 0 20C0 8.97167 8.97167 0 20 0C31.0283 0 40 8.97167 40 20C40 23.5083 39.0733 26.9617 37.3217 29.985C37.2056 30.1659 37.0242 30.2951 36.8153 30.3456C36.6064 30.3962 36.3861 30.3643 36.2001 30.2565C36.0142 30.1487 35.877 29.9733 35.817 29.7669C35.7571 29.5605 35.779 29.339 35.8783 29.1483C37.4877 26.3682 38.3346 23.2124 38.3333 20C38.3333 9.89167 30.1083 1.66667 20 1.66667C9.89167 1.66667 1.66667 9.89167 1.66667 20C1.66667 30.1083 9.89167 38.3333 20 38.3333C23.8733 38.3333 27.5667 37.1433 30.6783 34.8917C30.7668 34.8246 30.8678 34.7759 30.9753 34.7484C31.0828 34.7209 31.1948 34.7151 31.3046 34.7315C31.4144 34.7478 31.5198 34.7859 31.6147 34.8436C31.7095 34.9013 31.7919 34.9773 31.857 35.0672C31.9221 35.1572 31.9685 35.2592 31.9936 35.3674C32.0187 35.4755 32.0219 35.5876 32.0031 35.697C31.9843 35.8064 31.9438 35.9109 31.884 36.0044C31.8242 36.098 31.7464 36.1786 31.655 36.2417C28.2661 38.6972 24.185 40.0132 20 40Z" fill="#253D4E"></path><path d="M19.9998 34.9996C16.7892 35.0079 13.6612 33.9831 11.078 32.0766C8.49473 30.1702 6.59333 27.4833 5.65478 24.413C5.62228 24.3085 5.61068 24.1986 5.62065 24.0896C5.63062 23.9806 5.66195 23.8746 5.71287 23.7777C5.76379 23.6808 5.83329 23.5949 5.91741 23.5249C6.00152 23.4549 6.09861 23.4021 6.20312 23.3696C6.30763 23.3371 6.41752 23.3255 6.52651 23.3355C6.6355 23.3455 6.74147 23.3768 6.83835 23.4277C6.93523 23.4786 7.02114 23.5481 7.09116 23.6322C7.16118 23.7164 7.21395 23.8135 7.24645 23.918C8.99312 29.5496 14.1181 33.333 19.9998 33.333C25.8815 33.333 31.0065 29.5496 32.7531 23.9196C32.8188 23.7086 32.9656 23.5322 33.1612 23.4294C33.3569 23.3265 33.5854 23.3057 33.7965 23.3713C34.0075 23.4369 34.1839 23.5837 34.2867 23.7794C34.3895 23.9751 34.4104 24.2036 34.3448 24.4146C33.4059 27.4846 31.5044 30.1712 28.9212 32.0773C26.338 33.9834 23.2101 35.008 19.9998 34.9996Z" fill="#253D4E"></path><path d="M33.1593 36.9088C32.5018 36.9114 31.8503 36.7826 31.2432 36.5299C30.6362 36.2771 30.0858 35.9056 29.6243 35.4371L26.8277 32.6404C26.6759 32.4832 26.5919 32.2727 26.5938 32.0543C26.5957 31.8358 26.6833 31.6267 26.8378 31.4722C26.9923 31.3177 27.2013 31.2301 27.4198 31.2282C27.6383 31.2263 27.8488 31.3103 28.006 31.4621L30.806 34.2621C32.061 35.5288 34.2593 35.5254 35.5077 34.2654C36.1443 33.6354 36.491 32.8004 36.491 31.9088C36.491 31.0171 36.1443 30.1838 35.5143 29.5588L32.3427 26.3704C32.2633 26.2933 32.2001 26.2012 32.1568 26.0994C32.1134 25.9976 32.0908 25.8882 32.0901 25.7776C32.0895 25.6669 32.1109 25.5573 32.1531 25.455C32.1953 25.3527 32.2574 25.2599 32.3358 25.1819C32.4143 25.1039 32.5075 25.0422 32.61 25.0006C32.7125 24.959 32.8223 24.9382 32.9329 24.9395C33.0436 24.9408 33.1528 24.964 33.2544 25.008C33.3559 25.0519 33.4477 25.1156 33.5243 25.1954L36.691 28.3788C37.636 29.3138 38.1577 30.5688 38.1577 31.9088C38.1577 33.2488 37.636 34.5038 36.686 35.4438C36.2254 35.9106 35.6762 36.2807 35.0706 36.5322C34.4649 36.7838 33.8151 36.9118 33.1593 36.9088Z" fill="#253D4E"></path><path d="M33.1859 32.767C32.9648 32.767 32.7527 32.6795 32.5959 32.5237L30.0293 29.957C29.8775 29.7998 29.7935 29.5893 29.7954 29.3708C29.7973 29.1523 29.8849 28.9433 30.0394 28.7888C30.1939 28.6343 30.4029 28.5467 30.6214 28.5448C30.8399 28.5429 31.0504 28.6269 31.2076 28.7787L33.7743 31.3453C33.8904 31.4619 33.9695 31.6102 34.0015 31.7716C34.0335 31.933 34.017 32.1003 33.9541 32.2523C33.8912 32.4044 33.7847 32.5344 33.6479 32.626C33.5112 32.7176 33.3505 32.7666 33.1859 32.767ZM15.8359 16.667C15.6149 16.667 15.403 16.5792 15.2467 16.4229C15.0904 16.2666 15.0026 16.0547 15.0026 15.8337C15.0026 14.4553 13.8809 13.3337 12.5026 13.3337C11.1243 13.3337 10.0026 14.4553 10.0026 15.8337C10.0026 16.0547 9.91481 16.2666 9.75853 16.4229C9.60225 16.5792 9.39028 16.667 9.16927 16.667C8.94826 16.667 8.7363 16.5792 8.58002 16.4229C8.42374 16.2666 8.33594 16.0547 8.33594 15.8337C8.33594 13.537 10.2059 11.667 12.5026 11.667C14.7993 11.667 16.6693 13.537 16.6693 15.8337C16.6693 16.0547 16.5815 16.2666 16.4252 16.4229C16.2689 16.5792 16.057 16.667 15.8359 16.667ZM30.8359 16.667C30.6149 16.667 30.403 16.5792 30.2467 16.4229C30.0904 16.2666 30.0026 16.0547 30.0026 15.8337C30.0026 14.4553 28.8809 13.3337 27.5026 13.3337C26.1243 13.3337 25.0026 14.4553 25.0026 15.8337C25.0026 16.0547 24.9148 16.2666 24.7585 16.4229C24.6022 16.5792 24.3903 16.667 24.1693 16.667C23.9483 16.667 23.7363 16.5792 23.58 16.4229C23.4237 16.2666 23.3359 16.0547 23.3359 15.8337C23.3359 13.537 25.2059 11.667 27.5026 11.667C29.7993 11.667 31.6693 13.537 31.6693 15.8337C31.6693 16.0547 31.5815 16.2666 31.4252 16.4229C31.2689 16.5792 31.057 16.667 30.8359 16.667Z" fill="#253D4E"></path></g><defs><clipPath id="clip0_19_1029"><rect width="40" height="40" fill="white"></rect></clipPath></defs></svg>