<svg xmlns="http://www.w3.org/2000/svg" width="149" height="149" viewBox="0 0 149 149" fill="none"><circle cx="74.5" cy="74.5" r="74.5" fill="white"></circle><path d="M99.7778 91.7778L93.5556 52.6667C93.1111 50.2222 91.6667 49 89.1667 49H60.7222C58.2222 49 56.7778 50.2222 56.3889 52.6667L50.1111 91.7778C50.1111 91.7778 50 92.5 50 92.8333C50 96.2222 52.7778 99 56.1667 99H93.6667C97.0556 99 99.8333 96.2222 99.8333 92.8333C99.8889 92.4444 99.7778 91.7778 99.7778 91.7778ZM66.8889 66.5556C66.8889 66.1111 67.2778 65.7222 67.7222 65.7222C68.1667 65.7222 68.5556 66.1111 68.5556 66.5556V69.5556C68.5556 70.8333 69.0556 71.8333 70 72.3889L74.1111 74.8333V57.3889L72.2778 59.2222C71.9444 59.5556 71.4444 59.5556 71.1111 59.2222C70.7778 58.8889 70.7778 58.3889 71.1111 58.0556L74.3889 54.7778C74.7222 54.4444 75.2222 54.4444 75.5556 54.7778L78.8333 58.0556C79.1667 58.3889 79.1667 58.8889 78.8333 59.2222C78.6667 59.3889 78.4444 59.4444 78.2222 59.4444C78 59.4444 77.7778 59.3889 77.6111 59.2222L75.7778 57.3889V69.7778L79.8889 67.3333C80.8333 66.7778 81.3333 65.7778 81.3333 64.5V61.5C81.3333 61.0556 81.7222 60.6667 82.1667 60.6667C82.6111 60.6667 83 61.0556 83 61.5V64.5C83 66.3889 82.1667 67.9444 80.7778 68.7778L75.8333 71.7222V81.6667C75.8333 82.1111 75.4444 82.5 75 82.5C74.5556 82.5 74.1667 82.1111 74.1667 81.6667V76.7778L69.2222 73.8333C68.3889 73.3333 67 72.1111 67 69.5556V66.5556H66.8889ZM93.7222 97.3333H56.1667C53.6667 97.3333 51.6667 95.3333 51.6667 92.8333C51.6667 90.3333 53.6667 88.3333 56.1667 88.3333H93.6667C96.1667 88.3333 98.1667 90.3333 98.1667 92.8333C98.1667 95.3333 96.1667 97.3333 93.7222 97.3333Z" fill="black"></path><path d="M93.5556 92H90.0556C89.6111 92 89.2222 92.3889 89.2222 92.8333C89.2222 93.2778 89.6111 93.6667 90.0556 93.6667H93.5556C94 93.6667 94.3889 93.2778 94.3889 92.8333C94.3889 92.3889 94 92 93.5556 92ZM84.7778 92H81.2778C80.8333 92 80.4444 92.3889 80.4444 92.8333C80.4444 93.2778 80.8333 93.6667 81.2778 93.6667H84.7778C85.2222 93.6667 85.6111 93.2778 85.6111 92.8333C85.6111 92.3889 85.2222 92 84.7778 92ZM71.3889 92H56.3889C55.9444 92 55.5556 92.3889 55.5556 92.8333C55.5556 93.2778 55.9444 93.6667 56.3889 93.6667H71.3889C71.8333 93.6667 72.2222 93.2778 72.2222 92.8333C72.2222 92.3889 71.8333 92 71.3889 92Z" fill="black"></path></svg>