<svg xmlns="http://www.w3.org/2000/svg" width="149" height="149" viewBox="0 0 149 149" fill="none"><circle cx="74.5" cy="74.5" r="74.5" fill="white"></circle><path fill-rule="evenodd" clip-rule="evenodd" d="M99 73.112V74.8881C99 75.175 98.766 75.409 98.4792 75.409H93.2158V72.5912H98.4792C98.766 72.5912 99 72.8251 99 73.112ZM58.5853 49H78.4202C80.9284 49 82.9742 51.0457 82.9742 53.554V94.446C82.9742 96.9543 80.9284 99 78.4202 99H58.5853C56.0771 99 54.0314 96.9543 54.0314 94.446V53.554C54.0314 51.0457 56.0771 49 58.5853 49ZM68.1542 76.066C68.2063 76.0742 68.2534 76.1018 68.286 76.1434C68.3185 76.1849 68.334 76.2373 68.3294 76.2899L67.4784 86.0755C67.459 86.2995 67.7621 86.3905 67.8692 86.1928L74.9244 73.1693C74.9404 73.14 74.9491 73.1073 74.9498 73.0739C74.9504 73.0405 74.9431 73.0075 74.9283 72.9776C74.9135 72.9476 74.8917 72.9217 74.8647 72.902C74.8378 72.8823 74.8065 72.8693 74.7735 72.8643L68.8512 71.9342C68.7991 71.926 68.752 71.8984 68.7194 71.8568C68.6869 71.8153 68.6714 71.7629 68.676 71.7103L69.527 61.9248C69.5465 61.7008 69.2434 61.6098 69.1362 61.8075L62.081 74.831C62.065 74.8603 62.0563 74.8931 62.0557 74.9264C62.055 74.9598 62.0624 74.9928 62.0772 75.0228C62.092 75.0527 62.1137 75.0786 62.1407 75.0983C62.1676 75.118 62.1989 75.131 62.2319 75.136L68.1542 76.066ZM88.0054 74C88.0054 78.319 86.6005 82.3093 84.2242 85.5409V62.4591C86.6005 65.6907 88.0054 69.681 88.0054 74ZM52.7814 85.541C50.4049 82.3093 49 78.3191 49 74C49 69.6809 50.4049 65.6907 52.7814 62.459V85.541ZM91.9659 71.7946V76.2054C91.9659 77.066 91.264 77.7679 90.4034 77.7679H88.913C89.3696 75.2768 89.3696 72.7234 88.913 70.2322H90.4034C91.2641 70.2322 91.9659 70.934 91.9659 71.7946Z" fill="black"></path></svg>