<svg xmlns="http://www.w3.org/2000/svg" width="149" height="149" viewBox="0 0 149 149" fill="none"><circle cx="74.5" cy="74.5" r="74.5" fill="white"></circle><path d="M75.0063 67.2169H72.7701V52.1405H75.0063C76.3837 52.1405 77.5052 53.2614 77.5052 54.6399V55.5971H81.3343C81.8076 55.5971 82.1929 55.9818 82.1929 56.4561C82.1929 56.9304 81.8077 57.315 81.3343 57.315H77.5052V62.0423H81.3343C81.8076 62.0423 82.1929 62.4269 82.1929 62.9012C82.1929 63.3756 81.8077 63.7597 81.3343 63.7597H77.5052V64.7173C77.5052 66.0959 76.3837 67.2169 75.0063 67.2169ZM71.2587 69.5634V52.1405C71.0296 50.4909 69.7013 49.1884 68.0397 49H55.2562C53.4263 49.2066 52 50.7635 52 52.6474V69.0536C52 71.0776 53.6464 72.7245 55.6709 72.7245H67.6238C69.4745 72.7245 71.0098 71.347 71.2587 69.5634ZM95.449 51.7378H91.0532C90.8254 51.7378 90.607 51.8283 90.4459 51.9894C90.2848 52.1505 90.1943 52.3689 90.1943 52.5967V57.0415C90.1943 58.429 91.1244 59.6025 92.3931 59.9747V82.3393C92.3931 90.5787 85.6895 97.2825 77.4496 97.2825C69.2097 97.2825 62.5059 90.5787 62.5059 82.3393V79.1086C64.1943 78.7184 65.4565 77.2033 65.4565 75.3981V74.2358H57.8372V75.3981C57.8372 77.2032 59.0999 78.7184 60.7883 79.1086V82.3393C60.7883 91.5106 68.2777 99 77.4495 99C86.6198 99 94.1106 91.5102 94.1106 82.3393V59.9747C95.3783 59.6025 96.3079 58.429 96.3079 57.0415V52.5969C96.3079 52.484 96.2857 52.3723 96.2426 52.2681C96.1995 52.1638 96.1362 52.0691 96.0564 51.9893C95.9767 51.9096 95.882 51.8463 95.7777 51.8031C95.6735 51.7599 95.5618 51.7377 95.449 51.7378Z" fill="black"></path></svg>