<svg xmlns="http://www.w3.org/2000/svg" width="149" height="149" viewBox="0 0 149 149" fill="none"><circle cx="74.5" cy="74.5" r="74.5" fill="white"></circle><path d="M99.5406 71.5179H97.0378V61.1786C97.0378 54.4634 91.5742 49 84.8584 49C78.1432 49 72.68 54.4632 72.68 61.1786V86.8214C72.68 91.296 69.0399 94.9364 64.5655 94.9364C60.0904 94.9364 56.4496 91.296 56.4496 86.8214V76.201H58.9524C59.1867 76.201 59.4114 76.1079 59.5771 75.9422C59.7428 75.7766 59.8358 75.5519 59.8358 75.3176V62.8821C59.8358 62.6478 59.7428 62.4231 59.5771 62.2575C59.4114 62.0918 59.1867 61.9987 58.9524 61.9987H58.1245V57.3526C58.1245 57.1183 58.0315 56.8936 57.8658 56.728C57.7001 56.5623 57.4754 56.4692 57.2411 56.4692H51.5947C51.3604 56.4692 51.1357 56.5623 50.97 56.728C50.8044 56.8936 50.7113 57.1183 50.7113 57.3526V61.9989H49.8834C49.6491 61.9989 49.4244 62.092 49.2587 62.2576C49.0931 62.4233 49 62.648 49 62.8823V75.3176C49 75.5519 49.0931 75.7766 49.2587 75.9422C49.4244 76.1079 49.6491 76.201 49.8834 76.201H52.3862V86.8214C52.3862 93.5368 57.8498 99 64.5657 99C71.2807 99 76.7437 93.5368 76.7437 86.8214V61.1786C76.7437 56.704 80.384 53.0636 84.8585 53.0636C89.3336 53.0636 92.9744 56.7039 92.9744 61.1786V71.5179H90.4716C90.2373 71.5179 90.0126 71.611 89.8469 71.7767C89.6813 71.9424 89.5882 72.167 89.5882 72.4013V84.8368C89.5882 85.0711 89.6813 85.2958 89.8469 85.4614C90.0126 85.6271 90.2373 85.7202 90.4716 85.7202H91.2995V90.3663C91.2995 90.6006 91.3926 90.8253 91.5582 90.9909C91.7239 91.1566 91.9486 91.2497 92.1829 91.2497H97.8297C98.064 91.2497 98.2887 91.1566 98.4543 90.9909C98.62 90.8253 98.7131 90.6006 98.7131 90.3663V85.7202H99.541C99.7753 85.7202 100 85.6271 100.166 85.4614C100.331 85.2958 100.424 85.0711 100.424 84.8368V72.4013C100.424 72.167 100.331 71.9424 100.165 71.7768C99.9996 71.6111 99.7749 71.518 99.5406 71.5179ZM52.4781 58.236H56.3581V61.9989H52.4781V58.236ZM96.9459 89.4829H93.0659V85.7202H96.9459V89.4829Z" fill="black"></path></svg>