<svg xmlns="http://www.w3.org/2000/svg" width="32" height="32" viewBox="0 0 32 32"><path d="M15.997 0.936l-12 4.364v10.556c0.003 2.060 0.492 4.091 1.427 5.927s2.29 3.425 3.954 4.639l6.619 4.814 6.619-4.814c1.665-1.214 3.019-2.803 3.954-4.639s1.424-3.866 1.427-5.927v-10.556l-12-4.364zM25.997 15.856c-0.003 1.745-0.417 3.465-1.209 5.019s-1.939 2.901-3.348 3.93l-5.443 3.959-5.443-3.959c-1.409-1.029-2.557-2.375-3.348-3.93s-1.206-3.274-1.209-5.019v-9.156l10-3.636 10 3.636v9.156z"></path><path d="M11.703 13.543l-1.414 1.414 4.457 4.457 6.957-6.957-1.414-1.414-5.543 5.543-3.043-3.043z"></path></svg>