<svg xmlns="http://www.w3.org/2000/svg" width="109" height="26" viewBox="0 0 109 26" fill="none"><path d="M7.58164 18.4351V20.2572H15.0087V18.4351H12.2265V9.32917H7.58164V11.178H10.3618V18.4351H7.58164Z" fill="#0A0A0A"></path><path d="M20.6007 23.928H1.98969V5.71399H14.0912V3.89197H0.125V25.75H22.4654V12.0746H20.6007V23.928Z" fill="#0A0A0A"></path><path d="M22.4654 0.25H20.6007V3.89197H16.8713V5.71399H20.6007V9.35803H22.4654V5.71399H26.1927V3.89197H22.4654V0.25Z" fill="#0A0A0A"></path><path d="M108.125 3.89197H28.9749V25.75H108.125V3.89197Z" fill="#0A0A0A"></path><path d="M99.1897 9.32917C98.6929 9.31799 98.199 9.40638 97.7384 9.58887C97.3431 9.7413 96.9814 9.96662 96.6732 10.2525C96.3881 10.5206 96.1664 10.8463 96.0235 11.2068C95.8674 11.5686 95.787 11.9572 95.787 12.3497C95.787 12.7423 95.8674 13.1309 96.0235 13.4926C96.161 13.799 96.3621 14.0741 96.6141 14.3006C96.8596 14.5172 97.1396 14.6933 97.4431 14.822C97.7594 14.9629 98.0867 15.0787 98.4219 15.1683C98.7467 15.2837 99.0737 15.3744 99.3985 15.4568C99.6863 15.5451 99.964 15.6618 100.228 15.8052C100.457 15.9392 100.658 16.1156 100.818 16.3246C100.983 16.563 101.066 16.8469 101.054 17.1346C101.054 17.4109 101.004 17.685 100.907 17.9446C100.815 18.1803 100.662 18.389 100.464 18.5506C100.262 18.7388 100.019 18.8797 99.7529 18.9628C99.447 19.0598 99.1273 19.1085 98.8058 19.1071C98.4427 19.1155 98.0813 19.0567 97.7406 18.9339C97.4797 18.8379 97.2318 18.7112 97.0023 18.5567C96.8241 18.4443 96.6549 18.3189 96.496 18.1816C96.3921 18.0826 96.2566 18.0215 96.1121 18.0085C96.0385 18.0137 95.9668 18.0333 95.9012 18.0662C95.8383 18.0988 95.7869 18.1491 95.7535 18.2105L95.3084 18.9051C95.7297 19.3467 96.2454 19.6922 96.8188 19.9171C97.4343 20.1767 98.0996 20.3046 98.7699 20.2922C99.3061 20.302 99.8395 20.2154 100.344 20.0366C100.782 19.8895 101.178 19.6414 101.497 19.3132C101.813 19.0135 102.056 18.6477 102.206 18.2435C102.377 17.8206 102.458 17.3684 102.444 16.914C102.45 16.5258 102.369 16.141 102.206 15.7866C102.061 15.4922 101.861 15.2272 101.615 15.0055C101.357 14.7885 101.068 14.6088 100.757 14.4716C100.432 14.3274 100.107 14.2119 99.7803 14.0965C99.4534 13.9811 99.1306 13.8904 98.8037 13.7791C98.5078 13.6773 98.2213 13.5511 97.9473 13.4019C97.7167 13.2685 97.5153 13.092 97.3545 12.8825C97.1932 12.664 97.1102 12.3996 97.1183 12.1302C97.119 11.9076 97.1666 11.6876 97.2581 11.4837C97.3495 11.2798 97.4829 11.0965 97.6498 10.9451C97.8426 10.7902 98.0638 10.6726 98.3016 10.5988C98.5877 10.504 98.8876 10.4553 99.1897 10.4545C99.4999 10.4446 99.8097 10.4836 100.107 10.57C100.334 10.643 100.552 10.7397 100.757 10.8585C100.934 10.9739 101.082 11.0646 101.202 11.1471C101.284 11.2174 101.388 11.2582 101.497 11.2625C101.572 11.2617 101.644 11.2418 101.708 11.2048C101.767 11.1759 101.797 11.1182 101.856 11.0316L102.219 10.3494C101.837 9.9845 101.384 9.69912 100.886 9.51055C100.327 9.40377 99.7592 9.3431 99.1897 9.32917ZM40.2179 9.35803C39.4389 9.3556 38.6662 9.49541 37.9398 9.77025C37.2723 10.0316 36.6676 10.4253 36.1637 10.9265C35.6792 11.4298 35.2976 12.0188 35.0394 12.662C34.7579 13.3617 34.6148 14.1073 34.6175 14.8591C34.6203 15.6105 34.7633 16.355 35.0394 17.0563C35.2976 17.6994 35.6792 18.2885 36.1637 18.7917C36.6708 19.2891 37.2747 19.6823 37.9398 19.948C39.4085 20.4865 41.0273 20.4865 42.496 19.948C43.1523 19.682 43.7465 19.2886 44.2426 18.7917C44.7277 18.289 45.1094 17.6998 45.3669 17.0563C45.6481 16.3565 45.7913 15.6109 45.7887 14.8591C45.7859 14.1078 45.6429 13.3632 45.3669 12.662C45.1094 12.0184 44.7277 11.4292 44.2426 10.9265C43.747 10.4289 43.1527 10.0355 42.496 9.77025C41.7736 9.48177 40.9981 9.34146 40.2179 9.35803ZM67.8507 9.44459V20.2283H69.3273V16.1803H71.1034C71.6981 16.1888 72.2901 16.0989 72.8541 15.9144C73.3289 15.7621 73.7723 15.5291 74.1641 15.226C74.5038 14.9281 74.7754 14.5636 74.9614 14.1563C75.1425 13.7157 75.23 13.2438 75.2188 12.7692C75.2231 12.2938 75.1335 11.8222 74.9551 11.38C74.7987 10.9752 74.5335 10.6191 74.1873 10.3494C73.8213 10.0383 73.3889 9.81085 72.9216 9.68368C72.3345 9.52469 71.7274 9.44699 71.1181 9.45284L67.8507 9.44459ZM77.0518 9.44459V20.2283H83.2955V19.0061H78.5368V9.47345H77.0602L77.0518 9.44459ZM84.8565 9.44459V15.9783C84.8496 16.5694 84.9503 17.157 85.1539 17.7137C85.3567 18.2272 85.6581 18.6981 86.042 19.1009C86.4431 19.5024 86.9231 19.8207 87.4531 20.0366C88.0356 20.2659 88.6606 20.374 89.2883 20.354C89.9103 20.3558 90.5277 20.2483 91.1108 20.0366C91.6346 19.8241 92.1083 19.5092 92.503 19.1112C92.8901 18.7125 93.1825 18.2354 93.3594 17.7137C93.5688 17.1585 93.6697 16.5699 93.6568 15.9783V9.44459H92.1802V15.9783C92.1888 16.3997 92.1173 16.819 91.9693 17.215C91.8479 17.5745 91.6574 17.9082 91.4082 18.1981C91.1528 18.4724 90.8398 18.6896 90.4906 18.835C89.712 19.1427 88.8414 19.1427 88.0627 18.835C87.7139 18.6901 87.4015 18.4728 87.1473 18.1981C86.8846 17.9171 86.6919 17.5807 86.5841 17.215C86.4501 16.8155 86.379 16.3986 86.3731 15.9783V9.44459H84.8565ZM47.375 9.47345V20.1912H49.1785V13.1731C49.1785 13.0289 49.149 12.8557 49.149 12.7114L54.8907 19.8532C54.9653 19.9626 55.0668 20.0519 55.186 20.1129C55.3168 20.1763 55.462 20.2061 55.6079 20.1994H56.6731V9.48169H54.8696V16.4688C54.8696 16.644 54.8991 16.8172 54.8991 16.9903L49.1237 9.81971C49.066 9.76945 49.0162 9.7111 48.976 9.64658C48.9388 9.60162 48.8865 9.57096 48.8284 9.56001C48.7733 9.53409 48.7118 9.52408 48.6512 9.53116H48.4149L47.375 9.47345ZM58.8542 9.47345V20.1912H65.7793V18.6083H60.9277V15.5743H64.7457V14.0409H60.9277V11.0626H65.7793V9.47345H58.8542ZM71.1055 10.6009C71.9935 10.6009 72.6432 10.807 73.0588 11.178C73.4743 11.549 73.7084 12.1034 73.7084 12.798C73.7122 13.1055 73.6519 13.4106 73.5312 13.6946C73.4275 13.9719 73.255 14.2197 73.0292 14.416C72.7916 14.6277 72.5104 14.7872 72.2045 14.8839C71.8426 15.0041 71.4623 15.0626 71.0802 15.057H69.3125V10.6009H71.1055ZM40.22 11.0337C40.7157 11.0278 41.2079 11.116 41.6691 11.2934C42.0882 11.459 42.4627 11.7164 42.7639 12.0457C43.0766 12.3888 43.3085 12.7948 43.4431 13.235C43.6045 13.7505 43.6841 14.2871 43.6794 14.8261C43.6819 15.3644 43.6023 15.9 43.4431 16.4153C43.3078 16.8544 43.0752 17.259 42.7618 17.6004C42.4619 17.9311 42.087 18.1887 41.667 18.3527C41.2065 18.5328 40.7138 18.6211 40.2179 18.6124C39.7222 18.6182 39.2301 18.53 38.7687 18.3527C38.3476 18.1878 37.9719 17.9288 37.6719 17.5963C37.3585 17.2549 37.1259 16.8502 36.9905 16.4111C36.8149 15.8996 36.7348 15.3613 36.7543 14.822C36.7529 14.2844 36.8332 13.7495 36.9927 13.235C37.1273 12.7948 37.3592 12.3888 37.6719 12.0457C37.9731 11.7164 38.3476 11.459 38.7666 11.2934C39.2286 11.1159 39.7215 11.0277 40.2179 11.0337H40.22Z" fill="white"></path></svg>