<svg xmlns="http://www.w3.org/2000/svg" width="40" height="29" viewBox="0 0 40 29" fill="none"><path d="M0.545252 15.2485C2.9115 17.2781 5.59338 19.5787 10.781 19.5787C15.9687 19.5786 18.6507 17.2781 21.017 15.2485C23.2549 13.3291 25.1875 11.6714 29.2186 11.6714C33.2498 11.6714 35.1824 13.3291 37.4202 15.2485C38.0753 15.8103 39.0617 15.7348 39.6235 15.0798C40.1853 14.4248 40.1098 13.4384 39.4547 12.8766C37.0884 10.847 34.4063 8.54641 29.2186 8.54641C24.0309 8.54641 21.3488 10.8469 18.9825 12.8766C16.7447 14.7959 14.8121 16.4537 10.781 16.4537C6.74994 16.4537 4.81752 14.796 2.57986 12.8766C1.92486 12.3148 0.938455 12.3902 0.37658 13.0452C-0.185295 13.7002 -0.109748 14.6867 0.545252 15.2485Z" fill="#67C08F"></path><path d="M0.545252 6.70211C2.91142 8.7318 5.5933 11.0323 10.781 11.0323C15.9687 11.0323 18.6507 8.7318 21.017 6.70211C23.2549 4.78273 25.1874 3.125 29.2186 3.125C33.2496 3.125 35.1823 4.78266 37.4202 6.70211C38.0753 7.26406 39.0616 7.18836 39.6234 6.53328C40.1853 5.87828 40.1096 4.89172 39.4546 4.33C37.0882 2.30031 34.4062 0 29.2186 0C24.0309 0 21.3488 2.30047 18.9825 4.33016C16.7447 6.24953 14.8121 7.90727 10.781 7.90727C6.75002 7.90727 4.81752 6.24961 2.57986 4.33016C1.92486 3.76828 0.938377 3.84375 0.37658 4.49883C-0.185295 5.15383 -0.109748 6.14031 0.545252 6.70211ZM39.4547 21.4229C37.0884 19.3933 34.4063 17.0927 29.2186 17.0927C24.0309 17.0927 21.3488 19.3932 18.9825 21.4229C16.7447 23.3423 14.8121 25 10.781 25C6.75017 25 4.8176 23.3423 2.57994 21.423L2.57978 21.4229C1.92478 20.8613 0.938455 20.9367 0.37658 21.5916C-0.185217 22.2466 -0.10967 23.2331 0.54533 23.7949C2.91158 25.8246 5.59353 28.125 10.781 28.125C15.9687 28.125 18.6507 25.8245 21.017 23.7948C23.2549 21.8755 25.1875 20.2177 29.2186 20.2177C33.2498 20.2177 35.1824 21.8755 37.4202 23.7948C38.0753 24.3566 39.0617 24.2812 39.6235 23.6262C40.1853 22.9711 40.1098 21.9847 39.4547 21.4229Z" fill="#67C08F"></path></svg>