<svg xmlns="http://www.w3.org/2000/svg" width="40" height="40" viewBox="0 0 40 40" fill="none"><path fill-rule="evenodd" clip-rule="evenodd" d="M20 3.63636C17.8511 3.63636 15.7232 4.05962 13.7379 4.88197C11.7526 5.70432 9.94867 6.90966 8.42916 8.42916C6.90966 9.94867 5.70432 11.7526 4.88197 13.7379C4.05962 15.7232 3.63636 17.8511 3.63636 20C3.63636 22.1489 4.05962 24.2768 4.88197 26.2621C5.70432 28.2474 6.90966 30.0513 8.42916 31.5708C9.94867 33.0903 11.7526 34.2957 13.7379 35.118C15.7232 35.9404 17.8511 36.3636 20 36.3636C24.3399 36.3636 28.5021 34.6396 31.5708 31.5708C34.6396 28.5021 36.3636 24.3399 36.3636 20C36.3636 15.6601 34.6396 11.4979 31.5708 8.42916C28.5021 5.36038 24.3399 3.63636 20 3.63636ZM0 20C0 8.95455 8.95455 0 20 0C31.0455 0 40 8.95455 40 20C40 31.0455 31.0455 40 20 40C8.95455 40 0 31.0455 0 20ZM10.9091 15.4545C10.9091 14.7312 11.1964 14.0375 11.7079 13.5261C12.2194 13.0146 12.913 12.7273 13.6364 12.7273C14.3597 12.7273 15.0534 13.0146 15.5648 13.5261C16.0763 14.0375 16.3636 14.7312 16.3636 15.4545C16.3636 16.1779 16.0763 16.8716 15.5648 17.383C15.0534 17.8945 14.3597 18.1818 13.6364 18.1818C12.913 18.1818 12.2194 17.8945 11.7079 17.383C11.1964 16.8716 10.9091 16.1779 10.9091 15.4545ZM23.6364 15.4545C23.6364 14.7312 23.9237 14.0375 24.4352 13.5261C24.9466 13.0146 25.6403 12.7273 26.3636 12.7273C27.087 12.7273 27.7806 13.0146 28.2921 13.5261C28.8036 14.0375 29.0909 14.7312 29.0909 15.4545C29.0909 16.1779 28.8036 16.8716 28.2921 17.383C27.7806 17.8945 27.087 18.1818 26.3636 18.1818C25.6403 18.1818 24.9466 17.8945 24.4352 17.383C23.9237 16.8716 23.6364 16.1779 23.6364 15.4545ZM11.9145 23.8291C12.3457 23.6138 12.8447 23.5784 13.3018 23.7308C13.759 23.8832 14.137 24.2109 14.3527 24.6418C14.6655 25.2655 16.3545 27.2727 20 27.2727C23.6455 27.2727 25.3345 25.2655 25.6473 24.6418C25.7494 24.4208 25.8949 24.2225 26.0751 24.0587C26.2553 23.895 26.4665 23.7691 26.6963 23.6885C26.9261 23.6079 27.1697 23.5744 27.4127 23.5897C27.6557 23.6051 27.8932 23.6692 28.111 23.7781C28.3288 23.887 28.5225 24.0385 28.6806 24.2237C28.8387 24.4088 28.958 24.6239 29.0314 24.8561C29.1048 25.0882 29.1309 25.3328 29.108 25.5752C29.0851 25.8176 29.0138 26.053 28.8982 26.2673C28 28.0673 25.0818 30.9091 20 30.9091C14.9182 30.9091 12 28.0673 11.1018 26.2673C10.8865 25.8361 10.8512 25.3372 11.0036 24.88C11.156 24.4228 11.4836 24.0448 11.9145 23.8291Z" fill="#67C08F"></path></svg>