<svg xmlns="http://www.w3.org/2000/svg" width="40" height="40" viewBox="0 0 40 40" fill="none"><path d="M36.7273 14.5455C36 14.5455 35.2727 14.1818 35.0909 13.4545C32.3636 7.45455 26.5455 3.63636 20 3.63636C13.4545 3.63636 7.63636 7.45455 4.90909 13.4545C4.54545 14.3636 3.45455 14.7273 2.54545 14.3636C1.63636 14 1.27273 12.9091 1.63636 12C4.90909 4.72727 12 0 20 0C28 0 35.0909 4.72727 38.3636 12C38.7273 12.9091 38.3636 14 37.4545 14.3636C37.0909 14.5455 36.9091 14.5455 36.7273 14.5455Z" fill="#67C08F"></path><path d="M20 40C18.9091 40 18.1818 39.2727 18.1818 38.1818C18.1818 33.8182 16.3636 29.6364 13.2727 26.5455C13.0909 26.1818 12.7273 25.8182 12.7273 25.4545V24C12.7273 18.5455 14.9091 13.4545 18.7273 9.63636C19.4545 8.90909 20.5455 8.90909 21.2727 9.63636C25.0909 13.4545 27.2727 18.5455 27.2727 24V25.4545C27.2727 25.8182 27.0909 26.3636 26.7273 26.5455C23.6364 29.6364 21.8182 33.8182 21.8182 38.1818C21.8182 39.2727 21.0909 40 20 40ZM16.3636 24.5455C17.8182 26.1818 19.0909 28 20 29.8182C20.9091 27.8182 22.1818 26 23.6364 24.5455V24C23.6364 20.1818 22.3636 16.5455 20 13.6364C17.6364 16.5455 16.3636 20.1818 16.3636 24V24.5455Z" fill="#67C08F"></path><path d="M20 40C8.90909 40 0 31.0909 0 20C0 18.9091 0.727273 18.1818 1.81818 18.1818C7.09091 18.1818 12.1818 20.1818 15.8182 24C19.6364 27.8182 21.8182 32.7273 21.8182 38.1818C21.8182 39.2727 21.0909 40 20 40ZM3.81818 22C4.72727 29.4545 10.7273 35.4545 18.1818 36.3636C17.8182 32.7273 16.1818 29.2727 13.4545 26.7273C10.7273 24 7.27273 22.3636 3.81818 22Z" fill="#67C08F"></path><path d="M20 40C18.9091 40 18.1818 39.2727 18.1818 38.1818C18.1818 32.7273 20.3636 27.8182 24.1818 24C28 20.3636 32.9091 18.1818 38.1818 18.1818C39.2727 18.1818 40 18.9091 40 20C40 31.0909 31.0909 40 20 40ZM36.1818 22C32.5455 22.3636 29.2727 24 26.5455 26.5455C23.8182 29.2727 22.1818 32.5455 21.8182 36.1818C29.4545 35.4545 35.4545 29.4545 36.1818 22Z" fill="#67C08F"></path></svg>