<svg xmlns="http://www.w3.org/2000/svg" width="86" height="18" viewBox="0 0 86 18" fill="none"><path d="M39.3238 6.847V17.2201H37.0496V0.995352L47.196 11.8364V1.38967H49.4471V17.6881L39.3238 6.847Z" fill="#0A0A0A"></path><path d="M62.7798 0.75C58.3455 0.75 54.7471 4.60553 54.7471 9.33732C54.7471 14.0691 58.3405 17.9089 62.7798 17.9089C67.2191 17.9089 70.8142 14.0533 70.8142 9.33031C70.819 8.20829 70.6149 7.09627 70.2137 6.05777C69.8125 5.01926 69.222 4.07463 68.4759 3.27782C67.7298 2.48102 66.8427 1.84766 65.8654 1.41393C64.888 0.980199 63.8395 0.754593 62.7798 0.75ZM62.7798 15.4711C59.6349 15.4711 57.0859 12.7214 57.0859 9.33732C57.0859 5.95322 59.6349 3.18424 62.7798 3.18424C65.9247 3.18424 68.4638 5.93744 68.4638 9.33732C68.473 10.1358 68.333 10.9283 68.052 11.6694C67.7709 12.4104 67.3543 13.0853 66.8261 13.6553C66.2979 14.2253 65.6685 14.6792 64.9741 14.9908C64.2797 15.3024 63.534 15.4656 62.7798 15.4711Z" fill="#0A0A0A"></path><path d="M23.7169 0.75C19.2875 0.75 15.6875 4.60553 15.6875 9.33732C15.6875 14.0691 19.2875 17.9089 23.7169 17.9089C28.1462 17.9089 31.7496 14.0533 31.7496 9.33031C31.7496 4.60728 28.133 0.75 23.7169 0.75ZM23.7169 15.4711C20.5869 15.4711 18.0329 12.7214 18.0329 9.33732C18.0329 5.95322 20.5869 3.18424 23.7169 3.18424C26.8469 3.18424 29.4108 5.93744 29.4108 9.33732C29.4108 12.7372 26.8618 15.4711 23.7169 15.4711Z" fill="#0A0A0A"></path><path d="M5.82076 10.5641C4.28804 10.0383 3.28995 9.52659 2.53021 8.91146C1.43943 8.0352 0.875 6.89607 0.875 5.54313C0.886848 4.90074 1.02757 4.26837 1.28782 3.68795C1.54808 3.10753 1.92192 2.59234 2.38455 2.17655C3.35781 1.27575 4.70681 0.774535 6.17167 0.774535C7.0935 0.774917 8.00517 0.978454 8.84867 1.3722C9.69217 1.76594 10.449 2.34126 11.0711 3.06157L9.21063 4.41276C8.33191 3.71649 7.269 3.32971 6.17167 3.30692C4.3377 3.30692 3.22374 4.46183 3.22374 5.58519C3.22374 6.37207 3.61768 7.23255 6.52092 8.21396C8.02881 8.73971 9.05173 9.22166 9.81809 9.86132C10.9089 10.7463 11.4733 11.8767 11.4733 13.2297C11.4618 13.8722 11.3214 14.5048 11.0614 15.0855C10.8015 15.6662 10.4279 16.1818 9.96541 16.598C8.99049 17.5075 7.64811 18 6.17994 18C5.25888 17.9997 4.3479 17.797 3.50458 17.4049C2.66126 17.0127 1.90396 16.4396 1.28053 15.7217L3.13933 14.3688C4.01594 15.0638 5.07673 15.4494 6.17167 15.4711C8.0255 15.4711 9.11794 14.3197 9.11794 13.1929C9.11794 12.4025 8.72234 11.542 5.82076 10.5641Z" fill="#0A0A0A"></path><path d="M79.9791 10.5641C78.448 10.0471 77.4483 9.53185 76.6819 8.91672C75.5911 8.04046 75.035 6.90133 75.035 5.54838C75.0465 4.90611 75.1869 4.27379 75.4469 3.69336C75.7069 3.11294 76.0805 2.59769 76.5429 2.1818C77.5178 1.27225 78.8602 0.779793 80.3283 0.779793C81.2501 0.78071 82.1616 0.984488 83.005 1.3782C83.8484 1.7719 84.6054 2.34694 85.2277 3.06682L83.3689 4.41276C82.4892 3.71482 81.4242 3.32791 80.325 3.30692C78.4679 3.30692 77.3754 4.46183 77.3754 5.58519C77.3754 6.37207 77.771 7.23255 80.6726 8.21396C82.1822 8.73971 83.2034 9.22166 83.9698 9.86132C85.0606 10.7463 85.625 11.8767 85.625 13.2297C85.6132 13.8723 85.4725 14.5049 85.2122 15.0856C84.952 15.6663 84.5781 16.1819 84.1154 16.598C83.1405 17.5075 81.7982 18 80.3316 18C79.4105 18.0002 78.4994 17.7978 77.656 17.4056C76.8126 17.0134 76.0553 16.44 75.4322 15.7217L77.2894 14.3688C78.1672 15.0638 79.2291 15.4494 80.325 15.4711C82.1822 15.4711 83.2729 14.3162 83.2729 13.1929C83.2763 12.4025 82.8823 11.542 79.9791 10.5641Z" fill="#0A0A0A"></path></svg>