<svg xmlns="http://www.w3.org/2000/svg" width="80" height="28" viewBox="0 0 80 28" fill="none"><path id="Vector" d="M8.75106 27.9886C6.38725 27.8956 4.45331 27.2551 2.94112 26.0654C2.65252 25.8381 1.96483 25.1567 1.73412 24.8693C1.12091 24.1057 0.704001 23.3625 0.42593 22.538C-0.429735 19.9999 0.010645 16.6693 1.68555 13.0141C3.11962 9.8847 5.33245 6.781 9.19306 2.4824C9.76175 1.84987 11.4553 0 11.4662 0C11.4702 0 11.378 0.158332 11.2618 0.351135C10.258 2.01622 9.39908 3.97753 8.93118 5.67549C8.17954 8.39999 8.2702 10.7381 9.1967 12.5511C9.83582 13.8001 10.9315 14.882 12.1636 15.48C14.3206 16.5266 17.4785 16.6132 21.3351 15.7334C21.6006 15.6724 34.7578 12.2136 50.5734 8.04685C66.3891 3.87973 79.3313 0.472991 79.3333 0.475797C79.3378 0.479404 42.5891 16.052 23.5123 24.1309C20.4912 25.41 19.6833 25.7331 18.263 26.2269C14.6322 27.4896 11.38 28.092 8.75106 27.9886Z" fill="black"></path></svg>