<svg xmlns="http://www.w3.org/2000/svg" width="151" height="28" viewBox="0 0 151 28" fill="none"><rect width="151" height="28" fill="#E1E1E1"></rect><g id="Baby"><rect width="1920" height="4727" transform="translate(-241 -4099)" fill="white"></rect><g id="Group 682"><path id="Vector" d="M134.893 24.1135V15.3759H148.316V11.8865H134.893V3.91489H150.609V0.397163H131.062V27.6312H151V24.1135H134.893ZM95.1859 22.922L82.7144 0.397163H77.3456V27.6312H81.1765V5.10638L93.648 27.6312H99.0169V0.397163H95.1859V22.922ZM55.7022 15.3759H69.1244V11.8865H55.7022V3.91489H71.4174V0.397163H51.8713V27.6312H71.8089V24.1135H55.7022V15.3759ZM115.151 3.51773H115.543C118.815 3.51773 121.247 5.47518 121.443 8.56738H125.274C125.078 3.31915 121.275 0 115.347 0C109.559 0 105.756 3.48936 105.756 7.77305C105.756 12.0567 108.245 14.5532 112.551 15.4326L116.857 16.3404C119.681 16.9362 121.08 18.2128 121.08 20.4255C121.08 22.6383 119.122 24.5106 115.515 24.5106H115.124C111.097 24.5106 108.273 22.5532 108.273 18.8652H104.442C104.637 24.8794 108.664 28 114.984 28C120.912 28 124.911 25.0496 124.911 20.2553C124.911 15.8298 122.226 13.3333 117.584 12.3972L113.278 11.5461C111.013 11.0922 109.587 9.84397 109.587 7.74468C109.587 5.33333 111.824 3.51773 115.151 3.51773ZM35.9324 3.51773H36.3239C39.5956 3.51773 42.0283 5.47518 42.2241 8.56738H46.055C45.8593 3.31915 42.0563 0 36.1002 0C30.3119 0 26.5089 3.48936 26.5089 7.77305C26.5089 12.0567 28.9976 14.5532 33.3039 15.4326L37.6102 16.3404C40.4344 16.9362 41.8326 18.2128 41.8326 20.4255C41.8326 22.6383 39.8752 24.5106 36.268 24.5106H35.8765C31.8498 24.5106 29.0256 22.5532 29.0256 18.8652H25.1946C25.3904 24.8794 29.417 28 35.7367 28C41.6648 28 45.6635 25.0496 45.6635 20.2553C45.6635 15.8298 42.9791 13.3333 38.3372 12.3972L34.0309 11.5461C31.7659 11.0922 30.3398 9.84397 30.3398 7.74468C30.3678 5.33333 32.5769 3.51773 35.9324 3.51773ZM10.7378 3.51773H11.1293C14.4009 3.51773 16.8337 5.47518 17.0294 8.56738H20.8604C20.6646 3.31915 16.8617 0 10.9335 0C5.14518 0 1.34222 3.51773 1.34222 7.80142C1.34222 12.0851 3.83093 14.5816 8.13722 15.461L12.4435 16.3688C15.2678 16.9645 16.6659 18.2411 16.6659 20.4539C16.6659 22.6667 14.6806 24.5106 11.0733 24.5106H10.6819C6.65519 24.5106 3.83093 22.5532 3.83093 18.8652H0C0.195741 24.8794 4.22241 28 10.542 28C16.4702 28 20.4689 25.0496 20.4689 20.2553C20.4689 15.8298 17.7844 13.3333 13.1426 12.3972L8.8363 11.5461C6.5713 11.0922 5.14518 9.84397 5.14518 7.74468C5.17315 5.33333 7.41019 3.51773 10.7378 3.51773Z" fill="black"></path></g></g></svg>