<svg xmlns="http://www.w3.org/2000/svg" width="211" height="28" viewBox="0 0 211 28" fill="none"><path d="M156.816 27.3262L150.288 15.8743C153.18 14.4899 155.021 11.5707 155.024 8.365C155.024 3.75702 151.274 0.00788407 146.665 0.00788407H132.705V27.3251H138.913V16.7221H143.854L149.898 27.3262H156.816ZM138.811 5.29441H145.502L145.476 5.30493C147.513 5.41425 148.811 6.59476 148.811 8.37761C148.811 10.141 147.42 11.3767 145.348 11.4503H138.811V5.29441ZM107.351 27.3262V0.00788407H127.761V5.2203H113.727V10.6855H126.032V16.0141H113.727V21.8415H128.456V27.3262H107.351ZM78.2394 27.3262L71.7119 15.8743C74.6027 14.4899 76.4439 11.5701 76.4465 8.365C76.4465 3.75702 72.6974 0.00788407 68.0894 0.00788407H54.1278V27.3251H60.3368V16.7221H65.2795L71.3219 27.3262H78.2394ZM60.2332 5.29441H66.9252L66.8989 5.30493C68.9357 5.41425 70.2344 6.59476 70.2344 8.37761C70.2344 10.141 68.8437 11.3767 66.7707 11.4503H60.2332V5.29441ZM37.5828 27.9995C45.0522 27.9995 49.513 23.7048 49.513 16.5124V0.027857H43.1374V16.0861C43.1374 19.9751 41.1128 22.2057 37.5833 22.2057H37.5797C34.0502 22.2057 32.0267 19.9756 32.0267 16.0861V0.027857H25.6484V16.5134C25.6484 23.7053 30.1092 28 37.5797 28L37.5828 27.9995ZM17.3097 12.1961C20.989 13.4507 22.7823 16.5807 22.7823 19.5987C22.7823 23.8509 19.3296 27.3125 15.0812 27.3262H0V0.00578165H13.8901C17.5058 0.0394203 20.4208 2.97807 20.425 6.59423C20.4297 8.87536 19.2503 10.9956 17.3097 12.1951V12.1961ZM6.2589 22.2289H13.2295C15.4207 22.2289 16.5671 20.5948 16.5671 18.9791C16.5671 17.6777 15.5321 15.8454 13.2295 15.8454H6.2589V22.2289ZM11.363 10.7497C12.9682 10.7497 14.2276 9.50976 14.2276 7.92664C14.2276 6.39608 12.9136 5.10362 11.362 5.10362H6.2589V10.7497H11.363ZM98.4546 12.1909C102.134 13.4444 103.927 16.5755 103.927 19.5935C103.927 23.8461 100.475 27.3062 96.2261 27.3209L81.1454 27.3199V0.000525604L95.0335 0C98.6502 0.0341643 101.565 2.97334 101.569 6.59003C101.574 8.87115 100.395 10.9909 98.4541 12.1898L98.4546 12.1909ZM87.4038 22.2236H94.3739C96.5651 22.2236 97.7114 20.5895 97.7114 18.9738C97.7114 17.6729 96.6755 15.8401 94.3739 15.8401H87.4038V22.2236ZM92.5064 10.7444C94.1137 10.7444 95.373 9.50451 95.373 7.92138C95.373 6.39082 94.059 5.09836 92.5064 5.09836H87.4038V10.7444H92.5064ZM183.833 27.3262L177.306 15.8743C180.197 14.4899 182.037 11.5701 182.04 8.365C182.04 3.75702 178.291 0.00788407 173.683 0.00788407H159.722V27.3251H165.931V16.7221H170.873L176.916 27.3262H183.833ZM165.827 5.29441H172.519L172.493 5.30493C174.53 5.41425 175.829 6.59476 175.829 8.37761C175.829 10.141 174.438 11.3767 172.365 11.4503H165.827V5.29441ZM192.905 27.3262V16.1944L182.068 0.00788407H190.029L196.268 9.39991L202.533 0.00788407H210.494L199.63 16.1944V27.3262H192.905Z" fill="black"></path></svg>