<svg xmlns="http://www.w3.org/2000/svg" width="145" height="28" viewBox="0 0 145 28" fill="none"><g id="Vector"><path d="M11.3841 0.0964609C10.4959 0.155877 9.69821 0.252017 9.01789 0.390655C8.31781 0.526405 7.66439 0.71171 7.06181 0.933738C6.44801 1.17421 5.87521 1.45846 5.36465 1.77386C1.80469 3.85583 0 8.01399 0 14.1367C0 16.6642 0.295597 18.8196 0.879735 20.5536C1.47233 22.3088 2.43409 23.8095 3.73387 25.0173C4.33641 25.5774 4.97567 26.0583 5.63053 26.4387C6.28535 26.8192 7.02934 27.1261 7.83831 27.3496C8.65442 27.5773 9.57797 27.7399 10.5793 27.8347C11.5906 27.9281 12.7801 27.9775 14.1251 27.9775H24.8699V11.6036H10.9146V16.4435H19.4601V23.1334H14.6908C13.5481 23.1334 12.5693 23.0867 11.7787 22.9934C11.0093 22.9057 10.3304 22.7487 9.75193 22.5309C9.19895 22.323 8.72935 22.0444 8.34182 21.6993C7.94584 21.3527 7.56396 20.893 7.1948 20.3288C6.90205 19.8776 6.66017 19.4236 6.47346 18.9823C6.28114 18.5297 6.1213 18.0262 5.99966 17.4788C5.88792 16.9569 5.79744 16.3374 5.74083 15.6359L5.71821 15.3262C5.6857 14.8637 5.6673 14.636 5.66305 14.1905C5.60932 10.0026 6.72524 7.19363 8.96557 5.85288C9.30924 5.64777 9.64164 5.47947 9.94995 5.35502C10.2484 5.23054 10.6034 5.1287 11.005 5.05514C11.4082 4.97736 11.9032 4.92504 12.4802 4.90102C13.0672 4.87132 13.8225 4.85857 14.7248 4.85857H24.8699V0.0172395H14.3316C13.2609 0.0172395 12.2666 0.044101 11.3841 0.0964609ZM28.6122 27.9771H34.022V0.0168386H28.6122V27.9771ZM43.1637 21.4783C42.7351 20.9932 42.4339 20.3369 42.2585 19.5307C42.0647 18.6595 41.9742 17.4234 41.9742 15.7445V0.0565295H36.5657V16.7685C36.5657 17.8137 36.6096 18.757 36.6944 19.5731C36.7793 20.4076 36.9094 21.1615 37.0834 21.8163C37.2616 22.4853 37.5105 23.0977 37.8259 23.6394C38.1385 24.1613 38.5232 24.6577 38.9617 25.1131C39.9658 26.1513 41.1864 26.8995 42.5951 27.3379C43.9642 27.7608 45.7647 27.9772 47.9371 27.9772H55.2253V23.1331H48.8126C46.09 23.1331 44.1835 22.5716 43.1637 21.4783ZM82.7198 13.7333C82.7198 11.394 82.4299 9.35875 81.8613 7.68275C81.2828 5.98551 80.3494 4.4722 79.0849 3.18934C78.4782 2.57129 77.8474 2.05503 77.2095 1.64489C76.5631 1.2319 75.8178 0.902346 74.9918 0.660472C74.18 0.424332 73.2196 0.255986 72.1377 0.159806C71.1122 0.0636257 69.8351 0.0169588 68.3472 0.0169588H57.2219V27.9773H68.7644C69.9214 27.9773 70.9142 27.9561 71.702 27.9165C72.521 27.8754 73.2536 27.7977 73.8815 27.686C74.5307 27.5699 75.1163 27.4115 75.6254 27.2206C76.1445 27.0226 76.6735 26.7666 77.184 26.4625C79.0198 25.4145 80.4201 23.7936 81.3436 21.6396C82.2559 19.5195 82.7198 16.859 82.7198 13.7333ZM77.0539 14.3401C77.0539 15.7587 76.9308 17.0585 76.6777 18.2027C76.4288 19.3158 76.0356 20.2578 75.5052 21.0187C74.9338 21.9239 74.1488 22.5858 73.1744 22.9988C72.1716 23.4202 70.8421 23.6338 69.2269 23.6338H62.6332V4.35758H68.937C70.555 4.35758 71.859 4.52729 72.8052 4.86105C73.7118 5.18355 74.4656 5.71958 75.0399 6.44797C75.6593 7.26688 76.1586 8.36159 76.5179 9.70382C76.8757 11.0701 77.0539 12.6302 77.0539 14.3401ZM95.0498 0.0142727C94.767 0.0142727 94.0244 0.0736887 93.2508 0.637981C92.3597 1.28578 91.8322 2.47807 91.6794 2.94767L81.0181 27.9774H86.7193L88.954 22.6297C89.2241 21.9678 89.6145 21.2875 89.7573 21.1631C89.9723 20.9962 90.2595 20.9085 90.6215 20.9085C90.7545 20.9085 90.8648 20.9198 90.9525 20.9282L90.9793 20.9325L102.24 20.9269L104.465 26.4669C104.592 26.7483 104.837 27.2632 105.161 27.5502C105.506 27.8614 106.034 28 106.871 28C107.036 28 107.162 27.9929 107.167 27.9929L110.767 27.9661L99.3523 0.0171192L95.0498 0.0142727ZM100.448 16.5834H91.4065L95.1531 7.59804L95.4869 6.76072C95.6579 6.32804 95.8333 5.89711 96.013 5.468L100.448 16.5834ZM132.046 19.6581L120.38 2.79901L120.344 2.75511C120.332 2.73955 119.078 1.27712 118.341 0.619418C118.047 0.364835 117.474 0.0310712 115.905 0.0310712C115.645 0.0310712 115.48 0.0338776 115.367 0.0452236L112.545 0V27.9759H117.75V8.41114L129.311 24.9491C129.709 25.5955 130.721 27.1357 131.506 27.5473C132.291 27.9561 133.317 27.9759 133.517 27.9759H137.244V0.0169588H132.046V19.6581ZM142.988 2.11913C142.988 1.52654 142.628 1.28322 141.925 1.28322H140.819V4.19396H141.295V2.94935H141.749L142.494 4.19396H143.041L142.221 2.91544C142.661 2.86167 142.988 2.64241 142.988 2.11913ZM141.295 2.53777V1.69199H141.87C142.164 1.69199 142.514 1.73161 142.514 2.08662C142.514 2.50101 142.19 2.53777 141.826 2.53777H141.295Z" fill="black"></path><path d="M141.814 0.0564518C140.42 0.0564518 139.23 1.10874 139.23 2.68996C139.23 4.18635 140.304 5.31501 141.814 5.31501C143.195 5.31501 144.387 4.27122 144.387 2.68996C144.387 1.10874 143.195 0.0564518 141.814 0.0564518ZM141.814 4.86101C140.57 4.86101 139.789 3.8837 139.789 2.68996C139.789 1.41143 140.676 0.520354 141.814 0.520354C142.936 0.520354 143.834 1.41139 143.834 2.68996C143.834 3.97703 142.936 4.86101 141.814 4.86101Z" fill="black"></path></g></svg>