<svg xmlns="http://www.w3.org/2000/svg" width="180" height="28" viewBox="0 0 180 28" fill="none"><path id="Vector" d="M82.0005 23.4271C80.8779 23.6467 79.6596 23.5028 78.6839 22.8795C77.5447 22.1882 76.7852 20.9493 76.6406 19.6276C76.6225 19.3584 76.6216 19.0883 76.6379 18.819C76.8043 17.2994 77.944 15.9082 79.4482 15.5586C81.2965 17.5908 83.1445 19.6206 85.0032 21.6421C84.2445 22.5588 83.1642 23.194 82.0005 23.4271ZM90.3453 20.851C90.4087 20.0172 90.4682 19.1735 90.7371 18.3734C91.0528 17.3661 91.6109 16.3238 92.6055 15.8535C92.809 15.7925 93.0196 15.7483 93.2314 15.7292C93.2336 15.5376 93.2217 15.3433 93.2701 15.1551C93.2126 14.892 93.2933 14.6238 93.2653 14.3571C93.2266 13.9569 93.2316 13.5548 93.2428 13.1533C93.2723 12.6528 93.2021 12.1413 93.2701 11.6449C93.2406 11.5192 93.2314 11.3922 93.2288 11.2651C91.9935 11.2533 90.7608 11.5972 89.6976 12.2212C88.0951 13.1618 86.8828 14.7655 86.4596 16.5822C84.0695 14.0041 81.7253 11.3844 79.3417 8.80217C78.8347 8.23143 78.6102 7.44117 78.7078 6.68864C78.8587 5.87519 79.3719 5.12482 80.122 4.75367C80.6226 4.47848 81.2122 4.4363 81.7694 4.50651C82.628 4.64761 83.3707 5.25824 83.7229 6.04864C85.0494 5.35998 86.4048 4.72349 87.7259 4.01947C87.4969 3.59051 87.2582 3.16371 86.9578 2.78044C85.6385 1.03697 83.4744 -0.0509872 81.281 0.00184085C78.7441 -0.0412841 76.2756 1.45044 75.0811 3.67892C74.3244 5.05124 74.0435 6.67974 74.3042 8.22456C74.5335 9.6648 75.225 11.0265 76.2525 12.059C75.0628 12.7637 74.0437 13.7605 73.3306 14.9467C72.5107 16.2978 72.1029 17.889 72.1498 19.4668C72.1998 21.023 72.6602 22.5693 73.4948 23.8854C74.7399 25.8894 76.8302 27.3436 79.1429 27.8161C80.3208 28.0618 81.5435 28.0476 82.729 27.8546C84.7485 27.4819 86.6231 26.4523 88.0529 24.9817C88.6489 25.6682 89.2772 26.3259 89.8855 27.0018C91.9085 26.9983 93.9321 27.0102 95.9557 26.9962C94.0775 24.9558 92.2124 22.9027 90.3453 20.851ZM9.99068 14.4918C9.23262 15.3011 8.16299 15.7643 7.06936 15.8872C6.28328 15.9202 5.49638 15.8956 4.70962 15.9027V5.04423C5.63263 5.06741 6.57316 4.96418 7.47784 5.19368C8.57079 5.4337 9.5857 6.03246 10.2917 6.90359C12.0437 9.04919 11.9097 12.4935 9.99068 14.4918ZM15.8902 8.1088C15.3883 5.92021 14.1417 3.88605 12.3316 2.54028C10.6 1.23508 8.41918 0.600604 6.26441 0.590766C4.17608 0.59144 2.08802 0.590766 0.000505371 0.590766C-0.000168457 9.3954 -0.000168457 18.1979 0.000505371 27.002H4.70962C4.70962 24.798 4.70881 22.5933 4.70962 20.39C5.83612 20.3683 6.97247 20.4547 8.09129 20.2862C9.92545 20.0285 11.6761 19.1946 13.0145 17.9137C14.8092 16.2242 15.8979 13.8427 16.1218 11.3994C16.178 10.2981 16.1604 9.18396 15.8902 8.1088ZM34.7041 0.591305C36.2875 0.590632 37.8711 0.592653 39.4545 0.590632C39.4651 0.737256 39.4743 0.884016 39.4783 1.03131C39.4749 1.32335 39.4762 1.61539 39.475 1.90877C39.4755 2.20081 39.4776 2.49352 39.475 2.7861C39.475 3.21155 39.4776 3.63687 39.475 4.06219C39.4755 4.19561 39.4755 4.32903 39.4763 4.46245C39.4574 5.10043 39.4853 5.73908 39.475 6.37787C39.482 7.256 39.4574 8.13319 39.475 9.01065C39.479 10.3681 39.4755 11.7248 39.475 13.081C39.4755 13.3196 39.475 13.5583 39.4776 13.799C39.4608 14.0917 39.4608 14.3851 39.4776 14.6778C39.475 14.8905 39.4755 15.1025 39.4755 15.3152C39.4441 16.2416 39.52 17.1696 39.4229 18.094C39.2861 19.693 38.8502 21.2792 38.0534 22.676C37.2385 24.122 36.0279 25.3411 34.5819 26.1561C32.9683 27.0714 31.099 27.4862 29.2523 27.4862C27.1978 27.5086 25.1083 27.0172 23.364 25.9069C21.6859 24.8519 20.3907 23.2284 19.6748 21.3846C19.081 19.8908 18.8522 18.2715 18.864 16.6713C18.8649 11.3115 18.864 5.95174 18.864 0.591305C20.4595 0.590632 22.055 0.590632 23.6504 0.590632C23.6512 6.0605 23.6504 11.529 23.6512 16.9977C23.6989 18.5313 24.0288 20.1512 25.0556 21.3425C25.8958 22.3391 27.1781 22.8705 28.4592 22.9707C29.7943 23.102 31.2198 22.9217 32.3723 22.1938C33.2981 21.6112 33.9334 20.6545 34.2688 19.6276C34.5264 18.8857 34.6212 18.101 34.685 17.3226C34.7265 15.4028 34.6913 13.4831 34.7026 11.562C34.7026 7.90665 34.7028 4.24817 34.7041 0.591305ZM57.4822 0.596157C59.0672 0.58578 60.652 0.593462 62.2354 0.590632C62.2368 7.87862 62.2354 15.1642 62.2369 22.45C64.9477 22.4535 67.6598 22.4423 70.3713 22.4549C70.3691 23.9696 70.37 25.4836 70.3713 26.9983C66.0743 27.0054 61.7786 27.0054 57.4829 26.9983C57.4829 18.1979 57.4829 9.39662 57.4822 0.596157ZM109.953 19.9505C109.834 20.5758 109.495 21.1656 108.988 21.555C108.386 22.0359 107.633 22.276 106.888 22.4093C105.457 22.6458 104.003 22.5237 102.56 22.5546C102.562 20.2636 102.559 17.9719 102.562 15.6815C103.638 15.6886 104.713 15.6627 105.789 15.6991C106.832 15.7643 107.921 15.9222 108.804 16.5168C109.43 16.9204 109.855 17.6048 109.967 18.3383C110.049 18.873 110.044 19.4174 109.953 19.9505ZM102.56 4.8968C103.618 4.91162 104.685 4.83912 105.735 5.02172C106.488 5.1608 107.256 5.45769 107.764 6.05564C108.245 6.62975 108.404 7.4033 108.386 8.13602C108.404 8.96779 108.128 9.84242 107.496 10.4074C106.83 10.9963 105.926 11.2244 105.059 11.2876C104.225 11.3058 103.394 11.2903 102.56 11.2953V4.8968ZM114.138 15.8276C113.491 14.4813 112.336 13.4109 111 12.7623C111.006 12.736 111.01 12.7096 111.014 12.683C111.989 11.8344 112.694 10.6755 112.966 9.40928C113.171 8.48911 113.124 7.53443 112.978 6.60872C112.79 5.7062 112.452 4.82941 111.939 4.06031C111.2 2.94472 110.143 2.0527 108.942 1.46742C107.977 1.0173 106.917 0.829301 105.868 0.702217C105.229 0.65734 104.592 0.605321 103.953 0.594001C101.913 0.586319 99.8703 0.593462 97.8278 0.590632V27.0018C100.828 26.987 103.829 27.0328 106.828 26.9787C108.956 26.8032 111.078 25.9834 112.617 24.4728C113.812 23.3358 114.619 21.7902 114.819 20.1492C114.966 18.6856 114.789 17.1592 114.138 15.8276ZM117.377 0.590632C122.787 0.590632 128.197 0.590632 133.606 0.591305C133.604 2.07588 133.613 3.56019 133.602 5.0449C129.775 5.04773 125.948 5.03574 122.121 5.05124C122.123 7.13071 122.123 9.21019 122.121 11.2897C125.753 11.3038 129.385 11.2918 133.017 11.2953C133.019 12.7575 133.017 14.2201 133.019 15.6802C129.387 15.685 125.755 15.6767 122.123 15.685C122.121 17.9719 122.124 20.2601 122.121 22.5476C125.948 22.5637 129.776 22.5497 133.606 22.5546C133.607 24.0377 133.606 25.5188 133.606 27.0018H117.377V0.590632ZM144.352 15.664C145.411 13.0094 146.477 10.3576 147.52 7.69749C148.577 10.3506 149.616 13.0114 150.681 15.6625C148.571 15.6693 146.462 15.6699 144.352 15.664ZM149.413 0.650872C149.386 0.511794 149.219 0.544137 149.123 0.53713C148.052 0.53996 146.982 0.53996 145.914 0.53713C145.812 0.548989 145.661 0.508425 145.611 0.621358C142.024 9.414 138.433 18.2061 134.848 26.9996C136.552 27.0052 138.256 27.0017 139.959 27.0017C140.851 24.7129 141.737 22.421 142.627 20.1314C145.886 20.1335 149.144 20.1314 152.402 20.1335C153.291 22.4232 154.171 24.7169 155.066 27.0031C156.882 26.9982 158.698 27.0066 160.515 26.9982C156.816 18.2153 153.113 9.43314 149.413 0.650872ZM173.21 10.4495C172.967 11.3093 172.392 12.0702 171.62 12.5229C170.501 13.1967 169.155 13.3617 167.871 13.3603C167.372 13.3582 166.875 13.3582 166.379 13.3582V5.04423C167.732 5.05043 169.107 4.96768 170.43 5.32427C170.999 5.49192 171.563 5.71024 172.044 6.06548C172.66 6.49714 173.091 7.16463 173.274 7.89115C173.479 8.72993 173.442 9.6206 173.21 10.4495ZM177.181 22.6887C176.067 20.5858 175.002 18.4541 174.03 16.2817C174.791 15.8535 175.498 15.3221 176.103 14.687C176.873 13.9057 177.42 12.9322 177.782 11.9004C178.529 9.57505 178.448 6.90143 177.228 4.74882C176.673 3.77582 175.874 2.94755 174.937 2.33342C173.527 1.39073 171.856 0.923233 170.19 0.700061C169.603 0.653702 169.018 0.584298 168.431 0.590632C166.162 0.593462 163.894 0.586993 161.625 0.594001C161.627 9.39608 161.627 18.1979 161.625 26.9997C163.212 27.0032 164.794 27.0054 166.379 26.9997V18.13C166.53 18.1278 166.683 18.1265 166.837 18.1193C167.226 18.0626 167.623 18.0891 168.014 18.0366C168.418 18.0029 168.815 17.9228 169.22 17.9018C169.389 18.344 169.606 18.7651 169.801 19.1947C171.031 21.8436 172.359 24.4459 173.783 26.9963C175.752 27.009 177.718 27.0033 179.687 26.9985C178.796 25.5946 177.968 24.1516 177.181 22.6887ZM42.6762 0.590632H47.4196C47.4196 7.87713 47.4183 15.1642 47.4196 22.45H55.5449C55.5449 23.9675 55.5456 25.4857 55.5449 27.0018H42.6762C42.6755 18.1992 42.6762 9.3954 42.6762 0.590632Z" fill="black"></path></svg>