<svg xmlns="http://www.w3.org/2000/svg" width="97" height="28" viewBox="0 0 97 28" fill="none"><path id="Vector" fill-rule="evenodd" clip-rule="evenodd" d="M66.802 20.5169C65.3523 22.0717 63.4906 22.8613 61.2695 22.8613C59.0475 22.8613 57.1858 22.0717 55.737 20.5169C54.3532 19.0359 53.5581 16.6677 53.5581 14.022C53.5581 11.4395 54.362 9.10378 55.7607 7.61225C57.2244 6.05747 59.0774 5.26427 61.2677 5.25813C63.4616 5.26427 65.3145 6.05747 66.7774 7.61225C68.1778 9.10378 68.98 11.4395 68.98 14.022C68.98 16.6677 68.1857 19.0359 66.802 20.5169ZM47.3499 14.022C47.3499 14.1414 47.3552 14.2591 47.3587 14.3768C45.1359 12.3539 41.922 11.6011 39.9584 11.2084C36.3254 10.4425 33.5499 9.7415 33.5499 7.15548C33.5499 5.33103 35.1841 4.00376 38.3233 4.23127C41.1919 4.43945 42.4 6.19275 42.7312 7.88455C42.7786 8.16213 42.9069 8.36416 43.2232 8.3668L48.3823 8.41072C48.4069 8.41072 48.428 8.40808 48.4499 8.40632C47.7225 10.1025 47.3499 11.9911 47.3499 14.022ZM38.5754 23.5105C36.0802 23.5105 33.3311 22.6242 32.6977 19.1949C32.6441 18.8672 32.4894 18.732 32.2382 18.7249L27.2504 18.6582V9.84339C27.9058 12.4268 30.0768 14.2152 34.772 15.2719C37.9147 16.0238 43.3664 16.5017 43.3664 19.7272C43.3664 21.9759 41.7103 23.5632 38.5754 23.5105ZM13.7324 22.8649C9.70844 22.8649 6.02187 19.6982 6.02187 14.0255C6.02187 9.5746 8.78592 5.26164 13.7587 5.26164C15.9131 5.26164 21.3753 5.9995 21.3753 14.0255C21.3753 22.0725 15.6723 22.8649 13.7315 22.8649H13.7324ZM75.0396 11.8602C76.1844 13.3869 78.2509 14.5174 81.608 15.2728C84.7498 16.0247 90.2024 16.5026 90.2024 19.7281C90.2024 21.9768 88.5453 23.5641 85.4114 23.5114C82.9171 23.5114 80.1662 22.625 79.5336 19.1958C79.4809 18.8681 79.3263 18.7328 79.0741 18.7258L74.4527 18.6643C74.9404 17.2264 75.189 15.669 75.189 14.0228C75.1888 13.2994 75.1389 12.5768 75.0396 11.8602ZM85.0705 28C90.6048 28 97.1274 25.9401 96.617 19.259C96.0529 13.328 89.8799 11.826 86.7943 11.2093C83.1605 10.4433 80.385 9.74238 80.385 7.15636C80.385 5.33191 82.0192 4.00464 85.1593 4.23215C88.0279 4.44033 89.2359 6.19363 89.5672 7.88543C89.6146 8.16301 89.7437 8.36504 90.0592 8.36767L95.2183 8.4116C95.611 8.41423 95.7331 8.21044 95.6839 7.93111C94.6735 1.7489 89.5074 0 84.7533 0C80.0063 0 74.2867 1.33342 73.8808 7.23717C73.8667 7.46555 73.8615 7.69043 73.8615 7.9109C73.1059 6.34032 72.0164 4.89798 70.6124 3.62078C68.0206 1.28423 64.7891 0.0325009 61.2651 0.00175681H61.1482C59.4648 0.00175681 57.8175 0.311833 56.251 0.926716C54.6586 1.5564 53.1935 2.46915 51.9265 3.62078C50.5972 4.82946 49.5473 6.18572 48.797 7.6588C47.6794 1.70059 42.5994 0 37.9165 0C33.5587 0 28.3803 1.12699 27.2504 5.88531V1.16213C27.2502 1.04114 27.2019 0.925182 27.1163 0.839711C27.0306 0.75424 26.9146 0.706236 26.7935 0.706237H21.9349C21.8139 0.706469 21.6979 0.754696 21.6124 0.840332C21.5269 0.925967 21.4789 1.04202 21.4789 1.16301V2.43669C21.4789 2.65102 21.3357 2.72569 21.1609 2.60095C19.4327 1.34747 16.876 0.00263521 13.7992 0.00263521C12.0701 0.00263521 10.4192 0.306563 8.89135 0.905634C7.3626 1.50646 5.90941 2.42088 4.57571 3.62429C3.0575 5.00515 1.90127 6.57924 1.14305 8.30267C0.384823 10.0261 0 11.9516 0 14.0246C0 15.9597 0.340894 17.7745 1.01214 19.4145C1.68338 21.0545 2.70518 22.5715 4.05031 23.9242C5.39455 25.2769 6.8987 26.3047 8.51795 26.9811C10.1372 27.6548 11.9216 27.9965 13.8246 27.9965C17.0948 27.9965 19.5487 26.6042 21.1565 25.3384C21.334 25.2032 21.4789 25.2761 21.4789 25.4974V26.8352C21.4789 27.0865 21.6845 27.292 21.9358 27.292H26.7944C26.9154 27.2915 27.0312 27.2432 27.1166 27.1577C27.2021 27.0721 27.2502 26.9562 27.2504 26.8352V22.329C29.5409 27.7136 35.3774 27.9991 38.2346 27.9991C43.0106 27.9991 48.5185 26.4619 49.6114 21.7466C50.1369 22.527 50.7362 23.2551 51.4011 23.9207C54.0053 26.541 57.4177 27.9499 61.2739 27.9921H61.432C63.263 27.9921 65.0298 27.6407 66.6834 26.9459C68.3527 26.2402 69.8664 25.2122 71.1378 23.9207C72.0889 22.9727 72.9011 21.8951 73.5504 20.7198C75.2821 27.6618 81.9524 28 85.0705 28Z" fill="black"></path></svg>