<svg xmlns="http://www.w3.org/2000/svg" width="31" height="32" viewBox="0 0 31 32"><path fill="#7f9aff" d="M27.194 20.273l2.956-2.956c0.15-0.15 0.269-0.328 0.35-0.524s0.123-0.406 0.123-0.618c0-0.212-0.042-0.422-0.123-0.618s-0.2-0.374-0.35-0.524l-2.956-2.956c-0.303-0.303-0.473-0.714-0.474-1.142v-4.177c0-0.429-0.17-0.84-0.473-1.143s-0.714-0.473-1.143-0.473h-4.179c-0.428-0-0.839-0.171-1.142-0.473l-2.956-2.956c-0.15-0.15-0.328-0.269-0.524-0.35s-0.406-0.123-0.618-0.123-0.422 0.042-0.618 0.123c-0.196 0.081-0.374 0.2-0.524 0.35l-2.952 2.958c-0.303 0.303-0.714 0.473-1.142 0.473h-4.179c-0.429 0-0.84 0.17-1.143 0.473s-0.473 0.714-0.473 1.143v4.179c-0 0.428-0.171 0.839-0.474 1.142l-2.954 2.954c-0.15 0.15-0.269 0.328-0.35 0.524s-0.123 0.406-0.123 0.618c0 0.212 0.042 0.422 0.123 0.618s0.2 0.374 0.35 0.524l2.956 2.956c0.303 0.303 0.473 0.714 0.474 1.142v4.179c0 0.429 0.17 0.84 0.473 1.143s0.714 0.473 1.143 0.473h4.179c0.429 0 0.839 0.171 1.142 0.474l2.956 2.956c0.15 0.15 0.328 0.269 0.524 0.35s0.406 0.123 0.618 0.123c0.212 0 0.422-0.042 0.618-0.123s0.374-0.2 0.524-0.35l2.956-2.956c0.303-0.303 0.714-0.473 1.142-0.474h4.179c0.429 0 0.84-0.17 1.143-0.473s0.473-0.714 0.473-1.143v-4.179c-0.002-0.212 0.038-0.423 0.118-0.62s0.199-0.375 0.35-0.525z"></path><path fill="#5078ff" d="M27.249 25.798v-4.22c0-0.432 0.175-0.847 0.485-1.154l3.027-2.984c0.153-0.15 0.275-0.33 0.359-0.528s0.126-0.411 0.126-0.626-0.043-0.428-0.126-0.626c-0.083-0.198-0.205-0.378-0.359-0.528l-3.027-2.984c-0.153-0.151-0.275-0.33-0.358-0.528s-0.126-0.411-0.127-0.626v-4.22c0-0.9-0.74-1.631-1.654-1.631h-1.257l-0.071 0.227v5.513c0 1.244 0.517 2.435 1.432 3.294l2.204 2.069-2.447 2.676c-0.765 0.838-1.189 1.926-1.189 3.053v3.311h-3.968c-0.945 0-1.843 0.398-2.471 1.094l-1.896 2.105-2.649-2.636c-0.678-0.672-1.595-1.049-2.55-1.049h-5.726l-0.171 1.746c0.141 0.268 0.352 0.492 0.611 0.648s0.556 0.238 0.858 0.238h4.28c0.438 0 0.859 0.171 1.169 0.477l3.027 2.984c0.646 0.637 1.693 0.637 2.339 0l3.027-2.984c0.312-0.307 0.732-0.478 1.169-0.477h4.282c0.911 0 1.65-0.731 1.65-1.633z"></path><path fill="#211d38" d="M15.687 31.862c-0.607 0-1.212-0.231-1.674-0.692l-2.956-2.956c-0.080-0.081-0.175-0.145-0.28-0.188s-0.217-0.066-0.331-0.066h-4.177c-1.306 0-2.368-1.062-2.368-2.368v-4.179c0-0.227-0.092-0.449-0.254-0.611l-2.956-2.956c-0.923-0.923-0.923-2.424 0-3.347l2.956-2.956c0.16-0.162 0.254-0.383 0.254-0.611v-4.177c0-1.306 1.062-2.368 2.368-2.368h4.179c0.227 0 0.449-0.092 0.611-0.254l2.956-2.954c0.219-0.221 0.48-0.395 0.768-0.514s0.596-0.18 0.907-0.179c0.631 0 1.227 0.246 1.674 0.693l2.956 2.956c0.162 0.16 0.383 0.254 0.611 0.254h4.179c1.306 0 2.368 1.062 2.368 2.368v4.179c0 0.227 0.092 0.449 0.254 0.611l2.956 2.954c0.923 0.923 0.923 2.424 0 3.347l-2.956 2.956c-0.162 0.162-0.253 0.382-0.254 0.611v4.179c0 1.306-1.062 2.368-2.368 2.368h-4.179c-0.231 0-0.447 0.090-0.611 0.254l-2.956 2.956c-0.446 0.442-1.048 0.69-1.676 0.69zM6.269 5.895c-0.475 0-0.864 0.387-0.864 0.864v4.179c0 0.631-0.246 1.227-0.693 1.674l-2.954 2.952c-0.162 0.162-0.252 0.382-0.252 0.611s0.091 0.448 0.252 0.611l2.956 2.956c0.221 0.219 0.396 0.48 0.514 0.768s0.18 0.596 0.179 0.907v4.179c0 0.475 0.387 0.864 0.864 0.864h4.179c0.631 0 1.227 0.246 1.674 0.693l2.956 2.956c0.162 0.162 0.382 0.252 0.611 0.252s0.449-0.091 0.611-0.252l2.956-2.956c0.219-0.221 0.48-0.395 0.768-0.514s0.596-0.18 0.907-0.179h4.179c0.475 0 0.864-0.387 0.864-0.864v-4.179c0-0.631 0.246-1.227 0.693-1.674l2.956-2.956c0.162-0.162 0.252-0.382 0.252-0.611s-0.091-0.448-0.252-0.611l-2.956-2.956c-0.221-0.219-0.395-0.48-0.514-0.768s-0.18-0.596-0.179-0.907v-4.177c0-0.475-0.387-0.864-0.864-0.864h-4.179c-0.631 0-1.227-0.246-1.674-0.693l-2.956-2.956c-0.163-0.163-0.38-0.254-0.611-0.254s-0.447 0.090-0.611 0.254l-2.958 2.958c-0.219 0.221-0.48 0.395-0.768 0.514s-0.596 0.18-0.907 0.179l-4.179-0z"></path><path fill="#fff" d="M5.773 20.538c-0.12 0-0.24-0.045-0.333-0.137l-3.529-3.529c-0.092-0.091-0.165-0.2-0.214-0.32s-0.075-0.248-0.075-0.378c0-0.263 0.103-0.511 0.289-0.697l2.98-2.98c0.363-0.363 0.562-0.846 0.562-1.359v-0.567c0-0.125 0.050-0.244 0.138-0.332s0.208-0.138 0.332-0.138c0.125 0 0.244 0.050 0.332 0.138s0.138 0.208 0.138 0.332v0.569c0 0.763-0.297 1.483-0.838 2.022l-2.98 2.98c-0.009 0.009-0.013 0.021-0.013 0.032s0.004 0.024 0.013 0.032l3.529 3.529c0.066 0.066 0.111 0.149 0.129 0.24s0.009 0.186-0.026 0.271c-0.035 0.086-0.096 0.159-0.173 0.211s-0.168 0.079-0.261 0.080zM5.923 8.917c-0.062 0-0.123-0.012-0.18-0.036s-0.109-0.058-0.152-0.102c-0.044-0.044-0.078-0.095-0.102-0.152s-0.036-0.118-0.036-0.18v-1.52c0-0.543 0.442-0.986 0.986-0.986h4.213c0.513 0 0.996-0.199 1.359-0.562l0.569-0.569c0.184-0.184 0.481-0.184 0.665 0s0.184 0.481 0 0.665l-0.569 0.569c-0.539 0.541-1.259 0.838-2.022 0.838h-4.215c-0.026 0-0.047 0.021-0.047 0.047v1.52c0 0.257-0.21 0.468-0.47 0.468zM14.296 4.228c-0.093 0-0.184-0.027-0.262-0.079s-0.138-0.125-0.174-0.211-0.045-0.181-0.027-0.272c0.018-0.091 0.063-0.175 0.129-0.241l1.026-1.026c0.184-0.184 0.481-0.184 0.665 0s0.184 0.481 0 0.665l-1.026 1.026c-0.092 0.092-0.212 0.137-0.333 0.137z"></path><path fill="#211d38" d="M14.657 20.634h-0.004c-0.447-0.002-0.877-0.188-1.186-0.511l-3.302-3.472c-0.137-0.145-0.212-0.338-0.207-0.537s0.089-0.389 0.233-0.526c0.145-0.137 0.338-0.212 0.537-0.207s0.389 0.089 0.526 0.233l3.302 3.472c0.013 0.014 0.028 0.025 0.045 0.032s0.036 0.011 0.054 0.011c0.021-0.004 0.066-0.008 0.102-0.043l6.15-6.396c0.138-0.144 0.328-0.226 0.527-0.23s0.392 0.071 0.536 0.21c0.144 0.138 0.226 0.328 0.23 0.527s-0.072 0.392-0.21 0.536l-6.15 6.396c-0.153 0.16-0.338 0.287-0.541 0.374s-0.423 0.132-0.644 0.132z"></path></svg>