<svg xmlns="http://www.w3.org/2000/svg" width="35" height="40" viewBox="0 0 35 40" fill="none"><path d="M17.333 33.3327H6.66653C4.46124 33.3327 2.66661 31.538 2.66661 29.3327V6.66653C2.66661 4.46124 4.46124 2.66661 6.66653 2.66661H22.6662C24.8715 2.66661 26.6661 4.46124 26.6661 6.66653V13.4131C26.6661 13.7667 26.8066 14.1058 27.0566 14.3559C27.3067 14.6059 27.6458 14.7464 27.9994 14.7464C28.353 14.7464 28.6922 14.6059 28.9422 14.3559C29.1923 14.1058 29.3327 13.7667 29.3327 13.4131V6.66653C29.3327 2.99061 26.3421 0 22.6662 0H6.66653C2.99061 0 0 2.99061 0 6.66653V29.3327C0 33.0087 2.99061 35.9993 6.66653 35.9993H17.333C17.6866 35.9993 18.0257 35.8588 18.2758 35.6088C18.5258 35.3587 18.6663 35.0196 18.6663 34.666C18.6663 34.3123 18.5258 33.9732 18.2758 33.7232C18.0257 33.4731 17.6866 33.3327 17.333 33.3327Z" fill="currentColor"></path><path d="M7.99984 10.6665H17.333C17.6866 10.6665 18.0257 10.526 18.2758 10.2759C18.5258 10.0259 18.6663 9.68676 18.6663 9.33314C18.6663 8.97953 18.5258 8.6404 18.2758 8.39035C18.0257 8.14031 17.6866 7.99984 17.333 7.99984H7.99984C7.64622 7.99984 7.30709 8.14031 7.05705 8.39035C6.807 8.6404 6.66653 8.97953 6.66653 9.33314C6.66653 9.68676 6.807 10.0259 7.05705 10.2759C7.30709 10.526 7.64622 10.6665 7.99984 10.6665ZM20.4796 15.9997C20.4796 15.6461 20.3391 15.3069 20.0891 15.0569C19.839 14.8068 19.4999 14.6664 19.1463 14.6664H7.99984C7.64622 14.6664 7.30709 14.8068 7.05705 15.0569C6.807 15.3069 6.66653 15.6461 6.66653 15.9997C6.66653 16.3533 6.807 16.6924 7.05705 16.9425C7.30709 17.1925 7.64622 17.333 7.99984 17.333H19.1463C19.4999 17.333 19.839 17.1925 20.0891 16.9425C20.3391 16.6924 20.4796 16.3533 20.4796 15.9997ZM16.693 21.3329C16.693 20.9793 16.5525 20.6402 16.3025 20.3901C16.0524 20.1401 15.7133 19.9996 15.3597 19.9996H7.99984C7.64622 19.9996 7.30709 20.1401 7.05705 20.3901C6.807 20.6402 6.66653 20.9793 6.66653 21.3329C6.66653 21.6865 6.807 22.0256 7.05705 22.2757C7.30709 22.5257 7.64622 22.6662 7.99984 22.6662H15.3597C15.7133 22.6662 16.0524 22.5257 16.3025 22.2757C16.5525 22.0256 16.693 21.6865 16.693 21.3329ZM7.99984 25.3328C7.64622 25.3328 7.30709 25.4733 7.05705 25.7233C6.807 25.9734 6.66653 26.3125 6.66653 26.6661C6.66653 27.0197 6.807 27.3589 7.05705 27.6089C7.30709 27.859 7.64622 27.9994 7.99984 27.9994H14.7464C15.1 27.9994 15.4391 27.859 15.6892 27.6089C15.9392 27.3589 16.0797 27.0197 16.0797 26.6661C16.0797 26.3125 15.9392 25.9734 15.6892 25.7233C15.4391 25.4733 15.1 25.3328 14.7464 25.3328H7.99984ZM34.666 25.3328C34.666 20.9209 31.078 17.333 26.6661 17.333C22.2542 17.333 18.6663 20.9209 18.6663 25.3328C18.6663 27.6941 19.7009 29.8127 21.3329 31.2794V37.9952C21.3329 38.7339 21.7396 39.4112 22.3915 39.7605C23.0475 40.1125 23.8315 40.0739 24.4502 39.6619L26.6661 38.1739L28.8874 39.6645C29.1898 39.863 29.5401 39.9762 29.9015 39.9922C30.2628 40.0081 30.6218 39.9262 30.9405 39.7551C31.2591 39.5841 31.5257 39.3301 31.7121 39.0201C31.8985 38.7101 31.9977 38.3556 31.9993 37.9939V31.278C32.8376 30.5306 33.5084 29.6144 33.968 28.5897C34.4275 27.5649 34.6654 26.4559 34.666 25.3328ZM29.3327 36.7513L27.4101 35.4606C27.1904 35.3127 26.9316 35.2336 26.6668 35.2336C26.402 35.2336 26.1431 35.3127 25.9235 35.4606L24.0008 36.7513V32.866C24.8368 33.1633 25.7315 33.3327 26.6675 33.3327C27.6034 33.3327 28.4981 33.162 29.3341 32.866L29.3327 36.7513ZM26.6661 30.666C23.7248 30.666 21.3329 28.2741 21.3329 25.3328C21.3329 22.3915 23.7248 19.9996 26.6661 19.9996C29.6074 19.9996 31.9993 22.3915 31.9993 25.3328C31.9993 28.2741 29.6074 30.666 26.6661 30.666Z"></path></svg>