<svg xmlns="http://www.w3.org/2000/svg" width="40" height="40" viewBox="0 0 40 40" fill="none"><path d="M33.3282 18.4969C45.0922 3.87654 39.2002 -3.4337 29.1678 1.56943C16.7038 7.45361 -3.28072 30.4503 0.458686 37.8244C3.82012 44.2372 16.7062 34.3313 20.0625 31.6865C24.4212 28.2583 29.9401 22.8563 33.3282 18.4969ZM27.8263 4.96177C42.0668 -3.17576 38.0075 9.21276 31.861 16.5797H23.46V7.98112C24.9695 6.81809 26.4404 5.79701 27.8263 4.96177ZM19.2759 29.3156C14.5865 33.0599 10.287 36.0668 5.79187 37.3691C-3.01217 39.6766 6.98714 24.1684 12.1177 18.7536V26.7451C12.1177 27.3908 12.6416 27.9143 13.2877 27.9143H20.9459C20.3951 28.3884 19.8384 28.8555 19.2759 29.3156ZM23.5557 25.5759H14.4577V16.1844C16.6182 13.9057 18.8855 11.7601 21.1201 9.8721V17.7488C21.1201 18.3945 21.644 18.918 22.2901 18.918H29.9557C28.0546 21.1456 25.8849 23.4042 23.5557 25.5759ZM39.6062 21.4106C39.1494 20.954 38.4086 20.954 37.9516 21.4106L30.3922 28.9648C27.4082 27.8581 26.6236 29.4226 24.0561 31.9071C21.5809 34.2222 19.9052 35.9355 21.9568 38.7309C25.3091 41.824 27.5045 38.5016 29.2783 36.8125C31.6656 34.3903 33.1707 33.5008 32.0532 30.6118C39.3722 23.118 40.7458 22.7259 39.6062 21.4106ZM29.7173 33.067C29.491 33.2277 25.3093 37.6349 25.0963 37.5323C23.9392 37.9931 22.9593 36.6224 23.6338 35.6627C23.6824 35.5357 26.3482 32.9463 27.5255 31.7469C29.0815 29.8005 30.8453 31.8812 29.7173 33.067Z"></path></svg>