<svg xmlns="http://www.w3.org/2000/svg" width="49" height="40" viewBox="0 0 49 40" fill="none"><path d="M0 22.8571V25.7143H21.8578L13.2864 40H35.4755L26.9041 25.7143H48.7619V22.8571H0ZM18.3327 37.1429L24.381 27.0624L30.4292 37.1429H18.3327ZM14.2857 5.71429C14.2857 2.56343 11.7223 0 8.57143 0C5.42057 0 2.85714 2.56343 2.85714 5.71429C2.85714 8.86514 5.42057 11.4286 8.57143 11.4286C11.7223 11.4286 14.2857 8.86514 14.2857 5.71429ZM8.57143 8.57143C6.996 8.57143 5.71429 7.28971 5.71429 5.71429C5.71429 4.13886 6.996 2.85714 8.57143 2.85714C10.1469 2.85714 11.4286 4.13886 11.4286 5.71429C11.4286 7.28971 10.1469 8.57143 8.57143 8.57143ZM17.1429 15.7143C17.1429 13.3511 15.2203 11.4286 12.8571 11.4286H4.28571C1.92257 11.4286 0 13.3511 0 15.7143V20H17.1429V15.7143ZM14.2857 17.1429H2.85714V15.7143C2.85714 14.9266 3.498 14.2857 4.28571 14.2857H12.8571C13.6449 14.2857 14.2857 14.9266 14.2857 15.7143V17.1429ZM45.9048 5.71429C45.9048 2.56343 43.3413 0 40.1905 0C37.0396 0 34.4762 2.56343 34.4762 5.71429C34.4762 8.86514 37.0396 11.4286 40.1905 11.4286C43.3413 11.4286 45.9048 8.86514 45.9048 5.71429ZM40.1905 8.57143C38.615 8.57143 37.3333 7.28971 37.3333 5.71429C37.3333 4.13886 38.615 2.85714 40.1905 2.85714C41.7659 2.85714 43.0476 4.13886 43.0476 5.71429C43.0476 7.28971 41.7659 8.57143 40.1905 8.57143ZM44.4762 11.4286H35.9048C33.5416 11.4286 31.619 13.3511 31.619 15.7143V20H48.7619V15.7143C48.7619 13.3511 46.8393 11.4286 44.4762 11.4286ZM45.9048 17.1429H34.4762V15.7143C34.4762 14.9266 35.1171 14.2857 35.9048 14.2857H44.4762C45.2639 14.2857 45.9048 14.9266 45.9048 15.7143V17.1429Z" fill="currentColor"></path></svg>