<svg xmlns="http://www.w3.org/2000/svg" width="50" height="50" viewBox="0 0 50 50" fill="none" class="" style="--animation-order: 0;"><path d="M25.041 17.9938C25.5694 17.6887 26.1974 17.606 26.7868 17.7639C27.3762 17.9219 27.8787 18.3074 28.1838 18.8359L30.4739 22.8022L26.4889 25.103L24.1989 21.1367C23.8938 20.6082 23.8111 19.9802 23.969 19.3908C24.1269 18.8014 24.5125 18.2989 25.041 17.9938Z" fill="#FAF180"></path><path d="M26.1632 17.6855L26.1085 17.7158C25.8468 17.8669 25.6174 18.0681 25.4335 18.3079C25.2495 18.5476 25.1146 18.8213 25.0364 19.1132C24.9582 19.4051 24.9384 19.7096 24.9779 20.0092C25.0174 20.3088 25.1155 20.5977 25.2667 20.8594L27.4103 24.5703L26.4825 25.1064L24.1905 21.1357C23.9897 20.7875 23.8836 20.3926 23.8828 19.9906C23.8821 19.5885 23.9867 19.1933 24.1862 18.8442C24.3858 18.4952 24.6733 18.2046 25.0202 18.0013C25.3671 17.798 25.7612 17.6891 26.1632 17.6855Z" fill="#EADC5C"></path><path d="M49.0183 34.8371C49.0183 34.8371 42.9841 32.884 38.5076 25.134L38.4949 25.1115C37.9637 24.1905 37.2561 23.3832 36.4127 22.7358C35.5693 22.0884 34.6065 21.6135 33.5795 21.3385C32.5524 21.0634 31.4812 20.9934 30.4272 21.1326C29.3731 21.2718 28.3567 21.6174 27.4363 22.1496C26.516 22.6809 25.7094 23.3883 25.0625 24.2313C24.4156 25.0744 23.9411 26.0366 23.6662 27.0631C23.3912 28.0896 23.3211 29.1601 23.46 30.2137C23.5988 31.2672 23.9438 32.2831 24.4753 33.2033L24.533 33.3009C28.9509 41.0158 27.6375 47.1779 27.6375 47.1779L49.0183 34.8371Z" fill="#FFC943"></path><path d="M49.0215 34.8369L47.8633 35.5059C47.8633 35.5059 41.6953 33.3184 36.9648 25.1309L36.9512 25.1074C35.8522 23.1793 34.0635 21.7393 31.9453 21.0771C33.2868 21.152 34.5884 21.5601 35.7325 22.2644C36.8767 22.9688 37.8271 23.9473 38.498 25.1113L38.5107 25.1338C42.9824 32.8809 49.0215 34.8369 49.0215 34.8369Z" fill="#FAF180"></path><path d="M28.7939 21.5234C27.3613 22.7527 26.4032 24.4438 26.0852 26.3046C25.7673 28.1653 26.1095 30.0787 27.0527 31.7139L27.1104 31.8115C31.5283 39.5264 30.2139 45.6895 30.2139 45.6895L27.6367 47.1777C27.6367 47.1777 28.9502 41.0156 24.5322 33.3008L24.4756 33.2031C23.944 32.283 23.599 31.2672 23.4601 30.2137C23.3211 29.1602 23.3911 28.0896 23.666 27.0632C23.9408 26.0367 24.4152 25.0744 25.062 24.2313C25.7088 23.3882 26.5153 22.6808 27.4355 22.1494C27.8683 21.8998 28.323 21.6903 28.7939 21.5234Z" fill="#EB982C"></path><path d="M41.9712 47.3253C48.0914 43.7919 51.4196 38.0985 49.4048 34.609C47.3901 31.1194 40.7955 31.155 34.6753 34.6885C28.5551 38.222 25.227 43.9153 27.2417 47.4049C29.2564 50.8944 35.851 50.8588 41.9712 47.3253Z" fill="#FFAA39"></path><path d="M42.7161 46.875C42.4739 47.0273 42.2265 47.1764 41.9739 47.3223C35.8538 50.8564 29.259 50.8916 27.2444 47.4014C25.2297 43.9111 28.5579 38.2217 34.678 34.6855C34.9299 34.5397 35.1829 34.4001 35.4368 34.2666C31.385 36.9033 29.6633 41.5439 31.595 44.8896C33.5266 48.2354 38.4104 49.0713 42.7161 46.875Z" fill="#D98328"></path><path d="M41.0236 45.6874C38.6916 47.0341 36.1134 47.7675 33.9513 47.7001C32.3078 47.6483 31.0461 47.1327 30.5763 46.3192C30.1066 45.5057 30.2912 44.1551 31.0646 42.7059C32.0881 40.7997 34.0119 38.9344 36.3439 37.5878C38.6759 36.2411 41.2541 35.5077 43.4162 35.5751C45.0597 35.6258 46.3215 36.1424 46.7912 36.9559C47.2609 37.7694 47.0773 39.12 46.3029 40.5692C45.2804 42.4803 43.3556 44.3407 41.0236 45.6874Z" fill="#8E2F00"></path><path d="M43.8527 35.5999C42.147 35.9327 40.5097 36.551 39.0099 37.429C36.6769 38.7756 34.7531 40.6409 33.7306 42.5461C32.9494 43.9954 32.7697 45.3459 33.2424 46.1594C33.6701 46.9006 34.756 47.3948 36.1886 47.5149C35.4542 47.6556 34.7068 47.7175 33.9592 47.6995C32.3156 47.6477 31.0539 47.1321 30.5842 46.3186C30.1144 45.5051 30.299 44.1536 31.0724 42.7053C32.0939 40.7991 34.0187 38.9338 36.3459 37.5872C38.673 36.2405 41.256 35.5071 43.4181 35.5735C43.5705 35.5793 43.714 35.5881 43.8527 35.5999Z" fill="#682000"></path><path d="M41.0501 39.3555C41.0905 39.8218 41.0379 40.2915 40.8953 40.7373C40.7527 41.1832 40.523 41.5962 40.2194 41.9525C39.9159 42.3088 39.5446 42.6013 39.1271 42.8129C38.7096 43.0246 38.2543 43.1512 37.7874 43.1854C37.3206 43.2196 36.8517 43.1608 36.4078 43.0122C35.9639 42.8637 35.5539 42.6285 35.2017 42.3203C34.8494 42.012 34.5619 41.6369 34.3559 41.2166C34.1498 40.7963 34.0293 40.3393 34.0013 39.8721C33.986 39.6554 33.99 39.4377 34.013 39.2217C35.479 37.9948 37.147 37.0319 38.9427 36.376C39.5319 36.6337 40.0396 37.0474 40.411 37.5725C40.7824 38.0975 41.0034 38.714 41.0501 39.3555Z" fill="#EB982C"></path><path d="M41.0469 39.3552C41.0864 39.8795 41.0081 40.406 40.8177 40.896C40.6272 41.3861 40.3295 41.8273 39.9463 42.1873C39.8623 42.2019 39.7764 42.2117 39.6895 42.2185C38.9611 42.2719 38.2413 42.0337 37.6884 41.5563C37.1356 41.0789 36.7951 40.4015 36.7417 39.6731C36.6884 38.9447 36.9266 38.2249 37.4039 37.672C37.8813 37.1192 38.5587 36.7787 39.2871 36.7253C39.3741 36.7195 39.461 36.7175 39.5469 36.7195C39.9775 37.0194 40.3356 37.4116 40.5951 37.8677C40.8546 38.3237 41.009 38.8319 41.0469 39.3552Z" fill="#FFC943"></path><path d="M25.0437 18.0644C25.5746 18.3695 25.9625 18.873 26.1221 19.4641C26.2818 20.0552 26.2 20.6855 25.8949 21.2164L23.6049 25.2011L19.6016 22.9003L21.8916 18.9156C22.1967 18.3848 22.7002 17.9968 23.2913 17.8372C23.8824 17.6775 24.5128 17.7593 25.0437 18.0644H25.0437Z" fill="#FAF180"></path><path d="M25.7891 18.8195L25.7354 18.7873C25.207 18.4823 24.5791 18.3996 23.9898 18.5575C23.4004 18.7153 22.8979 19.1008 22.5928 19.6291L20.4443 23.34L19.5156 22.8039L21.8086 18.8332C22.0099 18.485 22.2989 18.1957 22.6468 17.994C22.9948 17.7923 23.3895 17.6853 23.7916 17.6836C24.1938 17.6819 24.5894 17.7857 24.939 17.9844C25.2886 18.1832 25.58 18.4701 25.7842 18.8166L25.7891 18.8195Z" fill="#EADC5C"></path><path d="M22.3584 47.1787C22.3584 47.1787 21.0342 40.9746 25.5059 33.2246L25.5186 33.2021C26.0497 32.2817 26.3944 31.2657 26.5329 30.2121C26.6714 29.1585 26.6009 28.088 26.3256 27.0616C26.0503 26.0352 25.5755 25.0732 24.9283 24.2303C24.2811 23.3875 23.4742 22.6804 22.5537 22.1494C20.6953 21.0766 18.4869 20.7858 16.4142 21.3411C14.3415 21.8963 12.5742 23.2521 11.501 25.1103L11.4434 25.208C6.97168 32.8935 0.976562 34.8369 0.976562 34.8369L22.3584 47.1787Z" fill="#FFC943"></path><path d="M22.3621 47.1787L21.2039 46.5098C21.2039 46.5098 20.0135 40.0742 24.7391 31.8838L24.7528 31.8604C25.8721 29.9452 26.2249 27.6773 25.7401 25.5127C26.3446 26.7122 26.6407 28.0434 26.6019 29.3861C26.563 30.7288 26.1903 32.0406 25.5174 33.2031L25.5047 33.2256C21.034 40.9746 22.3621 47.1787 22.3621 47.1787Z" fill="#FAF180"></path><path d="M23.7734 23.012C21.9926 22.3861 20.049 22.4021 18.2786 23.0572C16.5083 23.7123 15.0225 24.9654 14.0781 26.5999L14.0205 26.6975C9.54883 34.3821 3.55469 36.3284 3.55469 36.3284L0.976562 34.8401C0.976562 34.8401 6.97168 32.8968 11.4434 25.2132L11.5 25.1155C12.5726 23.2564 14.3397 21.8996 16.4126 21.3434C18.4856 20.7872 20.6946 21.0772 22.5537 22.1497C22.9858 22.3992 23.3941 22.6878 23.7734 23.012Z" fill="#EB982C"></path><path d="M22.7486 47.4062C24.7633 43.9166 21.4352 38.2233 15.315 34.6898C9.19479 31.1563 2.60016 31.1207 0.585449 34.6103C-1.42926 38.0999 1.89889 43.7932 8.01907 47.3267C14.1393 50.8601 20.7339 50.8958 22.7486 47.4062Z" fill="#FFAA39"></path><path d="M8.78152 47.7453C8.52859 47.6115 8.27468 47.4719 8.02273 47.3264C1.90261 43.7932 -1.42551 38.0998 0.587182 34.6096C2.59988 31.1193 9.19656 31.1564 15.3167 34.6896C15.5686 34.8348 15.816 34.9839 16.0589 35.1369C11.7532 32.9445 6.86941 33.7766 4.93875 37.1213C3.00808 40.466 4.73074 45.1174 8.78152 47.7453Z" fill="#D98328"></path><path d="M8.96439 45.6879C6.63724 44.3412 4.70853 42.4808 3.6851 40.5697C2.90385 39.1205 2.72416 37.7699 3.19681 36.9564C3.66947 36.1429 4.92826 35.6263 6.57181 35.5756C8.73392 35.5082 11.312 36.2416 13.6441 37.5882C15.9761 38.9349 17.8999 40.8002 18.9234 42.7064C19.7046 44.1547 19.8843 45.5052 19.4117 46.3197C18.939 47.1341 17.6802 47.6488 16.0367 47.7006C13.8745 47.7679 11.2964 47.0345 8.96439 45.6879Z" fill="#8E2F00"></path><path d="M19.1142 43.0898C17.9734 41.7792 16.6198 40.6702 15.1103 39.8096C12.7773 38.4629 10.2002 37.7285 8.03807 37.7969C6.39451 37.8476 5.13279 38.3642 4.66307 39.1777C4.23533 39.9189 4.34959 41.1064 4.96287 42.4072C4.47541 41.8416 4.04982 41.2254 3.69334 40.5693C2.91209 39.1201 2.73143 37.7695 3.20506 36.956C3.67869 36.1426 4.9365 35.626 6.58006 35.5752C8.74217 35.5068 11.3193 36.2412 13.6523 37.5879C15.9853 38.9346 17.9092 40.7998 18.9316 42.706C18.9941 42.8349 19.055 42.9629 19.1142 43.0898Z" fill="#682000"></path><path d="M14.456 42.54C14.0495 42.8146 13.5902 43.0015 13.1074 43.0889C12.6247 43.1762 12.129 43.162 11.652 43.0472C11.175 42.9325 10.7272 42.7196 10.337 42.4223C9.94675 42.1249 9.62274 41.7495 9.38558 41.3201C9.14842 40.8906 9.00329 40.4165 8.95945 39.9278C8.91561 39.4392 8.97401 38.9468 9.13093 38.482C9.28785 38.0171 9.53985 37.5901 9.87089 37.228C10.2019 36.8659 10.6047 36.5767 11.0537 36.3789C12.8498 37.0338 14.518 37.9968 15.9834 39.2246C16.0549 39.8639 15.9505 40.5107 15.6813 41.095C15.4121 41.6793 14.9885 42.179 14.456 42.54Z" fill="#EB982C"></path><path d="M14.4559 42.5404C14.0217 42.8362 13.5269 43.0311 13.0077 43.1111C12.4885 43.191 11.9579 43.1538 11.4549 43.0023C11.4002 42.9359 11.3485 42.8675 11.2987 42.7943C10.9046 42.1899 10.7634 41.4551 10.9055 40.7478C11.0475 40.0405 11.4615 39.4171 12.0583 39.0118C12.6552 38.6065 13.3872 38.4516 14.0971 38.5804C14.807 38.7092 15.4379 39.1114 15.8543 39.7005C15.9034 39.772 15.9487 39.846 15.9901 39.9222C15.9455 40.4453 15.7846 40.9519 15.5192 41.4049C15.2538 41.8578 14.8905 42.2458 14.4559 42.5404Z" fill="#FFC943"></path><path d="M21.7773 11.9072C18.3945 12.2773 16.9111 8.48926 16.9111 8.48926L16.4844 8.07422L16.0391 8.53223L16.3604 8.84473C12.9229 10.8057 9.48438 8.14551 9.48438 8.14551C9.48438 8.14551 12.2402 11.5078 10.375 14.999L10.0547 14.6865L9.60937 15.1445L10.0361 15.5596C10.0361 15.5596 13.8662 16.9355 13.5908 20.3291L12.9531 20.9844L13.3789 21.3965C13.3789 21.3965 18.8477 18.377 22.1035 20.4102C19.9795 17.209 22.8447 11.666 22.8447 11.666L22.418 11.251L21.7773 11.9072Z" fill="#00643D"></path><path d="M22.417 11.252C22.417 11.252 19.5518 16.7969 21.6787 19.9961C18.4189 17.9619 12.958 20.9814 12.958 20.9814C14.2441 16.8047 9.61426 15.1416 9.61426 15.1416C12.1221 11.46 9.0625 7.72754 9.0625 7.72754C9.0625 7.72754 12.8789 10.6807 16.4893 8.07129C16.4863 8.07129 18.2783 12.6533 22.417 11.252Z" fill="#00C477"></path><path d="M21.6787 19.9961C18.4189 17.9619 12.958 20.9814 12.958 20.9814C14.2441 16.8047 9.61426 15.1416 9.61426 15.1416C12.1221 11.46 9.0625 7.72754 9.0625 7.72754L21.6787 19.9961Z" fill="#008A55"></path><path d="M10.9219 9.54199C14.0999 12.1913 17.0707 15.0796 19.8086 18.1816C16.6306 15.5323 13.6597 12.644 10.9219 9.54199Z" fill="#007145"></path><path d="M36.5615 20.207C36.2393 16.8184 40.0508 15.3887 40.0508 15.3887L40.4717 14.9678L40.0195 14.5166L39.7031 14.833C37.7891 11.3691 40.498 7.96777 40.498 7.96777C40.498 7.96777 37.0967 10.6758 33.6328 8.7627L33.9492 8.44629L33.4941 7.99512L33.0732 8.41602C33.0732 8.41602 31.6436 12.2246 28.2549 11.9043L27.6084 11.2568L27.1875 11.6777C27.1875 11.6777 30.1299 17.1807 28.0508 20.4111C31.2812 18.332 36.7832 21.2744 36.7832 21.2744L37.2041 20.8535L36.5615 20.207Z" fill="#00643D"></path><path d="M37.2051 20.8535C37.2051 20.8535 31.7031 17.9111 28.4727 19.9902C30.5518 16.7598 27.6094 11.2568 27.6094 11.2568C31.7705 12.5977 33.4941 7.99512 33.4941 7.99512C37.1406 10.5537 40.916 7.54688 40.916 7.54688C40.916 7.54688 37.9092 11.3213 40.4688 14.9688C40.4717 14.9678 35.8643 16.6992 37.2051 20.8535Z" fill="#00C477"></path><path d="M28.4727 19.9902C30.5518 16.7598 27.6094 11.2568 27.6094 11.2568C31.7676 12.5977 33.4912 7.99512 33.4912 7.99512C37.1377 10.5537 40.9131 7.54688 40.9131 7.54688L28.4727 19.9902Z" fill="#008A55"></path><path d="M39.0742 9.3877C36.3813 12.5274 33.4522 15.4565 30.3125 18.1494C33.0052 15.0095 35.9343 12.0804 39.0742 9.3877Z" fill="#007145"></path><path d="M32.501 15.2197C29.1807 12.4785 31.3125 7.79102 31.3125 7.79102V7.03809H30.5049V7.60449C25.6943 6.2168 25.0752 0.75293 25.0752 0.75293C25.0752 0.75293 24.4551 6.22168 19.6465 7.60449V7.03809H18.8428V7.79102C18.8428 7.79102 20.9727 12.4785 17.6533 15.2197H16.4922V15.9736C16.4922 15.9736 24.0449 18.2627 25.0752 23.0117C26.1055 18.2627 33.6582 15.9736 33.6582 15.9736V15.2197H32.501Z" fill="#00643D"></path><path d="M33.6582 15.2197C33.6582 15.2197 26.1055 17.5098 25.0752 22.2588C24.0449 17.5098 16.4922 15.2197 16.4922 15.2197C21.4131 12.7031 18.8359 7.03809 18.8359 7.03809C24.3887 6.06543 25.0752 0 25.0752 0C25.0752 0 25.7588 6.06543 31.3125 7.03809C31.3125 7.03809 28.7373 12.7031 33.6582 15.2197Z" fill="#00C477"></path><path d="M25.0752 22.2588C24.0449 17.5098 16.4922 15.2197 16.4922 15.2197C21.4131 12.7031 18.8359 7.03809 18.8359 7.03809C24.3887 6.06543 25.0752 0 25.0752 0V22.2588Z" fill="#008A55"></path><path d="M25.0812 3.29199C25.4801 8.50899 25.4801 13.7488 25.0812 18.9658C24.6813 13.7489 24.6813 8.50895 25.0812 3.29199Z" fill="#007145"></path><path d="M34.1109 16.9395C30.8736 16.9395 28.4566 18.9639 26.9732 20.7109C26.7269 20.4292 26.4232 20.2034 26.0824 20.0487C25.7417 19.894 25.3718 19.8139 24.9976 19.8139C24.6234 19.8139 24.2535 19.894 23.9127 20.0487C23.572 20.2034 23.2683 20.4292 23.022 20.7109C21.5386 18.9648 19.1216 16.9404 15.8843 16.9404C9.49759 16.9404 9.75931 20.4805 9.75931 22.0674C9.75931 23.25 10.7574 26.5195 15.0474 26.5195C17.5113 26.5195 20.2515 25.9502 22.5953 24.6738C23.0972 25.5664 23.9849 26.1592 24.9976 26.1592C26.0103 26.1592 26.897 25.5664 27.3999 24.6738C29.7437 25.9502 32.4839 26.5195 34.9478 26.5195C39.2378 26.5195 40.2359 23.25 40.2359 22.0674C40.232 20.4795 40.4976 16.9395 34.1109 16.9395Z" fill="black" fill-opacity="0.188235"></path><path d="M25.2578 22.0088C25.2578 22.0088 28.4141 15.749 34.1074 15.749C40.4941 15.749 40.2324 19.2891 40.2324 20.876C40.2324 22.0586 39.2344 25.3281 34.9443 25.3281C31.6797 25.3281 27.9287 24.3291 25.2578 22.0088Z" fill="#EB2335"></path><path d="M37.6533 21.209C39.1367 21.7803 39.3135 23.8252 37.9346 24.6143C37.1836 25.0439 36.2061 25.3271 34.9434 25.3271C32.5859 25.3271 29.9766 24.8066 27.7031 23.6436C29.1992 22.1338 31.3555 20.6729 34.1064 20.6729C35.6387 20.6729 36.791 20.877 37.6533 21.209Z" fill="#C22026"></path><path d="M34.9463 24.668C32.8598 24.6707 30.7936 24.2594 28.8672 23.458C30.501 22.0469 32.2607 21.332 34.1094 21.332C35.3464 21.332 36.374 21.4694 37.1924 21.7441C38.2988 22.1162 38.4199 23.6562 37.3701 24.168C36.752 24.4697 35.96 24.668 34.9463 24.668Z" fill="#7D121C"></path><path d="M24.7339 22.0088C24.7339 22.0088 21.5777 15.749 15.8843 15.749C9.49759 15.749 9.75931 19.2891 9.75931 20.876C9.75931 22.0586 10.7574 25.3281 15.0474 25.3281C18.312 25.3281 22.0679 24.3291 24.7339 22.0088Z" fill="#EB2335"></path><path d="M12.338 21.209C10.8546 21.7803 10.6779 23.8252 12.0568 24.6143C12.8078 25.0439 13.7853 25.3271 15.048 25.3271C17.4054 25.3271 20.0148 24.8066 22.2882 23.6436C20.7921 22.1338 18.6359 20.6729 15.8849 20.6729C14.3527 20.6729 13.2003 20.877 12.338 21.209Z" fill="#C22026"></path><path d="M15.0459 24.668C17.1323 24.6707 19.1986 24.2594 21.125 23.458C19.4912 22.0469 17.7314 21.332 15.8828 21.332C14.6458 21.332 13.6181 21.4694 12.7998 21.7441C11.6933 22.1162 11.5722 23.6562 12.622 24.168C13.2402 24.4697 14.0322 24.668 15.0459 24.668Z" fill="#7D121C"></path><path d="M25.001 24.9668C26.5678 24.9668 27.8379 23.5467 27.8379 21.7949C27.8379 20.0431 26.5678 18.623 25.001 18.623C23.4342 18.623 22.1641 20.0431 22.1641 21.7949C22.1641 23.5467 23.4342 24.9668 25.001 24.9668Z" fill="#FAF180"></path><path d="M27.834 21.7939C27.834 23.5518 26.5645 24.9687 24.9971 24.9687C23.4297 24.9687 22.1641 23.5469 22.1641 21.7939C22.1641 21.67 22.1707 21.5461 22.1836 21.4229C22.3477 23.001 23.5508 24.2236 25.002 24.2236C26.4531 24.2236 27.6553 23.001 27.8193 21.4229C27.8306 21.5462 27.8355 21.6701 27.834 21.7939Z" fill="#EB982C"></path></svg>